<svg width="28" height="27" viewBox="0 0 28 27" fill="none" xmlns="http://www.w3.org/2000/svg">
<rect x="0.0449219" width="27" height="27" rx="13.5" fill="#FF4F0D"/>
<path d="M10.0443 19V17.256C10.391 16.9947 10.8016 16.672 11.2763 16.288C11.751 15.8987 12.239 15.48 12.7403 15.032C13.2416 14.5787 13.7056 14.1253 14.1323 13.672C14.559 13.2187 14.9056 12.7867 15.1723 12.376C15.4443 11.9653 15.5803 11.6133 15.5803 11.32C15.5803 10.9947 15.5003 10.6987 15.3403 10.432C15.1803 10.16 14.967 9.944 14.7003 9.784C14.439 9.624 14.1456 9.544 13.8203 9.544C13.495 9.544 13.199 9.624 12.9323 9.784C12.6656 9.944 12.4523 10.16 12.2923 10.432C12.1323 10.6987 12.0523 10.9947 12.0523 11.32H10.1003C10.1003 10.616 10.271 9.984 10.6123 9.424C10.9536 8.85867 11.4043 8.41333 11.9643 8.088C12.5296 7.75733 13.1483 7.592 13.8203 7.592C14.503 7.592 15.1243 7.76 15.6843 8.096C16.2443 8.42667 16.6923 8.87467 17.0283 9.44C17.3643 10.0053 17.5323 10.632 17.5323 11.32C17.5323 11.6827 17.4656 12.048 17.3323 12.416C17.199 12.784 17.0123 13.1547 16.7723 13.528C16.5323 13.9013 16.2496 14.28 15.9243 14.664C15.599 15.0427 15.239 15.432 14.8443 15.832C14.455 16.2267 14.0443 16.632 13.6123 17.048H17.5883V19H10.0443Z" fill="white"/>
</svg>
