<svg width="28" height="27" viewBox="0 0 28 27" fill="none" xmlns="http://www.w3.org/2000/svg">
<rect x="0.0449219" width="27" height="27" rx="13.5" fill="#FF4F0D"/>
<path d="M13.9454 19.208C13.2681 19.208 12.6574 19.048 12.1134 18.728C11.5694 18.408 11.1374 17.9787 10.8174 17.44C10.4974 16.896 10.3374 16.2933 10.3374 15.632H12.2894C12.2894 15.9307 12.3588 16.2027 12.4974 16.448C12.6414 16.6933 12.8388 16.8907 13.0894 17.04C13.3401 17.184 13.6254 17.256 13.9454 17.256C14.2388 17.256 14.5108 17.184 14.7614 17.04C15.0174 16.8907 15.2228 16.6933 15.3774 16.448C15.5321 16.2027 15.6094 15.9307 15.6094 15.632C15.6094 15.2427 15.5054 14.92 15.2974 14.664C15.0894 14.4027 14.7988 14.208 14.4254 14.08C14.0574 13.952 13.6281 13.888 13.1374 13.888V12.384C13.7988 12.384 14.3214 12.2587 14.7054 12.008C15.0948 11.7573 15.2894 11.3893 15.2894 10.904C15.2894 10.6533 15.2254 10.424 15.0974 10.216C14.9694 10.008 14.7988 9.84267 14.5854 9.72C14.3774 9.592 14.1481 9.528 13.8974 9.528C13.6414 9.528 13.3934 9.592 13.1534 9.72C12.9134 9.84267 12.7161 10.008 12.5614 10.216C12.4121 10.424 12.3374 10.6533 12.3374 10.904H10.3854C10.3854 10.4453 10.4788 10.016 10.6654 9.616C10.8521 9.21067 11.1081 8.856 11.4334 8.552C11.7641 8.248 12.1374 8.01067 12.5534 7.84C12.9748 7.664 13.4148 7.576 13.8734 7.576C14.4761 7.576 15.0334 7.72533 15.5454 8.024C16.0574 8.32267 16.4681 8.72267 16.7774 9.224C17.0868 9.72533 17.2414 10.2853 17.2414 10.904C17.2414 11.336 17.1401 11.76 16.9374 12.176C16.7348 12.592 16.4468 12.8853 16.0734 13.056C16.3988 13.1733 16.6708 13.3707 16.8894 13.648C17.1081 13.92 17.2734 14.232 17.3854 14.584C17.5028 14.9307 17.5614 15.28 17.5614 15.632C17.5614 16.288 17.3961 16.888 17.0654 17.432C16.7348 17.9707 16.2948 18.4027 15.7454 18.728C15.2014 19.048 14.6014 19.208 13.9454 19.208Z" fill="white"/>
</svg>
