<svg width="28" height="27" viewBox="0 0 28 27" fill="none" xmlns="http://www.w3.org/2000/svg">
<rect x="0.0449219" width="27" height="27" rx="13.5" fill="#FF4F0D"/>
<path d="M13.7574 19.208C13.0374 19.208 12.3868 19.0347 11.8054 18.688C11.2241 18.336 10.7628 17.8693 10.4214 17.288C10.0854 16.7067 9.91742 16.0693 9.91742 15.376H11.8694C11.8694 15.7227 11.9548 16.04 12.1254 16.328C12.2961 16.6107 12.5228 16.8373 12.8054 17.008C13.0934 17.1733 13.4108 17.256 13.7574 17.256C14.1041 17.256 14.4188 17.1733 14.7014 17.008C14.9841 16.8373 15.2108 16.6107 15.3814 16.328C15.5521 16.04 15.6374 15.7227 15.6374 15.376C15.6374 15.0293 15.5628 14.712 15.4134 14.424C15.2694 14.1307 15.0321 13.8987 14.7014 13.728C14.3761 13.552 13.9441 13.464 13.4054 13.464H10.5254L11.7094 7.8H17.2134V9.752H13.2934L12.9334 11.512L13.7254 11.52C14.4828 11.5467 15.1521 11.7307 15.7334 12.072C16.3148 12.4133 16.7681 12.872 17.0934 13.448C17.4241 14.0187 17.5894 14.6613 17.5894 15.376C17.5894 15.8987 17.4908 16.392 17.2934 16.856C17.0961 17.32 16.8214 17.728 16.4694 18.08C16.1174 18.432 15.7094 18.7093 15.2454 18.912C14.7868 19.1093 14.2908 19.208 13.7574 19.208Z" fill="white"/>
</svg>
