<svg width="84" height="84" viewBox="0 0 84 84" fill="none" xmlns="http://www.w3.org/2000/svg">
<g clip-path="url(#clip0_515_6575)">
<path d="M67.859 14.4097H16.0293V61.548H67.859V14.4097Z" fill="white"/>
<path fill-rule="evenodd" clip-rule="evenodd" d="M83.9162 42.0001C83.9162 65.1654 65.1374 83.9442 41.9721 83.9442C18.807 83.9442 0.0279236 65.1654 0.0279236 42.0001C0.0279236 18.8349 18.807 0.0559082 41.9721 0.0559082C65.1374 0.0559082 83.9162 18.8349 83.9162 42.0001ZM30.0863 58.6917H21.9461C20.2356 58.6917 19.3907 58.6917 18.8755 58.3622C18.3191 58.0014 17.9791 57.4038 17.9379 56.7442C17.9069 56.1365 18.3294 55.3944 19.1743 53.9106L39.2735 18.4831C40.1287 16.9787 40.5614 16.2265 41.1076 15.9483C41.6949 15.6495 42.3956 15.6495 42.9829 15.9483C43.529 16.2265 43.9618 16.9787 44.817 18.4831L48.949 25.696L48.97 25.7328C49.8938 27.3467 50.3622 28.1651 50.5667 29.0241C50.7934 29.9618 50.7934 30.951 50.5667 31.8887C50.3606 32.7542 49.8969 33.5786 48.9593 35.2169L38.4017 53.8797L38.3744 53.9275C37.4446 55.5547 36.9734 56.3795 36.3203 57.0016C35.6093 57.6819 34.754 58.1762 33.8164 58.4549C32.9611 58.6917 32.0029 58.6917 30.0863 58.6917ZM50.643 58.6917H62.3069C64.0277 58.6917 64.8933 58.6917 65.4089 58.3521C65.9651 57.9913 66.3153 57.3831 66.3466 56.7241C66.3762 56.136 65.9629 55.4227 65.1531 54.0252C65.1251 53.9776 65.0972 53.9292 65.0687 53.8799L59.2261 43.885L59.1597 43.7725C58.3387 42.3841 57.9243 41.683 57.392 41.4121C56.805 41.1132 56.1141 41.1132 55.5271 41.4121C54.9912 41.6902 54.5585 42.4218 53.7033 43.8953L47.8815 53.8902L47.8615 53.9246C47.0093 55.3958 46.5834 56.1309 46.6141 56.7341C46.6553 57.3937 46.9953 58.0014 47.5517 58.3622C48.0567 58.6917 48.9222 58.6917 50.643 58.6917Z" fill="#E84142"/>
</g>
<defs>
<clipPath id="clip0_515_6575">
<rect width="83.9441" height="84" fill="white"/>
</clipPath>
</defs>
</svg>
