<svg width="38" height="38" viewBox="0 0 38 38" fill="none" xmlns="http://www.w3.org/2000/svg">
<circle cx="19" cy="19" r="18.5" fill="white" stroke="url(#paint0_radial_137_1078)"/>
<g clip-path="url(#clip0_137_1078)">
<path fill-rule="evenodd" clip-rule="evenodd" d="M7.61626 15.592C7.66376 15.6071 7.71126 15.6071 7.7746 15.6222C7.80626 15.6222 7.83793 15.6523 7.83793 15.6825C7.85376 15.7428 7.88543 15.8031 7.90126 15.8785C7.9171 15.9087 7.90126 15.9388 7.8696 15.9238C7.8221 15.9087 7.7746 15.9087 7.7271 15.8936C7.69543 15.8936 7.6796 15.8635 7.66376 15.8333C7.64793 15.773 7.61626 15.6976 7.60043 15.6373C7.5846 15.6071 7.60043 15.5769 7.61626 15.592Z" fill="black"/>
<path fill-rule="evenodd" clip-rule="evenodd" d="M7.79044 15.2754C7.83794 15.2904 7.90128 15.3055 7.94878 15.3206C7.98044 15.3206 8.01211 15.3658 8.01211 15.396C8.02794 15.4412 8.05961 15.5015 8.07544 15.5619C8.09128 15.592 8.07544 15.6071 8.04378 15.6071C7.99628 15.592 7.94877 15.5769 7.88544 15.5769C7.85377 15.5769 7.82211 15.5468 7.82211 15.5015C7.80627 15.4412 7.77461 15.3809 7.75877 15.3055C7.74294 15.2904 7.75878 15.2603 7.79044 15.2754Z" fill="black"/>
<path fill-rule="evenodd" clip-rule="evenodd" d="M8.09124 15.3508C8.13874 15.3658 8.20207 15.3809 8.24957 15.396C8.28124 15.4111 8.31291 15.4412 8.31291 15.4714C8.34457 15.5317 8.36041 15.592 8.39207 15.6524C8.40791 15.6825 8.39207 15.6976 8.36041 15.6976C8.31291 15.6825 8.24957 15.6674 8.20207 15.6524C8.17041 15.6524 8.13874 15.6071 8.13874 15.577C8.12291 15.5166 8.09124 15.4563 8.07541 15.396C8.05957 15.3658 8.07541 15.3508 8.09124 15.3508Z" fill="black"/>
<path fill-rule="evenodd" clip-rule="evenodd" d="M9.04119 15.6825C9.08869 15.6976 9.15202 15.7277 9.19952 15.7579C9.23119 15.773 9.26286 15.8031 9.26286 15.8333C9.27869 15.8936 9.29452 15.9388 9.32619 15.9992C9.34202 16.0293 9.32619 16.0444 9.29452 16.0293C9.24702 15.9992 9.18369 15.9841 9.13619 15.969C9.10452 15.9539 9.07285 15.9238 9.07285 15.8936C9.05702 15.8333 9.04119 15.7881 9.00952 15.7277C9.00952 15.6825 9.02535 15.6825 9.04119 15.6825Z" fill="black"/>
<path fill-rule="evenodd" clip-rule="evenodd" d="M7.91705 15.6523C7.96455 15.6674 8.01205 15.6674 8.07538 15.6825C8.10705 15.6825 8.13871 15.7126 8.13871 15.7579C8.15455 15.8182 8.18621 15.8785 8.20205 15.9388C8.21788 15.969 8.20205 15.9841 8.17038 15.9841C8.12288 15.969 8.07538 15.9539 8.02788 15.9539C7.99621 15.9539 7.98038 15.9238 7.96455 15.8936C7.94871 15.8333 7.91705 15.773 7.90121 15.6976C7.88538 15.6674 7.90121 15.6372 7.91705 15.6523Z" fill="black"/>
<path fill-rule="evenodd" clip-rule="evenodd" d="M8.21795 15.7277C8.26545 15.7428 8.32878 15.7579 8.37628 15.773C8.40795 15.773 8.43961 15.8031 8.43961 15.8333C8.45545 15.8936 8.48711 15.9539 8.50295 16.0142C8.51878 16.0444 8.50295 16.0595 8.47128 16.0595C8.42378 16.0444 8.36045 16.0293 8.31295 16.0293C8.28128 16.0293 8.24961 15.9992 8.24961 15.969C8.23378 15.9087 8.20211 15.8484 8.18628 15.788C8.18628 15.7277 8.20211 15.7126 8.21795 15.7277Z" fill="black"/>
<path fill-rule="evenodd" clip-rule="evenodd" d="M8.53458 15.8031C8.58208 15.8182 8.64542 15.8333 8.69292 15.8483C8.72458 15.8634 8.75625 15.8936 8.75625 15.9237C8.77208 15.9841 8.80375 16.0444 8.81958 16.0896C8.83542 16.1198 8.81958 16.1348 8.78792 16.1198C8.74042 16.1047 8.67708 16.0896 8.62958 16.0745C8.59792 16.0745 8.56625 16.0444 8.56625 16.0142C8.55042 15.9539 8.51875 15.8936 8.50292 15.8333C8.48708 15.8182 8.50292 15.8031 8.53458 15.8031Z" fill="black"/>
<path fill-rule="evenodd" clip-rule="evenodd" d="M8.85123 15.9087C8.89873 15.9238 8.96207 15.9388 9.00957 15.969C9.04123 15.9841 9.0729 16.0142 9.0729 16.0444C9.08873 16.1047 9.10457 16.15 9.13623 16.2103C9.15207 16.2404 9.13623 16.2555 9.10457 16.2404C9.05707 16.2254 8.99373 16.2103 8.94623 16.1801C8.91457 16.165 8.8829 16.1349 8.8829 16.1047C8.86707 16.0444 8.8354 15.9841 8.81957 15.9388C8.80373 15.9087 8.81957 15.8936 8.85123 15.9087Z" fill="black"/>
<path fill-rule="evenodd" clip-rule="evenodd" d="M9.16788 16.0293C9.21538 16.0444 9.27872 16.0745 9.32622 16.0896C9.35788 16.1047 9.38955 16.1348 9.38955 16.165C9.40538 16.2253 9.42122 16.2706 9.45288 16.3309C9.46872 16.361 9.45288 16.3761 9.42122 16.361C9.37372 16.3309 9.31038 16.3158 9.26288 16.3007C9.23122 16.2856 9.19955 16.2555 9.19955 16.2253C9.18372 16.165 9.16788 16.1198 9.13622 16.0595C9.12038 16.0293 9.13622 16.0142 9.16788 16.0293Z" fill="black"/>
<path fill-rule="evenodd" clip-rule="evenodd" d="M8.66129 16.165C8.70879 16.1801 8.77212 16.1952 8.81962 16.2103C8.85129 16.2254 8.88296 16.2555 8.88296 16.2706C8.89879 16.3309 8.93046 16.3912 8.94629 16.4365C8.96212 16.4666 8.94629 16.4817 8.91462 16.4817C8.86712 16.4666 8.80379 16.4515 8.75629 16.4365C8.72462 16.4365 8.69296 16.4063 8.69296 16.3761C8.67712 16.3158 8.64546 16.2555 8.62962 16.1952C8.61379 16.165 8.62962 16.15 8.66129 16.165Z" fill="black"/>
<path fill-rule="evenodd" clip-rule="evenodd" d="M8.96209 16.2555C9.00959 16.2706 9.07292 16.2857 9.12042 16.3158C9.15209 16.3309 9.18375 16.3611 9.18375 16.3912C9.19959 16.4515 9.23125 16.4968 9.24709 16.5571C9.26292 16.5872 9.24709 16.6023 9.21542 16.5872C9.16792 16.5722 9.10459 16.5571 9.05709 16.542C9.02542 16.5269 8.99375 16.4968 8.99375 16.4817C8.97792 16.4214 8.94625 16.3611 8.93042 16.3158C8.93042 16.2555 8.94625 16.2404 8.96209 16.2555Z" fill="black"/>
<path fill-rule="evenodd" clip-rule="evenodd" d="M8.48707 16.4515C8.53457 16.4666 8.58207 16.4666 8.64541 16.4817C8.67707 16.4817 8.70874 16.5119 8.70874 16.542C8.72457 16.6023 8.75624 16.6626 8.77207 16.723C8.78791 16.7531 8.77207 16.7682 8.74041 16.7682C8.69291 16.7531 8.64541 16.7531 8.59791 16.738C8.56624 16.738 8.55041 16.7079 8.53457 16.6777C8.51874 16.6174 8.48707 16.5571 8.47124 16.4968C8.43957 16.4666 8.45541 16.4515 8.48707 16.4515Z" fill="black"/>
<path fill-rule="evenodd" clip-rule="evenodd" d="M8.78788 16.5118C8.83538 16.5269 8.89871 16.542 8.94621 16.5571C8.97788 16.5571 9.00954 16.5872 9.00954 16.6174C9.02538 16.6777 9.05704 16.738 9.07288 16.7833C9.08871 16.8134 9.07288 16.8285 9.04121 16.8285C8.99371 16.8134 8.93038 16.7983 8.88288 16.7983C8.85121 16.7983 8.81954 16.7682 8.81954 16.738C8.80371 16.6777 8.77204 16.6174 8.75621 16.5571C8.74038 16.5269 8.75621 16.5118 8.78788 16.5118Z" fill="black"/>
<path fill-rule="evenodd" clip-rule="evenodd" d="M9.0888 16.6023C9.1363 16.6174 9.19963 16.6325 9.24713 16.6476C9.2788 16.6627 9.31046 16.6928 9.31046 16.723C9.3263 16.7833 9.35796 16.8285 9.3738 16.8888C9.38963 16.919 9.3738 16.9341 9.34213 16.919C9.29463 16.9039 9.2313 16.8888 9.1838 16.8738C9.15213 16.8587 9.12046 16.8436 9.12046 16.8134C9.10463 16.7531 9.07296 16.6928 9.05713 16.6476C9.05713 16.6023 9.05713 16.5873 9.0888 16.6023Z" fill="black"/>
<path fill-rule="evenodd" clip-rule="evenodd" d="M9.40543 16.7079C9.45293 16.723 9.51627 16.7531 9.56377 16.7682C9.59543 16.7833 9.6271 16.8134 9.6271 16.8436C9.64293 16.9039 9.65877 16.9492 9.69043 17.0095C9.70627 17.0396 9.69043 17.0547 9.65877 17.0396C9.61127 17.0245 9.54793 16.9944 9.50043 16.9793C9.46877 16.9642 9.4371 16.9341 9.4371 16.9039C9.42126 16.8436 9.40543 16.7984 9.37377 16.738C9.35793 16.7079 9.37377 16.6928 9.40543 16.7079Z" fill="black"/>
<path fill-rule="evenodd" clip-rule="evenodd" d="M9.40543 15.8483C9.46877 15.8785 9.51627 15.9087 9.5796 15.9388C9.61127 15.9539 9.64293 15.9991 9.65877 16.0142C9.6746 16.0745 9.69043 16.1198 9.7221 16.1801C9.73793 16.2103 9.7221 16.2103 9.69043 16.1952C9.61127 16.165 9.54793 16.1349 9.50043 16.1047C9.46877 16.0896 9.4371 16.0595 9.4371 16.0293C9.42126 15.969 9.40543 15.9237 9.37377 15.8634C9.35793 15.8483 9.37377 15.8333 9.40543 15.8483Z" fill="black"/>
<path fill-rule="evenodd" clip-rule="evenodd" d="M9.51627 16.1801C9.5796 16.2103 9.6271 16.2404 9.69044 16.2555C9.7221 16.2706 9.75377 16.3158 9.7696 16.3309C9.78544 16.3912 9.80127 16.4365 9.83294 16.4968C9.84877 16.5269 9.83294 16.5269 9.80127 16.5119C9.73794 16.4817 9.69044 16.4515 9.6271 16.4365C9.59544 16.4214 9.56377 16.3912 9.56377 16.3611C9.51627 16.3158 9.50044 16.2555 9.48461 16.2103C9.46877 16.1801 9.4846 16.165 9.51627 16.1801Z" fill="black"/>
<path fill-rule="evenodd" clip-rule="evenodd" d="M9.62713 16.5119C9.69046 16.542 9.73796 16.5571 9.8013 16.5873C9.83296 16.6023 9.86463 16.6325 9.88046 16.6627C9.8963 16.723 9.91213 16.7682 9.9438 16.8285C9.95963 16.8587 9.9438 16.8587 9.91213 16.8436C9.8488 16.8134 9.8013 16.7833 9.73796 16.7682C9.70629 16.7531 9.67463 16.723 9.67463 16.6928C9.65879 16.6325 9.64296 16.5873 9.61129 16.5269C9.59546 16.5119 9.61129 16.4968 9.62713 16.5119Z" fill="black"/>
<path fill-rule="evenodd" clip-rule="evenodd" d="M9.7538 16.8436C9.81713 16.8737 9.86463 16.8888 9.92796 16.919C9.95963 16.9341 9.9913 16.9642 10.0071 16.9944C10.023 17.0547 10.0388 17.0999 10.0705 17.1603C10.0863 17.1904 10.0705 17.1904 10.0388 17.1753C9.97546 17.1452 9.92796 17.1301 9.86463 17.0999C9.83296 17.0849 9.8013 17.0547 9.8013 17.0245C9.78546 16.9642 9.76963 16.919 9.73796 16.8587C9.7063 16.8436 9.72213 16.8285 9.7538 16.8436Z" fill="black"/>
<path fill-rule="evenodd" clip-rule="evenodd" d="M9.73795 16.0293C9.80128 16.0595 9.86462 16.1047 9.91212 16.1349C9.94378 16.15 9.97545 16.1952 9.99128 16.2254C10.0071 16.2857 10.023 16.3309 10.0546 16.3912C10.0705 16.4214 10.0546 16.4214 10.023 16.4063C9.95962 16.3611 9.89629 16.3309 9.84879 16.3008C9.81712 16.2857 9.78545 16.2405 9.76962 16.2254C9.75379 16.1651 9.73795 16.1198 9.70628 16.0595C9.69045 16.0143 9.70628 16.0143 9.73795 16.0293Z" fill="black"/>
<path fill-rule="evenodd" clip-rule="evenodd" d="M10.1021 16.2555C10.1654 16.3007 10.2287 16.3611 10.2921 16.4063C10.3237 16.4365 10.3554 16.4817 10.3712 16.4968C10.3871 16.542 10.4029 16.6023 10.4346 16.6627C10.4504 16.6928 10.4187 16.6928 10.3871 16.6627C10.3237 16.6174 10.2604 16.5571 10.1971 16.5119C10.1654 16.4817 10.1337 16.4515 10.1179 16.4214C10.1021 16.3611 10.0862 16.3158 10.0546 16.2555C10.0546 16.2404 10.0704 16.2254 10.1021 16.2555Z" fill="black"/>
<path fill-rule="evenodd" clip-rule="evenodd" d="M10.4979 16.5873C10.5771 16.6627 10.6562 16.7531 10.7512 16.8738C10.7987 16.9341 11.1946 18.065 11.1946 18.065C11.1946 18.065 10.8621 17.1603 10.8304 17.115C10.7512 17.0095 10.6562 16.919 10.5929 16.8436C10.5612 16.8135 10.5296 16.7682 10.5137 16.7381C10.4979 16.6928 10.4821 16.6325 10.4662 16.5873C10.4346 16.542 10.4662 16.5571 10.4979 16.5873Z" fill="black"/>
<path fill-rule="evenodd" clip-rule="evenodd" d="M10.2129 16.5722C10.2762 16.6174 10.3396 16.6626 10.4029 16.723C10.4346 16.7531 10.4662 16.7984 10.4821 16.8134C10.4979 16.8737 10.5137 16.919 10.5454 16.9793C10.5612 17.0095 10.5296 17.0095 10.4979 16.9793C10.4346 16.9341 10.3712 16.8737 10.3079 16.8285C10.2762 16.8134 10.2446 16.7682 10.2287 16.738C10.2129 16.6777 10.1971 16.6325 10.1654 16.5722C10.1654 16.5571 10.1812 16.5571 10.2129 16.5722Z" fill="black"/>
<path fill-rule="evenodd" clip-rule="evenodd" d="M10.6087 16.9039C10.6879 16.9793 10.7671 17.0698 10.8462 17.1753C10.8937 17.2206 11.1946 18.065 11.1946 18.065C11.1946 18.065 10.9729 17.4468 10.9254 17.4015C10.8462 17.3111 10.7671 17.2206 10.6879 17.1603C10.6562 17.1301 10.6246 17.0849 10.6087 17.0547C10.5929 16.9944 10.5771 16.9492 10.5612 16.9039C10.5454 16.8587 10.5771 16.8738 10.6087 16.9039Z" fill="black"/>
<path fill-rule="evenodd" clip-rule="evenodd" d="M9.97535 16.6777C10.0387 16.7079 10.0862 16.7531 10.1495 16.7833C10.1812 16.7984 10.2129 16.8436 10.2287 16.8738C10.2445 16.9341 10.2604 16.9793 10.292 17.0396C10.3079 17.0698 10.292 17.0698 10.2604 17.0547C10.197 17.0246 10.1337 16.9793 10.0862 16.9492C10.0545 16.9341 10.0229 16.9039 10.0229 16.8738C10.007 16.8134 9.99119 16.7682 9.95952 16.7079C9.92786 16.6777 9.94369 16.6627 9.97535 16.6777Z" fill="black"/>
<path fill-rule="evenodd" clip-rule="evenodd" d="M10.3237 16.904C10.3871 16.9492 10.4504 16.9944 10.5137 17.0547C10.5454 17.0849 10.5771 17.1301 10.5929 17.1452C10.6087 17.2055 10.6246 17.2508 10.6562 17.3111C10.6721 17.3413 10.6404 17.3413 10.6087 17.3111C10.5454 17.2659 10.4821 17.2206 10.4187 17.1754C10.3871 17.1603 10.3554 17.1151 10.3396 17.0849C10.3237 17.0246 10.3079 16.9793 10.2762 16.919C10.2762 16.8889 10.2921 16.8738 10.3237 16.904Z" fill="black"/>
<path fill-rule="evenodd" clip-rule="evenodd" d="M10.7196 17.2206C10.7988 17.2809 10.8779 17.3714 10.9571 17.4618C11.0046 17.5071 11.2104 18.065 11.2104 18.065C11.2104 18.065 11.0838 17.7483 11.0363 17.7031C10.9571 17.6126 10.8779 17.5372 10.8146 17.4769C10.7829 17.4468 10.7513 17.4015 10.7354 17.3714C10.7196 17.3261 10.7038 17.2658 10.6879 17.2206C10.6563 17.1753 10.6879 17.1904 10.7196 17.2206Z" fill="black"/>
<path fill-rule="evenodd" clip-rule="evenodd" d="M10.0862 17.0095C10.1495 17.0396 10.197 17.0849 10.2604 17.115C10.292 17.1301 10.3237 17.1753 10.3395 17.2055C10.3554 17.2658 10.3712 17.311 10.4029 17.3714C10.4187 17.4015 10.4029 17.4015 10.3712 17.3864C10.3079 17.3563 10.2445 17.311 10.197 17.2809C10.1654 17.2658 10.1337 17.2356 10.1337 17.2055C10.1179 17.1452 10.102 17.0999 10.0704 17.0396C10.0387 17.0095 10.0545 16.9944 10.0862 17.0095Z" fill="black"/>
<path fill-rule="evenodd" clip-rule="evenodd" d="M10.4504 17.2357C10.5137 17.2809 10.5771 17.3262 10.6404 17.3714C10.6721 17.4015 10.7037 17.4468 10.7196 17.4619C10.7354 17.5222 10.7512 17.5674 10.7829 17.6277C10.7987 17.6579 10.7671 17.6579 10.7354 17.6277C10.6721 17.5825 10.6087 17.5373 10.5454 17.492C10.5137 17.4769 10.4821 17.4317 10.4662 17.4015C10.4504 17.3412 10.4346 17.296 10.4029 17.2357C10.3871 17.2206 10.4187 17.2055 10.4504 17.2357Z" fill="black"/>
<path fill-rule="evenodd" clip-rule="evenodd" d="M10.8304 17.5222C10.9096 17.5825 10.9729 17.6579 11.0521 17.7484C11.0837 17.7936 11.1946 18.05 11.1946 18.05C11.1946 18.05 11.1629 18.0198 11.1312 17.9746C11.0521 17.8992 10.9887 17.8238 10.9096 17.7635C10.8779 17.7333 10.8462 17.6881 10.8304 17.673C10.8146 17.6277 10.7987 17.5674 10.7829 17.5222C10.7671 17.492 10.7987 17.492 10.8304 17.5222Z" fill="black"/>
<path fill-rule="evenodd" clip-rule="evenodd" d="M10.4029 21.4579C10.4504 21.4127 10.4979 21.3825 10.5454 21.3373C10.5612 21.3222 10.5612 21.292 10.5454 21.277C10.4979 21.2317 10.4662 21.1865 10.4187 21.1563C10.4029 21.1412 10.387 21.1412 10.3554 21.1563C10.3079 21.2016 10.2604 21.2317 10.2129 21.2619C10.197 21.277 10.197 21.292 10.2129 21.3071C10.2604 21.3524 10.292 21.3976 10.3395 21.4428C10.3712 21.473 10.387 21.473 10.4029 21.4579ZM9.97536 20.5381C10.0229 20.4928 10.0704 20.4627 10.1179 20.4174C10.1337 20.4024 10.1337 20.3722 10.1179 20.3571C10.0862 20.3119 10.0387 20.2817 10.007 20.2365C9.9912 20.2214 9.97536 20.2214 9.95953 20.2365C9.91203 20.2666 9.86453 20.3119 9.81703 20.342C9.8012 20.3571 9.8012 20.3722 9.81703 20.3873C9.86453 20.4325 9.8962 20.4778 9.9437 20.5079C9.9437 20.5532 9.95953 20.5532 9.97536 20.5381ZM10.2287 20.3119C10.2762 20.2666 10.3079 20.2214 10.3554 20.1912C10.3712 20.1762 10.3712 20.146 10.3554 20.1309C10.3237 20.0857 10.2762 20.0555 10.2445 20.0103C10.2287 19.9952 10.2129 19.9952 10.197 20.0103C10.1495 20.0555 10.1179 20.0857 10.0704 20.1309C10.0545 20.146 10.0545 20.1611 10.0704 20.1762C10.102 20.2214 10.1495 20.2516 10.1812 20.2968C10.197 20.327 10.2129 20.327 10.2287 20.3119ZM10.4662 20.0706C10.5137 20.0254 10.5454 19.9801 10.577 19.9349C10.5929 19.9198 10.5929 19.8897 10.577 19.8746C10.5454 19.8444 10.5137 19.7992 10.4662 19.769C10.4504 19.7539 10.4345 19.7539 10.4187 19.769C10.3712 19.8143 10.3395 19.8595 10.292 19.9047C10.2762 19.9198 10.2762 19.95 10.292 19.9651C10.3237 20.0103 10.3712 20.0405 10.4029 20.0857C10.4345 20.1008 10.4504 20.0857 10.4662 20.0706ZM10.6879 19.8143C10.7195 19.769 10.7512 19.7238 10.7987 19.6635C10.8145 19.6484 10.8145 19.6182 10.7987 19.6032C10.767 19.573 10.7354 19.5428 10.7037 19.4976C10.6879 19.4825 10.672 19.4825 10.6562 19.5127C10.6245 19.5579 10.577 19.6032 10.5454 19.6484C10.5295 19.6635 10.5295 19.6936 10.5454 19.7087C10.577 19.7389 10.6087 19.7841 10.6562 19.8143C10.6404 19.8444 10.672 19.8444 10.6879 19.8143ZM10.8779 19.5428C10.9095 19.4976 10.9412 19.4373 10.9729 19.377C10.9887 19.3619 10.9887 19.3317 10.9729 19.3166C10.9412 19.2865 10.9095 19.2563 10.8937 19.2262C10.8779 19.2111 10.862 19.2262 10.8462 19.2412C10.8145 19.2865 10.7829 19.3468 10.7354 19.392C10.7195 19.4071 10.7195 19.4373 10.7354 19.4524C10.767 19.4825 10.7987 19.5127 10.8304 19.5579C10.8462 19.573 10.862 19.5579 10.8779 19.5428ZM11.052 19.2412C11.0837 19.1809 11.0995 19.1206 11.1312 19.0603C11.147 19.0452 11.1312 19.0151 11.1312 19C11.0995 18.9698 11.0837 18.9547 11.052 18.9246C11.0362 18.9095 11.0362 18.9246 11.0204 18.9397C10.9887 19 10.957 19.0452 10.9254 19.1055C10.9095 19.1206 10.9095 19.1508 10.9254 19.1658C10.957 19.196 10.9887 19.2262 11.0045 19.2563C11.0204 19.2714 11.0362 19.2563 11.052 19.2412ZM11.1787 18.8944C11.1945 18.8341 11.2104 18.7587 11.2262 18.6833C11.2262 18.6532 11.2262 18.623 11.2262 18.623C11.2104 18.6079 11.1945 18.5928 11.1787 18.5778C11.1787 18.5778 11.1629 18.5928 11.1629 18.6079C11.147 18.6682 11.1154 18.7285 11.0995 18.7889C11.0837 18.8039 11.0837 18.8341 11.0995 18.8492C11.1154 18.8793 11.147 18.8944 11.1629 18.9246C11.1629 18.9246 11.1787 18.9246 11.1787 18.8944ZM10.4504 20.5381C10.4979 20.4928 10.5295 20.4476 10.577 20.4024C10.5929 20.3873 10.5929 20.3571 10.577 20.342C10.5454 20.2968 10.4979 20.2666 10.4662 20.2214C10.4504 20.2063 10.4345 20.2063 10.4187 20.2214C10.3712 20.2666 10.3395 20.3119 10.292 20.342C10.2762 20.3571 10.2762 20.3873 10.292 20.4024C10.3237 20.4476 10.3712 20.4778 10.4029 20.523C10.4187 20.5532 10.4345 20.5532 10.4504 20.5381ZM10.672 20.2968C10.7037 20.2516 10.7512 20.2063 10.7829 20.1611C10.7987 20.146 10.7987 20.1158 10.7829 20.1008C10.7512 20.0706 10.7037 20.0254 10.672 19.9952C10.6562 19.9801 10.6404 19.9801 10.6245 19.9952C10.5929 20.0405 10.5454 20.0857 10.5137 20.1309C10.4979 20.146 10.4979 20.1762 10.5137 20.1912C10.5454 20.2365 10.5929 20.2666 10.6245 20.3119C10.6404 20.3119 10.6562 20.3119 10.672 20.2968ZM10.8779 20.0254C10.9095 19.9801 10.9412 19.9198 10.9729 19.8746C10.9887 19.8595 10.9887 19.8293 10.9729 19.8143C10.9412 19.7841 10.9095 19.7539 10.8779 19.7087C10.862 19.6936 10.8462 19.7087 10.8304 19.7238C10.7987 19.769 10.767 19.8293 10.7195 19.8746C10.7037 19.8897 10.7037 19.9198 10.7195 19.9349C10.7512 19.9651 10.7829 20.0103 10.8304 20.0405C10.8462 20.0405 10.862 20.0405 10.8779 20.0254ZM11.052 19.7238C11.0837 19.6635 11.1154 19.6182 11.1312 19.5579C11.147 19.5428 11.147 19.5127 11.1312 19.4976C11.0995 19.4674 11.0679 19.4373 11.052 19.4071C11.0362 19.392 11.0204 19.4071 11.0204 19.4222C10.9887 19.4825 10.957 19.5278 10.9254 19.5881C10.9095 19.6032 10.9095 19.6333 10.9254 19.6484C10.957 19.6785 10.9887 19.7087 11.0204 19.7539C11.0204 19.7539 11.0362 19.7389 11.052 19.7238ZM11.1945 19.392C11.2104 19.3317 11.242 19.2714 11.2579 19.196C11.2579 19.1658 11.2579 19.1508 11.2579 19.1357C11.2262 19.1055 11.2104 19.0905 11.1787 19.0603C11.1629 19.0452 11.1629 19.0603 11.147 19.0905C11.1312 19.1508 11.0995 19.2111 11.0679 19.2714C11.052 19.2865 11.052 19.3166 11.0679 19.3317C11.0995 19.3619 11.1312 19.392 11.147 19.4222C11.1787 19.4222 11.1945 19.4222 11.1945 19.392ZM11.3054 19.0151C11.3212 18.9397 11.3212 18.8643 11.3212 18.7889C11.3212 18.7587 11.3212 18.7285 11.3054 18.7285C11.2895 18.7135 11.2737 18.6984 11.2579 18.6833C11.2579 18.6833 11.242 18.6984 11.242 18.7285C11.2262 18.8039 11.2104 18.8793 11.1945 18.9397C11.1945 18.9698 11.1945 18.9849 11.1945 19C11.2104 19.0301 11.242 19.0452 11.2579 19.0754C11.2895 19.0603 11.2895 19.0452 11.3054 19.0151ZM10.4345 21.0055C10.482 20.9603 10.5295 20.9301 10.5612 20.8849C10.577 20.8698 10.577 20.8397 10.5612 20.8246C10.5295 20.7793 10.482 20.7492 10.4504 20.7039C10.4345 20.6889 10.4187 20.6889 10.4029 20.7039C10.3554 20.7492 10.3079 20.7793 10.2762 20.8246C10.2604 20.8397 10.2604 20.8547 10.2762 20.8698C10.3237 20.9151 10.3554 20.9603 10.4029 20.9905C10.387 21.0055 10.4187 21.0206 10.4345 21.0055ZM10.672 20.7643C10.7037 20.719 10.7512 20.6738 10.7829 20.6285C10.7987 20.6135 10.7987 20.5833 10.7829 20.5682C10.7512 20.523 10.7037 20.4928 10.672 20.4476C10.6562 20.4325 10.6404 20.4325 10.6245 20.4476C10.577 20.4928 10.5454 20.5381 10.4979 20.5833C10.482 20.5984 10.482 20.6285 10.4979 20.6436C10.5295 20.6889 10.577 20.719 10.6087 20.7643C10.6245 20.7793 10.6562 20.7793 10.672 20.7643ZM10.8779 20.5079C10.9095 20.4627 10.957 20.4174 10.9887 20.3571C11.0045 20.342 11.0045 20.3119 10.9887 20.2968C10.957 20.2666 10.9254 20.2214 10.8779 20.1912C10.862 20.1762 10.8462 20.1762 10.8304 20.2063C10.7987 20.2516 10.7512 20.2968 10.7195 20.3571C10.7037 20.3722 10.7037 20.4024 10.7195 20.4174C10.7512 20.4627 10.7987 20.4928 10.8304 20.5381C10.8462 20.523 10.862 20.523 10.8779 20.5079ZM11.0679 20.2214C11.0995 20.1611 11.1312 20.1159 11.1629 20.0555C11.1787 20.0405 11.1787 20.0103 11.1629 19.9952C11.1312 19.9651 11.0995 19.9349 11.0679 19.8897C11.052 19.8746 11.0362 19.8897 11.0204 19.9047C10.9887 19.9651 10.957 20.0103 10.9254 20.0555C10.9095 20.0706 10.9095 20.1008 10.9254 20.1158C10.957 20.146 10.9887 20.1912 11.0362 20.2214C11.0362 20.2365 11.0679 20.2365 11.0679 20.2214ZM11.2262 19.9047C11.2579 19.8444 11.2737 19.7841 11.2895 19.7238C11.2895 19.6936 11.2895 19.6785 11.2895 19.6635C11.2579 19.6333 11.2262 19.6032 11.2104 19.573C11.1945 19.5579 11.1787 19.573 11.1787 19.5881C11.147 19.6484 11.1312 19.7087 11.0995 19.769C11.0837 19.7841 11.0837 19.8143 11.0995 19.8293C11.1312 19.8595 11.1629 19.8897 11.1945 19.9198C11.2104 19.9349 11.2262 19.9198 11.2262 19.9047ZM11.3529 19.5428C11.3687 19.4674 11.3845 19.4071 11.4004 19.3317C11.4004 19.3016 11.4004 19.2714 11.3845 19.2714C11.3687 19.2412 11.337 19.2262 11.3054 19.196C11.2895 19.1809 11.2895 19.196 11.2737 19.2262C11.2579 19.3016 11.242 19.3619 11.2104 19.4222C11.2104 19.4524 11.2104 19.4674 11.2104 19.4825C11.242 19.5127 11.2737 19.5428 11.2895 19.573C11.337 19.5881 11.3529 19.573 11.3529 19.5428ZM11.4162 19.1357C11.4162 19.0603 11.4162 18.9698 11.4162 18.8793C11.4162 18.8492 11.4004 18.819 11.4004 18.8039C11.3845 18.7889 11.3687 18.7738 11.3529 18.7587C11.3529 18.7587 11.337 18.7738 11.337 18.8039C11.337 18.8944 11.3212 18.9698 11.3212 19.0452C11.3212 19.0754 11.3212 19.1055 11.337 19.1055C11.3529 19.1357 11.3845 19.1508 11.4004 19.1809C11.4162 19.1809 11.4162 19.1658 11.4162 19.1357ZM10.6562 21.2317C10.7037 21.1865 10.7354 21.1412 10.7829 21.096C10.7987 21.0809 10.7987 21.0508 10.7829 21.0357C10.7512 20.9905 10.7037 20.9603 10.672 20.9151C10.6562 20.9 10.6404 20.9 10.6245 20.9151C10.577 20.9603 10.5454 21.0055 10.4979 21.0357C10.482 21.0508 10.482 21.0809 10.4979 21.096C10.5454 21.1412 10.577 21.1865 10.6245 21.2166C10.6245 21.2468 10.6404 21.2468 10.6562 21.2317ZM10.8937 20.9905C10.9254 20.9452 10.9729 20.9 11.0045 20.8547C11.0204 20.8397 11.0204 20.8095 11.0045 20.7944C10.9729 20.7492 10.9254 20.719 10.8937 20.6738C10.8779 20.6587 10.862 20.6587 10.8462 20.6738C10.8145 20.719 10.767 20.7643 10.7354 20.8095C10.7195 20.8246 10.7195 20.8547 10.7354 20.8698C10.767 20.9151 10.8145 20.9452 10.8462 20.9905C10.8462 21.0055 10.8779 21.0055 10.8937 20.9905ZM11.2737 20.4174C11.3054 20.3571 11.3212 20.2968 11.3529 20.2365C11.3687 20.2214 11.3529 20.1912 11.3529 20.1762C11.3212 20.146 11.2895 20.1158 11.2579 20.0706C11.242 20.0555 11.2262 20.0706 11.2104 20.0857C11.1787 20.146 11.147 20.1912 11.1312 20.2516C11.1154 20.2666 11.1154 20.2968 11.1312 20.3119C11.1629 20.342 11.1945 20.3873 11.242 20.4174C11.242 20.4476 11.2579 20.4325 11.2737 20.4174ZM11.4004 20.0857C11.4162 20.0254 11.4479 19.9651 11.4637 19.8897C11.4637 19.8595 11.4637 19.8444 11.4637 19.8293C11.432 19.7992 11.4004 19.769 11.3845 19.7389C11.3687 19.7238 11.3529 19.7389 11.3529 19.769C11.337 19.8293 11.3054 19.8897 11.2895 19.95C11.2737 19.9651 11.2895 19.9952 11.2895 20.0103C11.3212 20.0405 11.3529 20.0706 11.3845 20.1158C11.3845 20.1158 11.4004 20.1008 11.4004 20.0857ZM11.5112 19.7087C11.527 19.6333 11.527 19.5579 11.5429 19.4825C11.5429 19.4524 11.5429 19.4222 11.527 19.4071C11.4954 19.377 11.4795 19.3619 11.4479 19.3317C11.432 19.3166 11.432 19.3317 11.432 19.3619C11.4162 19.4373 11.4004 19.5127 11.3845 19.573C11.3845 19.6032 11.3845 19.6333 11.4004 19.6333C11.432 19.6635 11.4637 19.6936 11.4795 19.7238C11.4954 19.7539 11.4954 19.7389 11.5112 19.7087ZM11.5429 19.2714C11.5429 19.1809 11.527 19.0905 11.5112 18.9849C11.5112 18.9397 11.4954 18.9095 11.4954 18.9095C11.4795 18.8944 11.4637 18.8793 11.4479 18.8643C11.4479 18.8643 11.4479 18.8793 11.4479 18.9095C11.4637 19 11.4637 19.0905 11.4637 19.1809C11.4637 19.2111 11.4637 19.2412 11.4795 19.2563C11.4954 19.2865 11.527 19.3016 11.5429 19.3317C11.5429 19.3166 11.5429 19.3016 11.5429 19.2714ZM11.4479 18.6833C11.4004 18.5627 11.3529 18.4119 11.2579 18.2309C11.2262 18.1555 11.1945 18.1103 11.1945 18.1103C11.1945 18.1103 11.1945 18.1405 11.1945 18.1706C11.1945 18.2611 11.1945 18.3365 11.1787 18.4119C11.1787 18.442 11.1787 18.4571 11.1787 18.4722C11.1945 18.4873 11.2104 18.5024 11.2262 18.5174C11.2262 18.5174 11.242 18.5024 11.242 18.4722C11.242 18.3817 11.2262 18.2912 11.2104 18.1857C11.1945 18.1405 11.1945 18.1103 11.1945 18.1103C11.1945 18.1103 11.2104 18.1405 11.2104 18.1857C11.242 18.2912 11.242 18.3968 11.2579 18.4873C11.2579 18.5174 11.2579 18.5476 11.2737 18.5476C11.2895 18.5627 11.3054 18.5778 11.3212 18.5928C11.3212 18.5928 11.3212 18.5778 11.3212 18.5325C11.3054 18.427 11.2895 18.3214 11.242 18.1857C11.2262 18.1405 11.2104 18.0952 11.2104 18.0952C11.2104 18.0952 11.2262 18.1405 11.242 18.1857C11.2895 18.3214 11.3212 18.442 11.337 18.5325C11.337 18.5627 11.3529 18.5928 11.3529 18.6079C11.3687 18.623 11.3845 18.6381 11.4004 18.6532C11.4004 18.6532 11.4004 18.6381 11.4004 18.5928C11.3687 18.4722 11.337 18.3516 11.2737 18.2008C11.242 18.1405 11.2262 18.0952 11.2262 18.0952C11.2262 18.0952 11.2579 18.1405 11.2737 18.2008C11.337 18.3516 11.3845 18.4873 11.4162 18.6079C11.432 18.6532 11.432 18.6833 11.4479 18.6833C11.4637 18.6984 11.4795 18.7135 11.4954 18.7285C11.4637 18.7587 11.4637 18.7285 11.4479 18.6833ZM9.9437 20.9754C9.9912 20.9452 10.0387 20.9 10.0862 20.8698C10.102 20.8547 10.102 20.8397 10.0862 20.8246C10.0387 20.7793 10.007 20.7341 9.95953 20.7039C9.9437 20.6889 9.91203 20.6889 9.8962 20.7039C9.8487 20.7341 9.8012 20.7793 9.7537 20.8095C9.73786 20.8246 9.73786 20.8397 9.7537 20.8547C9.8012 20.9 9.83286 20.9452 9.88036 20.9905C9.8962 20.9754 9.92786 20.9905 9.9437 20.9754Z" fill="black"/>
<path fill-rule="evenodd" clip-rule="evenodd" d="M12.8096 18.7888L14.4879 17.2055H13.0629L12.0971 18.1103L11.1312 17.2055H10.9254C10.9412 17.2507 10.9729 17.3111 11.0046 17.3714C11.0996 17.6126 11.2104 17.9595 11.3212 18.3817C11.6379 18.7285 11.7804 19.196 11.7487 19.7841L12.0812 19.4674L13.1104 20.4476H14.5354L12.9362 18.9095L12.8096 18.7888Z" fill="black"/>
<path fill-rule="evenodd" clip-rule="evenodd" d="M34.0421 20.4325H32.6487L31.8887 19.573H30.2737V20.4325H29.2287V18.7888H32.1737C32.3321 18.7888 32.4746 18.7587 32.5854 18.6984C32.6962 18.6381 32.7596 18.5476 32.7596 18.4269C32.7596 18.3063 32.7121 18.2008 32.6012 18.1404C32.5062 18.0801 32.3637 18.05 32.1737 18.05H29.2287L29.9096 17.2055H32.0787C32.2687 17.2055 32.4746 17.2206 32.6804 17.2508C32.8862 17.2809 33.0762 17.3412 33.2346 17.4317C33.4087 17.5222 33.5354 17.6428 33.6462 17.7785C33.7571 17.9142 33.8046 18.1103 33.8046 18.3515C33.8046 18.4722 33.7887 18.5928 33.7412 18.7135C33.6937 18.819 33.6462 18.9246 33.5671 19.015C33.4879 19.1055 33.3929 19.1809 33.2821 19.2412C33.1712 19.3015 33.0446 19.3468 32.9179 19.3769C32.9812 19.4222 33.0446 19.4674 33.1079 19.5428C33.1712 19.6031 33.2662 19.6936 33.3929 19.8142L34.0421 20.4325ZM24.9379 20.4325L25.5712 19.6031H26.4262C26.5212 19.6031 26.6321 19.6031 26.7429 19.6031C26.8537 19.6031 26.9487 19.6031 27.0279 19.6182C26.9804 19.5579 26.9329 19.4825 26.8696 19.392C26.8062 19.3015 26.7429 19.2262 26.6954 19.1508L26.0937 18.2912L24.5104 20.4325H23.2754L25.4446 17.5222C25.5079 17.4317 25.6029 17.3412 25.7137 17.2658C25.8246 17.1904 25.9512 17.1603 26.1254 17.1603C26.2837 17.1603 26.4104 17.1904 26.5212 17.2658C26.6321 17.3412 26.7112 17.4166 26.7904 17.5222L28.8962 20.4325H24.9379ZM23.1646 19.6182L22.4837 20.4476H19.4912V17.2206H20.5362V19.6182H23.1646ZM19.1429 19.6182L18.4779 20.4476H15.2162V17.2206H19.1271L18.4462 18.065H16.2612V18.4571H18.9371L18.3354 19.196H16.2612V19.6333H19.1429V19.6182ZM5.65291 20.4325L6.28624 19.6031H7.12541C7.22041 19.6031 7.33124 19.6031 7.44207 19.6031C7.55291 19.6031 7.64791 19.6031 7.72707 19.6182C7.67957 19.5579 7.63207 19.4825 7.56874 19.392C7.50541 19.3015 7.44207 19.2262 7.39457 19.1508L6.79291 18.2912L5.20957 20.4325H3.95874L6.12791 17.5222C6.19124 17.4317 6.28624 17.3412 6.39707 17.2658C6.50791 17.1904 6.63457 17.1603 6.80874 17.1603C6.96707 17.1603 7.09374 17.1904 7.20457 17.2658C7.31541 17.3412 7.39457 17.4166 7.47374 17.5222L9.57957 20.4325H5.65291Z" fill="black"/>
</g>
<defs>
<radialGradient id="paint0_radial_137_1078" cx="0" cy="0" r="1" gradientUnits="userSpaceOnUse" gradientTransform="translate(14.4627 6.16216) rotate(64.7292) scale(35.2072 112.947)">
<stop stop-color="#FF4F0D"/>
<stop offset="1" stop-color="#7AB694"/>
</radialGradient>
<clipPath id="clip0_137_1078">
<rect width="30.4" height="6.33333" fill="white" transform="translate(3.80042 15.2)"/>
</clipPath>
</defs>
</svg>
