<svg width="109" height="32" viewBox="0 0 109 32" fill="none" xmlns="http://www.w3.org/2000/svg">
<path d="M10.2661 17V4.4H12.2911L18.0691 13.616V4.4H19.9411V17H17.9251L12.1291 7.784V17H10.2661ZM22.3925 17V4.4H29.8175V6.272H24.2645V9.314H28.9535V11.186H24.2645V17H22.3925ZM40.6071 4.4V6.272H36.5931V17H34.7211V6.272H30.7161V4.4H40.6071ZM51.4182 7.748C52.2942 7.748 53.0892 7.961 53.8032 8.387C54.5232 8.813 55.0962 9.386 55.5222 10.106C55.9482 10.82 56.1612 11.615 56.1612 12.491C56.1612 13.145 56.0382 13.76 55.7922 14.336C55.5462 14.906 55.2042 15.41 54.7662 15.848C54.3342 16.28 53.8302 16.619 53.2542 16.865C52.6842 17.111 52.0722 17.234 51.4182 17.234C50.7882 17.234 50.2362 17.09 49.7622 16.802C49.2942 16.508 48.9102 16.133 48.6102 15.677V17H46.7382V3.5H48.6102V9.305C48.9102 8.843 49.2942 8.468 49.7622 8.18C50.2362 7.892 50.7882 7.748 51.4182 7.748ZM51.4002 15.416C51.9222 15.416 52.3992 15.284 52.8312 15.02C53.2632 14.756 53.6052 14.402 53.8572 13.958C54.1152 13.514 54.2442 13.025 54.2442 12.491C54.2442 11.945 54.1152 11.45 53.8572 11.006C53.5992 10.562 53.2542 10.211 52.8222 9.953C52.3902 9.689 51.9162 9.557 51.4002 9.557C50.8782 9.557 50.4192 9.689 50.0232 9.953C49.6272 10.217 49.3182 10.571 49.0962 11.015C48.8742 11.459 48.7632 11.951 48.7632 12.491C48.7632 13.031 48.8742 13.523 49.0962 13.967C49.3182 14.411 49.6272 14.765 50.0232 15.029C50.4192 15.287 50.8782 15.416 51.4002 15.416ZM62.9381 9.881C62.7821 9.785 62.6111 9.71 62.4251 9.656C62.2451 9.596 62.0471 9.566 61.8311 9.566C61.3631 9.566 60.9551 9.689 60.6071 9.935C60.2591 10.181 59.9861 10.514 59.7881 10.934C59.5961 11.354 59.5001 11.819 59.5001 12.329V17H57.6191V8H59.4911V9.215C59.8031 8.765 60.1811 8.411 60.6251 8.153C61.0751 7.889 61.5761 7.757 62.1281 7.757C62.3321 7.757 62.5241 7.766 62.7041 7.784C62.8901 7.802 63.0671 7.838 63.2351 7.892L62.9381 9.881ZM64.58 8H66.452V17H64.58V8ZM65.525 6.515C65.243 6.515 65.006 6.422 64.814 6.236C64.622 6.05 64.526 5.816 64.526 5.534C64.526 5.258 64.622 5.027 64.814 4.841C65.006 4.649 65.243 4.553 65.525 4.553C65.801 4.553 66.035 4.649 66.227 4.841C66.419 5.027 66.515 5.258 66.515 5.534C66.515 5.816 66.419 6.05 66.227 6.236C66.035 6.422 65.801 6.515 65.525 6.515ZM76.3019 3.5H78.1739V17H76.3019V15.677C76.0079 16.145 75.6239 16.523 75.1499 16.811C74.6759 17.093 74.1209 17.234 73.4849 17.234C72.8309 17.234 72.2189 17.111 71.6489 16.865C71.0789 16.619 70.5749 16.28 70.1369 15.848C69.7049 15.41 69.3659 14.906 69.1199 14.336C68.8739 13.766 68.7509 13.154 68.7509 12.5C68.7509 11.846 68.8739 11.234 69.1199 10.664C69.3659 10.088 69.7049 9.584 70.1369 9.152C70.5749 8.714 71.0789 8.372 71.6489 8.126C72.2189 7.88 72.8309 7.757 73.4849 7.757C74.1209 7.757 74.6759 7.901 75.1499 8.189C75.6239 8.471 76.0079 8.843 76.3019 9.305V3.5ZM73.5029 15.425C74.0309 15.425 74.4929 15.296 74.8889 15.038C75.2849 14.774 75.5909 14.42 75.8069 13.976C76.0289 13.532 76.1399 13.04 76.1399 12.5C76.1399 11.954 76.0289 11.459 75.8069 11.015C75.5849 10.571 75.2759 10.22 74.8799 9.962C74.4899 9.698 74.0309 9.566 73.5029 9.566C72.9809 9.566 72.5039 9.698 72.0719 9.962C71.6459 10.226 71.3039 10.58 71.0459 11.024C70.7939 11.468 70.6679 11.96 70.6679 12.5C70.6679 13.046 70.7969 13.541 71.0549 13.985C71.3189 14.423 71.6639 14.774 72.0899 15.038C72.5219 15.296 72.9929 15.425 73.5029 15.425ZM87.179 8H89.051V17.234C89.051 17.852 88.919 18.422 88.655 18.944C88.397 19.466 88.046 19.916 87.602 20.294C87.158 20.678 86.648 20.975 86.072 21.185C85.502 21.395 84.905 21.5 84.281 21.5C83.651 21.5 83.045 21.365 82.463 21.095C81.881 20.831 81.368 20.471 80.924 20.015C80.486 19.559 80.159 19.043 79.943 18.467L81.662 17.693C81.782 18.065 81.974 18.395 82.238 18.683C82.508 18.971 82.82 19.199 83.174 19.367C83.534 19.535 83.903 19.619 84.281 19.619C84.653 19.619 85.01 19.559 85.352 19.439C85.7 19.325 86.009 19.163 86.279 18.953C86.555 18.743 86.774 18.491 86.936 18.197C87.098 17.903 87.179 17.582 87.179 17.234V15.713C86.885 16.169 86.507 16.538 86.045 16.82C85.583 17.096 85.046 17.234 84.434 17.234C83.798 17.234 83.198 17.111 82.634 16.865C82.07 16.619 81.575 16.28 81.149 15.848C80.723 15.41 80.39 14.906 80.15 14.336C79.91 13.766 79.79 13.154 79.79 12.5C79.79 11.846 79.91 11.234 80.15 10.664C80.39 10.088 80.723 9.584 81.149 9.152C81.575 8.714 82.07 8.372 82.634 8.126C83.198 7.88 83.798 7.757 84.434 7.757C85.046 7.757 85.583 7.898 86.045 8.18C86.507 8.456 86.885 8.825 87.179 9.287V8ZM84.452 15.425C84.974 15.425 85.43 15.293 85.82 15.029C86.21 14.759 86.513 14.402 86.729 13.958C86.945 13.514 87.053 13.028 87.053 12.5C87.053 11.96 86.942 11.471 86.72 11.033C86.504 10.589 86.201 10.235 85.811 9.971C85.421 9.701 84.968 9.566 84.452 9.566C83.948 9.566 83.486 9.698 83.066 9.962C82.652 10.226 82.322 10.58 82.076 11.024C81.83 11.468 81.707 11.96 81.707 12.5C81.707 13.04 81.83 13.532 82.076 13.976C82.328 14.42 82.661 14.774 83.075 15.038C83.495 15.296 83.954 15.425 84.452 15.425ZM94.8896 17.234C94.0616 17.234 93.3056 17.021 92.6216 16.595C91.9436 16.169 91.4006 15.599 90.9926 14.885C90.5906 14.165 90.3896 13.37 90.3896 12.5C90.3896 11.84 90.5066 11.225 90.7406 10.655C90.9746 10.079 91.2956 9.575 91.7036 9.143C92.1176 8.705 92.5976 8.363 93.1436 8.117C93.6896 7.871 94.2716 7.748 94.8896 7.748C95.5796 7.748 96.2126 7.892 96.7886 8.18C97.3646 8.462 97.8566 8.855 98.2646 9.359C98.6726 9.857 98.9726 10.433 99.1646 11.087C99.3566 11.735 99.4136 12.425 99.3356 13.157H92.3966C92.4746 13.571 92.6246 13.946 92.8466 14.282C93.0746 14.612 93.3626 14.873 93.7106 15.065C94.0646 15.257 94.4576 15.356 94.8896 15.362C95.3456 15.362 95.7596 15.248 96.1316 15.02C96.5096 14.792 96.8186 14.477 97.0586 14.075L98.9576 14.516C98.5976 15.314 98.0546 15.968 97.3286 16.478C96.6026 16.982 95.7896 17.234 94.8896 17.234ZM92.3336 11.726H97.4456C97.3856 11.294 97.2326 10.904 96.9866 10.556C96.7466 10.202 96.4436 9.923 96.0776 9.719C95.7176 9.509 95.3216 9.404 94.8896 9.404C94.4636 9.404 94.0676 9.506 93.7016 9.71C93.3416 9.914 93.0416 10.193 92.8016 10.547C92.5676 10.895 92.4116 11.288 92.3336 11.726Z" fill="url(#paint0_radial_92_178)"/>
<path d="M34.8811 28.864L35.6251 29.268C35.4437 29.5213 35.2131 29.724 34.9331 29.876C34.6557 30.028 34.3544 30.104 34.0291 30.104C33.6611 30.104 33.3251 30.0093 33.0211 29.82C32.7197 29.6307 32.4784 29.3773 32.2971 29.06C32.1184 28.74 32.0291 28.3867 32.0291 28C32.0291 27.7067 32.0811 27.4333 32.1851 27.18C32.2891 26.924 32.4317 26.7 32.6131 26.508C32.7971 26.3133 33.0104 26.1613 33.2531 26.052C33.4957 25.9427 33.7544 25.888 34.0291 25.888C34.3544 25.888 34.6557 25.964 34.9331 26.116C35.2131 26.268 35.4437 26.472 35.6251 26.728L34.8811 27.132C34.7691 26.9987 34.6384 26.8973 34.4891 26.828C34.3397 26.756 34.1864 26.72 34.0291 26.72C33.8104 26.72 33.6117 26.78 33.4331 26.9C33.2571 27.0173 33.1171 27.1733 33.0131 27.368C32.9117 27.56 32.8611 27.7707 32.8611 28C32.8611 28.2267 32.9131 28.4373 33.0171 28.632C33.1211 28.824 33.2611 28.9787 33.4371 29.096C33.6157 29.2133 33.8131 29.272 34.0291 29.272C34.1944 29.272 34.3517 29.2347 34.5011 29.16C34.6504 29.0853 34.7771 28.9867 34.8811 28.864ZM37.9822 30.104C37.6142 30.104 37.2782 30.0093 36.9742 29.82C36.6729 29.6307 36.4315 29.3773 36.2502 29.06C36.0715 28.74 35.9822 28.3867 35.9822 28C35.9822 27.7067 36.0342 27.4333 36.1382 27.18C36.2422 26.924 36.3849 26.7 36.5662 26.508C36.7502 26.3133 36.9635 26.1613 37.2062 26.052C37.4489 25.9427 37.7075 25.888 37.9822 25.888C38.3502 25.888 38.6849 25.9827 38.9862 26.172C39.2902 26.3613 39.5315 26.616 39.7102 26.936C39.8915 27.256 39.9822 27.6107 39.9822 28C39.9822 28.2907 39.9302 28.5627 39.8262 28.816C39.7222 29.0693 39.5782 29.2933 39.3942 29.488C39.2129 29.68 39.0009 29.8307 38.7582 29.94C38.5182 30.0493 38.2595 30.104 37.9822 30.104ZM37.9822 29.272C38.2035 29.272 38.4022 29.2133 38.5782 29.096C38.7542 28.9787 38.8929 28.824 38.9942 28.632C39.0982 28.4373 39.1502 28.2267 39.1502 28C39.1502 27.768 39.0969 27.5547 38.9902 27.36C38.8862 27.1653 38.7462 27.0107 38.5702 26.896C38.3942 26.7787 38.1982 26.72 37.9822 26.72C37.7635 26.72 37.5649 26.7787 37.3862 26.896C37.2102 27.0133 37.0702 27.1693 36.9662 27.364C36.8649 27.5587 36.8142 27.7707 36.8142 28C36.8142 28.2373 36.8675 28.452 36.9742 28.644C37.0809 28.836 37.2222 28.9893 37.3982 29.104C37.5769 29.216 37.7715 29.272 37.9822 29.272ZM40.4964 30V26H41.3284V26.484C41.4564 26.3267 41.5911 26.1987 41.7324 26.1C41.8764 25.9987 42.0471 25.948 42.2444 25.948C42.5378 25.948 42.7978 26.0147 43.0244 26.148C43.2538 26.2787 43.4458 26.4613 43.6004 26.696C43.7551 26.4587 43.9471 26.2747 44.1764 26.144C44.4084 26.0133 44.6671 25.948 44.9524 25.948C45.2964 25.948 45.5991 26.0347 45.8604 26.208C46.1218 26.3813 46.3271 26.612 46.4764 26.9C46.6258 27.1853 46.7004 27.5 46.7004 27.844V30H45.8684V27.844C45.8684 27.6467 45.8298 27.468 45.7524 27.308C45.6778 27.148 45.5724 27.02 45.4364 26.924C45.3004 26.828 45.1391 26.78 44.9524 26.78C44.7711 26.78 44.6084 26.828 44.4644 26.924C44.3231 27.02 44.2124 27.148 44.1324 27.308C44.0551 27.468 44.0164 27.6467 44.0164 27.844V30H43.1844V27.844C43.1844 27.6467 43.1444 27.468 43.0644 27.308C42.9844 27.148 42.8738 27.02 42.7324 26.924C42.5911 26.828 42.4284 26.78 42.2444 26.78C42.0684 26.78 41.9111 26.8307 41.7724 26.932C41.6364 27.0333 41.5284 27.1667 41.4484 27.332C41.3684 27.4973 41.3284 27.6787 41.3284 27.876V30H40.4964ZM47.5269 26H48.3589V30H47.5269V26ZM47.9469 25.34C47.8215 25.34 47.7162 25.2987 47.6309 25.216C47.5455 25.1333 47.5029 25.0293 47.5029 24.904C47.5029 24.7813 47.5455 24.6787 47.6309 24.596C47.7162 24.5107 47.8215 24.468 47.9469 24.468C48.0695 24.468 48.1735 24.5107 48.2589 24.596C48.3442 24.6787 48.3869 24.7813 48.3869 24.904C48.3869 25.0293 48.3442 25.1333 48.2589 25.216C48.1735 25.2987 48.0695 25.34 47.9469 25.34ZM53.3014 27.904V30H52.4694V27.92C52.4694 27.6933 52.4214 27.488 52.3254 27.304C52.232 27.1173 52.1027 26.9693 51.9374 26.86C51.7747 26.748 51.5894 26.692 51.3814 26.692C51.1734 26.692 50.9907 26.748 50.8334 26.86C50.6787 26.9693 50.5574 27.1173 50.4694 27.304C50.384 27.488 50.3414 27.6933 50.3414 27.92V30H49.5094V26H50.3414V26.54C50.48 26.3373 50.648 26.1787 50.8454 26.064C51.0427 25.9467 51.2654 25.888 51.5134 25.888C51.8734 25.888 52.1854 25.98 52.4494 26.164C52.716 26.348 52.924 26.592 53.0734 26.896C53.2227 27.2 53.2987 27.536 53.3014 27.904ZM57.0943 26H57.9263V30.104C57.9263 30.3787 57.8676 30.632 57.7503 30.864C57.6356 31.096 57.4796 31.296 57.2823 31.464C57.085 31.6347 56.8583 31.7667 56.6023 31.86C56.349 31.9533 56.0836 32 55.8063 32C55.5263 32 55.257 31.94 54.9983 31.82C54.7396 31.7027 54.5116 31.5427 54.3143 31.34C54.1196 31.1373 53.9743 30.908 53.8783 30.652L54.6423 30.308C54.6956 30.4733 54.781 30.62 54.8983 30.748C55.0183 30.876 55.157 30.9773 55.3143 31.052C55.4743 31.1267 55.6383 31.164 55.8063 31.164C55.9716 31.164 56.1303 31.1373 56.2823 31.084C56.437 31.0333 56.5743 30.9613 56.6943 30.868C56.817 30.7747 56.9143 30.6627 56.9863 30.532C57.0583 30.4013 57.0943 30.2587 57.0943 30.104V29.428C56.9636 29.6307 56.7956 29.7947 56.5903 29.92C56.385 30.0427 56.1463 30.104 55.8743 30.104C55.5916 30.104 55.325 30.0493 55.0743 29.94C54.8236 29.8307 54.6036 29.68 54.4143 29.488C54.225 29.2933 54.077 29.0693 53.9703 28.816C53.8636 28.5627 53.8103 28.2907 53.8103 28C53.8103 27.7093 53.8636 27.4373 53.9703 27.184C54.077 26.928 54.225 26.704 54.4143 26.512C54.6036 26.3173 54.8236 26.1653 55.0743 26.056C55.325 25.9467 55.5916 25.892 55.8743 25.892C56.1463 25.892 56.385 25.9547 56.5903 26.08C56.7956 26.2027 56.9636 26.3667 57.0943 26.572V26ZM55.8823 29.3C56.1143 29.3 56.317 29.2413 56.4903 29.124C56.6636 29.004 56.7983 28.8453 56.8943 28.648C56.9903 28.4507 57.0383 28.2347 57.0383 28C57.0383 27.76 56.989 27.5427 56.8903 27.348C56.7943 27.1507 56.6596 26.9933 56.4863 26.876C56.313 26.756 56.1116 26.696 55.8823 26.696C55.6583 26.696 55.453 26.7547 55.2663 26.872C55.0823 26.9893 54.9356 27.1467 54.8263 27.344C54.717 27.5413 54.6623 27.76 54.6623 28C54.6623 28.24 54.717 28.4587 54.8263 28.656C54.9383 28.8533 55.0863 29.0107 55.2703 29.128C55.457 29.2427 55.661 29.3 55.8823 29.3ZM62.0481 30.076C61.8375 30.0627 61.6321 30.02 61.4321 29.948C61.2321 29.876 61.0561 29.7787 60.9041 29.656C60.7548 29.5307 60.6428 29.384 60.5681 29.216L61.2761 28.912C61.3108 28.984 61.3708 29.0547 61.4561 29.124C61.5441 29.1933 61.6468 29.2507 61.7641 29.296C61.8815 29.3387 62.0041 29.36 62.1321 29.36C62.2575 29.36 62.3735 29.3427 62.4801 29.308C62.5895 29.2707 62.6788 29.2147 62.7481 29.14C62.8175 29.0653 62.8521 28.976 62.8521 28.872C62.8521 28.7547 62.8121 28.664 62.7321 28.6C62.6548 28.5333 62.5575 28.4827 62.4401 28.448C62.3228 28.4133 62.2055 28.38 62.0881 28.348C61.8268 28.2893 61.5868 28.2093 61.3681 28.108C61.1521 28.004 60.9801 27.872 60.8521 27.712C60.7241 27.5493 60.6601 27.3507 60.6601 27.116C60.6601 26.86 60.7281 26.6387 60.8641 26.452C61.0028 26.2627 61.1855 26.1173 61.4121 26.016C61.6388 25.9147 61.8801 25.864 62.1361 25.864C62.4561 25.864 62.7495 25.932 63.0161 26.068C63.2828 26.204 63.4868 26.3907 63.6281 26.628L62.9681 27.02C62.9281 26.94 62.8681 26.868 62.7881 26.804C62.7081 26.74 62.6175 26.6893 62.5161 26.652C62.4148 26.612 62.3095 26.5893 62.2001 26.584C62.0641 26.5787 61.9375 26.5947 61.8201 26.632C61.7055 26.6667 61.6135 26.7227 61.5441 26.8C61.4748 26.8773 61.4401 26.976 61.4401 27.096C61.4401 27.2133 61.4815 27.3013 61.5641 27.36C61.6468 27.416 61.7508 27.4613 61.8761 27.496C62.0041 27.5307 62.1348 27.5693 62.2681 27.612C62.5055 27.6867 62.7281 27.7787 62.9361 27.888C63.1441 27.9947 63.3121 28.1267 63.4401 28.284C63.5681 28.4413 63.6295 28.6333 63.6241 28.86C63.6241 29.1107 63.5481 29.3307 63.3961 29.52C63.2468 29.7093 63.0521 29.8533 62.8121 29.952C62.5721 30.0507 62.3175 30.092 62.0481 30.076ZM66.0525 30.104C65.6845 30.104 65.3485 30.0093 65.0445 29.82C64.7432 29.6307 64.5018 29.3773 64.3205 29.06C64.1418 28.74 64.0525 28.3867 64.0525 28C64.0525 27.7067 64.1045 27.4333 64.2085 27.18C64.3125 26.924 64.4552 26.7 64.6365 26.508C64.8205 26.3133 65.0338 26.1613 65.2765 26.052C65.5192 25.9427 65.7778 25.888 66.0525 25.888C66.4205 25.888 66.7552 25.9827 67.0565 26.172C67.3605 26.3613 67.6018 26.616 67.7805 26.936C67.9618 27.256 68.0525 27.6107 68.0525 28C68.0525 28.2907 68.0005 28.5627 67.8965 28.816C67.7925 29.0693 67.6485 29.2933 67.4645 29.488C67.2832 29.68 67.0712 29.8307 66.8285 29.94C66.5885 30.0493 66.3298 30.104 66.0525 30.104ZM66.0525 29.272C66.2738 29.272 66.4725 29.2133 66.6485 29.096C66.8245 28.9787 66.9632 28.824 67.0645 28.632C67.1685 28.4373 67.2205 28.2267 67.2205 28C67.2205 27.768 67.1672 27.5547 67.0605 27.36C66.9565 27.1653 66.8165 27.0107 66.6405 26.896C66.4645 26.7787 66.2685 26.72 66.0525 26.72C65.8338 26.72 65.6352 26.7787 65.4565 26.896C65.2805 27.0133 65.1405 27.1693 65.0365 27.364C64.9352 27.5587 64.8845 27.7707 64.8845 28C64.8845 28.2373 64.9378 28.452 65.0445 28.644C65.1512 28.836 65.2925 28.9893 65.4685 29.104C65.6472 29.216 65.8418 29.272 66.0525 29.272ZM70.4509 30.104C70.0829 30.104 69.7469 30.0093 69.4429 29.82C69.1416 29.6307 68.9003 29.3773 68.7189 29.06C68.5403 28.74 68.4509 28.3867 68.4509 28C68.4509 27.7067 68.5029 27.4333 68.6069 27.18C68.7109 26.924 68.8536 26.7 69.0349 26.508C69.2189 26.3133 69.4323 26.1613 69.6749 26.052C69.9176 25.9427 70.1763 25.888 70.4509 25.888C70.8189 25.888 71.1536 25.9827 71.4549 26.172C71.7589 26.3613 72.0003 26.616 72.1789 26.936C72.3603 27.256 72.4509 27.6107 72.4509 28C72.4509 28.2907 72.3989 28.5627 72.2949 28.816C72.1909 29.0693 72.0469 29.2933 71.8629 29.488C71.6816 29.68 71.4696 29.8307 71.2269 29.94C70.9869 30.0493 70.7283 30.104 70.4509 30.104ZM70.4509 29.272C70.6723 29.272 70.8709 29.2133 71.0469 29.096C71.2229 28.9787 71.3616 28.824 71.4629 28.632C71.5669 28.4373 71.6189 28.2267 71.6189 28C71.6189 27.768 71.5656 27.5547 71.4589 27.36C71.3549 27.1653 71.2149 27.0107 71.0389 26.896C70.8629 26.7787 70.6669 26.72 70.4509 26.72C70.2323 26.72 70.0336 26.7787 69.8549 26.896C69.6789 27.0133 69.5389 27.1693 69.4349 27.364C69.3336 27.5587 69.2829 27.7707 69.2829 28C69.2829 28.2373 69.3363 28.452 69.4429 28.644C69.5496 28.836 69.6909 28.9893 69.8669 29.104C70.0456 29.216 70.2403 29.272 70.4509 29.272ZM76.8092 27.904V30H75.9772V27.92C75.9772 27.6933 75.9292 27.488 75.8332 27.304C75.7399 27.1173 75.6105 26.9693 75.4452 26.86C75.2825 26.748 75.0972 26.692 74.8892 26.692C74.6812 26.692 74.4985 26.748 74.3412 26.86C74.1865 26.9693 74.0652 27.1173 73.9772 27.304C73.8919 27.488 73.8492 27.6933 73.8492 27.92V30H73.0172V26H73.8492V26.54C73.9879 26.3373 74.1559 26.1787 74.3532 26.064C74.5505 25.9467 74.7732 25.888 75.0212 25.888C75.3812 25.888 75.6932 25.98 75.9572 26.164C76.2239 26.348 76.4319 26.592 76.5812 26.896C76.7305 27.2 76.8065 27.536 76.8092 27.904Z" fill="#B0B5B7"/>
<defs>
<radialGradient id="paint0_radial_92_178" cx="0" cy="0" r="1" gradientUnits="userSpaceOnUse" gradientTransform="translate(41.4851 3.56757) rotate(23.149) scale(46.887 140.843)">
<stop stop-color="#FF4F0D"/>
<stop offset="1" stop-color="#7AB694"/>
</radialGradient>
</defs>
</svg>
