<svg width="19" height="15" viewBox="0 0 19 15" fill="none" xmlns="http://www.w3.org/2000/svg">
<path fill-rule="evenodd" clip-rule="evenodd" d="M1.83333 12.2916C1.57917 12.2916 1.33541 12.1907 1.15569 12.0109C0.975967 11.8312 0.875 11.5875 0.875 11.3333C0.875 11.0791 0.975967 10.8354 1.15569 10.6557C1.33541 10.4759 1.57917 10.375 1.83333 10.375H3.75L6.625 7.49996L3.75 4.62496H1.83333C1.58658 4.61392 1.3536 4.50813 1.18289 4.32962C1.01218 4.15111 0.91691 3.91363 0.91691 3.66663C0.91691 3.41963 1.01218 3.18215 1.18289 3.00363C1.3536 2.82512 1.58658 2.71933 1.83333 2.70829H4.70833L8.54167 6.54163L12.375 2.70829H14.2917V0.791626L18.125 3.66759L14.2917 6.54163V4.62496H13.3333L10.4583 7.49996L13.3333 10.375H14.2917V8.45829L18.125 11.3333L14.2917 14.2083V12.2916H12.375L8.54167 8.45829L4.70833 12.2916H1.83333Z" fill="#FF4F0D"/>
</svg>
