<svg width="141" height="141" viewBox="0 0 141 141" fill="none" xmlns="http://www.w3.org/2000/svg">
<g clip-path="url(#clip0_9_1321)">
<path d="M120.32 20.633C113.779 14.0778 106.008 8.87956 97.4521 5.3367C88.8964 1.79383 79.7251 -0.0237927 70.4649 -0.0117817C31.5254 -0.0117817 -0.0410156 31.5546 -0.0410156 70.4941C-0.0410156 89.9638 7.85498 107.595 20.6155 120.355C27.1563 126.91 34.9277 132.109 43.4834 135.651C52.0392 139.194 61.2105 141.012 70.4707 141C109.41 141 140.977 109.434 140.977 70.4941C140.977 51.0243 133.081 33.3935 120.32 20.633V20.633ZM111.261 111.267C105.91 116.631 99.5519 120.885 92.5518 123.785C85.5517 126.685 78.0476 128.173 70.4707 128.163C38.6106 128.163 12.7841 102.337 12.7841 70.4765C12.7746 62.8996 14.2624 55.3955 17.1621 48.3954C20.0617 41.3953 24.3161 35.0371 29.6806 29.6863C35.0301 24.3217 41.3872 20.0673 48.3864 17.1676C55.3855 14.2679 62.8888 12.7802 70.4649 12.7898C102.319 12.7898 128.146 38.6163 128.146 70.4706C128.156 78.0467 126.668 85.55 123.768 92.5493C120.869 99.5485 116.614 105.906 111.249 111.255L111.261 111.267Z" fill="#E84142"/>
<path d="M79.5299 70.5L102.178 47.8519C103.295 46.6342 103.899 45.032 103.863 43.3798C103.827 41.7277 103.155 40.1532 101.986 38.985C100.817 37.8169 99.2419 37.1453 97.5897 37.1106C95.9375 37.0758 94.3358 37.6805 93.1188 38.7985L93.1246 38.7926L70.4765 61.4408L47.8284 38.7926C46.6107 37.6755 45.0085 37.0718 43.3563 37.1076C41.7042 37.1434 40.1297 37.816 38.9615 38.9849C37.7934 40.1538 37.1218 41.7287 37.0871 43.3809C37.0523 45.0331 37.657 46.6349 38.775 47.8519L38.7691 47.846L61.4173 70.4941L38.7691 93.1423C38.1319 93.7269 37.6196 94.4344 37.263 95.2222C36.9064 96.01 36.7129 96.8618 36.6941 97.7264C36.6754 98.5909 36.8318 99.4503 37.1539 100.253C37.476 101.055 37.9572 101.784 38.5685 102.396C39.1798 103.008 39.9085 103.489 40.7108 103.812C41.5132 104.135 42.3725 104.292 43.237 104.274C44.1016 104.255 44.9536 104.062 45.7416 103.706C46.5296 103.35 47.2375 102.838 47.8225 102.201L47.8284 102.196L70.4765 79.5475L93.1246 102.196C93.7092 102.833 94.4167 103.345 95.2046 103.702C95.9924 104.058 96.8442 104.252 97.7088 104.271C98.5733 104.289 99.4327 104.133 100.235 103.811C101.038 103.489 101.767 103.008 102.379 102.396C102.99 101.785 103.472 101.056 103.794 100.254C104.117 99.4516 104.274 98.5923 104.256 97.7277C104.238 96.8632 104.045 96.0112 103.689 95.2232C103.333 94.4351 102.821 93.7273 102.184 93.1423L102.178 93.1364L79.5299 70.5Z" fill="#E84142"/>
</g>
<defs>
<clipPath id="clip0_9_1321">
<rect width="141" height="141" fill="white"/>
</clipPath>
</defs>
</svg>
