<svg width="141" height="27" viewBox="0 0 141 27" fill="none" xmlns="http://www.w3.org/2000/svg">
<path d="M48.571 20.234C47.881 20.234 47.218 20.126 46.582 19.91C45.946 19.694 45.391 19.385 44.917 18.983C44.443 18.575 44.104 18.092 43.9 17.534L45.655 16.877C45.757 17.165 45.952 17.423 46.24 17.651C46.534 17.873 46.882 18.047 47.284 18.173C47.692 18.299 48.121 18.362 48.571 18.362C49.051 18.362 49.501 18.284 49.921 18.128C50.347 17.972 50.689 17.756 50.947 17.48C51.211 17.204 51.343 16.88 51.343 16.508C51.343 16.124 51.205 15.809 50.929 15.563C50.659 15.317 50.311 15.122 49.885 14.978C49.465 14.834 49.027 14.726 48.571 14.654C47.689 14.51 46.897 14.3 46.195 14.024C45.499 13.748 44.947 13.361 44.539 12.863C44.137 12.365 43.936 11.717 43.936 10.919C43.936 10.169 44.149 9.515 44.575 8.957C45.007 8.399 45.574 7.967 46.276 7.661C46.984 7.349 47.749 7.193 48.571 7.193C49.249 7.193 49.903 7.301 50.533 7.517C51.169 7.727 51.727 8.036 52.207 8.444C52.693 8.846 53.041 9.335 53.251 9.911L51.478 10.55C51.376 10.256 51.181 10.001 50.893 9.785C50.605 9.563 50.257 9.389 49.849 9.263C49.447 9.137 49.021 9.074 48.571 9.074C48.091 9.068 47.641 9.146 47.221 9.308C46.807 9.464 46.468 9.68 46.204 9.956C45.94 10.232 45.808 10.553 45.808 10.919C45.808 11.369 45.931 11.711 46.177 11.945C46.423 12.179 46.753 12.353 47.167 12.467C47.587 12.575 48.055 12.674 48.571 12.764C49.399 12.896 50.164 13.115 50.866 13.421C51.574 13.727 52.141 14.135 52.567 14.645C52.999 15.149 53.215 15.77 53.215 16.508C53.215 17.252 52.999 17.906 52.567 18.47C52.141 19.028 51.574 19.463 50.866 19.775C50.164 20.081 49.399 20.234 48.571 20.234Z" fill="black"/>
<path d="M59.8535 12.872H57.9635L57.9545 20H56.0825L56.0915 12.872H54.6605V11H56.0915L56.0825 8.174H57.9545L57.9635 11H59.8535V12.872Z" fill="black"/>
<path d="M68.3021 11H70.1741V20H68.2931L68.2211 18.695C67.9571 19.157 67.6001 19.529 67.1501 19.811C66.7061 20.093 66.1781 20.234 65.5661 20.234C64.9001 20.234 64.2761 20.111 63.6941 19.865C63.1181 19.613 62.6081 19.265 62.1641 18.821C61.7261 18.377 61.3811 17.867 61.1291 17.291C60.8831 16.709 60.7601 16.085 60.7601 15.419C60.7601 14.777 60.8801 14.174 61.1201 13.61C61.3601 13.04 61.6931 12.542 62.1191 12.116C62.5451 11.69 63.0371 11.357 63.5951 11.117C64.1591 10.871 64.7621 10.748 65.4041 10.748C66.0581 10.748 66.6341 10.898 67.1321 11.198C67.6361 11.492 68.0501 11.87 68.3741 12.332L68.3021 11ZM65.6111 18.425C66.1511 18.425 66.6161 18.29 67.0061 18.02C67.4021 17.75 67.6991 17.387 67.8971 16.931C68.1011 16.475 68.1881 15.971 68.1581 15.419C68.1221 14.891 67.9811 14.411 67.7351 13.979C67.4951 13.547 67.1741 13.205 66.7721 12.953C66.3701 12.695 65.9141 12.566 65.4041 12.566C64.8701 12.566 64.3871 12.701 63.9551 12.971C63.5291 13.241 63.1991 13.604 62.9651 14.06C62.7311 14.516 62.6291 15.023 62.6591 15.581C62.6951 16.103 62.8511 16.58 63.1271 17.012C63.4091 17.444 63.7661 17.789 64.1981 18.047C64.6361 18.299 65.1071 18.425 65.6111 18.425Z" fill="black"/>
<path d="M80.122 20H77.962L75.748 16.184L74.299 17.912V20H72.436V6.5H74.299V15.005L77.656 11H80.104L77.035 14.663L80.122 20Z" fill="black"/>
<path d="M85.0771 20.234C84.2491 20.234 83.4931 20.021 82.8091 19.595C82.1311 19.169 81.5881 18.599 81.1801 17.885C80.7781 17.165 80.5771 16.37 80.5771 15.5C80.5771 14.84 80.6941 14.225 80.9281 13.655C81.1621 13.079 81.4831 12.575 81.8911 12.143C82.3051 11.705 82.7851 11.363 83.3311 11.117C83.8771 10.871 84.4591 10.748 85.0771 10.748C85.7671 10.748 86.4001 10.892 86.9761 11.18C87.5521 11.462 88.0441 11.855 88.4521 12.359C88.8601 12.857 89.1601 13.433 89.3521 14.087C89.5441 14.735 89.6011 15.425 89.5231 16.157H82.5841C82.6621 16.571 82.8121 16.946 83.0341 17.282C83.2621 17.612 83.5501 17.873 83.8981 18.065C84.2521 18.257 84.6451 18.356 85.0771 18.362C85.5331 18.362 85.9471 18.248 86.3191 18.02C86.6971 17.792 87.0061 17.477 87.2461 17.075L89.1451 17.516C88.7851 18.314 88.2421 18.968 87.5161 19.478C86.7901 19.982 85.9771 20.234 85.0771 20.234ZM82.5211 14.726H87.6331C87.5731 14.294 87.4201 13.904 87.1741 13.556C86.9341 13.202 86.6311 12.923 86.2651 12.719C85.9051 12.509 85.5091 12.404 85.0771 12.404C84.6511 12.404 84.2551 12.506 83.8891 12.71C83.5291 12.914 83.2291 13.193 82.9891 13.547C82.7551 13.895 82.5991 14.288 82.5211 14.726Z" fill="black"/>
<path d="M102.525 6.5H104.397V20H102.525V18.677C102.231 19.145 101.847 19.523 101.373 19.811C100.899 20.093 100.344 20.234 99.7076 20.234C99.0536 20.234 98.4416 20.111 97.8716 19.865C97.3016 19.619 96.7976 19.28 96.3596 18.848C95.9276 18.41 95.5886 17.906 95.3426 17.336C95.0966 16.766 94.9736 16.154 94.9736 15.5C94.9736 14.846 95.0966 14.234 95.3426 13.664C95.5886 13.088 95.9276 12.584 96.3596 12.152C96.7976 11.714 97.3016 11.372 97.8716 11.126C98.4416 10.88 99.0536 10.757 99.7076 10.757C100.344 10.757 100.899 10.901 101.373 11.189C101.847 11.471 102.231 11.843 102.525 12.305V6.5ZM99.7256 18.425C100.254 18.425 100.716 18.296 101.112 18.038C101.508 17.774 101.814 17.42 102.03 16.976C102.252 16.532 102.363 16.04 102.363 15.5C102.363 14.954 102.252 14.459 102.03 14.015C101.808 13.571 101.499 13.22 101.103 12.962C100.713 12.698 100.254 12.566 99.7256 12.566C99.2036 12.566 98.7266 12.698 98.2946 12.962C97.8686 13.226 97.5266 13.58 97.2686 14.024C97.0166 14.468 96.8906 14.96 96.8906 15.5C96.8906 16.046 97.0196 16.541 97.2776 16.985C97.5416 17.423 97.8866 17.774 98.3126 18.038C98.7446 18.296 99.2156 18.425 99.7256 18.425Z" fill="black"/>
<path d="M110.513 20.234C109.685 20.234 108.929 20.021 108.245 19.595C107.567 19.169 107.024 18.599 106.616 17.885C106.214 17.165 106.013 16.37 106.013 15.5C106.013 14.84 106.13 14.225 106.364 13.655C106.598 13.079 106.919 12.575 107.327 12.143C107.741 11.705 108.221 11.363 108.767 11.117C109.313 10.871 109.895 10.748 110.513 10.748C111.203 10.748 111.836 10.892 112.412 11.18C112.988 11.462 113.48 11.855 113.888 12.359C114.296 12.857 114.596 13.433 114.788 14.087C114.98 14.735 115.037 15.425 114.959 16.157H108.02C108.098 16.571 108.248 16.946 108.47 17.282C108.698 17.612 108.986 17.873 109.334 18.065C109.688 18.257 110.081 18.356 110.513 18.362C110.969 18.362 111.383 18.248 111.755 18.02C112.133 17.792 112.442 17.477 112.682 17.075L114.581 17.516C114.221 18.314 113.678 18.968 112.952 19.478C112.226 19.982 111.413 20.234 110.513 20.234ZM107.957 14.726H113.069C113.009 14.294 112.856 13.904 112.61 13.556C112.37 13.202 112.067 12.923 111.701 12.719C111.341 12.509 110.945 12.404 110.513 12.404C110.087 12.404 109.691 12.506 109.325 12.71C108.965 12.914 108.665 13.193 108.425 13.547C108.191 13.895 108.035 14.288 107.957 14.726Z" fill="black"/>
<path d="M121.201 12.872H119.311L119.302 20H117.43L117.439 12.872H116.008V11H117.439L117.43 8.174H119.302L119.311 11H121.201V12.872Z" fill="black"/>
<path d="M129.65 11H131.522V20H129.641L129.569 18.695C129.305 19.157 128.948 19.529 128.498 19.811C128.054 20.093 127.526 20.234 126.914 20.234C126.248 20.234 125.624 20.111 125.042 19.865C124.466 19.613 123.956 19.265 123.512 18.821C123.074 18.377 122.729 17.867 122.477 17.291C122.231 16.709 122.108 16.085 122.108 15.419C122.108 14.777 122.228 14.174 122.468 13.61C122.708 13.04 123.041 12.542 123.467 12.116C123.893 11.69 124.385 11.357 124.943 11.117C125.507 10.871 126.11 10.748 126.752 10.748C127.406 10.748 127.982 10.898 128.48 11.198C128.984 11.492 129.398 11.87 129.722 12.332L129.65 11ZM126.959 18.425C127.499 18.425 127.964 18.29 128.354 18.02C128.75 17.75 129.047 17.387 129.245 16.931C129.449 16.475 129.536 15.971 129.506 15.419C129.47 14.891 129.329 14.411 129.083 13.979C128.843 13.547 128.522 13.205 128.12 12.953C127.718 12.695 127.262 12.566 126.752 12.566C126.218 12.566 125.735 12.701 125.303 12.971C124.877 13.241 124.547 13.604 124.313 14.06C124.079 14.516 123.977 15.023 124.007 15.581C124.043 16.103 124.199 16.58 124.475 17.012C124.757 17.444 125.114 17.789 125.546 18.047C125.984 18.299 126.455 18.425 126.959 18.425Z" fill="black"/>
<path d="M133.676 11H135.548V20H133.676V11ZM134.621 9.515C134.339 9.515 134.102 9.422 133.91 9.236C133.718 9.05 133.622 8.816 133.622 8.534C133.622 8.258 133.718 8.027 133.91 7.841C134.102 7.649 134.339 7.553 134.621 7.553C134.897 7.553 135.131 7.649 135.323 7.841C135.515 8.027 135.611 8.258 135.611 8.534C135.611 8.816 135.515 9.05 135.323 9.236C135.131 9.422 134.897 9.515 134.621 9.515Z" fill="black"/>
<path d="M138.495 20V6.5H140.358V20H138.495Z" fill="black"/>
<rect width="27" height="27" rx="13.5" fill="#FF4F0D"/>
<path d="M9.728 19.2039V17.4599C10.0747 17.1986 10.4853 16.8759 10.96 16.4919C11.4347 16.1026 11.9227 15.6839 12.424 15.2359C12.9253 14.7826 13.3893 14.3292 13.816 13.8759C14.2427 13.4226 14.5893 12.9906 14.856 12.5799C15.128 12.1692 15.264 11.8172 15.264 11.5239C15.264 11.1986 15.184 10.9026 15.024 10.6359C14.864 10.3639 14.6507 10.1479 14.384 9.9879C14.1227 9.8279 13.8293 9.7479 13.504 9.7479C13.1787 9.7479 12.8827 9.8279 12.616 9.9879C12.3493 10.1479 12.136 10.3639 11.976 10.6359C11.816 10.9026 11.736 11.1986 11.736 11.5239H9.784C9.784 10.8199 9.95466 10.1879 10.296 9.6279C10.6373 9.06257 11.088 8.61723 11.648 8.2919C12.2133 7.96123 12.832 7.7959 13.504 7.7959C14.1867 7.7959 14.808 7.9639 15.368 8.2999C15.928 8.63057 16.376 9.07857 16.712 9.6439C17.048 10.2092 17.216 10.8359 17.216 11.5239C17.216 11.8866 17.1493 12.2519 17.016 12.6199C16.8827 12.9879 16.696 13.3586 16.456 13.7319C16.216 14.1052 15.9333 14.4839 15.608 14.8679C15.2827 15.2466 14.9227 15.6359 14.528 16.0359C14.1387 16.4306 13.728 16.8359 13.296 17.2519H17.272V19.2039H9.728Z" fill="white"/>
</svg>
