<svg width="247" height="27" viewBox="0 0 247 27" fill="none" xmlns="http://www.w3.org/2000/svg">
<path d="M48.571 20.234C47.881 20.234 47.218 20.126 46.582 19.91C45.946 19.694 45.391 19.385 44.917 18.983C44.443 18.575 44.104 18.092 43.9 17.534L45.655 16.877C45.757 17.165 45.952 17.423 46.24 17.651C46.534 17.873 46.882 18.047 47.284 18.173C47.692 18.299 48.121 18.362 48.571 18.362C49.051 18.362 49.501 18.284 49.921 18.128C50.347 17.972 50.689 17.756 50.947 17.48C51.211 17.204 51.343 16.88 51.343 16.508C51.343 16.124 51.205 15.809 50.929 15.563C50.659 15.317 50.311 15.122 49.885 14.978C49.465 14.834 49.027 14.726 48.571 14.654C47.689 14.51 46.897 14.3 46.195 14.024C45.499 13.748 44.947 13.361 44.539 12.863C44.137 12.365 43.936 11.717 43.936 10.919C43.936 10.169 44.149 9.515 44.575 8.957C45.007 8.399 45.574 7.967 46.276 7.661C46.984 7.349 47.749 7.193 48.571 7.193C49.249 7.193 49.903 7.301 50.533 7.517C51.169 7.727 51.727 8.036 52.207 8.444C52.693 8.846 53.041 9.335 53.251 9.911L51.478 10.55C51.376 10.256 51.181 10.001 50.893 9.785C50.605 9.563 50.257 9.389 49.849 9.263C49.447 9.137 49.021 9.074 48.571 9.074C48.091 9.068 47.641 9.146 47.221 9.308C46.807 9.464 46.468 9.68 46.204 9.956C45.94 10.232 45.808 10.553 45.808 10.919C45.808 11.369 45.931 11.711 46.177 11.945C46.423 12.179 46.753 12.353 47.167 12.467C47.587 12.575 48.055 12.674 48.571 12.764C49.399 12.896 50.164 13.115 50.866 13.421C51.574 13.727 52.141 14.135 52.567 14.645C52.999 15.149 53.215 15.77 53.215 16.508C53.215 17.252 52.999 17.906 52.567 18.47C52.141 19.028 51.574 19.463 50.866 19.775C50.164 20.081 49.399 20.234 48.571 20.234ZM58.956 20.234C58.128 20.234 57.372 20.021 56.688 19.595C56.01 19.169 55.467 18.599 55.059 17.885C54.657 17.165 54.456 16.37 54.456 15.5C54.456 14.84 54.573 14.225 54.807 13.655C55.041 13.079 55.362 12.575 55.77 12.143C56.184 11.705 56.664 11.363 57.21 11.117C57.756 10.871 58.338 10.748 58.956 10.748C59.646 10.748 60.279 10.892 60.855 11.18C61.431 11.462 61.923 11.855 62.331 12.359C62.739 12.857 63.039 13.433 63.231 14.087C63.423 14.735 63.48 15.425 63.402 16.157H56.463C56.541 16.571 56.691 16.946 56.913 17.282C57.141 17.612 57.429 17.873 57.777 18.065C58.131 18.257 58.524 18.356 58.956 18.362C59.412 18.362 59.826 18.248 60.198 18.02C60.576 17.792 60.885 17.477 61.125 17.075L63.024 17.516C62.664 18.314 62.121 18.968 61.395 19.478C60.669 19.982 59.856 20.234 58.956 20.234ZM56.4 14.726H61.512C61.452 14.294 61.299 13.904 61.053 13.556C60.813 13.202 60.51 12.923 60.144 12.719C59.784 12.509 59.388 12.404 58.956 12.404C58.53 12.404 58.134 12.506 57.768 12.71C57.408 12.914 57.108 13.193 56.868 13.547C56.634 13.895 56.478 14.288 56.4 14.726ZM64.9478 20V6.5H66.8108V20H64.9478ZM73.0361 20.234C72.2081 20.234 71.4521 20.021 70.7681 19.595C70.0901 19.169 69.5471 18.599 69.1391 17.885C68.7371 17.165 68.5361 16.37 68.5361 15.5C68.5361 14.84 68.6531 14.225 68.8871 13.655C69.1211 13.079 69.4421 12.575 69.8501 12.143C70.2641 11.705 70.7441 11.363 71.2901 11.117C71.8361 10.871 72.4181 10.748 73.0361 10.748C73.7261 10.748 74.3591 10.892 74.9351 11.18C75.5111 11.462 76.0031 11.855 76.4111 12.359C76.8191 12.857 77.1191 13.433 77.3111 14.087C77.5031 14.735 77.5601 15.425 77.4821 16.157H70.5431C70.6211 16.571 70.7711 16.946 70.9931 17.282C71.2211 17.612 71.5091 17.873 71.8571 18.065C72.2111 18.257 72.6041 18.356 73.0361 18.362C73.4921 18.362 73.9061 18.248 74.2781 18.02C74.6561 17.792 74.9651 17.477 75.2051 17.075L77.1041 17.516C76.7441 18.314 76.2011 18.968 75.4751 19.478C74.7491 19.982 73.9361 20.234 73.0361 20.234ZM70.4801 14.726H75.5921C75.5321 14.294 75.3791 13.904 75.1331 13.556C74.8931 13.202 74.5901 12.923 74.2241 12.719C73.8641 12.509 73.4681 12.404 73.0361 12.404C72.6101 12.404 72.2141 12.506 71.8481 12.71C71.4881 12.914 71.1881 13.193 70.9481 13.547C70.7141 13.895 70.5581 14.288 70.4801 14.726ZM84.8496 17.444L86.5236 18.353C86.1156 18.923 85.5966 19.379 84.9666 19.721C84.3426 20.063 83.6646 20.234 82.9326 20.234C82.1046 20.234 81.3486 20.021 80.6646 19.595C79.9866 19.169 79.4436 18.599 79.0356 17.885C78.6336 17.165 78.4326 16.37 78.4326 15.5C78.4326 14.84 78.5496 14.225 78.7836 13.655C79.0176 13.079 79.3386 12.575 79.7466 12.143C80.1606 11.705 80.6406 11.363 81.1866 11.117C81.7326 10.871 82.3146 10.748 82.9326 10.748C83.6646 10.748 84.3426 10.919 84.9666 11.261C85.5966 11.603 86.1156 12.062 86.5236 12.638L84.8496 13.547C84.5976 13.247 84.3036 13.019 83.9676 12.863C83.6316 12.701 83.2866 12.62 82.9326 12.62C82.4406 12.62 81.9936 12.755 81.5916 13.025C81.1956 13.289 80.8806 13.64 80.6466 14.078C80.4186 14.51 80.3046 14.984 80.3046 15.5C80.3046 16.01 80.4216 16.484 80.6556 16.922C80.8896 17.354 81.2046 17.702 81.6006 17.966C82.0026 18.23 82.4466 18.362 82.9326 18.362C83.3046 18.362 83.6586 18.278 83.9946 18.11C84.3306 17.942 84.6156 17.72 84.8496 17.444ZM92.9004 12.872H91.0104L91.0014 20H89.1294L89.1384 12.872H87.7074V11H89.1384L89.1294 8.174H91.0014L91.0104 11H92.9004V12.872ZM109.325 11H111.323L106.391 24.5H104.402L106.031 20L102.8 11H104.843L106.967 17.435L109.325 11ZM116.313 20.234C115.485 20.234 114.729 20.021 114.045 19.595C113.367 19.169 112.824 18.599 112.416 17.885C112.014 17.165 111.813 16.37 111.813 15.5C111.813 14.84 111.93 14.225 112.164 13.655C112.398 13.079 112.719 12.575 113.127 12.143C113.541 11.705 114.021 11.363 114.567 11.117C115.113 10.871 115.695 10.748 116.313 10.748C117.141 10.748 117.894 10.961 118.572 11.387C119.256 11.813 119.799 12.386 120.201 13.106C120.609 13.826 120.813 14.624 120.813 15.5C120.813 16.154 120.696 16.766 120.462 17.336C120.228 17.906 119.904 18.41 119.49 18.848C119.082 19.28 118.605 19.619 118.059 19.865C117.519 20.111 116.937 20.234 116.313 20.234ZM116.313 18.362C116.811 18.362 117.258 18.23 117.654 17.966C118.05 17.702 118.362 17.354 118.59 16.922C118.824 16.484 118.941 16.01 118.941 15.5C118.941 14.978 118.821 14.498 118.581 14.06C118.347 13.622 118.032 13.274 117.636 13.016C117.24 12.752 116.799 12.62 116.313 12.62C115.821 12.62 115.374 12.752 114.972 13.016C114.576 13.28 114.261 13.631 114.027 14.069C113.799 14.507 113.685 14.984 113.685 15.5C113.685 16.034 113.805 16.517 114.045 16.949C114.285 17.381 114.603 17.726 114.999 17.984C115.401 18.236 115.839 18.362 116.313 18.362ZM122.092 15.698V11H123.964V15.662C123.964 16.172 124.069 16.637 124.279 17.057C124.495 17.471 124.786 17.804 125.152 18.056C125.524 18.302 125.947 18.425 126.421 18.425C126.883 18.425 127.288 18.302 127.636 18.056C127.99 17.804 128.263 17.471 128.455 17.057C128.653 16.637 128.752 16.172 128.752 15.662V11H130.624V20H128.752V18.776C128.44 19.226 128.062 19.583 127.618 19.847C127.174 20.111 126.673 20.243 126.115 20.243C125.311 20.243 124.606 20.039 124 19.631C123.4 19.217 122.935 18.665 122.605 17.975C122.275 17.285 122.104 16.526 122.092 15.698ZM138.098 12.881C137.942 12.785 137.771 12.71 137.585 12.656C137.405 12.596 137.207 12.566 136.991 12.566C136.523 12.566 136.115 12.689 135.767 12.935C135.419 13.181 135.146 13.514 134.948 13.934C134.756 14.354 134.66 14.819 134.66 15.329V20H132.779V11H134.651V12.215C134.963 11.765 135.341 11.411 135.785 11.153C136.235 10.889 136.736 10.757 137.288 10.757C137.492 10.757 137.684 10.766 137.864 10.784C138.05 10.802 138.227 10.838 138.395 10.892L138.098 12.881ZM144.172 20V7.4H146.197L151.975 16.616V7.4H153.847V20H151.831L146.035 10.784V20H144.172ZM156.299 20V7.4H163.724V9.272H158.171V12.314H162.86V14.186H158.171V20H156.299ZM174.513 7.4V9.272H170.499V20H168.627V9.272H164.622V7.4H174.513Z" fill="black"/>
<rect width="27" height="27" rx="13.5" fill="#FF4F0D"/>
<path d="M13.2668 19V9.752H11.8588L12.3868 7.8H15.2188V19H13.2668Z" fill="white"/>
</svg>
