<svg width="70" height="70" viewBox="0 0 70 70" fill="none" xmlns="http://www.w3.org/2000/svg">
<g clip-path="url(#clip0_178_508)">
<path d="M56.5492 12.0078H13.3577V51.2897H56.5492V12.0078Z" fill="white"/>
<path fill-rule="evenodd" clip-rule="evenodd" d="M69.9302 34.9998C69.9302 54.3043 54.2812 69.9533 34.9767 69.9533C15.6724 69.9533 0.0232544 54.3043 0.0232544 34.9998C0.0232544 15.6956 15.6724 0.0463867 34.9767 0.0463867C54.2812 0.0463867 69.9302 15.6956 69.9302 34.9998ZM25.0719 48.9095H18.2884C16.863 48.9095 16.1589 48.9095 15.7296 48.6349C15.2659 48.3343 14.9825 47.8363 14.9482 47.2866C14.9224 46.7802 15.2745 46.1618 15.9786 44.9253L32.7279 15.4024C33.4406 14.1487 33.8012 13.5219 34.2563 13.2901C34.7457 13.0411 35.3296 13.0411 35.8191 13.2901C36.2742 13.5219 36.6348 14.1487 37.3475 15.4024L40.7908 21.4131L40.8084 21.4438C41.5781 22.7887 41.9685 23.4707 42.1389 24.1866C42.3278 24.968 42.3278 25.7923 42.1389 26.5737C41.9672 27.295 41.5808 27.9819 40.7994 29.3472L32.0014 44.8995L31.9786 44.9394C31.2038 46.2954 30.8111 46.9827 30.2669 47.5012C29.6744 48.0681 28.9617 48.48 28.1803 48.7122C27.4676 48.9095 26.6691 48.9095 25.0719 48.9095ZM42.2024 48.9095H51.9224C53.3564 48.9095 54.0778 48.9096 54.5074 48.6266C54.9709 48.3259 55.2627 47.8191 55.2888 47.2699C55.3135 46.7798 54.9691 46.1854 54.2942 45.0208C54.2709 44.9811 54.2477 44.9408 54.2239 44.8997L49.3551 36.5707L49.2997 36.4769C48.6155 35.3199 48.2702 34.7357 47.8266 34.5098C47.3375 34.2608 46.7617 34.2608 46.2725 34.5098C45.826 34.7417 45.4654 35.3513 44.7527 36.5792L39.9012 44.9083L39.8846 44.937C39.1744 46.1629 38.8195 46.7756 38.845 47.2782C38.8794 47.8279 39.1627 48.3343 39.6264 48.6349C40.0472 48.9095 40.7685 48.9095 42.2024 48.9095Z" fill="#E84142"/>
</g>
<defs>
<clipPath id="clip0_178_508">
<rect width="69.9535" height="70" fill="white"/>
</clipPath>
</defs>
</svg>
