<svg width="70" height="70" viewBox="0 0 70 70" fill="none" xmlns="http://www.w3.org/2000/svg">
<circle cx="35" cy="35" r="35" fill="white"/>
<g clip-path="url(#clip0_178_509)">
<path d="M45.908 27.8308C45.1418 27.3929 44.1567 27.3929 43.2811 27.8308L37.1518 31.4427L32.9926 33.7412L26.9727 37.3531C26.2065 37.791 25.2214 37.791 24.3458 37.3531L19.6393 34.5074C18.8732 34.0696 18.3259 33.1939 18.3259 32.2089V26.7362C18.3259 25.8606 18.7637 24.985 19.6393 24.4377L24.3458 21.7014C25.112 21.2636 26.097 21.2636 26.9727 21.7014L31.6791 24.5472C32.4453 24.985 32.9926 25.8606 32.9926 26.8457V30.4576L37.1518 28.0497V24.3283C37.1518 23.4527 36.7139 22.577 35.8383 22.0298L27.0821 16.8855C26.3159 16.4477 25.3309 16.4477 24.4552 16.8855L15.4801 22.1392C14.6045 22.577 14.1667 23.4527 14.1667 24.3283V34.6168C14.1667 35.4925 14.6045 36.3681 15.4801 36.9153L24.3458 42.0596C25.112 42.4974 26.097 42.4974 26.9727 42.0596L32.9926 38.5571L37.1518 36.1492L43.1717 32.6467C43.9378 32.2089 44.9229 32.2089 45.7985 32.6467L50.505 35.383C51.2712 35.8208 51.8184 36.6964 51.8184 37.6815V43.1541C51.8184 44.0298 51.3806 44.9054 50.505 45.4526L45.908 48.189C45.1418 48.6268 44.1567 48.6268 43.2811 48.189L38.5746 45.4526C37.8085 45.0148 37.2612 44.1392 37.2612 43.1541V39.6517L33.102 42.0596V45.6716C33.102 46.5472 33.5398 47.4228 34.4154 47.9701L43.2811 53.1143C44.0473 53.5521 45.0324 53.5521 45.908 53.1143L54.7736 47.9701C55.5398 47.5323 56.0871 46.6566 56.0871 45.6716V35.2735C56.0871 34.3979 55.6493 33.5223 54.7736 32.975L45.908 27.8308Z" fill="#8247E5"/>
</g>
<defs>
<clipPath id="clip0_178_509">
<rect width="42.0299" height="36.6667" fill="white" transform="translate(14.1667 16.6665)"/>
</clipPath>
</defs>
</svg>
