<svg width="70" height="70" viewBox="0 0 70 70" fill="none" xmlns="http://www.w3.org/2000/svg">
<circle cx="35" cy="35" r="35" fill="#1D1336"/>
<path d="M20.0212 34.1231C20.0212 33.7019 20.3644 33.3604 20.7877 33.3604H49.1471C49.5704 33.3604 49.9136 33.7019 49.9136 34.1231C49.9136 34.5444 49.5704 34.8859 49.1471 34.8859H20.7877C20.3644 34.8859 20.0212 34.5444 20.0212 34.1231Z" fill="#E1147B"/>
<path d="M14.2727 37.4793C14.2727 37.0581 14.6158 36.7166 15.0392 36.7166H35.7339C36.1572 36.7166 36.5003 37.0581 36.5003 37.4793C36.5003 37.9006 36.1572 38.2421 35.7339 38.2421H15.0392C14.6158 38.2421 14.2727 37.9006 14.2727 37.4793Z" fill="#E1147B"/>
<path d="M33.5111 46.7852C33.0878 46.7852 32.7446 47.1267 32.7446 47.548C32.7446 47.9693 33.0878 48.3108 33.5111 48.3108H46.3112C46.7345 48.3108 47.0776 47.9693 47.0776 47.548C47.0776 47.1267 46.7345 46.7852 46.3112 46.7852H33.5111Z" fill="#E1147B"/>
<path d="M24.9266 50.9042C24.9266 50.4829 25.2698 50.1414 25.6931 50.1414H38.4165C38.8398 50.1414 39.183 50.4829 39.183 50.9042C39.183 51.3255 38.8398 51.667 38.4165 51.667H25.6931C25.2698 51.667 24.9266 51.3255 24.9266 50.9042Z" fill="#E1147B"/>
<path d="M20.7877 40.0728C20.3644 40.0728 20.0212 40.4143 20.0212 40.8356C20.0212 41.2568 20.3644 41.5983 20.7877 41.5983H45.7746C46.198 41.5983 46.5411 41.2568 46.5411 40.8356C46.5411 40.4143 46.198 40.0728 45.7746 40.0728H20.7877Z" fill="#E1147B"/>
<path d="M15.729 44.1918C15.729 43.7705 16.0721 43.429 16.4955 43.429H26.4596C26.8829 43.429 27.226 43.7705 27.226 44.1918C27.226 44.613 26.8829 44.9546 26.4596 44.9546H16.4955C16.0721 44.9546 15.729 44.613 15.729 44.1918Z" fill="#E1147B"/>
<path d="M29.3722 43.429C28.9488 43.429 28.6057 43.7705 28.6057 44.1918C28.6057 44.613 28.9488 44.9546 29.3722 44.9546H50.0669C50.4902 44.9546 50.8334 44.613 50.8334 44.1918C50.8334 43.7705 50.4902 43.429 50.0669 43.429H29.3722Z" fill="#E1147B"/>
<path d="M18.9482 34.1231C18.9482 34.5444 18.605 34.8859 18.1817 34.8859C17.7584 34.8859 17.4152 34.5444 17.4152 34.1231C17.4152 33.7019 17.7584 33.3604 18.1817 33.3604C18.605 33.3604 18.9482 33.7019 18.9482 34.1231Z" fill="#E1147B"/>
<path d="M12.4332 38.2421C12.8565 38.2421 13.1996 37.9006 13.1996 37.4793C13.1996 37.0581 12.8565 36.7166 12.4332 36.7166C12.0098 36.7166 11.6667 37.0581 11.6667 37.4793C11.6667 37.9006 12.0098 38.2421 12.4332 38.2421Z" fill="#E1147B"/>
<path d="M31.6716 47.548C31.6716 47.9693 31.3284 48.3108 30.9051 48.3108C30.4818 48.3108 30.1386 47.9693 30.1386 47.548C30.1386 47.1267 30.4818 46.7852 30.9051 46.7852C31.3284 46.7852 31.6716 47.1267 31.6716 47.548Z" fill="#E1147B"/>
<path d="M23.0871 51.667C23.5104 51.667 23.8536 51.3255 23.8536 50.9042C23.8536 50.4829 23.5104 50.1414 23.0871 50.1414C22.6638 50.1414 22.3206 50.4829 22.3206 50.9042C22.3206 51.3255 22.6638 51.667 23.0871 51.667Z" fill="#E1147B"/>
<path d="M18.9482 40.8356C18.9482 41.2568 18.605 41.5983 18.1817 41.5983C17.7584 41.5983 17.4152 41.2568 17.4152 40.8356C17.4152 40.4143 17.7584 40.0728 18.1817 40.0728C18.605 40.0728 18.9482 40.4143 18.9482 40.8356Z" fill="#E1147B"/>
<path d="M13.8895 44.9546C14.3128 44.9546 14.6559 44.613 14.6559 44.1918C14.6559 43.7705 14.3128 43.429 13.8895 43.429C13.4661 43.429 13.123 43.7705 13.123 44.1918C13.123 44.613 13.4661 44.9546 13.8895 44.9546Z" fill="#E1147B"/>
<path d="M46.2977 25.8675C46.914 27.3482 47.2312 28.9352 47.2312 30.5379C47.2312 30.8749 46.9566 31.1481 46.618 31.1481H23.3173C22.9786 31.1481 22.7041 30.8749 22.7041 30.5379C22.7041 28.9352 23.0213 27.3482 23.6376 25.8675C24.2539 24.3868 25.1572 23.0414 26.296 21.9081C27.4348 20.7748 28.7867 19.8758 30.2746 19.2625C31.7625 18.6492 33.3572 18.3335 34.9676 18.3335C36.5781 18.3335 38.1728 18.6492 39.6607 19.2625C41.1486 19.8758 42.5005 20.7748 43.6393 21.9081C44.778 23.0414 45.6814 24.3868 46.2977 25.8675Z" fill="#53CBC7"/>
</svg>
