<svg width="70" height="70" viewBox="0 0 70 70" fill="none" xmlns="http://www.w3.org/2000/svg">
<path d="M35 70C54.33 70 70 54.33 70 35C70 15.67 54.33 0 35 0C15.67 0 0 15.67 0 35C0 54.33 15.67 70 35 70Z" fill="#13B5EC"/>
<path fill-rule="evenodd" clip-rule="evenodd" d="M37.625 28.2187L45.5 23.625V32.8125L37.625 28.2187ZM45.5 47.9062L35 54.0312L24.5 47.9062V37.1875L35 43.3125L45.5 37.1875V47.9062ZM24.5 23.625L32.375 28.2187L24.5 32.8125V23.625ZM36.3125 30.4062L44.1875 35L36.3125 39.5937V30.4062ZM33.6875 39.5937L25.8125 35L33.6875 30.4062V39.5937ZM44.1875 21.4375L35 26.6875L25.8125 21.4375L35 15.9688L44.1875 21.4375ZM21.875 20.5625V49.2187L35 56.6562L48.125 49.2187V20.5625L35 13.125L21.875 20.5625Z" fill="white"/>
</svg>
