<svg width="77" height="77" viewBox="0 0 77 77" fill="none" xmlns="http://www.w3.org/2000/svg">
<rect width="77" height="77" rx="38.5" fill="#EEEEEE"/>
<g clip-path="url(#clip0_29_149)">
<path d="M54.4999 39.9375C54.4205 39.9378 54.3414 39.9281 54.2645 39.9084C54.141 39.8776 54.0248 39.8228 53.9225 39.747C53.8202 39.6713 53.7339 39.5762 53.6684 39.467C53.6029 39.3579 53.5595 39.2369 53.5408 39.111C53.5221 38.9852 53.5284 38.8568 53.5592 38.7333L55.9811 29.0458C56.0336 28.8362 56.1548 28.6501 56.3252 28.5172C56.4957 28.3844 56.7057 28.3123 56.9218 28.3125H63.2187C63.4756 28.3125 63.722 28.4146 63.9037 28.5962C64.0853 28.7779 64.1874 29.0243 64.1874 29.2813C64.1874 29.5382 64.0853 29.7846 63.9037 29.9663C63.722 30.1479 63.4756 30.25 63.2187 30.25H57.6784L55.4396 39.2042C55.3871 39.4137 55.2661 39.5996 55.0959 39.7325C54.9256 39.8653 54.7159 39.9375 54.4999 39.9375Z" fill="url(#paint0_radial_29_149)"/>
<path d="M55.2633 38.373C55.1728 38.2569 55.057 38.163 54.9247 38.0983C54.7924 38.0337 54.6472 38.0001 54.5 38H14.7812C14.634 38 14.4887 38.0336 14.3563 38.0982C14.224 38.1628 14.1081 38.2567 14.0175 38.3728C13.9269 38.4889 13.864 38.6241 13.8335 38.7681C13.803 38.9122 13.8058 39.0613 13.8415 39.2042L19.654 62.4542C19.7065 62.6636 19.8275 62.8496 19.9977 62.9825C20.168 63.1153 20.3778 63.1875 20.5937 63.1875H48.6875C48.9034 63.1875 49.1132 63.1153 49.2835 62.9825C49.4537 62.8496 49.5747 62.6636 49.6272 62.4542L55.4397 39.2042C55.4754 39.0613 55.478 38.9122 55.4475 38.7682C55.4169 38.6242 55.354 38.489 55.2633 38.373Z" fill="url(#paint1_linear_29_149)"/>
<path d="M46.6172 63.1875H48.6874C48.9034 63.1875 49.1131 63.1153 49.2834 62.9825C49.4536 62.8496 49.5746 62.6636 49.6271 62.4542L55.4396 39.2042C55.4754 39.0613 55.4781 38.9122 55.4476 38.7681C55.4171 38.6241 55.3542 38.4889 55.2636 38.3728C55.173 38.2567 55.0572 38.1628 54.9248 38.0982C54.7925 38.0336 54.6472 38 54.4999 38H21.4297L46.6172 63.1875Z" fill="url(#paint2_linear_29_149)"/>
<path d="M16.4473 49.625L19.6538 62.4542C19.7063 62.6636 19.8273 62.8496 19.9975 62.9825C20.1678 63.1153 20.3776 63.1875 20.5935 63.1875H48.6873C48.9032 63.1875 49.113 63.1153 49.2832 62.9825C49.4535 62.8496 49.5745 62.6636 49.6269 62.4542L52.8335 49.625H16.4473Z" fill="url(#paint3_linear_29_149)"/>
<path d="M24.4688 69C26.6089 69 28.3438 67.2651 28.3438 65.125C28.3438 62.9849 26.6089 61.25 24.4688 61.25C22.3286 61.25 20.5938 62.9849 20.5938 65.125C20.5938 67.2651 22.3286 69 24.4688 69Z" fill="url(#paint4_linear_29_149)"/>
<path d="M44.8125 69C46.9526 69 48.6875 67.2651 48.6875 65.125C48.6875 62.9849 46.9526 61.25 44.8125 61.25C42.6724 61.25 40.9375 62.9849 40.9375 65.125C40.9375 67.2651 42.6724 69 44.8125 69Z" fill="url(#paint5_linear_29_149)"/>
<path d="M18.6562 17.7356V33.0748C18.6563 33.4149 18.7458 33.749 18.9158 34.0435C19.0859 34.3381 19.3305 34.5827 19.625 34.7527L33.1875 42.5831C33.482 42.7532 33.8161 42.8427 34.1562 42.8427C34.4964 42.8427 34.8305 42.7532 35.125 42.5831L48.6875 34.7527C48.982 34.5827 49.2266 34.3381 49.3967 34.0435C49.5667 33.749 49.6562 33.4149 49.6562 33.0748V17.7356C49.6562 17.3955 49.5667 17.0614 49.3967 16.7669C49.2266 16.4724 48.982 16.2278 48.6875 16.0578L35.125 8.22735C34.8305 8.0573 34.4964 7.96777 34.1562 7.96777C33.8161 7.96777 33.482 8.0573 33.1875 8.22735L19.625 16.0578C19.3305 16.2278 19.0859 16.4724 18.9158 16.7669C18.7458 17.0614 18.6563 17.3955 18.6562 17.7356Z" fill="url(#paint6_linear_29_149)"/>
<path d="M20.5938 33.0749V17.7357L34.1562 9.90527L47.7188 17.7357V33.0749L34.1562 40.9053L20.5938 33.0749Z" fill="url(#paint7_linear_29_149)"/>
<path d="M39.2422 15.1298L35.3672 12.893C35.2199 12.8079 35.0529 12.7632 34.8828 12.7632C34.7128 12.7632 34.5457 12.8079 34.3984 12.893L33.4297 13.4519C33.2824 13.537 33.1601 13.6593 33.0751 13.8065C32.9901 13.9538 32.9453 14.1208 32.9453 14.2909V37.4663C32.9453 37.7232 33.0474 37.9696 33.2291 38.1513C33.4107 38.333 33.6571 38.435 33.9141 38.435C34.171 38.435 34.4174 38.333 34.5991 38.1513C34.7807 37.9696 34.8828 37.7232 34.8828 37.4663V27.2944H38.2734C38.5304 27.2944 38.7768 27.1923 38.9584 27.0107C39.1401 26.829 39.2422 26.5826 39.2422 26.3257C39.2422 26.0687 39.1401 25.8223 38.9584 25.6406C38.7768 25.459 38.5304 25.3569 38.2734 25.3569H34.8828V14.8469L38.2734 16.8048C38.4961 16.9332 38.7606 16.968 39.0089 16.9014C39.2571 16.8348 39.4688 16.6724 39.5972 16.4497C39.7257 16.2271 39.7605 15.9626 39.6939 15.7143C39.6273 15.466 39.4648 15.2544 39.2422 15.1259V15.1298Z" fill="url(#paint8_linear_29_149)"/>
<path d="M46.9921 19.6042L42.1484 16.8075C41.9257 16.679 41.6612 16.6442 41.4129 16.7108C41.1647 16.7774 40.953 16.9399 40.8246 17.1625C40.6961 17.3851 40.6613 17.6497 40.7279 17.8979C40.7945 18.1462 40.957 18.3578 41.1796 18.4863L42.6327 19.3252V33.5911C42.6327 33.848 42.7348 34.0944 42.9165 34.2761C43.0981 34.4577 43.3446 34.5598 43.6015 34.5598C43.8584 34.5598 44.1048 34.4577 44.2865 34.2761C44.4682 34.0944 44.5702 33.848 44.5702 33.5911V20.4432L46.0234 21.2831C46.1336 21.3467 46.2553 21.388 46.3815 21.4046C46.5077 21.4211 46.6359 21.4127 46.7588 21.3797C46.8817 21.3468 46.9969 21.2899 47.0979 21.2124C47.1989 21.1349 47.2836 21.0383 47.3472 20.928C47.4108 20.8178 47.452 20.6961 47.4686 20.5699C47.4852 20.4438 47.4768 20.3155 47.4438 20.1926C47.4108 20.0697 47.354 19.9545 47.2765 19.8535C47.199 19.7526 47.1023 19.6679 46.9921 19.6042Z" fill="url(#paint9_linear_29_149)"/>
<path d="M29.5547 16.6382C29.2978 16.6382 29.0514 16.7402 28.8697 16.9219C28.688 17.1036 28.5859 17.35 28.5859 17.6069V30.0147L24.6422 20.1538C24.5588 19.9444 24.405 19.7707 24.2074 19.6625C24.0097 19.5543 23.7805 19.5184 23.5592 19.561C23.3379 19.6035 23.1384 19.7219 22.995 19.8957C22.8516 20.0695 22.7732 20.2878 22.7734 20.5132V33.1069C22.7734 33.3639 22.8755 33.6103 23.0572 33.7919C23.2389 33.9736 23.4853 34.0757 23.7422 34.0757C23.9991 34.0757 24.2455 33.9736 24.4272 33.7919C24.6089 33.6103 24.7109 33.3639 24.7109 33.1069V25.5429L28.6547 35.4048C28.7267 35.5844 28.8508 35.7383 29.011 35.8467C29.1712 35.9552 29.3603 36.0131 29.5537 36.0132C29.6155 36.0131 29.6771 36.0073 29.7378 35.9957C29.9589 35.9532 30.1583 35.8349 30.3016 35.6613C30.445 35.4877 30.5234 35.2696 30.5234 35.0444V17.6069C30.5234 17.35 30.4214 17.1036 30.2397 16.9219C30.058 16.7402 29.8116 16.6382 29.5547 16.6382Z" fill="url(#paint10_linear_29_149)"/>
<path d="M34.1562 43.8123C33.6463 43.8129 33.1451 43.6793 32.7031 43.4248L19.1406 35.5944C18.6991 35.3386 18.3324 34.9713 18.0774 34.5293C17.8224 34.0872 17.688 33.586 17.6875 33.0757V17.7355C17.6881 17.2252 17.8226 16.724 18.0776 16.282C18.3326 15.84 18.6991 15.4727 19.1406 15.2168L32.7031 7.38734C33.1452 7.13293 33.6462 6.99902 34.1562 6.99902C34.6663 6.99902 35.1673 7.13293 35.6094 7.38734L49.1719 15.2168C49.6132 15.4729 49.9796 15.8403 50.2346 16.2822C50.4895 16.7242 50.6242 17.2253 50.625 17.7355V33.0747C50.6245 33.585 50.4901 34.0863 50.2351 34.5283C49.9801 34.9703 49.6134 35.3376 49.1719 35.5935L35.6094 43.4248C35.1674 43.6793 34.6662 43.8129 34.1562 43.8123ZM34.1562 8.93734C33.9862 8.93735 33.8191 8.98212 33.6719 9.06715L20.1094 16.8976C19.9621 16.9826 19.8398 17.1049 19.7548 17.2521C19.6698 17.3994 19.625 17.5664 19.625 17.7365V33.0747C19.625 33.2448 19.6698 33.4118 19.7548 33.5591C19.8398 33.7063 19.9621 33.8286 20.1094 33.9136L33.6719 41.7441C33.8191 41.8291 33.9862 41.8738 34.1562 41.8738C34.3263 41.8738 34.4934 41.8291 34.6406 41.7441L48.2031 33.9136C48.3504 33.8286 48.4727 33.7063 48.5577 33.5591C48.6427 33.4118 48.6875 33.2448 48.6875 33.0747V17.7355C48.6877 17.5653 48.643 17.3981 48.5579 17.2506C48.4729 17.1032 48.3505 16.9807 48.2031 16.8956L34.6406 9.06618C34.4933 8.98149 34.3262 8.93705 34.1562 8.93734Z" fill="url(#paint11_linear_29_149)"/>
<path d="M38.5156 14.6938L34.6406 12.4569C34.4934 12.3719 34.3263 12.3271 34.1563 12.3271C33.9862 12.3271 33.8191 12.3719 33.6719 12.4569L32.7031 13.0159C32.5559 13.1009 32.4336 13.2232 32.3485 13.3705C32.2635 13.5177 32.2188 13.6848 32.2188 13.8548V37.0312C32.2188 37.2881 32.3208 37.5346 32.5025 37.7162C32.6842 37.8979 32.9306 38 33.1875 38C33.4444 38 33.6908 37.8979 33.8725 37.7162C34.0542 37.5346 34.1563 37.2881 34.1563 37.0312V26.8593H37.5469C37.8038 26.8593 38.0502 26.7573 38.2319 26.5756C38.4136 26.3939 38.5156 26.1475 38.5156 25.8906C38.5156 25.6337 38.4136 25.3873 38.2319 25.2056C38.0502 25.0239 37.8038 24.9218 37.5469 24.9218H34.1563V14.4148L37.5469 16.3726C37.7695 16.5011 38.0341 16.5359 38.2823 16.4693C38.5306 16.4027 38.7422 16.2402 38.8707 16.0176C38.9991 15.7949 39.0339 15.5304 38.9673 15.2821C38.9007 15.0339 38.7383 14.8222 38.5156 14.6938Z" fill="url(#paint12_linear_29_149)"/>
<path d="M46.2655 19.1687L41.4218 16.3719C41.1992 16.2435 40.9346 16.2087 40.6864 16.2753C40.4381 16.3419 40.2265 16.5043 40.098 16.727C39.9695 16.9496 39.9348 17.2141 40.0013 17.4624C40.0679 17.7107 40.2304 17.9223 40.453 18.0508L41.9062 18.8897V33.1565C41.9062 33.4134 42.0082 33.6598 42.1899 33.8415C42.3716 34.0232 42.618 34.1252 42.8749 34.1252C43.1318 34.1252 43.3783 34.0232 43.5599 33.8415C43.7416 33.6598 43.8437 33.4134 43.8437 33.1565V20.0076L45.2968 20.8466C45.5192 20.973 45.7825 21.0064 46.0294 20.9393C46.2763 20.8723 46.4867 20.7103 46.6146 20.4888C46.7425 20.2673 46.7776 20.0041 46.7122 19.7568C46.6468 19.5095 46.4862 19.2981 46.2655 19.1687Z" fill="url(#paint13_linear_29_149)"/>
<path d="M28.8281 16.2031C28.5712 16.2031 28.3248 16.3052 28.1431 16.4869C27.9614 16.6685 27.8594 16.9149 27.8594 17.1719V29.5787L23.9156 19.7168C23.8321 19.5073 23.6782 19.3335 23.4804 19.2253C23.2825 19.1171 23.0531 19.0813 22.8317 19.1242C22.6103 19.167 22.4108 19.2857 22.2675 19.4598C22.1242 19.634 22.0462 19.8526 22.0469 20.0781V32.6719C22.0469 32.9288 22.1489 33.1752 22.3306 33.3569C22.5123 33.5386 22.7587 33.6406 23.0156 33.6406C23.2726 33.6406 23.519 33.5386 23.7006 33.3569C23.8823 33.1752 23.9844 32.9288 23.9844 32.6719V25.1069L27.9282 34.9678C28 35.1477 28.1242 35.302 28.2846 35.4106C28.4451 35.5192 28.6344 35.5772 28.8281 35.5772C28.8896 35.577 28.9509 35.5712 29.0112 35.5597C29.2322 35.5172 29.4314 35.3991 29.5748 35.2257C29.7181 35.0523 29.7967 34.8344 29.7969 34.6094V17.1719C29.7969 16.9149 29.6948 16.6685 29.5131 16.4869C29.3315 16.3052 29.0851 16.2031 28.8281 16.2031Z" fill="url(#paint14_linear_29_149)"/>
<path d="M24.4688 67.0625C25.5388 67.0625 26.4062 66.1951 26.4062 65.125C26.4062 64.0549 25.5388 63.1875 24.4688 63.1875C23.3987 63.1875 22.5312 64.0549 22.5312 65.125C22.5312 66.1951 23.3987 67.0625 24.4688 67.0625Z" fill="url(#paint15_linear_29_149)"/>
<path d="M44.8125 67.0625C45.8826 67.0625 46.75 66.1951 46.75 65.125C46.75 64.0549 45.8826 63.1875 44.8125 63.1875C43.7424 63.1875 42.875 64.0549 42.875 65.125C42.875 66.1951 43.7424 67.0625 44.8125 67.0625Z" fill="url(#paint16_linear_29_149)"/>
</g>
<defs>
<radialGradient id="paint0_radial_29_149" cx="0" cy="0" r="1" gradientUnits="userSpaceOnUse" gradientTransform="translate(57.5863 30.1976) rotate(66.5984) scale(10.6129 32.147)">
<stop stop-color="#FF4F0D"/>
<stop offset="1" stop-color="#7AB694"/>
</radialGradient>
<linearGradient id="paint1_linear_29_149" x1="13.8125" y1="50.5938" x2="55.4687" y2="50.5938" gradientUnits="userSpaceOnUse">
<stop stop-color="#A0FAFF"/>
<stop offset="1" stop-color="#4DBEE6"/>
</linearGradient>
<linearGradient id="paint2_linear_29_149" x1="29.7978" y1="29.6319" x2="56.2204" y2="56.0556" gradientUnits="userSpaceOnUse">
<stop offset="0.003" stop-color="#4D8CE3"/>
<stop offset="1" stop-color="#4DBEE6" stop-opacity="0"/>
</linearGradient>
<linearGradient id="paint3_linear_29_149" x1="34.6404" y1="63.1875" x2="34.6404" y2="49.625" gradientUnits="userSpaceOnUse">
<stop stop-color="#4D8CE3"/>
<stop offset="0.062" stop-color="#4D95E4" stop-opacity="0.819"/>
<stop offset="0.139" stop-color="#4D9FE4" stop-opacity="0.628"/>
<stop offset="0.222" stop-color="#4DA7E5" stop-opacity="0.459"/>
<stop offset="0.31" stop-color="#4DAEE5" stop-opacity="0.316"/>
<stop offset="0.404" stop-color="#4DB4E5" stop-opacity="0.201"/>
<stop offset="0.507" stop-color="#4DB8E6" stop-opacity="0.111"/>
<stop offset="0.624" stop-color="#4DBCE6" stop-opacity="0.048"/>
<stop offset="0.765" stop-color="#4DBDE6" stop-opacity="0.011"/>
<stop offset="1" stop-color="#4DBEE6" stop-opacity="0"/>
</linearGradient>
<linearGradient id="paint4_linear_29_149" x1="24.4688" y1="69" x2="24.4688" y2="61.25" gradientUnits="userSpaceOnUse">
<stop offset="0.002" stop-color="#3F464F"/>
<stop offset="1" stop-color="#5F6E88"/>
</linearGradient>
<linearGradient id="paint5_linear_29_149" x1="44.8125" y1="69" x2="44.8125" y2="61.25" gradientUnits="userSpaceOnUse">
<stop offset="0.002" stop-color="#3F464F"/>
<stop offset="1" stop-color="#5F6E88"/>
</linearGradient>
<linearGradient id="paint6_linear_29_149" x1="34.1562" y1="42.8427" x2="34.1562" y2="7.96772" gradientUnits="userSpaceOnUse">
<stop stop-color="#FFEA34"/>
<stop offset="1" stop-color="#F3BE36"/>
</linearGradient>
<linearGradient id="paint7_linear_29_149" x1="34.1562" y1="40.9053" x2="34.1562" y2="9.90527" gradientUnits="userSpaceOnUse">
<stop stop-color="#F3B436"/>
<stop offset="1" stop-color="#FFEA3C"/>
</linearGradient>
<linearGradient id="paint8_linear_29_149" x1="28.2265" y1="18.6086" x2="41.1845" y2="31.5656" gradientUnits="userSpaceOnUse">
<stop stop-color="#C17636"/>
<stop offset="1" stop-color="#F3B436" stop-opacity="0"/>
</linearGradient>
<linearGradient id="paint9_linear_29_149" x1="37.9885" y1="19.9511" x2="48.2999" y2="30.2625" gradientUnits="userSpaceOnUse">
<stop stop-color="#C17636"/>
<stop offset="1" stop-color="#F3B436" stop-opacity="0"/>
</linearGradient>
<linearGradient id="paint10_linear_29_149" x1="22.0885" y1="20.797" x2="33.6302" y2="32.3387" gradientUnits="userSpaceOnUse">
<stop stop-color="#C17636"/>
<stop offset="1" stop-color="#F3B436" stop-opacity="0"/>
</linearGradient>
<linearGradient id="paint11_linear_29_149" x1="8" y1="43.8104" x2="34.1562" y2="6.99984" gradientUnits="userSpaceOnUse">
<stop stop-color="#F3B436"/>
<stop offset="1" stop-color="#FFEA3C"/>
</linearGradient>
<linearGradient id="paint12_linear_29_149" x1="35.6094" y1="37.999" x2="35.6094" y2="12.3271" gradientUnits="userSpaceOnUse">
<stop stop-color="#FFDC46"/>
<stop offset="1" stop-color="#FFF578"/>
</linearGradient>
<linearGradient id="paint13_linear_29_149" x1="43.3593" y1="34.1243" x2="43.3593" y2="16.2421" gradientUnits="userSpaceOnUse">
<stop stop-color="#FFDC46"/>
<stop offset="1" stop-color="#FFF578"/>
</linearGradient>
<linearGradient id="paint14_linear_29_149" x1="25.9219" y1="35.5772" x2="25.9219" y2="16.2022" gradientUnits="userSpaceOnUse">
<stop stop-color="#FFDC46"/>
<stop offset="1" stop-color="#FFF578"/>
</linearGradient>
<linearGradient id="paint15_linear_29_149" x1="24.4688" y1="67.0625" x2="24.4688" y2="63.1875" gradientUnits="userSpaceOnUse">
<stop stop-color="#5F6E88"/>
<stop offset="0.998" stop-color="#3F464F"/>
</linearGradient>
<linearGradient id="paint16_linear_29_149" x1="44.8125" y1="7" x2="44.8125" y2="7" gradientUnits="userSpaceOnUse">
<stop stop-color="#5F6E88"/>
<stop offset="0.998" stop-color="#3F464F"/>
</linearGradient>
<clipPath id="clip0_29_149">
<rect width="62" height="62" fill="white" transform="translate(8 7)"/>
</clipPath>
</defs>
</svg>
