<svg width="77" height="77" viewBox="0 0 77 77" fill="none" xmlns="http://www.w3.org/2000/svg">
<rect width="77" height="77" rx="38.5" fill="#EEEEEE"/>
<path d="M28.3436 59.3123C28.2811 59.3123 28.2188 59.3062 28.1576 59.2939C27.9449 59.2525 27.7523 59.1411 27.6104 58.9775C27.4685 58.8138 27.3856 58.6073 27.3748 58.391L26.6153 43.1971L22.4497 52.9127C22.3699 53.1029 22.2314 53.2627 22.0545 53.3687C21.8776 53.4748 21.6714 53.5216 21.466 53.5023C21.2607 53.4831 21.0668 53.3988 20.9127 53.2617C20.7585 53.1247 20.6522 52.942 20.6091 52.7403L19.5318 47.8965C19.5079 47.7903 19.4524 47.6939 19.3725 47.6199C19.2927 47.546 19.1922 47.498 19.0845 47.4823C18.9768 47.4667 18.8668 47.4841 18.7692 47.5323C18.6716 47.5805 18.591 47.6572 18.5379 47.7522L15.6277 53.0009C15.5675 53.1148 15.4851 53.2155 15.3854 53.2972C15.2857 53.3788 15.1707 53.4398 15.0471 53.4765C14.9236 53.5131 14.794 53.5248 14.6658 53.5107C14.5377 53.4967 14.4137 53.4572 14.3011 53.3946C14.1884 53.332 14.0894 53.2476 14.0097 53.1463C13.9301 53.0449 13.8715 52.9287 13.8374 52.8045C13.8032 52.6802 13.7942 52.5503 13.8109 52.4226C13.8275 52.2948 13.8695 52.1716 13.9344 52.0602L16.8522 46.8086C17.0961 46.3699 17.4677 46.0157 17.9175 45.793C18.3674 45.5703 18.8743 45.4897 19.371 45.5618C19.8678 45.6339 20.3309 45.8553 20.6989 46.1967C21.0669 46.538 21.3224 46.9832 21.4315 47.4732L21.8568 49.3855L26.4845 38.581C26.5707 38.3789 26.7231 38.212 26.9166 38.1079C27.1101 38.0037 27.3333 37.9685 27.5495 38.0079C27.7657 38.0473 27.962 38.1591 28.1063 38.3249C28.2506 38.4906 28.3343 38.7005 28.3436 38.9201L29.1185 54.3968L34.2529 43.4025C34.3384 43.2189 34.4792 43.0667 34.6557 42.9673C34.8321 42.8679 35.0352 42.8263 35.2365 42.8483C35.4379 42.8703 35.6272 42.9549 35.778 43.0901C35.9287 43.2253 36.0333 43.4043 36.0771 43.6021L37.4605 49.8301L39.1393 46.8086C39.3832 46.3699 39.7547 46.0157 40.2046 45.793C40.6544 45.5703 41.1614 45.4897 41.6581 45.5618C42.1549 45.6339 42.6179 45.8553 42.9859 46.1967C43.3539 46.538 43.6095 46.9832 43.7186 47.4732L44.5333 51.1409C44.5592 51.2605 44.6254 51.3676 44.7208 51.4443C44.8162 51.521 44.935 51.5626 45.0574 51.5623H52.5623C52.8192 51.5623 53.0656 51.6643 53.2473 51.846C53.429 52.0277 53.531 52.2741 53.531 52.531C53.531 52.7879 53.429 53.0344 53.2473 53.216C53.0656 53.3977 52.8192 53.4998 52.5623 53.4998H45.0516C44.4879 53.5021 43.9406 53.311 43.5009 52.9584C43.0611 52.6057 42.7557 52.1129 42.6355 51.5623L41.8208 47.8936C41.7969 47.7874 41.7414 47.691 41.6615 47.617C41.5817 47.543 41.4812 47.4951 41.3735 47.4794C41.2658 47.4638 41.1558 47.4812 41.0582 47.5294C40.9606 47.5776 40.88 47.6542 40.8269 47.7493L37.909 53.0009C37.8135 53.1725 37.668 53.3111 37.4919 53.3982C37.3159 53.4853 37.1174 53.5168 36.923 53.4886C36.7286 53.4603 36.5474 53.3736 36.4034 53.2399C36.2594 53.1063 36.1595 52.932 36.1168 52.7403L34.7974 46.8038L29.2212 58.7523C29.1434 58.9195 29.0195 59.061 28.864 59.1602C28.7085 59.2594 28.528 59.3122 28.3436 59.3123Z" fill="url(#paint0_radial_29_204)"/>
<path d="M60.3125 53.5H57.4062C57.1493 53.5 56.9029 53.3979 56.7212 53.2163C56.5396 53.0346 56.4375 52.7882 56.4375 52.5312C56.4375 52.2743 56.5396 52.0279 56.7212 51.8462C56.9029 51.6646 57.1493 51.5625 57.4062 51.5625H60.3125C60.5694 51.5625 60.8158 51.6646 60.9975 51.8462C61.1792 52.0279 61.2812 52.2743 61.2812 52.5312C61.2812 52.7882 61.1792 53.0346 60.9975 53.2163C60.8158 53.3979 60.5694 53.5 60.3125 53.5Z" fill="url(#paint1_radial_29_204)"/>
<path d="M62.2501 67.0623C62.1446 67.0622 62.0399 67.0449 61.9401 67.0109C47.5125 62.1333 24.7575 61.8901 11.2173 66.4684C11.0965 66.5092 10.9687 66.5258 10.8415 66.5172C10.7142 66.5086 10.5899 66.475 10.4756 66.4184C10.2448 66.304 10.0689 66.1027 9.98651 65.8586C9.90416 65.6145 9.92215 65.3477 10.0365 65.1169C10.1509 64.8861 10.3523 64.7101 10.5963 64.6278C24.4805 59.9332 47.7905 60.1774 62.561 65.1703C62.7829 65.2407 62.972 65.3886 63.0938 65.5871C63.2155 65.7855 63.2617 66.0211 63.224 66.2508C63.1862 66.4805 63.067 66.6889 62.8882 66.8379C62.7093 66.987 62.4828 67.0666 62.2501 67.0623Z" fill="url(#paint2_radial_29_204)"/>
<path d="M35.125 18.7044V34.0445C35.125 34.3846 35.2145 34.7187 35.3846 35.0133C35.5546 35.3078 35.7992 35.5524 36.0938 35.7224L49.6562 43.5519C49.9508 43.7219 50.2849 43.8114 50.625 43.8114C50.9651 43.8114 51.2992 43.7219 51.5938 43.5519L65.1562 35.7224C65.4508 35.5524 65.6954 35.3078 65.8654 35.0133C66.0355 34.7187 66.125 34.3846 66.125 34.0445V18.7044C66.125 18.3643 66.0355 18.0302 65.8654 17.7357C65.6954 17.4411 65.4508 17.1966 65.1562 17.0265L51.5938 9.1961C51.2992 9.02605 50.9651 8.93652 50.625 8.93652C50.2849 8.93652 49.9508 9.02605 49.6562 9.1961L36.0938 17.0265C35.7992 17.1966 35.5546 17.4411 35.3846 17.7357C35.2145 18.0302 35.125 18.3643 35.125 18.7044Z" fill="url(#paint3_linear_29_204)"/>
<path d="M37.0625 34.0446V18.7044L50.625 10.875L64.1875 18.7044V34.0446L50.625 41.875L37.0625 34.0446Z" fill="url(#paint4_linear_29_204)"/>
<path d="M55.7109 16.0995L51.8359 13.8617C51.6887 13.7767 51.5216 13.7319 51.3516 13.7319C51.1815 13.7319 51.0145 13.7767 50.8672 13.8617L49.8984 14.4217C49.7512 14.5067 49.6289 14.629 49.5439 14.7762C49.4588 14.9235 49.4141 15.0905 49.4141 15.2606V38.436C49.4141 38.6929 49.5161 38.9393 49.6978 39.121C49.8795 39.3027 50.1259 39.4048 50.3828 39.4048C50.6397 39.4048 50.8861 39.3027 51.0678 39.121C51.2495 38.9393 51.3516 38.6929 51.3516 38.436V28.2641H54.7422C54.9991 28.2641 55.2455 28.1621 55.4272 27.9804C55.6089 27.7987 55.7109 27.5523 55.7109 27.2954C55.7109 27.0384 55.6089 26.792 55.4272 26.6104C55.2455 26.4287 54.9991 26.3266 54.7422 26.3266H51.3516V15.8157L54.7422 17.7735C54.9646 17.9 55.2279 17.9333 55.4748 17.8663C55.7217 17.7993 55.932 17.6373 56.0599 17.4158C56.1879 17.1942 56.2229 16.9311 56.1576 16.6838C56.0922 16.4365 55.9316 16.225 55.7109 16.0957V16.0995Z" fill="url(#paint5_linear_29_204)"/>
<path d="M63.4611 20.5743L58.6174 17.7776C58.5072 17.7129 58.3853 17.6708 58.2587 17.6535C58.1321 17.6362 58.0033 17.6441 57.8798 17.6767C57.7563 17.7094 57.6405 17.7661 57.539 17.8437C57.4375 17.9213 57.3524 18.0183 57.2885 18.1289C57.2246 18.2395 57.1832 18.3617 57.1668 18.4884C57.1503 18.6151 57.1591 18.7438 57.1925 18.8671C57.226 18.9904 57.2835 19.1059 57.3618 19.2068C57.4401 19.3078 57.5376 19.3923 57.6486 19.4554L59.1018 20.2944V34.5612C59.1018 34.8181 59.2038 35.0645 59.3855 35.2462C59.5672 35.4278 59.8136 35.5299 60.0705 35.5299C60.3274 35.5299 60.5738 35.4278 60.7555 35.2462C60.9372 35.0645 61.0393 34.8181 61.0393 34.5612V21.4133L62.4924 22.2522C62.7148 22.3787 62.9781 22.412 63.225 22.345C63.4719 22.2779 63.6822 22.116 63.8102 21.8944C63.9381 21.6729 63.9731 21.4098 63.9078 21.1624C63.8424 20.9151 63.6818 20.7037 63.4611 20.5743Z" fill="url(#paint6_linear_29_204)"/>
<path d="M46.0234 17.6079C45.7665 17.6079 45.5201 17.71 45.3384 17.8917C45.1568 18.0733 45.0547 18.3197 45.0547 18.5767V30.9834L41.1109 21.1225C41.0275 20.9131 40.8737 20.7394 40.6759 20.6312C40.4781 20.523 40.2488 20.4871 40.0275 20.5298C39.8062 20.5725 39.6066 20.691 39.4633 20.865C39.3199 21.039 39.2418 21.2575 39.2422 21.4829V34.0767C39.2422 34.3336 39.3443 34.58 39.5259 34.7617C39.7076 34.9434 39.954 35.0454 40.2109 35.0454C40.4679 35.0454 40.7143 34.9434 40.896 34.7617C41.0776 34.58 41.1797 34.3336 41.1797 34.0767V26.5127L45.1235 36.3736C45.1954 36.5535 45.3195 36.7077 45.48 36.8163C45.6404 36.925 45.8297 36.983 46.0234 36.9829C46.0849 36.9828 46.1462 36.977 46.2065 36.9655C46.4276 36.9229 46.627 36.8047 46.7704 36.6311C46.9138 36.4575 46.9922 36.2393 46.9922 36.0142V18.5767C46.9922 18.3197 46.8901 18.0733 46.7085 17.8917C46.5268 17.71 46.2804 17.6079 46.0234 17.6079Z" fill="url(#paint7_linear_29_204)"/>
<path d="M50.625 44.7813C50.115 44.7822 49.6137 44.6485 49.1719 44.3938L35.6094 36.5643C35.168 36.3083 34.8016 35.9409 34.5466 35.499C34.2916 35.057 34.157 34.5559 34.1562 34.0456V18.7045C34.1568 18.1942 34.2913 17.693 34.5463 17.251C34.8013 16.809 35.1679 16.4416 35.6094 16.1857L49.1719 8.35628C49.614 8.10206 50.115 7.96826 50.625 7.96826C51.135 7.96826 51.636 8.10206 52.0781 8.35628L65.6406 16.1857C66.0821 16.4416 66.4487 16.809 66.7037 17.251C66.9587 17.693 67.0932 18.1942 67.0938 18.7045V34.0437C67.093 34.5539 66.9584 35.055 66.7034 35.497C66.4484 35.939 66.082 36.3064 65.6406 36.5624L52.0781 44.3938C51.6361 44.6482 51.135 44.7819 50.625 44.7813ZM50.625 9.90628C50.455 9.90563 50.2878 9.95009 50.1406 10.0351L36.5781 17.8655C36.4309 17.9506 36.3086 18.0728 36.2235 18.2201C36.1385 18.3674 36.0938 18.5344 36.0938 18.7045V34.0437C36.0938 34.2137 36.1385 34.3808 36.2235 34.528C36.3086 34.6753 36.4309 34.7976 36.5781 34.8826L50.1406 42.713C50.2879 42.798 50.4549 42.8428 50.625 42.8428C50.7951 42.8428 50.9621 42.798 51.1094 42.713L64.6719 34.8816C64.8191 34.7966 64.9414 34.6743 65.0265 34.5271C65.1115 34.3798 65.1562 34.2127 65.1562 34.0427V18.7045C65.1562 18.5344 65.1115 18.3674 65.0265 18.2201C64.9414 18.0728 64.8191 17.9506 64.6719 17.8655L51.1094 10.0361C50.9623 9.95063 50.7951 9.90583 50.625 9.90628Z" fill="url(#paint8_linear_29_204)"/>
<path d="M54.9844 15.6635L51.1094 13.4257C50.9621 13.3407 50.7951 13.2959 50.625 13.2959C50.4549 13.2959 50.2879 13.3407 50.1406 13.4257L49.1719 13.9847C49.0245 14.0698 48.9021 14.1922 48.8171 14.3397C48.732 14.4871 48.6873 14.6543 48.6875 14.8246V38C48.6875 38.2569 48.7896 38.5033 48.9712 38.685C49.1529 38.8667 49.3993 38.9687 49.6563 38.9687C49.9132 38.9687 50.1596 38.8667 50.3413 38.685C50.5229 38.5033 50.625 38.2569 50.625 38V27.8281H54.0156C54.2726 27.8281 54.519 27.726 54.7006 27.5444C54.8823 27.3627 54.9844 27.1163 54.9844 26.8593C54.9844 26.6024 54.8823 26.356 54.7006 26.1743C54.519 25.9927 54.2726 25.8906 54.0156 25.8906H50.625V15.3835L54.0156 17.3414C54.1258 17.406 54.2477 17.4482 54.3743 17.4655C54.5009 17.4828 54.6297 17.4749 54.7532 17.4422C54.8767 17.4096 54.9925 17.3528 55.094 17.2752C55.1955 17.1976 55.2806 17.1007 55.3445 16.99C55.4084 16.8794 55.4498 16.7572 55.4662 16.6305C55.4827 16.5038 55.4739 16.3751 55.4405 16.2518C55.407 16.1285 55.3495 16.0131 55.2712 15.9121C55.1929 15.8111 55.0954 15.7266 54.9844 15.6635Z" fill="url(#paint9_linear_29_204)"/>
<path d="M62.7346 20.1373L57.8908 17.3415C57.7806 17.2769 57.6587 17.2347 57.5321 17.2174C57.4055 17.2001 57.2768 17.208 57.1533 17.2407C57.0298 17.2733 56.9139 17.3301 56.8124 17.4077C56.7109 17.4853 56.6258 17.5822 56.5619 17.6929C56.498 17.8035 56.4567 17.9257 56.4402 18.0524C56.4237 18.1791 56.4325 18.3078 56.466 18.4311C56.4994 18.5544 56.557 18.6698 56.6353 18.7708C56.7135 18.8718 56.811 18.9563 56.9221 19.0194L58.3752 19.8583V34.1251C58.3752 34.382 58.4773 34.6284 58.6589 34.8101C58.8406 34.9918 59.087 35.0939 59.3439 35.0939C59.6009 35.0939 59.8473 34.9918 60.029 34.8101C60.2106 34.6284 60.3127 34.382 60.3127 34.1251V20.9772L61.7658 21.8162C61.8761 21.8798 61.9977 21.9211 62.1239 21.9376C62.2501 21.9542 62.3783 21.9458 62.5013 21.9128C62.6242 21.8799 62.7394 21.823 62.8404 21.7455C62.9413 21.668 63.026 21.5714 63.0896 21.4611C63.1532 21.3509 63.1945 21.2292 63.2111 21.103C63.2277 20.9768 63.2192 20.8486 63.1863 20.7257C63.1533 20.6028 63.0964 20.4875 63.0189 20.3866C62.9414 20.2856 62.8448 20.2009 62.7346 20.1373Z" fill="url(#paint10_linear_29_204)"/>
<path d="M45.2969 17.1719C45.0399 17.1719 44.7935 17.2739 44.6119 17.4556C44.4302 17.6373 44.3281 17.8837 44.3281 18.1406V30.5474L40.3843 20.6865C40.3009 20.4771 40.1471 20.3033 39.9493 20.1951C39.7516 20.0869 39.5223 20.0511 39.3009 20.0938C39.0796 20.1365 38.8801 20.255 38.7367 20.429C38.5934 20.6029 38.5152 20.8215 38.5156 21.0469V33.6406C38.5156 33.8976 38.6177 34.144 38.7994 34.3256C38.981 34.5073 39.2274 34.6094 39.4844 34.6094C39.7413 34.6094 39.9877 34.5073 40.1694 34.3256C40.3511 34.144 40.4531 33.8976 40.4531 33.6406V26.0766L44.3969 35.9375C44.4689 36.1173 44.5932 36.2713 44.7536 36.3797C44.914 36.4882 45.1032 36.5461 45.2969 36.5459C45.3583 36.5463 45.4197 36.5405 45.48 36.5285C45.7009 36.4859 45.9002 36.3678 46.0435 36.1944C46.1869 36.021 46.2654 35.8031 46.2656 35.5781V18.1406C46.2656 17.8837 46.1636 17.6373 45.9819 17.4556C45.8002 17.2739 45.5538 17.1719 45.2969 17.1719Z" fill="url(#paint11_linear_29_204)"/>
<defs>
<radialGradient id="paint0_radial_29_204" cx="0" cy="0" r="1" gradientUnits="userSpaceOnUse" gradientTransform="translate(28.9232 41.4495) rotate(48.6627) scale(23.7906 98.0443)">
<stop stop-color="#FF4F0D"/>
<stop offset="1" stop-color="#7AB694"/>
</radialGradient>
<radialGradient id="paint1_radial_29_204" cx="0" cy="0" r="1" gradientUnits="userSpaceOnUse" gradientTransform="translate(58.281 51.8767) rotate(40.2754) scale(2.51107 10.2921)">
<stop stop-color="#FF4F0D"/>
<stop offset="1" stop-color="#7AB694"/>
</radialGradient>
<radialGradient id="paint2_radial_29_204" cx="0" cy="0" r="1" gradientUnits="userSpaceOnUse" gradientTransform="translate(30.2219 62.2011) rotate(12.9849) scale(21.6351 39.3648)">
<stop stop-color="#FF4F0D"/>
<stop offset="1" stop-color="#7AB694"/>
</radialGradient>
<linearGradient id="paint3_linear_29_204" x1="50.625" y1="43.8115" x2="50.625" y2="8.93647" gradientUnits="userSpaceOnUse">
<stop stop-color="#FFEA34"/>
<stop offset="1" stop-color="#F3BE36"/>
</linearGradient>
<linearGradient id="paint4_linear_29_204" x1="50.625" y1="41.875" x2="50.625" y2="10.875" gradientUnits="userSpaceOnUse">
<stop stop-color="#F3B436"/>
<stop offset="1" stop-color="#FFEA3C"/>
</linearGradient>
<linearGradient id="paint5_linear_29_204" x1="44.6953" y1="19.5773" x2="57.6533" y2="32.5353" gradientUnits="userSpaceOnUse">
<stop stop-color="#C17636"/>
<stop offset="1" stop-color="#F3B436" stop-opacity="0"/>
</linearGradient>
<linearGradient id="paint6_linear_29_204" x1="54.4576" y1="20.9212" x2="64.7689" y2="31.2325" gradientUnits="userSpaceOnUse">
<stop stop-color="#C17636"/>
<stop offset="1" stop-color="#F3B436" stop-opacity="0"/>
</linearGradient>
<linearGradient id="paint7_linear_29_204" x1="38.5573" y1="21.7668" x2="50.099" y2="33.3085" gradientUnits="userSpaceOnUse">
<stop stop-color="#C17636"/>
<stop offset="1" stop-color="#F3B436" stop-opacity="0"/>
</linearGradient>
<linearGradient id="paint8_linear_29_204" x1="50.625" y1="44.7793" x2="50.625" y2="7.96975" gradientUnits="userSpaceOnUse">
<stop stop-color="#F3B436"/>
<stop offset="1" stop-color="#FFEA3C"/>
</linearGradient>
<linearGradient id="paint9_linear_29_204" x1="52.0781" y1="38.9677" x2="52.0781" y2="13.2959" gradientUnits="userSpaceOnUse">
<stop stop-color="#FFDC46"/>
<stop offset="1" stop-color="#FFF578"/>
</linearGradient>
<linearGradient id="paint10_linear_29_204" x1="59.8283" y1="35.0929" x2="59.8283" y2="17.2107" gradientUnits="userSpaceOnUse">
<stop stop-color="#FFDC46"/>
<stop offset="1" stop-color="#FFF578"/>
</linearGradient>
<linearGradient id="paint11_linear_29_204" x1="42.3906" y1="36.5459" x2="42.3906" y2="17.1709" gradientUnits="userSpaceOnUse">
<stop stop-color="#FFDC46"/>
<stop offset="1" stop-color="#FFF578"/>
</linearGradient>
</defs>
</svg>
