<svg width="77" height="77" viewBox="0 0 77 77" fill="none" xmlns="http://www.w3.org/2000/svg">
<rect width="77" height="77" rx="38.5" fill="#EEEEEE"/>
<g clip-path="url(#clip0_28_98)">
<path d="M39 69.0312C55.5858 69.0312 69.0312 62.9591 69.0312 55.4688C69.0312 47.9784 55.5858 41.9062 39 41.9062C22.4142 41.9062 8.96875 47.9784 8.96875 55.4688C8.96875 62.9591 22.4142 69.0312 39 69.0312Z" fill="url(#paint0_linear_28_98)"/>
<path d="M39 64.1875C50.7706 64.1875 60.3125 60.284 60.3125 55.4688C60.3125 50.6535 50.7706 46.75 39 46.75C27.2294 46.75 17.6875 50.6535 17.6875 55.4688C17.6875 60.284 27.2294 64.1875 39 64.1875Z" fill="url(#paint1_linear_28_98)"/>
<path d="M39 59.3438C45.9553 59.3438 51.5938 57.6089 51.5938 55.4688C51.5938 53.3286 45.9553 51.5938 39 51.5938C32.0447 51.5938 26.4062 53.3286 26.4062 55.4688C26.4062 57.6089 32.0447 59.3438 39 59.3438Z" fill="url(#paint2_linear_28_98)"/>
<path d="M33.1875 55.4688H34.1562C34.7986 55.4688 35.4146 55.2136 35.8688 54.7594C36.323 54.3052 36.5781 53.6892 36.5781 53.0469C36.5781 52.4046 36.8333 51.7885 37.2875 51.3343C37.7417 50.8802 38.3577 50.625 39 50.625C39.6423 50.625 40.2583 50.8802 40.7125 51.3343C41.1667 51.7885 41.4219 52.4046 41.4219 53.0469C41.4219 53.6892 41.677 54.3052 42.1312 54.7594C42.5854 55.2136 43.2014 55.4688 43.8438 55.4688H44.8125" fill="url(#paint3_linear_28_98)"/>
<path d="M23.5 18.7356V34.0748C23.5 34.4149 23.5895 34.749 23.7596 35.0435C23.9296 35.3381 24.1742 35.5826 24.4688 35.7527L38.0312 43.5831C38.3258 43.7532 38.6599 43.8427 39 43.8427C39.3401 43.8427 39.6742 43.7532 39.9688 43.5831L53.5312 35.7527C53.8258 35.5826 54.0704 35.3381 54.2404 35.0435C54.4105 34.749 54.5 34.4149 54.5 34.0748V18.7356C54.5 18.3955 54.4105 18.0614 54.2404 17.7669C54.0704 17.4724 53.8258 17.2278 53.5312 17.0578L39.9688 9.22735C39.6742 9.0573 39.3401 8.96777 39 8.96777C38.6599 8.96777 38.3258 9.0573 38.0312 9.22735L24.4688 17.0578C24.1742 17.2278 23.9296 17.4724 23.7596 17.7669C23.5895 18.0614 23.5 18.3955 23.5 18.7356Z" fill="url(#paint4_linear_28_98)"/>
<path d="M25.4375 34.0749V18.7357L39 10.9053L52.5625 18.7357V34.0749L39 41.9053L25.4375 34.0749Z" fill="url(#paint5_linear_28_98)"/>
<path d="M44.0859 16.1298L40.2109 13.893C40.0637 13.8079 39.8966 13.7632 39.7266 13.7632C39.5565 13.7632 39.3895 13.8079 39.2422 13.893L38.2734 14.4519C38.1262 14.537 38.0039 14.6593 37.9189 14.8065C37.8338 14.9538 37.7891 15.1208 37.7891 15.2909V38.4663C37.7891 38.7232 37.8911 38.9696 38.0728 39.1513C38.2545 39.333 38.5009 39.435 38.7578 39.435C39.0147 39.435 39.2611 39.333 39.4428 39.1513C39.6245 38.9696 39.7266 38.7232 39.7266 38.4663V28.2944H43.1172C43.3741 28.2944 43.6205 28.1923 43.8022 28.0107C43.9839 27.829 44.0859 27.5826 44.0859 27.3257C44.0859 27.0687 43.9839 26.8223 43.8022 26.6406C43.6205 26.459 43.3741 26.3569 43.1172 26.3569H39.7266V15.8469L43.1172 17.8048C43.3398 17.9332 43.6044 17.968 43.8526 17.9014C44.1009 17.8348 44.3125 17.6724 44.441 17.4497C44.5694 17.2271 44.6042 16.9626 44.5376 16.7143C44.471 16.466 44.3086 16.2544 44.0859 16.1259V16.1298Z" fill="url(#paint6_linear_28_98)"/>
<path d="M51.8359 20.6042L46.9921 17.8075C46.7695 17.679 46.5049 17.6442 46.2567 17.7108C46.0084 17.7774 45.7968 17.9399 45.6683 18.1625C45.5398 18.3851 45.5051 18.6497 45.5717 18.8979C45.6382 19.1462 45.8007 19.3578 46.0234 19.4863L47.4765 20.3252V34.5911C47.4765 34.848 47.5785 35.0944 47.7602 35.2761C47.9419 35.4577 48.1883 35.5598 48.4452 35.5598C48.7022 35.5598 48.9486 35.4577 49.1302 35.2761C49.3119 35.0944 49.414 34.848 49.414 34.5911V21.4432L50.8671 22.2831C50.9773 22.3467 51.099 22.388 51.2252 22.4046C51.3514 22.4211 51.4796 22.4127 51.6025 22.3797C51.7255 22.3468 51.8407 22.2899 51.9416 22.2124C52.0426 22.1349 52.1273 22.0383 52.1909 21.928C52.2545 21.8178 52.2958 21.6961 52.3124 21.5699C52.329 21.4438 52.3205 21.3155 52.2876 21.1926C52.2546 21.0697 52.1977 20.9545 52.1202 20.8535C52.0427 20.7526 51.9461 20.6679 51.8359 20.6042Z" fill="url(#paint7_linear_28_98)"/>
<path d="M34.3984 17.6382C34.1415 17.6382 33.8951 17.7402 33.7134 17.9219C33.5318 18.1036 33.4297 18.35 33.4297 18.6069V31.0147L29.4859 21.1538C29.4025 20.9444 29.2488 20.7707 29.0511 20.6625C28.8534 20.5543 28.6243 20.5184 28.403 20.561C28.1817 20.6035 27.9822 20.7219 27.8388 20.8957C27.6953 21.0695 27.617 21.2878 27.6172 21.5132V34.1069C27.6172 34.3639 27.7193 34.6103 27.9009 34.7919C28.0826 34.9736 28.329 35.0757 28.5859 35.0757C28.8429 35.0757 29.0893 34.9736 29.2709 34.7919C29.4526 34.6103 29.5547 34.3639 29.5547 34.1069V26.5429L33.4985 36.4048C33.5704 36.5844 33.6945 36.7383 33.8548 36.8467C34.015 36.9552 34.204 37.0131 34.3975 37.0132C34.4592 37.0131 34.5209 37.0073 34.5815 36.9957C34.8026 36.9532 35.002 36.8349 35.1454 36.6613C35.2888 36.4877 35.3672 36.2696 35.3672 36.0444V18.6069C35.3672 18.35 35.2651 18.1036 35.0834 17.9219C34.9018 17.7402 34.6554 17.6382 34.3984 17.6382Z" fill="url(#paint8_linear_28_98)"/>
<path d="M39 44.8123C38.49 44.8129 37.9889 44.6793 37.5469 44.4248L23.9844 36.5944C23.5428 36.3386 23.1762 35.9713 22.9212 35.5293C22.6662 35.0872 22.5317 34.586 22.5312 34.0757V18.7355C22.5318 18.2252 22.6663 17.724 22.9213 17.282C23.1763 16.84 23.5429 16.4727 23.9844 16.2168L37.5469 8.38734C37.9889 8.13293 38.49 7.99902 39 7.99902C39.51 7.99902 40.0111 8.13293 40.4531 8.38734L54.0156 16.2168C54.4569 16.4729 54.8233 16.8403 55.0783 17.2822C55.3333 17.7242 55.4679 18.2253 55.4688 18.7355V34.0747C55.4683 34.585 55.3338 35.0863 55.0788 35.5283C54.8238 35.9703 54.4572 36.3376 54.0156 36.5935L40.4531 44.4248C40.0111 44.6793 39.51 44.8129 39 44.8123ZM39 9.93734C38.8299 9.93735 38.6629 9.98212 38.5156 10.0672L24.9531 17.8976C24.8059 17.9826 24.6836 18.1049 24.5985 18.2521C24.5135 18.3994 24.4688 18.5664 24.4688 18.7365V34.0747C24.4688 34.2448 24.5135 34.4118 24.5985 34.5591C24.6836 34.7063 24.8059 34.8286 24.9531 34.9136L38.5156 42.7441C38.6629 42.8291 38.8299 42.8738 39 42.8738C39.1701 42.8738 39.3371 42.8291 39.4844 42.7441L53.0469 34.9136C53.1941 34.8286 53.3164 34.7063 53.4015 34.5591C53.4865 34.4118 53.5312 34.2448 53.5312 34.0747V18.7355C53.5314 18.5653 53.4867 18.3981 53.4017 18.2506C53.3167 18.1032 53.1943 17.9807 53.0469 17.8956L39.4844 10.0662C39.337 9.98149 39.17 9.93705 39 9.93734Z" fill="url(#paint9_linear_28_98)"/>
<path d="M43.3594 15.6938L39.4844 13.4569C39.3371 13.3719 39.17 13.3271 39 13.3271C38.8299 13.3271 38.6629 13.3719 38.5156 13.4569L37.5469 14.0159C37.3996 14.1009 37.2773 14.2232 37.1923 14.3705C37.1073 14.5177 37.0625 14.6848 37.0625 14.8548V38.0312C37.0625 38.2881 37.1646 38.5346 37.3462 38.7162C37.5279 38.8979 37.7743 39 38.0312 39C38.2882 39 38.5346 38.8979 38.7163 38.7162C38.8979 38.5346 39 38.2881 39 38.0312V27.8593H42.3906C42.6475 27.8593 42.894 27.7573 43.0756 27.5756C43.2573 27.3939 43.3594 27.1475 43.3594 26.8906C43.3594 26.6337 43.2573 26.3873 43.0756 26.2056C42.894 26.0239 42.6475 25.9218 42.3906 25.9218H39V15.4148L42.3906 17.3726C42.6132 17.5011 42.8778 17.5359 43.1261 17.4693C43.3743 17.4027 43.586 17.2402 43.7144 17.0176C43.8429 16.7949 43.8776 16.5304 43.8111 16.2821C43.7445 16.0339 43.582 15.8222 43.3594 15.6938Z" fill="url(#paint10_linear_28_98)"/>
<path d="M51.1093 20.1687L46.2655 17.3719C46.0429 17.2435 45.7784 17.2087 45.5301 17.2753C45.2818 17.3419 45.0702 17.5043 44.9417 17.727C44.8133 17.9496 44.7785 18.2141 44.8451 18.4624C44.9117 18.7107 45.0742 18.9223 45.2968 19.0508L46.7499 19.8897V34.1565C46.7499 34.4134 46.852 34.6598 47.0337 34.8415C47.2153 35.0232 47.4617 35.1252 47.7187 35.1252C47.9756 35.1252 48.222 35.0232 48.4037 34.8415C48.5854 34.6598 48.6874 34.4134 48.6874 34.1565V21.0076L50.1405 21.8466C50.3629 21.973 50.6263 22.0064 50.8732 21.9393C51.1201 21.8723 51.3304 21.7103 51.4583 21.4888C51.5862 21.2673 51.6213 21.0041 51.5559 20.7568C51.4905 20.5095 51.33 20.2981 51.1093 20.1687Z" fill="url(#paint11_linear_28_98)"/>
<path d="M33.6719 17.2031C33.415 17.2031 33.1685 17.3052 32.9869 17.4869C32.8052 17.6685 32.7031 17.9149 32.7031 18.1719V30.5787L28.7593 20.7168C28.6759 20.5073 28.522 20.3335 28.3241 20.2253C28.1263 20.1171 27.8969 20.0813 27.6755 20.1242C27.4541 20.167 27.2545 20.2857 27.1113 20.4598C26.968 20.634 26.89 20.8526 26.8906 21.0781V33.6719C26.8906 33.9288 26.9927 34.1752 27.1744 34.3569C27.356 34.5386 27.6025 34.6406 27.8594 34.6406C28.1163 34.6406 28.3627 34.5386 28.5444 34.3569C28.7261 34.1752 28.8281 33.9288 28.8281 33.6719V26.1069L32.7719 35.9678C32.8438 36.1477 32.968 36.302 33.1284 36.4106C33.2888 36.5192 33.4781 36.5772 33.6719 36.5772C33.7333 36.577 33.7946 36.5712 33.855 36.5597C34.0759 36.5172 34.2752 36.3991 34.4185 36.2257C34.5619 36.0523 34.6404 35.8344 34.6406 35.6094V18.1719C34.6406 17.9149 34.5386 17.6685 34.3569 17.4869C34.1752 17.3052 33.9288 17.2031 33.6719 17.2031Z" fill="url(#paint12_linear_28_98)"/>
</g>
<defs>
<linearGradient id="paint0_linear_28_98" x1="39" y1="69.0312" x2="39" y2="41.9062" gradientUnits="userSpaceOnUse">
<stop stop-color="#4DBEE6"/>
<stop offset="1" stop-color="#A0FAFF"/>
</linearGradient>
<linearGradient id="paint1_linear_28_98" x1="39" y1="64.1875" x2="39" y2="46.75" gradientUnits="userSpaceOnUse">
<stop stop-color="#A0FAFF"/>
<stop offset="1" stop-color="#4DBEE6"/>
</linearGradient>
<linearGradient id="paint2_linear_28_98" x1="8" y1="59.3437" x2="8.96875" y2="51.5937" gradientUnits="userSpaceOnUse">
<stop stop-color="#A0FAFF"/>
<stop offset="1" stop-color="#4DBEE6"/>
</linearGradient>
<linearGradient id="paint3_linear_28_98" x1="39" y1="55.4688" x2="39" y2="50.625" gradientUnits="userSpaceOnUse">
<stop stop-color="#4DBEE6" stop-opacity="0"/>
<stop offset="0.024" stop-color="#53C2E8" stop-opacity="0.072"/>
<stop offset="0.094" stop-color="#63CEED" stop-opacity="0.265"/>
<stop offset="0.17" stop-color="#72D8F1" stop-opacity="0.44"/>
<stop offset="0.25" stop-color="#7EE1F5" stop-opacity="0.591"/>
<stop offset="0.335" stop-color="#89E9F8" stop-opacity="0.718"/>
<stop offset="0.426" stop-color="#91EFFB" stop-opacity="0.821"/>
<stop offset="0.525" stop-color="#98F4FD" stop-opacity="0.901"/>
<stop offset="0.637" stop-color="#9CF7FE" stop-opacity="0.957"/>
<stop offset="0.774" stop-color="#9FF9FF" stop-opacity="0.99"/>
<stop offset="1" stop-color="#A0FAFF"/>
</linearGradient>
<linearGradient id="paint4_linear_28_98" x1="39" y1="43.8427" x2="39" y2="8.96772" gradientUnits="userSpaceOnUse">
<stop stop-color="#FFEA34"/>
<stop offset="1" stop-color="#F3BE36"/>
</linearGradient>
<linearGradient id="paint5_linear_28_98" x1="39" y1="41.9053" x2="39" y2="10.9053" gradientUnits="userSpaceOnUse">
<stop stop-color="#F3B436"/>
<stop offset="1" stop-color="#FFEA3C"/>
</linearGradient>
<linearGradient id="paint6_linear_28_98" x1="33.0703" y1="19.6086" x2="46.0283" y2="32.5656" gradientUnits="userSpaceOnUse">
<stop stop-color="#C17636"/>
<stop offset="1" stop-color="#F3B436" stop-opacity="0"/>
</linearGradient>
<linearGradient id="paint7_linear_28_98" x1="42.8323" y1="20.9511" x2="53.1437" y2="31.2624" gradientUnits="userSpaceOnUse">
<stop stop-color="#C17636"/>
<stop offset="1" stop-color="#F3B436" stop-opacity="0"/>
</linearGradient>
<linearGradient id="paint8_linear_28_98" x1="26.9323" y1="21.797" x2="38.474" y2="33.3387" gradientUnits="userSpaceOnUse">
<stop stop-color="#C17636"/>
<stop offset="1" stop-color="#F3B436" stop-opacity="0"/>
</linearGradient>
<linearGradient id="paint9_linear_28_98" x1="8" y1="44.8104" x2="8.96875" y2="7.99984" gradientUnits="userSpaceOnUse">
<stop stop-color="#F3B436"/>
<stop offset="1" stop-color="#FFEA3C"/>
</linearGradient>
<linearGradient id="paint10_linear_28_98" x1="40.4531" y1="38.999" x2="40.4531" y2="13.3271" gradientUnits="userSpaceOnUse">
<stop stop-color="#FFDC46"/>
<stop offset="1" stop-color="#FFF578"/>
</linearGradient>
<linearGradient id="paint11_linear_28_98" x1="48.203" y1="35.1243" x2="48.203" y2="17.2421" gradientUnits="userSpaceOnUse">
<stop stop-color="#FFDC46"/>
<stop offset="1" stop-color="#FFF578"/>
</linearGradient>
<linearGradient id="paint12_linear_28_98" x1="30.7656" y1="36.5772" x2="30.7656" y2="17.2022" gradientUnits="userSpaceOnUse">
<stop stop-color="#FFDC46"/>
<stop offset="1" stop-color="#FFF578"/>
</linearGradient>
<clipPath id="clip0_28_98">
<rect width="62" height="62" fill="white" transform="translate(8 8)"/>
</clipPath>
</defs>
</svg>
