<svg width="77" height="77" viewBox="0 0 77 77" fill="none" xmlns="http://www.w3.org/2000/svg">
<rect width="77" height="77" rx="38.5" fill="#EEEEEE"/>
<path d="M23.5 31.5938V46.4063C23.5 47.0625 23.875 47.7187 24.4375 48L37.5625 55.5938C38.125 55.9688 38.875 55.9688 39.4375 55.5938L52.5625 48C53.125 47.625 53.5 47.0625 53.5 46.4063V31.5938C53.5 30.9375 53.125 30.2812 52.5625 30L39.4375 22.4062C38.875 22.0313 38.125 22.0313 37.5625 22.4062L24.4375 30C23.875 30.2812 23.5 30.9375 23.5 31.5938Z" fill="url(#paint0_linear_29_224)"/>
<path d="M25.375 46.4063V31.5938L38.5 24L51.625 31.5938V46.4063L38.5 54L25.375 46.4063Z" fill="url(#paint1_linear_29_224)"/>
<path d="M43.375 29.0625L39.625 26.9062C39.3438 26.7188 38.9688 26.7188 38.6875 26.9062L37.75 27.4688C37.4688 27.6563 37.2812 27.9375 37.2812 28.3125V50.7188C37.2812 51.2812 37.6563 51.6562 38.2188 51.6562C38.7813 51.6562 39.1563 51.2812 39.1563 50.7188V40.875H42.4375C43 40.875 43.375 40.5 43.375 39.9375C43.375 39.375 43 39 42.4375 39H39.1563V28.7812L42.4375 30.6562C42.9063 30.9375 43.4688 30.75 43.75 30.2813C44.0313 29.9063 43.8438 29.3437 43.375 29.0625Z" fill="url(#paint2_linear_29_224)"/>
<path d="M50.8748 33.3748L46.1873 30.6561C45.7186 30.3748 45.1561 30.5623 44.8748 31.0311C44.5936 31.4998 44.7811 32.0623 45.2498 32.3436L46.6561 33.1873V46.9686C46.6561 47.5311 47.0311 47.9061 47.5936 47.9061C48.1561 47.9061 48.5311 47.5311 48.5311 46.9686V34.2186L49.9373 35.0623C50.4061 35.3436 50.9686 35.1561 51.2498 34.6873C51.5311 34.2186 51.3436 33.6561 50.8748 33.3748Z" fill="url(#paint3_linear_29_224)"/>
<path d="M34 30.5625C33.4375 30.5625 33.0625 30.9375 33.0625 31.5V43.5L29.2187 33.9375C29.0312 33.4688 28.4687 33.1875 28 33.375C27.625 33.5625 27.4375 33.8437 27.4375 34.2187V46.4062C27.4375 46.9688 27.8125 47.3438 28.375 47.3438C28.9375 47.3438 29.3125 46.9688 29.3125 46.4062V39.0937L33.1562 48.6562C33.3437 49.0312 33.625 49.2188 34 49.2188C34.0938 49.2188 34.0937 49.2188 34.1875 49.2188C34.6562 49.125 34.9375 48.75 34.9375 48.2812V31.5C34.9375 30.9375 34.5625 30.5625 34 30.5625Z" fill="url(#paint4_linear_29_224)"/>
<path d="M38.5 56.8125C38.0312 56.8125 37.5625 56.7187 37.0938 56.4375L23.9688 48.8437C23.125 48.375 22.5625 47.4375 22.5625 46.4062V31.5937C22.5625 30.5625 23.125 29.625 23.9688 29.1562L37.0938 21.5625C37.9375 21.0938 39.0625 21.0938 39.9062 21.5625L53.0312 29.1562C53.875 29.625 54.4375 30.5625 54.4375 31.5937V46.4062C54.4375 47.4375 53.875 48.375 53.0312 48.8437L39.9062 56.4375C39.4375 56.7187 38.9688 56.8125 38.5 56.8125ZM38.5 23.0625C38.3125 23.0625 38.2188 23.0625 38.0312 23.1563L24.9062 30.75C24.625 30.9375 24.4375 31.2187 24.4375 31.5937V46.4062C24.4375 46.7812 24.625 47.0625 24.9062 47.25L38.0312 54.8437C38.3125 55.0312 38.6875 55.0312 38.9688 54.8437L52.0938 47.25C52.375 47.0625 52.5625 46.7812 52.5625 46.4062V31.5937C52.5625 31.2187 52.375 30.9375 52.0938 30.75L38.9688 23.1563C38.7812 23.0625 38.6875 23.0625 38.5 23.0625Z" fill="url(#paint5_linear_29_224)"/>
<path d="M42.7188 28.5937L38.9688 26.4375C38.6875 26.25 38.3125 26.25 38.0313 26.4375L37.0938 27C36.8125 27.1875 36.625 27.4688 36.625 27.8438V50.25C36.625 50.8125 37 51.1875 37.5625 51.1875C38.125 51.1875 38.5 50.8125 38.5 50.25V40.4062H41.7813C42.3438 40.4062 42.7188 40.0312 42.7188 39.4687C42.7188 38.9062 42.3438 38.5312 41.7813 38.5312H38.5V28.4063L41.7813 30.2813C42.25 30.5625 42.8125 30.375 43.0938 29.9062C43.2813 29.4375 43.1875 28.875 42.7188 28.5937Z" fill="url(#paint6_linear_29_224)"/>
<path d="M50.2186 32.9998L45.5311 30.2811C45.0623 29.9998 44.4998 30.1873 44.2186 30.6561C43.9373 31.1248 44.1248 31.6873 44.5936 31.9686L45.9998 32.8123V46.4998C45.9998 47.0623 46.3748 47.4373 46.9373 47.4373C47.4998 47.4373 47.8748 47.0623 47.8748 46.4998V33.7498L49.2811 34.5936C49.7498 34.8748 50.3123 34.6873 50.5936 34.2186C50.7811 33.7498 50.6873 33.1873 50.2186 32.9998Z" fill="url(#paint7_linear_29_224)"/>
<path d="M33.3438 30.0938C32.7812 30.0938 32.4062 30.4687 32.4062 31.0312V43.0312L28.5625 33.4688C28.375 33 27.8125 32.7187 27.3438 32.9062C26.9688 33.0937 26.7812 33.375 26.7812 33.75V45.9375C26.7812 46.5 27.1562 46.875 27.7188 46.875C28.2812 46.875 28.6562 46.5 28.6562 45.9375V38.625L32.5 48.1875C32.6875 48.5625 32.9688 48.75 33.3438 48.75C33.4375 48.75 33.4375 48.75 33.5313 48.75C34 48.6562 34.2812 48.2812 34.2812 47.8125V30.9375C34.2812 30.4687 33.9062 30.0938 33.3438 30.0938Z" fill="url(#paint8_linear_29_224)"/>
<path d="M49.2812 55.7813L40.2813 59.4375C38.5 60.1875 36.5312 60.1875 34.75 59.5313L27.25 56.625V52.3125L13.1875 53.8125V62.4375L32.2188 66.75C33.25 67.0312 34.375 67.125 35.4062 67.125C37.375 67.125 39.4375 66.75 41.2188 65.9063L51.625 61.4063C52.75 60.9375 53.5 59.8125 53.5 58.5938C53.5 56.9063 52.0938 55.5 50.4062 55.5C50.0312 55.5 49.6562 55.5938 49.2812 55.7813Z" fill="url(#paint9_linear_29_224)"/>
<path d="M50.4062 55.5C50.0312 55.5 49.6562 55.5937 49.2812 55.6875L40.2813 59.3438C38.5 60.0938 36.5312 60.0937 34.75 59.4375L27.25 56.5313L34.6562 59.3438H34.75C36.3438 59.9063 38.0312 59.0625 38.5937 57.4688C39.0625 55.9688 38.4062 54.375 36.9062 53.7188L28.5625 50.25C27.0625 49.5938 25.4687 49.3125 23.7812 49.3125C22.2812 49.3125 20.875 49.5937 19.5625 50.0625L14.125 52.125V53.7188L13.1875 53.8125V62.4375L32.2188 66.75C33.25 67.0312 34.375 67.125 35.4062 67.125C37.375 67.125 39.4375 66.75 41.2188 65.9062L51.625 61.4063C52.75 60.9375 53.5 59.8125 53.5 58.5938C53.5 56.9063 52.0938 55.5 50.4062 55.5Z" fill="url(#paint10_linear_29_224)"/>
<path d="M14.125 52.1252L19.5625 50.0627C22.4688 48.9377 25.75 49.0315 28.5625 50.2502L30.0625 50.9065V66.2815L14.4063 62.719L14.125 62.9065V52.1252Z" fill="url(#paint11_linear_29_224)"/>
<path d="M16.9375 49.7812H9.4375V64.7812H16.9375V49.7812Z" fill="url(#paint12_linear_29_224)"/>
<path d="M40.2813 59.4375C38.5 60.1875 36.5312 60.1875 34.75 59.5313L27.25 56.625L37.4688 66.9375C38.7812 66.75 40.0938 66.375 41.3125 65.9063L46 63.8438L40.2813 59.4375Z" fill="url(#paint13_linear_29_224)"/>
<path d="M27.7188 22.2188L36.7188 18.5625C38.5 17.8125 40.4688 17.8125 42.25 18.4688L49.75 21.375V26.8125L63.8125 24.1875V15.5625L44.7812 11.25C43.75 10.9688 42.625 10.875 41.5938 10.875C39.5312 10.875 37.5625 11.25 35.6875 12.0938L25.375 16.5938C24.25 17.0625 23.5 18.1875 23.5 19.4062C23.5 21.0938 24.9062 22.5 26.5937 22.5C26.9687 22.5 27.3438 22.4062 27.7188 22.2188Z" fill="url(#paint14_linear_29_224)"/>
<path d="M62.8749 24.9376V25.8751L57.4374 27.9376C56.0311 28.4063 54.6249 28.6876 53.2186 28.6876C51.5311 28.6876 49.9374 28.3126 48.4374 27.7501L40.1874 24.1876C38.7811 23.5313 38.0311 21.9376 38.4999 20.4376C39.0624 18.8438 40.7499 18.0001 42.3436 18.5626H42.4374L49.8436 21.3751" fill="url(#paint15_linear_29_224)"/>
<path d="M62.875 25.875L57.4375 27.9375C54.5313 29.0625 51.25 28.9688 48.4375 27.75L46.9375 27.0938V11.7188L62.5938 15.2813L62.875 15.0938V25.875Z" fill="url(#paint16_linear_29_224)"/>
<path d="M67.5625 13.2188H60.0625V28.2188H67.5625V13.2188Z" fill="url(#paint17_linear_29_224)"/>
<defs>
<linearGradient id="paint0_linear_29_224" x1="38.5" y1="55.8749" x2="38.5" y2="22.125" gradientUnits="userSpaceOnUse">
<stop stop-color="#FFEA34"/>
<stop offset="1" stop-color="#F3BE36"/>
</linearGradient>
<linearGradient id="paint1_linear_29_224" x1="38.5" y1="54" x2="38.5" y2="24" gradientUnits="userSpaceOnUse">
<stop stop-color="#F3B436"/>
<stop offset="1" stop-color="#FFEA3C"/>
</linearGradient>
<linearGradient id="paint2_linear_29_224" x1="32.7617" y1="32.4225" x2="45.3015" y2="44.9614" gradientUnits="userSpaceOnUse">
<stop stop-color="#C17636"/>
<stop offset="1" stop-color="#F3B436" stop-opacity="0"/>
</linearGradient>
<linearGradient id="paint3_linear_29_224" x1="42.2088" y1="33.7218" x2="52.1875" y2="43.7005" gradientUnits="userSpaceOnUse">
<stop stop-color="#C17636"/>
<stop offset="1" stop-color="#F3B436" stop-opacity="0"/>
</linearGradient>
<linearGradient id="paint4_linear_29_224" x1="26.821" y1="34.5397" x2="37.991" y2="45.7098" gradientUnits="userSpaceOnUse">
<stop stop-color="#C17636"/>
<stop offset="1" stop-color="#F3B436" stop-opacity="0"/>
</linearGradient>
<linearGradient id="paint5_linear_29_224" x1="38.5" y1="56.8125" x2="38.5" y2="21.1867" gradientUnits="userSpaceOnUse">
<stop stop-color="#F3B436"/>
<stop offset="1" stop-color="#FFEA3C"/>
</linearGradient>
<linearGradient id="paint6_linear_29_224" x1="39.9065" y1="51.1875" x2="39.9065" y2="26.3438" gradientUnits="userSpaceOnUse">
<stop stop-color="#FFDC46"/>
<stop offset="1" stop-color="#FFF578"/>
</linearGradient>
<linearGradient id="paint7_linear_29_224" x1="47.4032" y1="47.4373" x2="47.4032" y2="30.1319" gradientUnits="userSpaceOnUse">
<stop stop-color="#FFDC46"/>
<stop offset="1" stop-color="#FFF578"/>
</linearGradient>
<linearGradient id="paint8_linear_29_224" x1="30.5312" y1="48.8437" x2="30.5312" y2="30.0938" gradientUnits="userSpaceOnUse">
<stop stop-color="#FFDC46"/>
<stop offset="1" stop-color="#FFF578"/>
</linearGradient>
<linearGradient id="paint9_linear_29_224" x1="53.5" y1="59.738" x2="13.1875" y2="59.738" gradientUnits="userSpaceOnUse">
<stop stop-color="#FFE6D2"/>
<stop offset="0.9" stop-color="#FFD0BD"/>
</linearGradient>
<linearGradient id="paint10_linear_29_224" x1="13.1875" y1="58.2187" x2="53.5" y2="58.2187" gradientUnits="userSpaceOnUse">
<stop stop-color="#FFE6D2"/>
<stop offset="1" stop-color="#FFD0BD"/>
</linearGradient>
<linearGradient id="paint11_linear_29_224" x1="30.0588" y1="57.7929" x2="14.125" y2="57.7929" gradientUnits="userSpaceOnUse">
<stop stop-color="#FFE6D2" stop-opacity="0"/>
<stop offset="1" stop-color="#F5AF96"/>
</linearGradient>
<linearGradient id="paint12_linear_29_224" x1="13.1875" y1="64.7812" x2="13.1875" y2="49.7812" gradientUnits="userSpaceOnUse">
<stop stop-color="#4DBEE6"/>
<stop offset="1" stop-color="#A0FAFF"/>
</linearGradient>
<linearGradient id="paint13_linear_29_224" x1="30.1021" y1="53.7673" x2="43.0892" y2="66.7545" gradientUnits="userSpaceOnUse">
<stop stop-color="#F5AF96"/>
<stop offset="0.087" stop-color="#F5B198" stop-opacity="0.963"/>
<stop offset="0.23" stop-color="#F6B69E" stop-opacity="0.864"/>
<stop offset="0.41" stop-color="#F8BFA8" stop-opacity="0.701"/>
<stop offset="0.621" stop-color="#FACCB5" stop-opacity="0.476"/>
<stop offset="0.855" stop-color="#FDDBC6" stop-opacity="0.192"/>
<stop offset="1" stop-color="#FFE6D2" stop-opacity="0"/>
</linearGradient>
<linearGradient id="paint14_linear_29_224" x1="43.6562" y1="10.875" x2="43.6562" y2="26.8125" gradientUnits="userSpaceOnUse">
<stop offset="0.5" stop-color="#FFD0BD"/>
<stop offset="1" stop-color="#FFE6D2"/>
</linearGradient>
<linearGradient id="paint15_linear_29_224" x1="38.2853" y1="23.5262" x2="62.8749" y2="23.5262" gradientUnits="userSpaceOnUse">
<stop stop-color="#FFE6D2"/>
<stop offset="1" stop-color="#FFD0BD"/>
</linearGradient>
<linearGradient id="paint16_linear_29_224" x1="46.9375" y1="20.2073" x2="62.875" y2="20.2073" gradientUnits="userSpaceOnUse">
<stop stop-color="#FFE6D2" stop-opacity="0"/>
<stop offset="0.145" stop-color="#FDDBC6" stop-opacity="0.192"/>
<stop offset="0.379" stop-color="#FACCB5" stop-opacity="0.476"/>
<stop offset="0.59" stop-color="#F8BFA8" stop-opacity="0.701"/>
<stop offset="0.77" stop-color="#F6B69E" stop-opacity="0.864"/>
<stop offset="0.913" stop-color="#F5B198" stop-opacity="0.963"/>
<stop offset="1" stop-color="#F5AF96"/>
</linearGradient>
<linearGradient id="paint17_linear_29_224" x1="63.8125" y1="13.2188" x2="63.8125" y2="28.2188" gradientUnits="userSpaceOnUse">
<stop stop-color="#A0FAFF"/>
<stop offset="1" stop-color="#4DBEE6"/>
</linearGradient>
</defs>
</svg>
