<svg width="77" height="77" viewBox="0 0 77 77" fill="none" xmlns="http://www.w3.org/2000/svg">
<rect width="77" height="77" rx="38.5" fill="#EEEEEE"/>
<g clip-path="url(#clip0_29_283)">
<path d="M29.7188 54.4688C29.0853 54.4691 28.4628 54.3027 27.9141 53.9862L9.86719 43.5706C9.31906 43.2529 8.8639 42.797 8.54721 42.2483C8.23051 41.6996 8.06338 41.0774 8.0625 40.4438V20.0251C8.06325 19.3917 8.23034 18.7696 8.54705 18.221C8.86377 17.6725 9.319 17.2167 9.86719 16.8994L27.9141 6.48376C28.463 6.16777 29.0853 6.00146 29.7188 6.00146C30.3522 6.00146 30.9745 6.16777 31.5234 6.48376L49.5703 16.8994C50.1183 17.217 50.5734 17.6728 50.89 18.2213C51.2067 18.7698 51.3739 19.3917 51.375 20.0251V40.4438C51.3743 41.0773 51.2072 41.6994 50.8904 42.2479C50.5737 42.7965 50.1185 43.2522 49.5703 43.5696L31.5234 53.9852C30.9748 54.302 30.3523 54.4688 29.7188 54.4688Z" fill="url(#paint0_linear_29_283)"/>
<path d="M29.7188 8.0625C29.4473 8.0622 29.1806 8.13333 28.9453 8.26875L10.8984 18.6844C10.6631 18.8202 10.4678 19.0157 10.332 19.251C10.1962 19.4863 10.1248 19.7533 10.125 20.025V40.4437C10.1256 40.7153 10.1973 40.982 10.333 41.2172C10.4687 41.4524 10.6636 41.648 10.8984 41.7844L28.9453 52.2C29.1805 52.3358 29.4472 52.4072 29.7188 52.4072C29.9903 52.4072 30.257 52.3358 30.4922 52.2L48.5391 41.7844C48.7744 41.6485 48.9697 41.4531 49.1055 41.2177C49.2413 40.9824 49.3127 40.7155 49.3125 40.4437V20.025C49.3119 19.7534 49.2402 19.4868 49.1045 19.2516C48.9688 19.0163 48.7739 18.8208 48.5391 18.6844L30.4922 8.26875C30.2569 8.13333 29.9902 8.0622 29.7188 8.0625Z" fill="url(#paint1_linear_29_283)"/>
<path d="M29.7187 51.375C29.6282 51.375 29.5393 51.3512 29.4609 51.306L11.4141 40.8872C11.3361 40.8422 11.2713 40.7776 11.2261 40.6998C11.1809 40.6221 11.1568 40.5338 11.1563 40.4438V20.025C11.1561 19.9344 11.1798 19.8452 11.2251 19.7667C11.2703 19.6881 11.3355 19.6228 11.4141 19.5775L29.4609 9.16185C29.5393 9.1166 29.6282 9.09277 29.7187 9.09277C29.8093 9.09277 29.8982 9.1166 29.9766 9.16185L48.0234 19.5775C48.102 19.6228 48.1671 19.6881 48.2124 19.7667C48.2577 19.8452 48.2814 19.9344 48.2812 20.025V40.4438C48.2814 40.5345 48.2577 40.6236 48.2124 40.7022C48.1671 40.7808 48.102 40.846 48.0234 40.8914L29.9766 51.307C29.8981 51.3519 29.8092 51.3754 29.7187 51.375Z" fill="url(#paint2_linear_29_283)"/>
<path d="M36.4219 16.9313L31.2656 13.9541C31.1089 13.8636 30.931 13.8159 30.75 13.8159C30.569 13.8159 30.3911 13.8636 30.2344 13.9541L28.9453 14.6976C28.7884 14.7882 28.6581 14.9185 28.5676 15.0755C28.4771 15.2325 28.4295 15.4105 28.4297 15.5917V46.425C28.4297 46.6986 28.5383 46.9609 28.7317 47.1543C28.9251 47.3476 29.1874 47.4563 29.4609 47.4563C29.7344 47.4563 29.9967 47.3476 30.1901 47.1543C30.3835 46.9609 30.4922 46.6986 30.4922 46.425V32.6321H35.2617C35.5352 32.6321 35.7975 32.5234 35.9909 32.33C36.1843 32.1366 36.293 31.8743 36.293 31.6008C36.293 31.3273 36.1843 31.065 35.9909 30.8716C35.7975 30.6782 35.5352 30.5696 35.2617 30.5696H30.4922V16.1826L30.75 16.0341L35.3906 18.7154C35.508 18.7841 35.6377 18.829 35.7725 18.8475C35.9072 18.8659 36.0443 18.8575 36.1758 18.8227C36.3072 18.788 36.4306 18.7275 36.5386 18.6449C36.6466 18.5623 36.7373 18.4591 36.8053 18.3414C36.8733 18.2236 36.9173 18.0935 36.9348 17.9586C36.9524 17.8238 36.943 17.6868 36.9074 17.5555C36.8718 17.4243 36.8105 17.3014 36.7272 17.1939C36.6439 17.0864 36.5401 16.9965 36.4219 16.9292V16.9313Z" fill="url(#paint3_linear_29_283)"/>
<path d="M46.7343 22.8804L40.289 19.1597C40.0523 19.0251 39.7719 18.9896 39.5091 19.0609C39.2463 19.1323 39.0224 19.3047 38.8862 19.5405C38.7501 19.7764 38.7127 20.0565 38.7823 20.3197C38.8519 20.583 39.0228 20.8081 39.2578 20.9458L41.3202 22.1369V41.2686C41.3202 41.5422 41.4289 41.8045 41.6223 41.9979C41.8157 42.1912 42.078 42.2999 42.3515 42.2999C42.625 42.2999 42.8873 42.1912 43.0807 41.9979C43.2741 41.8045 43.3827 41.5422 43.3827 41.2686V23.3249L45.7031 24.6655C45.8204 24.7343 45.9502 24.7792 46.0849 24.7976C46.2196 24.816 46.3567 24.8076 46.4882 24.7729C46.6197 24.7381 46.743 24.6777 46.851 24.5951C46.9591 24.5125 47.0497 24.4093 47.1177 24.2915C47.1857 24.1737 47.2297 24.0437 47.2473 23.9088C47.2648 23.7739 47.2555 23.6369 47.2198 23.5057C47.1842 23.3744 47.123 23.2515 47.0396 23.144C46.9563 23.0366 46.8525 22.9466 46.7343 22.8794V22.8804Z" fill="url(#paint4_linear_29_283)"/>
<path d="M23.6602 18.9678C23.3867 18.9678 23.1243 19.0764 22.931 19.2698C22.7376 19.4632 22.6289 19.7255 22.6289 19.999V37.8479L16.8828 23.4826C16.7935 23.2603 16.6297 23.0761 16.4195 22.9614C16.2092 22.8468 15.9656 22.8089 15.7304 22.8542C15.4952 22.8996 15.2832 23.0254 15.1307 23.2101C14.9782 23.3947 14.8947 23.6267 14.8945 23.8662V40.624C14.8945 40.8975 15.0032 41.1598 15.1966 41.3532C15.39 41.5466 15.6523 41.6553 15.9258 41.6553C16.1993 41.6553 16.4616 41.5466 16.655 41.3532C16.8484 41.1598 16.957 40.8975 16.957 40.624V29.2205L22.7063 43.5858C22.7829 43.777 22.915 43.9408 23.0855 44.0562C23.2561 44.1717 23.4573 44.2334 23.6633 44.2334C23.729 44.2333 23.7946 44.2271 23.8592 44.2148C24.0946 44.1695 24.3068 44.0437 24.4594 43.8589C24.6121 43.6741 24.6955 43.4419 24.6955 43.2022V19.999C24.6955 19.8633 24.6687 19.7288 24.6166 19.6034C24.5646 19.478 24.4882 19.3642 24.392 19.2684C24.2958 19.1726 24.1817 19.0967 24.0561 19.0451C23.9305 18.9935 23.7959 18.9672 23.6602 18.9678Z" fill="url(#paint5_linear_29_283)"/>
<path d="M35.3906 16.2096L30.2344 13.2324C30.0776 13.1419 29.8998 13.0942 29.7188 13.0942C29.5377 13.0942 29.3599 13.1419 29.2031 13.2324L27.9141 13.9759C27.7571 14.0665 27.6269 14.1969 27.5363 14.3538C27.4458 14.5108 27.3983 14.6888 27.3984 14.87V45.7034C27.3984 45.9769 27.5071 46.2392 27.7005 46.4326C27.8939 46.626 28.1562 46.7346 28.4297 46.7346C28.7032 46.7346 28.9655 46.626 29.1589 46.4326C29.3523 46.2392 29.4609 45.9769 29.4609 45.7034V31.9104H34.2305C34.504 31.9104 34.7663 31.8018 34.9597 31.6084C35.1531 31.415 35.2617 31.1527 35.2617 30.8792C35.2617 30.6056 35.1531 30.3433 34.9597 30.15C34.7663 29.9566 34.504 29.8479 34.2305 29.8479H29.4609V15.4609L29.7188 15.3124L34.3594 17.9937C34.4767 18.0625 34.6065 18.1074 34.7412 18.1258C34.876 18.1442 35.013 18.1358 35.1445 18.101C35.276 18.0663 35.3993 18.0058 35.5073 17.9232C35.6154 17.8406 35.706 17.7375 35.774 17.6197C35.842 17.5019 35.886 17.3718 35.9036 17.237C35.9211 17.1021 35.9118 16.9651 35.8761 16.8338C35.8405 16.7026 35.7793 16.5797 35.6959 16.4722C35.6126 16.3647 35.5089 16.2748 35.3906 16.2076V16.2096Z" fill="url(#paint6_linear_29_283)"/>
<path d="M45.7031 22.1587L39.2578 18.438C39.021 18.3034 38.7407 18.2679 38.4779 18.3393C38.215 18.4106 37.9911 18.583 37.855 18.8188C37.7188 19.0547 37.6815 19.3348 37.7511 19.5981C37.8207 19.8613 37.9916 20.0864 38.2265 20.2241L40.289 21.4152V40.547C40.289 40.8205 40.3976 41.0828 40.591 41.2762C40.7844 41.4696 41.0467 41.5782 41.3202 41.5782C41.5938 41.5782 41.8561 41.4696 42.0495 41.2762C42.2428 41.0828 42.3515 40.8205 42.3515 40.547V22.6032L44.6718 23.9438C44.7891 24.0126 44.9189 24.0575 45.0537 24.0759C45.1884 24.0944 45.3255 24.0859 45.4569 24.0512C45.5884 24.0164 45.7117 23.956 45.8198 23.8734C45.9278 23.7908 46.0184 23.6876 46.0864 23.5698C46.1544 23.452 46.1985 23.322 46.216 23.1871C46.2335 23.0522 46.2242 22.9152 46.1886 22.784C46.1529 22.6527 46.0917 22.5298 46.0084 22.4224C45.925 22.3149 45.8213 22.2249 45.7031 22.1577V22.1587Z" fill="url(#paint7_linear_29_283)"/>
<path d="M22.6289 18.2461C22.3554 18.2461 22.0931 18.3548 21.8997 18.5481C21.7063 18.7415 21.5977 19.0038 21.5977 19.2774V37.1262L15.8526 22.7609C15.7638 22.538 15.6 22.353 15.3895 22.2378C15.179 22.1227 14.9349 22.0845 14.6993 22.13C14.4636 22.1754 14.2512 22.3016 14.0986 22.4868C13.9461 22.672 13.8628 22.9046 13.8633 23.1445V39.9024C13.8633 40.1759 13.9719 40.4382 14.1653 40.6316C14.3587 40.825 14.621 40.9336 14.8945 40.9336C15.168 40.9336 15.4303 40.825 15.6237 40.6316C15.8171 40.4382 15.9258 40.1759 15.9258 39.9024V28.4988L21.675 42.8641C21.7517 43.0554 21.8839 43.2194 22.0547 43.3348C22.2255 43.4503 22.4269 43.5119 22.633 43.5117C22.6984 43.5116 22.7637 43.5054 22.8279 43.4932C23.0633 43.4479 23.2755 43.322 23.4282 43.1372C23.5808 42.9524 23.6643 42.7202 23.6643 42.4805V19.2774C23.6643 19.1416 23.6375 19.0071 23.5854 18.8818C23.5333 18.7564 23.457 18.6425 23.3608 18.5467C23.2646 18.4509 23.1504 18.375 23.0248 18.3234C22.8992 18.2718 22.7647 18.2456 22.6289 18.2461Z" fill="url(#paint8_linear_29_283)"/>
<path d="M55.4974 29.1104L17.9888 50.7666C16.0159 51.9057 15.3399 54.4285 16.479 56.4013L23.6978 68.9042C24.8368 70.8771 27.3596 71.5531 29.3325 70.414L66.8411 48.7577C68.814 47.6186 69.4899 45.0959 68.3509 43.123L61.1321 30.6201C59.993 28.6472 57.4703 27.9713 55.4974 29.1104Z" fill="url(#paint9_linear_29_283)"/>
<path d="M27.2797 72.0001C26.3737 72.001 25.4835 71.7631 24.6987 71.3105C23.9139 70.8579 23.2622 70.2065 22.8092 69.422L15.5905 56.918C14.9084 55.7332 14.724 54.3262 15.0777 53.0057C15.4315 51.6851 16.2946 50.5587 17.4776 49.8736L54.9883 28.2173C56.1733 27.5359 57.58 27.352 58.9002 27.7059C60.2205 28.0599 61.3466 28.9228 62.0318 30.1055L69.2505 42.6094C69.9343 43.7937 70.1196 45.2011 69.7656 46.522C69.4117 47.8429 68.5476 48.9691 67.3633 49.6529L29.8527 71.3092C29.0709 71.7621 28.1832 72.0005 27.2797 72.0001ZM57.5562 29.5899C57.0152 29.5895 56.4838 29.7318 56.0155 30.0024L18.5048 51.6587C18.1525 51.8616 17.8437 52.1321 17.596 52.4545C17.3483 52.7769 17.1666 53.1449 17.0612 53.5376C16.9559 53.9303 16.929 54.3399 16.982 54.743C17.0351 55.1461 17.167 55.5347 17.3704 55.8868L24.5891 68.3907C24.7921 68.743 25.0625 69.0518 25.3849 69.2995C25.7074 69.5472 26.0754 69.7289 26.4681 69.8343C26.8608 69.9396 27.2704 69.9665 27.6735 69.9135C28.0765 69.8604 28.4652 69.7285 28.8173 69.5251L66.328 47.8688C66.6802 47.6658 66.9891 47.3954 67.2368 47.073C67.4845 46.7506 67.6662 46.3826 67.7715 45.9899C67.8769 45.5972 67.9038 45.1876 67.8507 44.7845C67.7977 44.3814 67.6657 43.9927 67.4623 43.6407L60.2436 31.1368C59.9714 30.6653 59.5795 30.2739 59.1077 30.0023C58.6358 29.7307 58.1006 29.5885 57.5562 29.5899Z" fill="url(#paint10_linear_29_283)"/>
<path d="M34.6479 46.7273C34.486 46.5837 34.2829 46.4948 34.0676 46.473C33.8522 46.4512 33.6355 46.4978 33.4481 46.606C33.2606 46.7143 33.112 46.8788 33.0233 47.0762C32.9345 47.2736 32.9102 47.4939 32.9536 47.706L35.5688 60.4852C35.5931 60.6206 35.6442 60.7497 35.7191 60.8651C35.794 60.9804 35.8912 61.0796 36.005 61.1568C36.1188 61.234 36.2469 61.2876 36.3818 61.3146C36.5166 61.3415 36.6555 61.3412 36.7902 61.3137C36.925 61.2862 37.0528 61.232 37.1663 61.1544C37.2798 61.0767 37.3766 60.9771 37.4511 60.8615C37.5255 60.7459 37.576 60.6165 37.5997 60.4811C37.6234 60.3456 37.6198 60.2068 37.5891 60.0727L37.0848 57.606L41.1562 55.2558L43.0392 56.9254C43.1408 57.0152 43.2591 57.0842 43.3873 57.1283C43.5155 57.1725 43.6512 57.1909 43.7865 57.1827C43.9219 57.1744 44.0543 57.1395 44.1762 57.0801C44.2981 57.0206 44.407 56.9377 44.4969 56.8362C44.5868 56.7346 44.6557 56.6163 44.6999 56.4881C44.744 56.3599 44.7625 56.2242 44.7542 56.0888C44.7459 55.9535 44.711 55.8211 44.6516 55.6992C44.5921 55.5773 44.5093 55.4683 44.4077 55.3785L34.6479 46.7273ZM36.6486 55.4744L35.5946 50.3181L39.5289 53.8069L36.6486 55.4744Z" fill="url(#paint11_linear_29_283)"/>
<path d="M54.1158 49.6219L46.6908 44.7162L47.4859 40.4706C47.5363 40.2017 47.4777 39.9239 47.3232 39.6982C47.1687 39.4725 46.9308 39.3174 46.662 39.2671C46.3931 39.2168 46.1153 39.2753 45.8896 39.4299C45.6639 39.5844 45.5088 39.8222 45.4585 40.0911L44.221 46.6963L42.0059 42.859C41.9386 42.7407 41.8487 42.637 41.7412 42.5537C41.6337 42.4703 41.5108 42.4091 41.3796 42.3734C41.2483 42.3378 41.1113 42.3285 40.9765 42.346C40.8416 42.3636 40.7115 42.4076 40.5937 42.4756C40.476 42.5436 40.3728 42.6342 40.2902 42.7423C40.2076 42.8503 40.1471 42.9736 40.1124 43.1051C40.0776 43.2366 40.0692 43.3736 40.0876 43.5084C40.1061 43.6431 40.151 43.7729 40.2197 43.8902L46.4072 54.607C46.4745 54.7252 46.5644 54.829 46.6719 54.9123C46.7794 54.9956 46.9023 55.0569 47.0335 55.0925C47.1648 55.1281 47.3018 55.1374 47.4366 55.1199C47.5715 55.1024 47.7016 55.0584 47.8194 54.9904C47.9371 54.9224 48.0403 54.8317 48.1229 54.7237C48.2055 54.6157 48.266 54.4923 48.3007 54.3609C48.3355 54.2294 48.3439 54.0923 48.3255 53.9576C48.307 53.8228 48.2621 53.693 48.1934 53.5757L45.806 49.4394L46.2783 46.9149L52.9815 51.342C53.2096 51.4817 53.4832 51.5273 53.7443 51.4691C54.0055 51.4109 54.2338 51.2535 54.381 51.0301C54.5283 50.8067 54.5829 50.5348 54.5334 50.2718C54.484 50.0089 54.3342 49.7755 54.1158 49.6209V49.6219Z" fill="url(#paint12_linear_29_283)"/>
<path d="M63.3718 44.809C63.235 44.5722 63.0098 44.3994 62.7456 44.3286C62.4814 44.2578 62.1999 44.2948 61.9631 44.4316L57.4988 47.0097L55.4363 43.4375L59.0085 41.375C59.1268 41.3077 59.2305 41.2178 59.3139 41.1103C59.3972 41.0028 59.4584 40.8799 59.4941 40.7487C59.5297 40.6174 59.539 40.4804 59.5215 40.3456C59.504 40.2107 59.4599 40.0806 59.3919 39.9629C59.3239 39.8451 59.2333 39.7419 59.1253 39.6593C59.0172 39.5767 58.8939 39.5163 58.7624 39.4815C58.6309 39.4467 58.4939 39.4383 58.3591 39.4567C58.2244 39.4752 58.0946 39.5201 57.9773 39.5888L54.405 41.6513L52.3425 38.0791L56.8068 35.501C57.0417 35.3632 57.2127 35.1382 57.2823 34.8749C57.3519 34.6116 57.3145 34.3315 57.1783 34.0957C57.0422 33.8599 56.8183 33.6875 56.5555 33.6161C56.2927 33.5448 56.0123 33.5803 55.7756 33.7148L50.4131 36.8086C50.1762 36.9454 50.0034 37.1706 49.9326 37.4348C49.8618 37.6989 49.8989 37.9804 50.0356 38.2173L56.2231 48.934C56.2908 49.0519 56.381 49.1553 56.4888 49.2382C56.5965 49.3211 56.7195 49.3819 56.8508 49.4171C56.9821 49.4522 57.1191 49.4611 57.2538 49.4432C57.3886 49.4252 57.5184 49.3808 57.6359 49.3125L62.9984 46.2187C63.2349 46.0813 63.407 45.8556 63.477 45.5912C63.547 45.3268 63.5092 45.0455 63.3718 44.809Z" fill="url(#paint13_linear_29_283)"/>
<path d="M30.2912 55.5732L26.718 57.6357L24.6555 54.0635L29.1208 51.4853C29.239 51.4181 29.3428 51.3282 29.4261 51.2207C29.5094 51.1132 29.5707 50.9903 29.6063 50.8591C29.6419 50.7278 29.6512 50.5908 29.6337 50.4559C29.6162 50.3211 29.5722 50.191 29.5042 50.0732C29.4361 49.9554 29.3455 49.8523 29.2375 49.7697C29.1295 49.6871 29.0061 49.6266 28.8747 49.5919C28.7432 49.5571 28.6061 49.5487 28.4714 49.5671C28.3366 49.5855 28.2068 49.6304 28.0895 49.6992L22.727 52.793C22.4902 52.9297 22.3173 53.155 22.2466 53.4192C22.1758 53.6833 22.2128 53.9648 22.3496 54.2017L28.5371 64.9184C28.6043 65.0367 28.6942 65.1404 28.8017 65.2237C28.9092 65.3071 29.0321 65.3683 29.1634 65.4039C29.2946 65.4396 29.4316 65.4489 29.5665 65.4314C29.7014 65.4138 29.8314 65.3698 29.9492 65.3018C30.067 65.2338 30.1701 65.1432 30.2528 65.0351C30.3354 64.9271 30.3958 64.8038 30.4306 64.6723C30.4653 64.5408 30.4737 64.4038 30.4553 64.269C30.4369 64.1343 30.392 64.0045 30.3232 63.8872L27.7451 59.4219L31.3184 57.3594C31.5533 57.2216 31.7242 56.9966 31.7938 56.7333C31.8634 56.47 31.8261 56.1899 31.6899 55.9541C31.5537 55.7182 31.3298 55.5458 31.067 55.4745C30.8042 55.4031 30.5238 55.4386 30.2871 55.5732H30.2912Z" fill="url(#paint14_linear_29_283)"/>
</g>
<defs>
<linearGradient id="paint0_linear_29_283" x1="29.7187" y1="54.4678" x2="29.7187" y2="6.00113" gradientUnits="userSpaceOnUse">
<stop stop-color="#F3B436"/>
<stop offset="1" stop-color="#FFEA3C"/>
</linearGradient>
<linearGradient id="paint1_linear_29_283" x1="29.7188" y1="52.4052" x2="29.7188" y2="8.0625" gradientUnits="userSpaceOnUse">
<stop stop-color="#FFEA3C"/>
<stop offset="1" stop-color="#F3B436"/>
</linearGradient>
<linearGradient id="paint2_linear_29_283" x1="6" y1="51.375" x2="29.7188" y2="9.0938" gradientUnits="userSpaceOnUse">
<stop stop-color="#F3B436"/>
<stop offset="1" stop-color="#FFEA3C"/>
</linearGradient>
<linearGradient id="paint3_linear_29_283" x1="22.0751" y1="21.5142" x2="38.9526" y2="38.3916" gradientUnits="userSpaceOnUse">
<stop stop-color="#C17636"/>
<stop offset="1" stop-color="#F3B436" stop-opacity="0"/>
</linearGradient>
<linearGradient id="paint4_linear_29_283" x1="35.0657" y1="23.3012" x2="48.4214" y2="36.6569" gradientUnits="userSpaceOnUse">
<stop stop-color="#C17636"/>
<stop offset="1" stop-color="#F3B436" stop-opacity="0"/>
</linearGradient>
<linearGradient id="paint5_linear_29_283" x1="13.9076" y1="24.4262" x2="28.901" y2="39.4195" gradientUnits="userSpaceOnUse">
<stop stop-color="#C17636"/>
<stop offset="1" stop-color="#F3B436" stop-opacity="0"/>
</linearGradient>
<linearGradient id="paint6_linear_29_283" x1="31.6523" y1="46.7346" x2="31.6523" y2="13.0901" gradientUnits="userSpaceOnUse">
<stop stop-color="#FFDC46"/>
<stop offset="1" stop-color="#FFF578"/>
</linearGradient>
<linearGradient id="paint7_linear_29_283" x1="41.9648" y1="41.5782" x2="41.9648" y2="18.2988" gradientUnits="userSpaceOnUse">
<stop stop-color="#FFDC46"/>
<stop offset="1" stop-color="#FFF578"/>
</linearGradient>
<linearGradient id="paint8_linear_29_283" x1="18.7617" y1="43.5117" x2="18.7617" y2="18.2461" gradientUnits="userSpaceOnUse">
<stop stop-color="#FFDC46"/>
<stop offset="1" stop-color="#FFF578"/>
</linearGradient>
<linearGradient id="paint9_linear_29_283" x1="15.9254" y1="49.7614" x2="68.9025" y2="49.7614" gradientUnits="userSpaceOnUse">
<stop stop-color="#F34360"/>
<stop offset="1" stop-color="#B21939"/>
</linearGradient>
<linearGradient id="paint10_linear_29_283" x1="14.8964" y1="49.7632" x2="69.9384" y2="49.7632" gradientUnits="userSpaceOnUse">
<stop stop-color="#B21939"/>
<stop offset="1" stop-color="#F34360"/>
</linearGradient>
<linearGradient id="paint11_linear_29_283" x1="32.7556" y1="57.9143" x2="39.8496" y2="50.8204" gradientUnits="userSpaceOnUse">
<stop stop-color="#CDD7DC"/>
<stop offset="1" stop-color="#EBFAFF"/>
</linearGradient>
<linearGradient id="paint12_linear_29_283" x1="43.001" y1="51.2544" x2="50.9509" y2="43.3045" gradientUnits="userSpaceOnUse">
<stop stop-color="#CDD7DC"/>
<stop offset="1" stop-color="#EBFAFF"/>
</linearGradient>
<linearGradient id="paint13_linear_29_283" x1="52.7313" y1="45.4876" x2="60.6802" y2="37.5387" gradientUnits="userSpaceOnUse">
<stop stop-color="#CDD7DC"/>
<stop offset="1" stop-color="#EBFAFF"/>
</linearGradient>
<linearGradient id="paint14_linear_29_283" x1="24.4791" y1="60.9069" x2="32.429" y2="52.957" gradientUnits="userSpaceOnUse">
<stop stop-color="#CDD7DC"/>
<stop offset="1" stop-color="#EBFAFF"/>
</linearGradient>
<clipPath id="clip0_29_283">
<rect width="66" height="66" fill="white" transform="translate(6 6)"/>
</clipPath>
</defs>
</svg>
