<svg width="78" height="78" viewBox="0 0 78 78" fill="none" xmlns="http://www.w3.org/2000/svg">
<rect width="78" height="78" rx="39" fill="#EEEEEE"/>
<g clip-path="url(#clip0_28_117)">
<path d="M42.5862 44.383L28.2427 37.2112V19.2817L42.5862 26.4535V44.383Z" fill="url(#paint0_linear_28_117)"/>
<path d="M56.9295 37.2112L42.5859 44.383V26.4535L56.9295 19.2817V37.2112Z" fill="url(#paint1_linear_28_117)"/>
<path d="M42.5862 12.1099L28.2427 19.2817L42.5862 26.4534L56.9298 19.2817L42.5862 12.1099Z" fill="url(#paint2_linear_28_117)"/>
<path d="M11.2095 42.6636V56.8593C11.2095 57.174 11.2923 57.4832 11.4497 57.7557C11.6071 58.0283 11.8334 58.2546 12.1059 58.412L24.6566 65.6581C24.9291 65.8155 25.2383 65.8984 25.553 65.8984C25.8678 65.8984 26.177 65.8155 26.4495 65.6581L39.0001 58.412C39.2727 58.2546 39.499 58.0283 39.6564 57.7557C39.8138 57.4832 39.8966 57.174 39.8966 56.8593V42.6636C39.8966 42.3489 39.8138 42.0397 39.6564 41.7672C39.499 41.4946 39.2727 41.2683 39.0001 41.1109L26.4495 33.8647C26.177 33.7074 25.8678 33.6245 25.553 33.6245C25.2383 33.6245 24.9291 33.7074 24.6566 33.8647L12.1059 41.1109C11.8334 41.2683 11.6071 41.4946 11.4497 41.7672C11.2923 42.0397 11.2095 42.3489 11.2095 42.6636Z" fill="url(#paint3_linear_28_117)"/>
<path d="M13.0024 56.8589V42.6633L25.5531 35.418L38.1037 42.6633V56.8589L25.5531 64.1051L13.0024 56.8589Z" fill="url(#paint4_linear_28_117)"/>
<path d="M30.2597 40.253L26.6738 38.1821C26.5375 38.1034 26.3829 38.062 26.2256 38.062C26.0682 38.062 25.9136 38.1034 25.7773 38.1821L24.8809 38.7003C24.7446 38.779 24.6314 38.8921 24.5527 39.0284C24.474 39.1647 24.4326 39.3193 24.4326 39.4766V60.923C24.4326 61.1607 24.5271 61.3887 24.6952 61.5569C24.8633 61.725 25.0913 61.8194 25.3291 61.8194C25.5669 61.8194 25.7949 61.725 25.963 61.5569C26.1311 61.3887 26.2256 61.1607 26.2256 60.923V51.51H29.3632C29.601 51.51 29.829 51.4155 29.9971 51.2474C30.1652 51.0793 30.2597 50.8513 30.2597 50.6135C30.2597 50.3758 30.1652 50.1477 29.9971 49.9796C29.829 49.8115 29.601 49.717 29.3632 49.717H26.2256V39.9903L29.3632 41.8021C29.4652 41.8619 29.578 41.9009 29.6952 41.9169C29.8123 41.9329 29.9314 41.9256 30.0457 41.8954C30.16 41.8652 30.2672 41.8126 30.3612 41.7408C30.4551 41.669 30.5339 41.5793 30.593 41.4769C30.6521 41.3746 30.6904 41.2615 30.7056 41.1443C30.7208 41.027 30.7127 40.9079 30.6818 40.7938C30.6508 40.6797 30.5975 40.5729 30.5251 40.4794C30.4527 40.386 30.3625 40.3078 30.2597 40.2494V40.253Z" fill="url(#paint5_linear_28_117)"/>
<path d="M37.4313 44.3938L32.9489 41.8056C32.7431 41.6886 32.4994 41.6578 32.271 41.7198C32.0425 41.7818 31.8479 41.9317 31.7295 42.1367C31.6111 42.3417 31.5786 42.5852 31.6392 42.8141C31.6997 43.043 31.8482 43.2386 32.0525 43.3583L33.3972 44.1347V57.337C33.3972 57.5748 33.4916 57.8028 33.6597 57.9709C33.8279 58.1391 34.0559 58.2335 34.2936 58.2335C34.5314 58.2335 34.7594 58.1391 34.9276 57.9709C35.0957 57.8028 35.1901 57.5748 35.1901 57.337V45.1701L36.5348 45.9464C36.6368 46.0062 36.7496 46.0453 36.8668 46.0613C36.9839 46.0773 37.1031 46.07 37.2174 46.0398C37.3317 46.0095 37.4389 45.957 37.5328 45.8852C37.6267 45.8134 37.7055 45.7237 37.7646 45.6213C37.8237 45.5189 37.862 45.4059 37.8772 45.2886C37.8924 45.1714 37.8843 45.0523 37.8534 44.9382C37.8224 44.8241 37.7692 44.7172 37.6967 44.6238C37.6243 44.5304 37.5341 44.4522 37.4313 44.3938Z" fill="url(#paint6_linear_28_117)"/>
<path d="M21.2948 41.6484C21.0571 41.6484 20.8291 41.7429 20.6609 41.911C20.4928 42.0791 20.3984 42.3072 20.3984 42.5449V54.026L16.7488 44.9008C16.6716 44.7071 16.5293 44.5463 16.3463 44.4461C16.1633 44.346 15.9511 44.3129 15.7463 44.3524C15.5414 44.3919 15.3568 44.5015 15.2241 44.6625C15.0915 44.8235 15.0191 45.0257 15.0195 45.2343V56.8885C15.0195 57.1262 15.114 57.3543 15.2821 57.5224C15.4502 57.6905 15.6782 57.785 15.916 57.785C16.1538 57.785 16.3818 57.6905 16.5499 57.5224C16.718 57.3543 16.8125 57.1262 16.8125 56.8885V49.8888L20.462 59.014C20.5285 59.1804 20.6433 59.323 20.7915 59.4235C20.9398 59.524 21.1148 59.5778 21.294 59.5779C21.3511 59.5778 21.4081 59.5724 21.4643 59.5618C21.6689 59.5224 21.8534 59.413 21.9861 59.2523C22.1188 59.0917 22.1913 58.8898 22.1913 58.6814V42.5449C22.1913 42.3072 22.0969 42.0791 21.9287 41.911C21.7606 41.7429 21.5326 41.6484 21.2948 41.6484Z" fill="url(#paint7_linear_28_117)"/>
<path d="M25.553 66.7948C25.081 66.7958 24.6172 66.6721 24.2083 66.4362L11.6577 59.1909C11.2492 58.954 10.91 58.6141 10.6741 58.2051C10.4381 57.796 10.3136 57.3323 10.313 56.8601V42.6644C10.3137 42.1922 10.4382 41.7285 10.6742 41.3195C10.9101 40.9105 11.2493 40.5705 11.6577 40.3336L24.2083 33.0874C24.6174 32.8519 25.0811 32.728 25.553 32.728C26.025 32.728 26.4887 32.8519 26.8977 33.0874L39.4484 40.3327C39.8568 40.5696 40.1959 40.9096 40.4319 41.3186C40.6678 41.7276 40.7924 42.1913 40.7931 42.6635V56.8592C40.7925 57.3314 40.668 57.7951 40.432 58.2042C40.196 58.6132 39.8569 58.9531 39.4484 59.19L26.8977 66.4362C26.4887 66.6716 26.025 66.7953 25.553 66.7948ZM25.553 34.5217C25.3958 34.5215 25.2412 34.5626 25.1048 34.641L12.5542 41.8872C12.4178 41.9659 12.3045 42.0792 12.2258 42.2157C12.1471 42.3521 12.1058 42.5069 12.1059 42.6644V56.8592C12.1061 57.0164 12.1476 57.1708 12.2263 57.3069C12.3049 57.443 12.418 57.556 12.5542 57.6346L25.1048 64.8808C25.2411 64.9595 25.3957 65.0009 25.553 65.0009C25.7104 65.0009 25.865 64.9595 26.0013 64.8808L38.5519 57.6337C38.688 57.5551 38.8011 57.4421 38.8798 57.306C38.9585 57.1699 39 57.0155 39.0001 56.8583V42.6644C39.0003 42.5069 38.9589 42.3521 38.8803 42.2157C38.8016 42.0792 38.6883 41.9659 38.5519 41.8872L26.0013 34.6419C25.8652 34.5628 25.7105 34.5213 25.553 34.5217Z" fill="url(#paint8_linear_28_117)"/>
<path d="M29.5873 39.8496L26.0014 37.7788C25.8652 37.7001 25.7106 37.6587 25.5532 37.6587C25.3958 37.6587 25.2412 37.7001 25.105 37.7788L24.2085 38.2961C24.0721 38.3748 23.9588 38.4881 23.8801 38.6246C23.8015 38.761 23.7601 38.9158 23.7603 39.0733V60.5196C23.7603 60.7574 23.8547 60.9854 24.0228 61.1535C24.1909 61.3217 24.419 61.4161 24.6567 61.4161C24.8945 61.4161 25.1225 61.3217 25.2906 61.1535C25.4588 60.9854 25.5532 60.7574 25.5532 60.5196V51.1067H28.6909C28.9286 51.1067 29.1566 51.0122 29.3248 50.8441C29.4929 50.676 29.5873 50.4479 29.5873 50.2102C29.5873 49.9724 29.4929 49.7444 29.3248 49.5763C29.1566 49.4082 28.9286 49.3137 28.6909 49.3137H25.5532V39.5906L28.6909 41.4023C28.7929 41.4621 28.9057 41.5012 29.0228 41.5172C29.1399 41.5332 29.2591 41.5259 29.3734 41.4957C29.4877 41.4654 29.5949 41.4129 29.6888 41.3411C29.7827 41.2693 29.8615 41.1796 29.9206 41.0772C29.9797 40.9748 30.018 40.8618 30.0332 40.7445C30.0485 40.6273 30.0404 40.5082 30.0094 40.3941C29.9784 40.28 29.9252 40.1731 29.8527 40.0797C29.7803 39.9863 29.6901 39.9081 29.5873 39.8496Z" fill="url(#paint9_linear_28_117)"/>
<path d="M36.7589 43.9904L32.2766 41.4023C32.0708 41.2853 31.8271 41.2545 31.5986 41.3165C31.3701 41.3785 31.1755 41.5284 31.0571 41.7334C30.9388 41.9384 30.9063 42.1819 30.9668 42.4108C31.0273 42.6396 31.1759 42.8353 31.3801 42.955L32.7248 43.7314V56.9337C32.7248 57.1715 32.8193 57.3995 32.9874 57.5676C33.1555 57.7357 33.3835 57.8302 33.6213 57.8302C33.859 57.8302 34.0871 57.7357 34.2552 57.5676C34.4233 57.3995 34.5178 57.1715 34.5178 56.9337V44.7668L35.8625 45.5431C35.9645 45.6029 36.0773 45.6419 36.1944 45.658C36.3116 45.674 36.4307 45.6667 36.545 45.6364C36.6593 45.6062 36.7665 45.5537 36.8604 45.4819C36.9543 45.4101 37.0331 45.3204 37.0922 45.218C37.1513 45.1156 37.1896 45.0025 37.2049 44.8853C37.2201 44.7681 37.212 44.649 37.181 44.5349C37.15 44.4208 37.0968 44.3139 37.0244 44.2205C36.9519 44.1271 36.8617 44.0489 36.7589 43.9904Z" fill="url(#paint10_linear_28_117)"/>
<path d="M20.6225 41.2451C20.3847 41.2451 20.1567 41.3396 19.9886 41.5077C19.8205 41.6758 19.726 41.9038 19.726 42.1416V53.6227L16.0765 44.4975C15.9993 44.3037 15.8569 44.1429 15.6739 44.0428C15.4909 43.9427 15.2787 43.9095 15.0739 43.949C14.8691 43.9885 14.6844 44.0982 14.5518 44.2592C14.4191 44.4202 14.3468 44.6224 14.3472 44.831V56.4852C14.3472 56.7229 14.4416 56.9509 14.6097 57.1191C14.7779 57.2872 15.0059 57.3816 15.2436 57.3816C15.4814 57.3816 15.7094 57.2872 15.8775 57.1191C16.0457 56.9509 16.1401 56.7229 16.1401 56.4852V49.4855L19.7897 58.6107C19.8562 58.7772 19.9711 58.9199 20.1195 59.0204C20.268 59.121 20.4432 59.1746 20.6225 59.1746C20.6794 59.1746 20.7362 59.1689 20.7919 59.1575C20.9964 59.1182 21.1808 59.0089 21.3134 58.8484C21.4461 58.688 21.5188 58.4863 21.519 58.2781V42.1416C21.519 41.9038 21.4245 41.6758 21.2564 41.5077C21.0883 41.3396 20.8602 41.2451 20.6225 41.2451Z" fill="url(#paint11_linear_28_117)"/>
<path d="M62.5936 19.4724L64.5721 18.2514C64.7633 18.1216 64.8969 17.923 64.9451 17.697C64.9934 17.4711 64.9526 17.2352 64.8312 17.0387C64.7098 16.8421 64.5172 16.7 64.2935 16.642C64.0699 16.584 63.8325 16.6146 63.6308 16.7274L60.0449 18.9399V18.9542C59.8595 19.069 59.7227 19.248 59.6607 19.4571C59.5987 19.6663 59.6158 19.8909 59.7088 20.0882L61.5017 23.8785C61.6041 24.0922 61.787 24.2566 62.0103 24.3359C62.2336 24.4151 62.4791 24.4027 62.6933 24.3014C62.9075 24.2001 63.0729 24.0182 63.1534 23.7953C63.2338 23.5724 63.2227 23.3268 63.1225 23.112L62.2485 21.2635C64.8958 22.3375 65.8944 23.4491 65.8944 24.212C65.8944 26.645 57.0265 30.0391 42.5861 30.0391C28.1457 30.0391 19.2778 26.645 19.2778 24.212C19.2778 23.2806 20.7597 21.8319 24.9193 20.558C25.0334 20.5248 25.1398 20.4693 25.2323 20.3947C25.3248 20.3201 25.4015 20.2278 25.4579 20.1232C25.5144 20.0187 25.5496 19.9039 25.5613 19.7857C25.573 19.6674 25.5612 19.548 25.5263 19.4344C25.4915 19.3208 25.4345 19.2152 25.3585 19.1239C25.2825 19.0325 25.1891 18.9572 25.0837 18.9022C24.9784 18.8473 24.8631 18.8138 24.7447 18.8038C24.6263 18.7938 24.5071 18.8074 24.394 18.8439C19.874 20.2281 17.4849 22.0847 17.4849 24.212C17.4849 29.1614 30.4183 31.832 42.5861 31.832C54.754 31.832 67.6874 29.1614 67.6874 24.212C67.6874 22.3913 65.9321 20.7705 62.5936 19.4724Z" fill="url(#paint12_radial_28_117)"/>
</g>
<defs>
<linearGradient id="paint0_linear_28_117" x1="28.2427" y1="31.8324" x2="42.5862" y2="31.8324" gradientUnits="userSpaceOnUse">
<stop stop-color="#9AF095"/>
<stop offset="1" stop-color="#6ADB64"/>
</linearGradient>
<linearGradient id="paint1_linear_28_117" x1="42.5859" y1="31.8324" x2="56.9295" y2="31.8324" gradientUnits="userSpaceOnUse">
<stop stop-color="#9AF095"/>
<stop offset="1" stop-color="#6ADB64"/>
</linearGradient>
<linearGradient id="paint2_linear_28_117" x1="42.5862" y1="26.4534" x2="42.5862" y2="12.1099" gradientUnits="userSpaceOnUse">
<stop stop-color="#6ADB64"/>
<stop offset="1" stop-color="#9AF095"/>
</linearGradient>
<linearGradient id="paint3_linear_28_117" x1="25.553" y1="65.8984" x2="25.553" y2="33.6254" gradientUnits="userSpaceOnUse">
<stop stop-color="#FFEA34"/>
<stop offset="1" stop-color="#F3BE36"/>
</linearGradient>
<linearGradient id="paint4_linear_28_117" x1="25.5531" y1="64.1051" x2="25.5531" y2="35.418" gradientUnits="userSpaceOnUse">
<stop stop-color="#F3B436"/>
<stop offset="1" stop-color="#FFEA3C"/>
</linearGradient>
<linearGradient id="paint5_linear_28_117" x1="20.0659" y1="43.4713" x2="32.0571" y2="55.4625" gradientUnits="userSpaceOnUse">
<stop stop-color="#C17636"/>
<stop offset="1" stop-color="#F3B436" stop-opacity="0"/>
</linearGradient>
<linearGradient id="paint6_linear_28_117" x1="29.0995" y1="44.7147" x2="38.6415" y2="54.2567" gradientUnits="userSpaceOnUse">
<stop stop-color="#C17636"/>
<stop offset="1" stop-color="#F3B436" stop-opacity="0"/>
</linearGradient>
<linearGradient id="paint7_linear_28_117" x1="14.3857" y1="45.497" x2="25.0663" y2="56.1776" gradientUnits="userSpaceOnUse">
<stop stop-color="#C17636"/>
<stop offset="1" stop-color="#F3B436" stop-opacity="0"/>
</linearGradient>
<linearGradient id="paint8_linear_28_117" x1="10.313" y1="66.7939" x2="25.553" y2="32.7297" gradientUnits="userSpaceOnUse">
<stop stop-color="#F3B436"/>
<stop offset="1" stop-color="#FFEA3C"/>
</linearGradient>
<linearGradient id="paint9_linear_28_117" x1="26.8979" y1="61.4161" x2="26.8979" y2="37.6587" gradientUnits="userSpaceOnUse">
<stop stop-color="#FFDC46"/>
<stop offset="1" stop-color="#FFF578"/>
</linearGradient>
<linearGradient id="paint10_linear_28_117" x1="34.0695" y1="57.8302" x2="34.0695" y2="41.2813" gradientUnits="userSpaceOnUse">
<stop stop-color="#FFDC46"/>
<stop offset="1" stop-color="#FFF578"/>
</linearGradient>
<linearGradient id="paint11_linear_28_117" x1="17.9331" y1="59.1746" x2="17.9331" y2="41.2451" gradientUnits="userSpaceOnUse">
<stop stop-color="#FFDC46"/>
<stop offset="1" stop-color="#FFF578"/>
</linearGradient>
<radialGradient id="paint12_radial_28_117" cx="0" cy="0" r="1" gradientUnits="userSpaceOnUse" gradientTransform="translate(36.5918 19.0812) rotate(32.7069) scale(23.5977 89.1604)">
<stop stop-color="#FF4F0D"/>
<stop offset="1" stop-color="#7AB694"/>
</radialGradient>
<clipPath id="clip0_28_117">
<rect width="57.3743" height="57.3743" fill="white" transform="translate(10.313 10.3169)"/>
</clipPath>
</defs>
</svg>
