<svg width="31" height="31" viewBox="0 0 31 31" fill="none" xmlns="http://www.w3.org/2000/svg">
<path d="M15.4993 27.1666C18.5935 27.1666 21.561 25.9375 23.7489 23.7495C25.9369 21.5616 27.166 18.5942 27.166 15.5C27.166 12.4058 25.9369 9.4383 23.7489 7.25038C21.561 5.06246 18.5935 3.83329 15.4993 3.83329C12.4052 3.83329 9.43769 5.06246 7.24977 7.25038C5.06185 9.4383 3.83268 12.4058 3.83268 15.5C3.83268 18.5942 5.06185 21.5616 7.24977 23.7495C9.43769 25.9375 12.4052 27.1666 15.4993 27.1666V27.1666ZM15.4993 30.0833C7.44497 30.0833 0.916016 23.5543 0.916016 15.5C0.916016 7.44558 7.44497 0.916626 15.4993 0.916626C23.5537 0.916626 30.0827 7.44558 30.0827 15.5C30.0827 23.5543 23.5537 30.0833 15.4993 30.0833ZM9.66602 12.5833L6.74935 15.5L14.041 22.7916L24.2493 12.5833L21.3327 9.66663L14.041 16.9583L9.66602 12.5833Z" fill="#00A448"/>
</svg>
