<svg width="128" height="132" viewBox="0 0 128 132" fill="none" xmlns="http://www.w3.org/2000/svg">
<path d="M14.2719 101.234C13.5819 101.234 12.9189 101.126 12.2829 100.91C11.6469 100.694 11.0919 100.385 10.6179 99.983C10.1439 99.575 9.80493 99.092 9.60093 98.534L11.3559 97.877C11.4579 98.165 11.6529 98.423 11.9409 98.651C12.2349 98.873 12.5829 99.047 12.9849 99.173C13.3929 99.299 13.8219 99.362 14.2719 99.362C14.7519 99.362 15.2019 99.284 15.6219 99.128C16.0479 98.972 16.3899 98.756 16.6479 98.48C16.9119 98.204 17.0439 97.88 17.0439 97.508C17.0439 97.124 16.9059 96.809 16.6299 96.563C16.3599 96.317 16.0119 96.122 15.5859 95.978C15.1659 95.834 14.7279 95.726 14.2719 95.654C13.3899 95.51 12.5979 95.3 11.8959 95.024C11.1999 94.748 10.6479 94.361 10.2399 93.863C9.83793 93.365 9.63693 92.717 9.63693 91.919C9.63693 91.169 9.84993 90.515 10.2759 89.957C10.7079 89.399 11.2749 88.967 11.9769 88.661C12.6849 88.349 13.4499 88.193 14.2719 88.193C14.9499 88.193 15.6039 88.301 16.2339 88.517C16.8699 88.727 17.4279 89.036 17.9079 89.444C18.3939 89.846 18.7419 90.335 18.9519 90.911L17.1789 91.55C17.0769 91.256 16.8819 91.001 16.5939 90.785C16.3059 90.563 15.9579 90.389 15.5499 90.263C15.1479 90.137 14.7219 90.074 14.2719 90.074C13.7919 90.068 13.3419 90.146 12.9219 90.308C12.5079 90.464 12.1689 90.68 11.9049 90.956C11.6409 91.232 11.5089 91.553 11.5089 91.919C11.5089 92.369 11.6319 92.711 11.8779 92.945C12.1239 93.179 12.4539 93.353 12.8679 93.467C13.2879 93.575 13.7559 93.674 14.2719 93.764C15.0999 93.896 15.8649 94.115 16.5669 94.421C17.2749 94.727 17.8419 95.135 18.2679 95.645C18.6999 96.149 18.9159 96.77 18.9159 97.508C18.9159 98.252 18.6999 98.906 18.2679 99.47C17.8419 100.028 17.2749 100.463 16.5669 100.775C15.8649 101.081 15.0999 101.234 14.2719 101.234ZM24.6569 101.234C23.8289 101.234 23.0729 101.021 22.3889 100.595C21.7109 100.169 21.1679 99.599 20.7599 98.885C20.3579 98.165 20.1569 97.37 20.1569 96.5C20.1569 95.84 20.2739 95.225 20.5079 94.655C20.7419 94.079 21.0629 93.575 21.4709 93.143C21.8849 92.705 22.3649 92.363 22.9109 92.117C23.4569 91.871 24.0389 91.748 24.6569 91.748C25.3469 91.748 25.9799 91.892 26.5559 92.18C27.1319 92.462 27.6239 92.855 28.0319 93.359C28.4399 93.857 28.7399 94.433 28.9319 95.087C29.1239 95.735 29.1809 96.425 29.1029 97.157H22.1639C22.2419 97.571 22.3919 97.946 22.6139 98.282C22.8419 98.612 23.1299 98.873 23.4779 99.065C23.8319 99.257 24.2249 99.356 24.6569 99.362C25.1129 99.362 25.5269 99.248 25.8989 99.02C26.2769 98.792 26.5859 98.477 26.8259 98.075L28.7249 98.516C28.3649 99.314 27.8219 99.968 27.0959 100.478C26.3699 100.982 25.5569 101.234 24.6569 101.234ZM22.1009 95.726H27.2129C27.1529 95.294 26.9999 94.904 26.7539 94.556C26.5139 94.202 26.2109 93.923 25.8449 93.719C25.4849 93.509 25.0889 93.404 24.6569 93.404C24.2309 93.404 23.8349 93.506 23.4689 93.71C23.1089 93.914 22.8089 94.193 22.5689 94.547C22.3349 94.895 22.1789 95.288 22.1009 95.726ZM30.6487 101V87.5H32.5117V101H30.6487ZM38.737 101.234C37.909 101.234 37.153 101.021 36.469 100.595C35.791 100.169 35.248 99.599 34.84 98.885C34.438 98.165 34.237 97.37 34.237 96.5C34.237 95.84 34.354 95.225 34.588 94.655C34.822 94.079 35.143 93.575 35.551 93.143C35.965 92.705 36.445 92.363 36.991 92.117C37.537 91.871 38.119 91.748 38.737 91.748C39.427 91.748 40.06 91.892 40.636 92.18C41.212 92.462 41.704 92.855 42.112 93.359C42.52 93.857 42.82 94.433 43.012 95.087C43.204 95.735 43.261 96.425 43.183 97.157H36.244C36.322 97.571 36.472 97.946 36.694 98.282C36.922 98.612 37.21 98.873 37.558 99.065C37.912 99.257 38.305 99.356 38.737 99.362C39.193 99.362 39.607 99.248 39.979 99.02C40.357 98.792 40.666 98.477 40.906 98.075L42.805 98.516C42.445 99.314 41.902 99.968 41.176 100.478C40.45 100.982 39.637 101.234 38.737 101.234ZM36.181 95.726H41.293C41.233 95.294 41.08 94.904 40.834 94.556C40.594 94.202 40.291 93.923 39.925 93.719C39.565 93.509 39.169 93.404 38.737 93.404C38.311 93.404 37.915 93.506 37.549 93.71C37.189 93.914 36.889 94.193 36.649 94.547C36.415 94.895 36.259 95.288 36.181 95.726ZM50.5505 98.444L52.2245 99.353C51.8165 99.923 51.2975 100.379 50.6675 100.721C50.0435 101.063 49.3655 101.234 48.6335 101.234C47.8055 101.234 47.0495 101.021 46.3655 100.595C45.6875 100.169 45.1445 99.599 44.7365 98.885C44.3345 98.165 44.1335 97.37 44.1335 96.5C44.1335 95.84 44.2505 95.225 44.4845 94.655C44.7185 94.079 45.0395 93.575 45.4475 93.143C45.8615 92.705 46.3415 92.363 46.8875 92.117C47.4335 91.871 48.0155 91.748 48.6335 91.748C49.3655 91.748 50.0435 91.919 50.6675 92.261C51.2975 92.603 51.8165 93.062 52.2245 93.638L50.5505 94.547C50.2985 94.247 50.0045 94.019 49.6685 93.863C49.3325 93.701 48.9875 93.62 48.6335 93.62C48.1415 93.62 47.6945 93.755 47.2925 94.025C46.8965 94.289 46.5815 94.64 46.3475 95.078C46.1195 95.51 46.0055 95.984 46.0055 96.5C46.0055 97.01 46.1225 97.484 46.3565 97.922C46.5905 98.354 46.9055 98.702 47.3015 98.966C47.7035 99.23 48.1475 99.362 48.6335 99.362C49.0055 99.362 49.3595 99.278 49.6955 99.11C50.0315 98.942 50.3165 98.72 50.5505 98.444ZM58.6013 93.872H56.7113L56.7023 101H54.8303L54.8393 93.872H53.4083V92H54.8393L54.8303 89.174H56.7023L56.7113 92H58.6013V93.872ZM68.969 101V88.4H70.994L76.772 97.616V88.4H78.644V101H76.628L70.832 91.784V101H68.969ZM81.0954 101V88.4H88.5204V90.272H82.9674V93.314H87.6564V95.186H82.9674V101H81.0954ZM99.31 88.4V90.272H95.296V101H93.424V90.272H89.419V88.4H99.31ZM105.711 101V88.4H107.583V101H105.711ZM118.363 96.284V101H116.491V96.32C116.491 95.81 116.383 95.348 116.167 94.934C115.957 94.514 115.666 94.181 115.294 93.935C114.928 93.683 114.511 93.557 114.043 93.557C113.575 93.557 113.164 93.683 112.81 93.935C112.462 94.181 112.189 94.514 111.991 94.934C111.799 95.348 111.703 95.81 111.703 96.32V101H109.831V92H111.703V93.215C112.015 92.759 112.393 92.402 112.837 92.144C113.281 91.88 113.782 91.748 114.34 91.748C115.15 91.748 115.852 91.955 116.446 92.369C117.046 92.783 117.514 93.332 117.85 94.016C118.186 94.7 118.357 95.456 118.363 96.284ZM26.3271 110.4H28.5321L24.2301 117.312V123H22.3581V117.312L18.0651 110.4H20.2701L23.2941 115.269L26.3271 110.4ZM32.3737 123.234C31.5457 123.234 30.7897 123.021 30.1057 122.595C29.4277 122.169 28.8847 121.599 28.4767 120.885C28.0747 120.165 27.8737 119.37 27.8737 118.5C27.8737 117.84 27.9907 117.225 28.2247 116.655C28.4587 116.079 28.7797 115.575 29.1877 115.143C29.6017 114.705 30.0817 114.363 30.6277 114.117C31.1737 113.871 31.7557 113.748 32.3737 113.748C33.2017 113.748 33.9547 113.961 34.6327 114.387C35.3167 114.813 35.8597 115.386 36.2617 116.106C36.6697 116.826 36.8737 117.624 36.8737 118.5C36.8737 119.154 36.7567 119.766 36.5227 120.336C36.2887 120.906 35.9647 121.41 35.5507 121.848C35.1427 122.28 34.6657 122.619 34.1197 122.865C33.5797 123.111 32.9977 123.234 32.3737 123.234ZM32.3737 121.362C32.8717 121.362 33.3187 121.23 33.7147 120.966C34.1107 120.702 34.4227 120.354 34.6507 119.922C34.8847 119.484 35.0017 119.01 35.0017 118.5C35.0017 117.978 34.8817 117.498 34.6417 117.06C34.4077 116.622 34.0927 116.274 33.6967 116.016C33.3007 115.752 32.8597 115.62 32.3737 115.62C31.8817 115.62 31.4347 115.752 31.0327 116.016C30.6367 116.28 30.3217 116.631 30.0877 117.069C29.8597 117.507 29.7457 117.984 29.7457 118.5C29.7457 119.034 29.8657 119.517 30.1057 119.949C30.3457 120.381 30.6637 120.726 31.0597 120.984C31.4617 121.236 31.8997 121.362 32.3737 121.362ZM38.152 118.698V114H40.024V118.662C40.024 119.172 40.129 119.637 40.339 120.057C40.555 120.471 40.846 120.804 41.212 121.056C41.584 121.302 42.007 121.425 42.481 121.425C42.943 121.425 43.348 121.302 43.696 121.056C44.05 120.804 44.323 120.471 44.515 120.057C44.713 119.637 44.812 119.172 44.812 118.662V114H46.684V123H44.812V121.776C44.5 122.226 44.122 122.583 43.678 122.847C43.234 123.111 42.733 123.243 42.175 123.243C41.371 123.243 40.666 123.039 40.06 122.631C39.46 122.217 38.995 121.665 38.665 120.975C38.335 120.285 38.164 119.526 38.152 118.698ZM54.1585 115.881C54.0025 115.785 53.8315 115.71 53.6455 115.656C53.4655 115.596 53.2675 115.566 53.0515 115.566C52.5835 115.566 52.1755 115.689 51.8275 115.935C51.4795 116.181 51.2065 116.514 51.0085 116.934C50.8165 117.354 50.7205 117.819 50.7205 118.329V123H48.8395V114H50.7115V115.215C51.0235 114.765 51.4015 114.411 51.8455 114.153C52.2955 113.889 52.7965 113.757 53.3485 113.757C53.5525 113.757 53.7445 113.766 53.9245 113.784C54.1105 113.802 54.2875 113.838 54.4555 113.892L54.1585 115.881ZM63.1667 123L59.9447 110.4H61.8797L64.2377 119.643L66.5867 110.4H68.2877L70.6457 119.643L72.9947 110.4H74.9297L71.7257 123H69.5747L67.4327 114.657L65.3177 123H63.1667ZM82.7647 114H84.6367V123H82.7557L82.6837 121.695C82.4197 122.157 82.0627 122.529 81.6127 122.811C81.1687 123.093 80.6407 123.234 80.0287 123.234C79.3627 123.234 78.7387 123.111 78.1567 122.865C77.5807 122.613 77.0707 122.265 76.6267 121.821C76.1887 121.377 75.8437 120.867 75.5917 120.291C75.3457 119.709 75.2227 119.085 75.2227 118.419C75.2227 117.777 75.3427 117.174 75.5827 116.61C75.8227 116.04 76.1557 115.542 76.5817 115.116C77.0077 114.69 77.4997 114.357 78.0577 114.117C78.6217 113.871 79.2247 113.748 79.8667 113.748C80.5207 113.748 81.0967 113.898 81.5947 114.198C82.0987 114.492 82.5127 114.87 82.8367 115.332L82.7647 114ZM80.0737 121.425C80.6137 121.425 81.0787 121.29 81.4687 121.02C81.8647 120.75 82.1617 120.387 82.3597 119.931C82.5637 119.475 82.6507 118.971 82.6207 118.419C82.5847 117.891 82.4437 117.411 82.1977 116.979C81.9577 116.547 81.6367 116.205 81.2347 115.953C80.8327 115.695 80.3767 115.566 79.8667 115.566C79.3327 115.566 78.8497 115.701 78.4177 115.971C77.9917 116.241 77.6617 116.604 77.4277 117.06C77.1937 117.516 77.0917 118.023 77.1217 118.581C77.1577 119.103 77.3137 119.58 77.5897 120.012C77.8717 120.444 78.2287 120.789 78.6607 121.047C79.0987 121.299 79.5697 121.425 80.0737 121.425ZM86.8987 123V109.5H88.7617V123H86.8987ZM91.135 123V109.5H92.998V123H91.135ZM99.2233 123.234C98.3953 123.234 97.6393 123.021 96.9553 122.595C96.2773 122.169 95.7343 121.599 95.3263 120.885C94.9243 120.165 94.7233 119.37 94.7233 118.5C94.7233 117.84 94.8403 117.225 95.0743 116.655C95.3083 116.079 95.6293 115.575 96.0373 115.143C96.4513 114.705 96.9313 114.363 97.4773 114.117C98.0233 113.871 98.6053 113.748 99.2233 113.748C99.9133 113.748 100.546 113.892 101.122 114.18C101.698 114.462 102.19 114.855 102.598 115.359C103.006 115.857 103.306 116.433 103.498 117.087C103.69 117.735 103.747 118.425 103.669 119.157H96.7303C96.8083 119.571 96.9583 119.946 97.1803 120.282C97.4083 120.612 97.6963 120.873 98.0443 121.065C98.3983 121.257 98.7913 121.356 99.2233 121.362C99.6793 121.362 100.093 121.248 100.465 121.02C100.843 120.792 101.152 120.477 101.392 120.075L103.291 120.516C102.931 121.314 102.388 121.968 101.662 122.478C100.936 122.982 100.123 123.234 99.2233 123.234ZM96.6673 117.726H101.779C101.719 117.294 101.566 116.904 101.32 116.556C101.08 116.202 100.777 115.923 100.411 115.719C100.051 115.509 99.6553 115.404 99.2233 115.404C98.7973 115.404 98.4013 115.506 98.0353 115.71C97.6753 115.914 97.3753 116.193 97.1353 116.547C96.9013 116.895 96.7453 117.288 96.6673 117.726ZM109.912 115.872H108.022L108.013 123H106.141L106.15 115.872H104.719V114H106.15L106.141 111.174H108.013L108.022 114H109.912V115.872Z" fill="url(#paint0_radial_27_926)"/>
<g clip-path="url(#clip0_27_926)">
<path d="M55.6603 37.1875H35.1525C31.7601 37.1875 29.0001 39.9474 29.0001 43.3398V63.8477C29.0001 67.2401 31.7601 70 35.1525 70H55.6603C59.0527 70 61.8126 67.2401 61.8126 63.8477V43.3398C61.8126 39.9474 59.0527 37.1875 55.6603 37.1875ZM57.7111 63.8477C57.7111 64.9785 56.7911 65.8984 55.6603 65.8984H35.1525C34.0217 65.8984 33.1017 64.9785 33.1017 63.8477V43.3398C33.1017 42.209 34.0217 41.2891 35.1525 41.2891H55.6603C56.7911 41.2891 57.7111 42.209 57.7111 43.3398V63.8477ZM50.1085 12.9054L43.3556 19.6584L40.7041 17.007C39.9033 16.2061 38.6048 16.2061 37.8039 17.007C37.003 17.8079 37.003 19.1063 37.8039 19.9072L41.9054 24.0088C42.29 24.3934 42.8116 24.6094 43.3556 24.6094C43.8996 24.6094 44.4212 24.3934 44.8056 24.0086L53.0086 15.8055C53.8095 15.0046 53.8095 13.7062 53.0086 12.9053C52.2079 12.1044 50.9093 12.1044 50.1085 12.9054ZM92.8478 37.1875H72.34C68.9476 37.1875 66.1876 39.9474 66.1876 43.3398V63.8477C66.1876 67.2401 68.9476 70 72.34 70H92.8478C96.2402 70 99.0001 67.2401 99.0001 63.8477V43.3398C99.0001 39.9474 96.2402 37.1875 92.8478 37.1875ZM94.8986 63.8477C94.8986 64.9785 93.9786 65.8984 92.8478 65.8984H72.34C71.2092 65.8984 70.2892 64.9785 70.2892 63.8477V43.3398C70.2892 42.209 71.2092 41.2891 72.34 41.2891H92.8478C93.9786 41.2891 94.8986 42.209 94.8986 43.3398V63.8477ZM87.296 50.0929L80.5431 56.8459L77.8916 54.1945C77.0908 53.3936 75.7923 53.3936 74.9914 54.1945C74.1905 54.9954 74.1905 56.2938 74.9914 57.0947L79.0929 61.1963C79.4775 61.5809 79.9991 61.7969 80.5431 61.7969C81.0871 61.7969 81.6087 61.5809 81.9931 61.1961L90.1961 52.993C90.997 52.1921 90.997 50.8937 90.1961 50.0928C89.3954 49.2919 88.0968 49.292 87.296 50.0929V50.0929ZM92.8478 0H72.34C68.9476 0 66.1876 2.75994 66.1876 6.15234V26.6602C66.1876 30.0526 68.9476 32.8125 72.34 32.8125H92.8478C96.2402 32.8125 99.0001 30.0526 99.0001 26.6602V6.15234C99.0001 2.75994 96.2402 0 92.8478 0ZM94.8986 26.6602C94.8986 27.791 93.9786 28.7109 92.8478 28.7109H72.34C71.2092 28.7109 70.2892 27.791 70.2892 26.6602V6.15234C70.2892 5.02154 71.2092 4.10156 72.34 4.10156H92.8478C93.9786 4.10156 94.8986 5.02154 94.8986 6.15234V26.6602ZM55.6603 0H35.1525C31.7601 0 29.0001 2.75994 29.0001 6.15234V26.6602C29.0001 30.0526 31.7601 32.8125 35.1525 32.8125H55.6603C59.0527 32.8125 61.8126 30.0526 61.8126 26.6602V6.15234C61.8126 2.75994 59.0527 0 55.6603 0ZM57.7111 26.6602C57.7111 27.791 56.7911 28.7109 55.6603 28.7109H35.1525C34.0217 28.7109 33.1017 27.791 33.1017 26.6602V6.15234C33.1017 5.02154 34.0217 4.10156 35.1525 4.10156H55.6603C56.7911 4.10156 57.7111 5.02154 57.7111 6.15234V26.6602Z" fill="url(#paint1_radial_27_926)"/>
</g>
<defs>
<radialGradient id="paint0_radial_27_926" cx="0" cy="0" r="1" gradientUnits="userSpaceOnUse" gradientTransform="translate(48.7043 88.4324) rotate(40.7211) scale(66.7828 274.397)">
<stop stop-color="#FF4F0D"/>
<stop offset="1" stop-color="#7AB694"/>
</radialGradient>
<radialGradient id="paint1_radial_27_926" cx="0" cy="0" r="1" gradientUnits="userSpaceOnUse" gradientTransform="translate(55.6419 11.3514) rotate(64.7292) scale(64.8553 208.06)">
<stop stop-color="#FF4F0D"/>
<stop offset="1" stop-color="#7AB694"/>
</radialGradient>
<clipPath id="clip0_27_926">
<rect width="70" height="70" fill="white" transform="translate(29.0001)"/>
</clipPath>
</defs>
</svg>
