<svg width="70" height="70" viewBox="0 0 70 70" fill="none" xmlns="http://www.w3.org/2000/svg">
<path d="M26.6602 37.1875H6.15234C2.75994 37.1875 0 39.9474 0 43.3398V63.8477C0 67.2401 2.75994 70 6.15234 70H26.6602C30.0526 70 32.8125 67.2401 32.8125 63.8477V43.3398C32.8125 39.9474 30.0526 37.1875 26.6602 37.1875ZM28.7109 63.8477C28.7109 64.9785 27.791 65.8984 26.6602 65.8984H6.15234C5.02154 65.8984 4.10156 64.9785 4.10156 63.8477V43.3398C4.10156 42.209 5.02154 41.2891 6.15234 41.2891H26.6602C27.791 41.2891 28.7109 42.209 28.7109 43.3398V63.8477ZM21.1084 12.9054L14.3555 19.6584L11.7039 17.007C10.9032 16.2061 9.60463 16.2061 8.80373 17.007C8.00283 17.8079 8.00283 19.1063 8.80373 19.9072L12.9053 24.0088C13.2899 24.3934 13.8115 24.6094 14.3555 24.6094C14.8995 24.6094 15.4211 24.3934 15.8055 24.0086L24.0085 15.8055C24.8094 15.0046 24.8094 13.7062 24.0085 12.9053C23.2077 12.1044 21.9092 12.1044 21.1084 12.9054ZM63.8477 37.1875H43.3398C39.9474 37.1875 37.1875 39.9474 37.1875 43.3398V63.8477C37.1875 67.2401 39.9474 70 43.3398 70H63.8477C67.2401 70 70 67.2401 70 63.8477V43.3398C70 39.9474 67.2401 37.1875 63.8477 37.1875ZM65.8984 63.8477C65.8984 64.9785 64.9785 65.8984 63.8477 65.8984H43.3398C42.209 65.8984 41.2891 64.9785 41.2891 63.8477V43.3398C41.2891 42.209 42.209 41.2891 43.3398 41.2891H63.8477C64.9785 41.2891 65.8984 42.209 65.8984 43.3398V63.8477ZM58.2959 50.0929L51.543 56.8459L48.8914 54.1945C48.0907 53.3936 46.7921 53.3936 45.9912 54.1945C45.1903 54.9954 45.1903 56.2938 45.9912 57.0947L50.0928 61.1963C50.4774 61.5809 50.999 61.7969 51.543 61.7969C52.087 61.7969 52.6086 61.5809 52.993 61.1961L61.196 52.993C61.9969 52.1921 61.9969 50.8937 61.196 50.0928C60.3952 49.2919 59.0967 49.292 58.2959 50.0929V50.0929ZM63.8477 0H43.3398C39.9474 0 37.1875 2.75994 37.1875 6.15234V26.6602C37.1875 30.0526 39.9474 32.8125 43.3398 32.8125H63.8477C67.2401 32.8125 70 30.0526 70 26.6602V6.15234C70 2.75994 67.2401 0 63.8477 0ZM65.8984 26.6602C65.8984 27.791 64.9785 28.7109 63.8477 28.7109H43.3398C42.209 28.7109 41.2891 27.791 41.2891 26.6602V6.15234C41.2891 5.02154 42.209 4.10156 43.3398 4.10156H63.8477C64.9785 4.10156 65.8984 5.02154 65.8984 6.15234V26.6602ZM26.6602 0H6.15234C2.75994 0 0 2.75994 0 6.15234V26.6602C0 30.0526 2.75994 32.8125 6.15234 32.8125H26.6602C30.0526 32.8125 32.8125 30.0526 32.8125 26.6602V6.15234C32.8125 2.75994 30.0526 0 26.6602 0ZM28.7109 26.6602C28.7109 27.791 27.791 28.7109 26.6602 28.7109H6.15234C5.02154 28.7109 4.10156 27.791 4.10156 26.6602V6.15234C4.10156 5.02154 5.02154 4.10156 6.15234 4.10156H26.6602C27.791 4.10156 28.7109 5.02154 28.7109 6.15234V26.6602Z" fill="#DCDCE2"/>
</svg>
