<svg width="127" height="67" viewBox="0 0 127 67" fill="none" xmlns="http://www.w3.org/2000/svg">
<path d="M126.532 16.2746C126.246 15.9265 125.836 15.7275 125.425 15.7275H64.8158C64.4056 15.7275 63.9953 15.9265 63.7218 16.2746C63.4482 16.6103 63.3736 17.0205 63.4482 17.4308L71.6414 50.2532C71.7782 50.8624 72.3252 51.2727 72.9468 51.2727H117.158C117.779 51.2727 118.326 50.8624 118.463 50.2532L126.669 17.4308C126.868 17.0205 126.805 16.6103 126.532 16.2746ZM80.6551 28.0235H109.586C110.344 28.0235 110.966 28.6451 110.966 29.3911C110.966 30.1495 110.344 30.7587 109.586 30.7587H80.6551C79.8967 30.7587 79.2875 30.1495 79.2875 29.3911C79.2875 28.6451 79.8967 28.0235 80.6551 28.0235ZM113.378 37.5967H76.8756C76.1172 37.5967 75.4955 36.9875 75.4955 36.2291C75.4955 35.4831 76.1172 34.8615 76.8756 34.8615H113.378C114.124 34.8615 114.746 35.4831 114.746 36.2291C114.746 36.9875 114.124 37.5967 113.378 37.5967Z" fill="#C4C4C4"/>
<path d="M114.472 55.3753C114.472 54.6294 113.85 54.0077 113.092 54.0077H69.2294L57.1697 6.29095C56.2124 2.59844 52.9053 0 49.1133 0C44.4386 0 40.7212 3.69252 40.7212 8.26776V9.70995C40.7212 10.4559 41.3304 11.0775 42.0888 11.0775C42.8472 11.0775 43.4688 10.4559 43.4688 9.70995V8.26776C43.4688 5.19687 45.9554 2.7352 49.0511 2.7352C51.5998 2.7352 53.875 4.43848 54.4842 6.90015L66.8796 55.7234C67.0288 56.3326 67.5759 56.7429 68.1975 56.7429H113.092C113.85 56.7429 114.472 56.1337 114.472 55.3753Z" fill="#C4C4C4"/>
<path d="M76.5275 67C78.8027 67 80.6551 65.16 80.6551 62.8972C80.6551 60.6469 78.8027 58.7944 76.5275 58.7944C74.2523 58.7944 72.3998 60.6469 72.3998 62.8972C72.3998 65.16 74.2523 67 76.5275 67ZM76.5275 61.5296C77.2859 61.5296 77.9075 62.1513 77.9075 62.8972C77.9075 63.6556 77.2859 64.2648 76.5275 64.2648C75.7691 64.2648 75.1474 63.6556 75.1474 62.8972C75.1474 62.1513 75.7691 61.5296 76.5275 61.5296Z" fill="#C4C4C4"/>
<path d="M104.078 58.7944C101.803 58.7944 99.9383 60.6469 99.9383 62.8972C99.9383 65.16 101.803 67 104.078 67C106.354 67 108.206 65.16 108.206 62.8972C108.206 60.6469 106.354 58.7944 104.078 58.7944ZM104.078 64.2648C103.32 64.2648 102.698 63.6556 102.698 62.8972C102.698 62.1513 103.32 61.5296 104.078 61.5296C104.837 61.5296 105.458 62.1513 105.458 62.8972C105.458 63.6556 104.837 64.2648 104.078 64.2648Z" fill="#C4C4C4"/>
<path fill-rule="evenodd" clip-rule="evenodd" d="M35.82 8.07397H0V5.57397H35.82V8.07397Z" fill="#C4C4C4"/>
<path fill-rule="evenodd" clip-rule="evenodd" d="M50.7793 26.2964H14.9607V23.7964H50.7793V26.2964Z" fill="#C4C4C4"/>
<path fill-rule="evenodd" clip-rule="evenodd" d="M62.0736 50.4607H26.2425V47.9607H62.0736V50.4607Z" fill="#C4C4C4"/>
<path d="M73.6928 19.395H116.66V50.4146H73.6928V19.395Z" fill="#C4C4C4"/>
</svg>
