<svg width="128" height="132" viewBox="0 0 128 132" fill="none" xmlns="http://www.w3.org/2000/svg">
<path d="M18.8033 102.208C18.19 102.208 17.6007 102.112 17.0353 101.92C16.47 101.728 15.9767 101.453 15.5553 101.096C15.134 100.733 14.8327 100.304 14.6513 99.808L16.2113 99.224C16.302 99.48 16.4753 99.7093 16.7313 99.912C16.9927 100.109 17.302 100.264 17.6593 100.376C18.022 100.488 18.4033 100.544 18.8033 100.544C19.23 100.544 19.63 100.475 20.0033 100.336C20.382 100.197 20.686 100.005 20.9153 99.76C21.15 99.5147 21.2673 99.2267 21.2673 98.896C21.2673 98.5547 21.1447 98.2747 20.8993 98.056C20.6593 97.8373 20.35 97.664 19.9713 97.536C19.598 97.408 19.2087 97.312 18.8033 97.248C18.0193 97.12 17.3153 96.9333 16.6913 96.688C16.0727 96.4427 15.582 96.0987 15.2193 95.656C14.862 95.2133 14.6833 94.6373 14.6833 93.928C14.6833 93.2613 14.8727 92.68 15.2513 92.184C15.6353 91.688 16.1393 91.304 16.7633 91.032C17.3927 90.7547 18.0727 90.616 18.8033 90.616C19.406 90.616 19.9873 90.712 20.5473 90.904C21.1127 91.0907 21.6087 91.3653 22.0353 91.728C22.4673 92.0853 22.7767 92.52 22.9633 93.032L21.3873 93.6C21.2967 93.3387 21.1233 93.112 20.8673 92.92C20.6113 92.7227 20.302 92.568 19.9393 92.456C19.582 92.344 19.2033 92.288 18.8033 92.288C18.3767 92.2827 17.9767 92.352 17.6033 92.496C17.2353 92.6347 16.934 92.8267 16.6993 93.072C16.4647 93.3173 16.3473 93.6027 16.3473 93.928C16.3473 94.328 16.4567 94.632 16.6753 94.84C16.894 95.048 17.1873 95.2027 17.5553 95.304C17.9287 95.4 18.3447 95.488 18.8033 95.568C19.5393 95.6853 20.2193 95.88 20.8433 96.152C21.4727 96.424 21.9767 96.7867 22.3553 97.24C22.7393 97.688 22.9313 98.24 22.9313 98.896C22.9313 99.5573 22.7393 100.139 22.3553 100.64C21.9767 101.136 21.4727 101.523 20.8433 101.8C20.2193 102.072 19.5393 102.208 18.8033 102.208ZM28.0344 102.208C27.2984 102.208 26.6264 102.019 26.0184 101.64C25.4158 101.261 24.9331 100.755 24.5704 100.12C24.2131 99.48 24.0344 98.7733 24.0344 98C24.0344 97.4133 24.1384 96.8667 24.3464 96.36C24.5544 95.848 24.8398 95.4 25.2024 95.016C25.5704 94.6267 25.9971 94.3227 26.4824 94.104C26.9678 93.8853 27.4851 93.776 28.0344 93.776C28.6478 93.776 29.2104 93.904 29.7224 94.16C30.2344 94.4107 30.6718 94.76 31.0344 95.208C31.3971 95.6507 31.6638 96.1627 31.8344 96.744C32.0051 97.32 32.0558 97.9333 31.9864 98.584H25.8184C25.8878 98.952 26.0211 99.2853 26.2184 99.584C26.4211 99.8773 26.6771 100.109 26.9864 100.28C27.3011 100.451 27.6504 100.539 28.0344 100.544C28.4398 100.544 28.8078 100.443 29.1384 100.24C29.4744 100.037 29.7491 99.7573 29.9624 99.4L31.6504 99.792C31.3304 100.501 30.8478 101.083 30.2024 101.536C29.5571 101.984 28.8344 102.208 28.0344 102.208ZM25.7624 97.312H30.3064C30.2531 96.928 30.1171 96.5813 29.8984 96.272C29.6851 95.9573 29.4158 95.7093 29.0904 95.528C28.7704 95.3413 28.4184 95.248 28.0344 95.248C27.6558 95.248 27.3038 95.3387 26.9784 95.52C26.6584 95.7013 26.3918 95.9493 26.1784 96.264C25.9704 96.5733 25.8318 96.9227 25.7624 97.312ZM33.3604 102V90H35.0164V102H33.3604ZM40.5501 102.208C39.8141 102.208 39.1421 102.019 38.5341 101.64C37.9314 101.261 37.4487 100.755 37.0861 100.12C36.7287 99.48 36.5501 98.7733 36.5501 98C36.5501 97.4133 36.6541 96.8667 36.8621 96.36C37.0701 95.848 37.3554 95.4 37.7181 95.016C38.0861 94.6267 38.5127 94.3227 38.9981 94.104C39.4834 93.8853 40.0007 93.776 40.5501 93.776C41.1634 93.776 41.7261 93.904 42.2381 94.16C42.7501 94.4107 43.1874 94.76 43.5501 95.208C43.9127 95.6507 44.1794 96.1627 44.3501 96.744C44.5207 97.32 44.5714 97.9333 44.5021 98.584H38.3341C38.4034 98.952 38.5367 99.2853 38.7341 99.584C38.9367 99.8773 39.1927 100.109 39.5021 100.28C39.8167 100.451 40.1661 100.539 40.5501 100.544C40.9554 100.544 41.3234 100.443 41.6541 100.24C41.9901 100.037 42.2647 99.7573 42.4781 99.4L44.1661 99.792C43.8461 100.501 43.3634 101.083 42.7181 101.536C42.0727 101.984 41.3501 102.208 40.5501 102.208ZM38.2781 97.312H42.8221C42.7687 96.928 42.6327 96.5813 42.4141 96.272C42.2007 95.9573 41.9314 95.7093 41.6061 95.528C41.2861 95.3413 40.9341 95.248 40.5501 95.248C40.1714 95.248 39.8194 95.3387 39.4941 95.52C39.1741 95.7013 38.9074 95.9493 38.6941 96.264C38.4861 96.5733 38.3474 96.9227 38.2781 97.312ZM51.0509 99.728L52.5389 100.536C52.1763 101.043 51.7149 101.448 51.1549 101.752C50.6003 102.056 49.9976 102.208 49.3469 102.208C48.6109 102.208 47.9389 102.019 47.3309 101.64C46.7283 101.261 46.2456 100.755 45.8829 100.12C45.5256 99.48 45.3469 98.7733 45.3469 98C45.3469 97.4133 45.4509 96.8667 45.6589 96.36C45.8669 95.848 46.1523 95.4 46.5149 95.016C46.8829 94.6267 47.3096 94.3227 47.7949 94.104C48.2803 93.8853 48.7976 93.776 49.3469 93.776C49.9976 93.776 50.6003 93.928 51.1549 94.232C51.7149 94.536 52.1763 94.944 52.5389 95.456L51.0509 96.264C50.8269 95.9973 50.5656 95.7947 50.2669 95.656C49.9683 95.512 49.6616 95.44 49.3469 95.44C48.9096 95.44 48.5123 95.56 48.1549 95.8C47.8029 96.0347 47.5229 96.3467 47.3149 96.736C47.1123 97.12 47.0109 97.5413 47.0109 98C47.0109 98.4533 47.1149 98.8747 47.3229 99.264C47.5309 99.648 47.8109 99.9573 48.1629 100.192C48.5203 100.427 48.9149 100.544 49.3469 100.544C49.6776 100.544 49.9923 100.469 50.2909 100.32C50.5896 100.171 50.8429 99.9733 51.0509 99.728ZM58.2072 95.664H56.5272L56.5192 102H54.8552L54.8632 95.664H53.5912V94H54.8632L54.8552 91.488H56.5192L56.5272 94H58.2072V95.664ZM69.7952 94H71.4592V102H69.7872L69.7232 100.84C69.4885 101.251 69.1712 101.581 68.7712 101.832C68.3765 102.083 67.9072 102.208 67.3632 102.208C66.7712 102.208 66.2165 102.099 65.6992 101.88C65.1872 101.656 64.7339 101.347 64.3392 100.952C63.9499 100.557 63.6432 100.104 63.4192 99.592C63.2005 99.0747 63.0912 98.52 63.0912 97.928C63.0912 97.3573 63.1979 96.8213 63.4112 96.32C63.6245 95.8133 63.9205 95.3707 64.2992 94.992C64.6779 94.6133 65.1152 94.3173 65.6112 94.104C66.1125 93.8853 66.6485 93.776 67.2192 93.776C67.8005 93.776 68.3125 93.9093 68.7552 94.176C69.2032 94.4373 69.5712 94.7733 69.8592 95.184L69.7952 94ZM67.4032 100.6C67.8832 100.6 68.2965 100.48 68.6432 100.24C68.9952 100 69.2592 99.6773 69.4352 99.272C69.6165 98.8667 69.6939 98.4187 69.6672 97.928C69.6352 97.4587 69.5099 97.032 69.2912 96.648C69.0779 96.264 68.7925 95.96 68.4352 95.736C68.0779 95.5067 67.6725 95.392 67.2192 95.392C66.7445 95.392 66.3152 95.512 65.9312 95.752C65.5525 95.992 65.2592 96.3147 65.0512 96.72C64.8432 97.1253 64.7525 97.576 64.7792 98.072C64.8112 98.536 64.9499 98.96 65.1952 99.344C65.4459 99.728 65.7632 100.035 66.1472 100.264C66.5365 100.488 66.9552 100.6 67.4032 100.6ZM80.7978 97.808V102H79.1338V97.84C79.1338 97.3867 79.0378 96.976 78.8458 96.608C78.6592 96.2347 78.4005 95.9387 78.0698 95.72C77.7445 95.496 77.3738 95.384 76.9578 95.384C76.5418 95.384 76.1765 95.496 75.8618 95.72C75.5525 95.9387 75.3098 96.2347 75.1338 96.608C74.9632 96.976 74.8778 97.3867 74.8778 97.84V102H73.2138V94H74.8778V95.08C75.1552 94.6747 75.4912 94.3573 75.8858 94.128C76.2805 93.8933 76.7258 93.776 77.2218 93.776C77.9418 93.776 78.5658 93.96 79.0938 94.328C79.6272 94.696 80.0432 95.184 80.3418 95.792C80.6405 96.4 80.7925 97.072 80.7978 97.808ZM86.5011 102V90.8H88.3011L93.4371 98.992V90.8H95.1011V102H93.3091L88.1571 93.808V102H86.5011ZM97.2801 102V90.8H103.88V92.464H98.9441V95.168H103.112V96.832H98.9441V102H97.2801ZM113.471 90.8V92.464H109.903V102H108.239V92.464H104.679V90.8H113.471ZM3.98319 121V109.8H10.5832V111.464H5.64719V114.168H9.81519V115.832H5.64719V121H3.98319ZM15.9299 114.672C15.7913 114.587 15.6393 114.52 15.4739 114.472C15.3139 114.419 15.1379 114.392 14.9459 114.392C14.5299 114.392 14.1673 114.501 13.8579 114.72C13.5486 114.939 13.3059 115.235 13.1299 115.608C12.9593 115.981 12.8739 116.395 12.8739 116.848V121H11.2019V113H12.8659V114.08C13.1433 113.68 13.4793 113.365 13.8739 113.136C14.2739 112.901 14.7193 112.784 15.2099 112.784C15.3913 112.784 15.5619 112.792 15.7219 112.808C15.8873 112.824 16.0446 112.856 16.1939 112.904L15.9299 114.672ZM20.3782 121.208C19.6422 121.208 18.9702 121.019 18.3622 120.64C17.7595 120.261 17.2769 119.755 16.9142 119.12C16.5569 118.48 16.3782 117.773 16.3782 117C16.3782 116.413 16.4822 115.867 16.6902 115.36C16.8982 114.848 17.1835 114.4 17.5462 114.016C17.9142 113.627 18.3409 113.323 18.8262 113.104C19.3115 112.885 19.8289 112.776 20.3782 112.776C21.1142 112.776 21.7835 112.965 22.3862 113.344C22.9942 113.723 23.4769 114.232 23.8342 114.872C24.1969 115.512 24.3782 116.221 24.3782 117C24.3782 117.581 24.2742 118.125 24.0662 118.632C23.8582 119.139 23.5702 119.587 23.2022 119.976C22.8395 120.36 22.4155 120.661 21.9302 120.88C21.4502 121.099 20.9329 121.208 20.3782 121.208ZM20.3782 119.544C20.8209 119.544 21.2182 119.427 21.5702 119.192C21.9222 118.957 22.1995 118.648 22.4022 118.264C22.6102 117.875 22.7142 117.453 22.7142 117C22.7142 116.536 22.6075 116.109 22.3942 115.72C22.1862 115.331 21.9062 115.021 21.5542 114.792C21.2022 114.557 20.8102 114.44 20.3782 114.44C19.9409 114.44 19.5435 114.557 19.1862 114.792C18.8342 115.027 18.5542 115.339 18.3462 115.728C18.1435 116.117 18.0422 116.541 18.0422 117C18.0422 117.475 18.1489 117.904 18.3622 118.288C18.5755 118.672 18.8582 118.979 19.2102 119.208C19.5675 119.432 19.9569 119.544 20.3782 119.544ZM25.4067 121V113H27.0707V113.968C27.3267 113.653 27.596 113.397 27.8787 113.2C28.1667 112.997 28.508 112.896 28.9027 112.896C29.4894 112.896 30.0094 113.029 30.4627 113.296C30.9214 113.557 31.3054 113.923 31.6147 114.392C31.924 113.917 32.308 113.549 32.7667 113.288C33.2307 113.027 33.748 112.896 34.3187 112.896C35.0067 112.896 35.612 113.069 36.1347 113.416C36.6574 113.763 37.068 114.224 37.3667 114.8C37.6654 115.371 37.8147 116 37.8147 116.688V121H36.1507V116.688C36.1507 116.293 36.0734 115.936 35.9187 115.616C35.7694 115.296 35.5587 115.04 35.2867 114.848C35.0147 114.656 34.692 114.56 34.3187 114.56C33.956 114.56 33.6307 114.656 33.3427 114.848C33.06 115.04 32.8387 115.296 32.6787 115.616C32.524 115.936 32.4467 116.293 32.4467 116.688V121H30.7827V116.688C30.7827 116.293 30.7027 115.936 30.5427 115.616C30.3827 115.296 30.1614 115.04 29.8787 114.848C29.596 114.656 29.2707 114.56 28.9027 114.56C28.5507 114.56 28.236 114.661 27.9587 114.864C27.6867 115.067 27.4707 115.333 27.3107 115.664C27.1507 115.995 27.0707 116.357 27.0707 116.752V121H25.4067ZM50.1753 109.8H52.1353L48.3113 115.944V121H46.6473V115.944L42.8313 109.8H44.7913L47.4793 114.128L50.1753 109.8ZM55.5501 121.208C54.8141 121.208 54.1421 121.019 53.5341 120.64C52.9314 120.261 52.4487 119.755 52.0861 119.12C51.7287 118.48 51.5501 117.773 51.5501 117C51.5501 116.413 51.6541 115.867 51.8621 115.36C52.0701 114.848 52.3554 114.4 52.7181 114.016C53.0861 113.627 53.5127 113.323 53.9981 113.104C54.4834 112.885 55.0007 112.776 55.5501 112.776C56.2861 112.776 56.9554 112.965 57.5581 113.344C58.1661 113.723 58.6487 114.232 59.0061 114.872C59.3687 115.512 59.5501 116.221 59.5501 117C59.5501 117.581 59.4461 118.125 59.2381 118.632C59.0301 119.139 58.7421 119.587 58.3741 119.976C58.0114 120.36 57.5874 120.661 57.1021 120.88C56.6221 121.099 56.1047 121.208 55.5501 121.208ZM55.5501 119.544C55.9927 119.544 56.3901 119.427 56.7421 119.192C57.0941 118.957 57.3714 118.648 57.5741 118.264C57.7821 117.875 57.8861 117.453 57.8861 117C57.8861 116.536 57.7794 116.109 57.5661 115.72C57.3581 115.331 57.0781 115.021 56.7261 114.792C56.3741 114.557 55.9821 114.44 55.5501 114.44C55.1127 114.44 54.7154 114.557 54.3581 114.792C54.0061 115.027 53.7261 115.339 53.5181 115.728C53.3154 116.117 53.2141 116.541 53.2141 117C53.2141 117.475 53.3207 117.904 53.5341 118.288C53.7474 118.672 54.0301 118.979 54.3821 119.208C54.7394 119.432 55.1287 119.544 55.5501 119.544ZM60.6863 117.176V113H62.3503V117.144C62.3503 117.597 62.4437 118.011 62.6303 118.384C62.8223 118.752 63.081 119.048 63.4063 119.272C63.737 119.491 64.113 119.6 64.5343 119.6C64.945 119.6 65.305 119.491 65.6143 119.272C65.929 119.048 66.1717 118.752 66.3423 118.384C66.5183 118.011 66.6063 117.597 66.6063 117.144V113H68.2703V121H66.6063V119.912C66.329 120.312 65.993 120.629 65.5983 120.864C65.2037 121.099 64.7583 121.216 64.2623 121.216C63.5477 121.216 62.921 121.035 62.3823 120.672C61.849 120.304 61.4357 119.813 61.1423 119.2C60.849 118.587 60.697 117.912 60.6863 117.176ZM74.9143 114.672C74.7757 114.587 74.6237 114.52 74.4583 114.472C74.2983 114.419 74.1223 114.392 73.9303 114.392C73.5143 114.392 73.1517 114.501 72.8423 114.72C72.533 114.939 72.2903 115.235 72.1143 115.608C71.9437 115.981 71.8583 116.395 71.8583 116.848V121H70.1863V113H71.8503V114.08C72.1277 113.68 72.4637 113.365 72.8583 113.136C73.2583 112.901 73.7037 112.784 74.1943 112.784C74.3757 112.784 74.5463 112.792 74.7063 112.808C74.8717 112.824 75.029 112.856 75.1783 112.904L74.9143 114.672ZM82.9216 121L80.0576 109.8H81.7776L83.8736 118.016L85.9616 109.8H87.4736L89.5696 118.016L91.6576 109.8H93.3776L90.5296 121H88.6176L86.7136 113.584L84.8336 121H82.9216ZM100.342 113H102.006V121H100.334L100.27 119.84C100.035 120.251 99.7181 120.581 99.3181 120.832C98.9234 121.083 98.4541 121.208 97.9101 121.208C97.3181 121.208 96.7634 121.099 96.2461 120.88C95.7341 120.656 95.2807 120.347 94.8861 119.952C94.4967 119.557 94.1901 119.104 93.9661 118.592C93.7474 118.075 93.6381 117.52 93.6381 116.928C93.6381 116.357 93.7447 115.821 93.9581 115.32C94.1714 114.813 94.4674 114.371 94.8461 113.992C95.2247 113.613 95.6621 113.317 96.1581 113.104C96.6594 112.885 97.1954 112.776 97.7661 112.776C98.3474 112.776 98.8594 112.909 99.3021 113.176C99.7501 113.437 100.118 113.773 100.406 114.184L100.342 113ZM97.9501 119.6C98.4301 119.6 98.8434 119.48 99.1901 119.24C99.5421 119 99.8061 118.677 99.9821 118.272C100.163 117.867 100.241 117.419 100.214 116.928C100.182 116.459 100.057 116.032 99.8381 115.648C99.6247 115.264 99.3394 114.96 98.9821 114.736C98.6247 114.507 98.2194 114.392 97.7661 114.392C97.2914 114.392 96.8621 114.512 96.4781 114.752C96.0994 114.992 95.8061 115.315 95.5981 115.72C95.3901 116.125 95.2994 116.576 95.3261 117.072C95.3581 117.536 95.4967 117.96 95.7421 118.344C95.9927 118.728 96.3101 119.035 96.6941 119.264C97.0834 119.488 97.5021 119.6 97.9501 119.6ZM104.017 121V109H105.673V121H104.017ZM107.782 121V109H109.438V121H107.782ZM114.972 121.208C114.236 121.208 113.564 121.019 112.956 120.64C112.353 120.261 111.871 119.755 111.508 119.12C111.151 118.48 110.972 117.773 110.972 117C110.972 116.413 111.076 115.867 111.284 115.36C111.492 114.848 111.777 114.4 112.14 114.016C112.508 113.627 112.935 113.323 113.42 113.104C113.905 112.885 114.423 112.776 114.972 112.776C115.585 112.776 116.148 112.904 116.66 113.16C117.172 113.411 117.609 113.76 117.972 114.208C118.335 114.651 118.601 115.163 118.772 115.744C118.943 116.32 118.993 116.933 118.924 117.584H112.756C112.825 117.952 112.959 118.285 113.156 118.584C113.359 118.877 113.615 119.109 113.924 119.28C114.239 119.451 114.588 119.539 114.972 119.544C115.377 119.544 115.745 119.443 116.076 119.24C116.412 119.037 116.687 118.757 116.9 118.4L118.588 118.792C118.268 119.501 117.785 120.083 117.14 120.536C116.495 120.984 115.772 121.208 114.972 121.208ZM112.7 116.312H117.244C117.191 115.928 117.055 115.581 116.836 115.272C116.623 114.957 116.353 114.709 116.028 114.528C115.708 114.341 115.356 114.248 114.972 114.248C114.593 114.248 114.241 114.339 113.916 114.52C113.596 114.701 113.329 114.949 113.116 115.264C112.908 115.573 112.769 115.923 112.7 116.312ZM124.473 114.664H122.793L122.785 121H121.121L121.129 114.664H119.857V113H121.129L121.121 110.488H122.785L122.793 113H124.473V114.664Z" fill="url(#paint0_radial_17_59)"/>
<g clip-path="url(#clip0_17_59)">
<path d="M55.6603 37.1875H35.1525C31.76 37.1875 29.0001 39.9474 29.0001 43.3398V63.8477C29.0001 67.2401 31.76 70 35.1525 70H55.6603C59.0527 70 61.8126 67.2401 61.8126 63.8477V43.3398C61.8126 39.9474 59.0527 37.1875 55.6603 37.1875ZM57.711 63.8477C57.711 64.9785 56.7911 65.8984 55.6603 65.8984H35.1525C34.0216 65.8984 33.1017 64.9785 33.1017 63.8477V43.3398C33.1017 42.209 34.0216 41.2891 35.1525 41.2891H55.6603C56.7911 41.2891 57.711 42.209 57.711 43.3398V63.8477ZM50.1085 12.9054L43.3556 19.6584L40.7041 17.007C39.9033 16.2061 38.6047 16.2061 37.8038 17.007C37.0029 17.8079 37.0029 19.1063 37.8038 19.9072L41.9054 24.0088C42.29 24.3934 42.8116 24.6094 43.3556 24.6094C43.8996 24.6094 44.4212 24.3934 44.8056 24.0086L53.0086 15.8055C53.8095 15.0046 53.8095 13.7062 53.0086 12.9053C52.2078 12.1044 50.9093 12.1044 50.1085 12.9054ZM92.8478 37.1875H72.34C68.9475 37.1875 66.1876 39.9474 66.1876 43.3398V63.8477C66.1876 67.2401 68.9475 70 72.34 70H92.8478C96.2402 70 99.0001 67.2401 99.0001 63.8477V43.3398C99.0001 39.9474 96.2402 37.1875 92.8478 37.1875ZM94.8985 63.8477C94.8985 64.9785 93.9786 65.8984 92.8478 65.8984H72.34C71.2091 65.8984 70.2892 64.9785 70.2892 63.8477V43.3398C70.2892 42.209 71.2091 41.2891 72.34 41.2891H92.8478C93.9786 41.2891 94.8985 42.209 94.8985 43.3398V63.8477ZM87.296 50.0929L80.5431 56.8459L77.8916 54.1945C77.0908 53.3936 75.7922 53.3936 74.9913 54.1945C74.1904 54.9954 74.1904 56.2938 74.9913 57.0947L79.0929 61.1963C79.4775 61.5809 79.9991 61.7969 80.5431 61.7969C81.0871 61.7969 81.6087 61.5809 81.9931 61.1961L90.1961 52.993C90.997 52.1921 90.997 50.8937 90.1961 50.0928C89.3953 49.2919 88.0968 49.292 87.296 50.0929ZM92.8478 0H72.34C68.9475 0 66.1876 2.75994 66.1876 6.15234V26.6602C66.1876 30.0526 68.9475 32.8125 72.34 32.8125H92.8478C96.2402 32.8125 99.0001 30.0526 99.0001 26.6602V6.15234C99.0001 2.75994 96.2402 0 92.8478 0ZM94.8985 26.6602C94.8985 27.791 93.9786 28.7109 92.8478 28.7109H72.34C71.2091 28.7109 70.2892 27.791 70.2892 26.6602V6.15234C70.2892 5.02154 71.2091 4.10156 72.34 4.10156H92.8478C93.9786 4.10156 94.8985 5.02154 94.8985 6.15234V26.6602ZM55.6603 0H35.1525C31.76 0 29.0001 2.75994 29.0001 6.15234V26.6602C29.0001 30.0526 31.76 32.8125 35.1525 32.8125H55.6603C59.0527 32.8125 61.8126 30.0526 61.8126 26.6602V6.15234C61.8126 2.75994 59.0527 0 55.6603 0ZM57.711 26.6602C57.711 27.791 56.7911 28.7109 55.6603 28.7109H35.1525C34.0216 28.7109 33.1017 27.791 33.1017 26.6602V6.15234C33.1017 5.02154 34.0216 4.10156 35.1525 4.10156H55.6603C56.7911 4.10156 57.711 5.02154 57.711 6.15234V26.6602Z" fill="url(#paint1_radial_17_59)"/>
</g>
<defs>
<radialGradient id="paint0_radial_17_59" cx="0" cy="0" r="1" gradientUnits="userSpaceOnUse" gradientTransform="translate(48.7043 88.4324) rotate(40.7211) scale(66.7828 274.397)">
<stop stop-color="#FF4F0D"/>
<stop offset="1" stop-color="#7AB694"/>
</radialGradient>
<radialGradient id="paint1_radial_17_59" cx="0" cy="0" r="1" gradientUnits="userSpaceOnUse" gradientTransform="translate(55.6419 11.3514) rotate(64.7292) scale(64.8553 208.06)">
<stop stop-color="#FF4F0D"/>
<stop offset="1" stop-color="#7AB694"/>
</radialGradient>
<clipPath id="clip0_17_59">
<rect width="70" height="70" fill="white" transform="translate(29.0001)"/>
</clipPath>
</defs>
</svg>
