<svg width="78" height="78" viewBox="0 0 78 78" fill="none" xmlns="http://www.w3.org/2000/svg">
<path fill-rule="evenodd" clip-rule="evenodd" d="M4.875 39C4.875 48.0505 8.4703 56.7303 14.87 63.13C21.2697 69.5297 29.9495 73.125 39 73.125C48.0505 73.125 56.7303 69.5297 63.13 63.13C69.5297 56.7303 73.125 48.0505 73.125 39C73.125 29.9495 69.5297 21.2697 63.13 14.87C56.7303 8.4703 48.0505 4.875 39 4.875C29.9495 4.875 21.2697 8.4703 14.87 14.87C8.4703 21.2697 4.875 29.9495 4.875 39V39ZM78 39C78 49.3434 73.8911 59.2632 66.5772 66.5772C59.2632 73.8911 49.3434 78 39 78C28.6566 78 18.7368 73.8911 11.4228 66.5772C4.10892 59.2632 0 49.3434 0 39C0 28.6566 4.10892 18.7368 11.4228 11.4228C18.7368 4.10892 28.6566 0 39 0C49.3434 0 59.2632 4.10892 66.5772 11.4228C73.8911 18.7368 78 28.6566 78 39V39ZM41.4375 56.0625C41.4375 56.709 41.1807 57.329 40.7236 57.7861C40.2665 58.2432 39.6465 58.5 39 58.5C38.3535 58.5 37.7335 58.2432 37.2764 57.7861C36.8193 57.329 36.5625 56.709 36.5625 56.0625V27.8216L26.1008 38.2883C25.6431 38.7459 25.0223 39.0031 24.375 39.0031C23.7277 39.0031 23.1069 38.7459 22.6492 38.2883C22.1916 37.8306 21.9344 37.2098 21.9344 36.5625C21.9344 35.9152 22.1916 35.2944 22.6492 34.8367L37.2742 20.2117C37.5007 19.9848 37.7697 19.8047 38.0658 19.6818C38.3619 19.5589 38.6794 19.4956 39 19.4956C39.3206 19.4956 39.6381 19.5589 39.9342 19.6818C40.2303 19.8047 40.4993 19.9848 40.7258 20.2117L55.3508 34.8367C55.8084 35.2944 56.0656 35.9152 56.0656 36.5625C56.0656 37.2098 55.8084 37.8306 55.3508 38.2883C54.8931 38.7459 54.2723 39.0031 53.625 39.0031C52.9777 39.0031 52.3569 38.7459 51.8992 38.2883L41.4375 27.8216V56.0625Z" fill="#FF4F0D"/>
</svg>
