<svg width="60" height="60" viewBox="0 0 60 60" fill="none" xmlns="http://www.w3.org/2000/svg">
<path d="M55.3125 38.9062V14.0625C55.3125 11.478 53.2095 9.375 50.625 9.375H47.5781V11.7188C47.5781 13.0133 46.5289 14.0625 45.2344 14.0625C43.9398 14.0625 42.8906 13.0133 42.8906 11.7188V9.375H32.2266V11.7188C32.2266 13.0133 31.1774 14.0625 29.8828 14.0625C28.5883 14.0625 27.5391 13.0133 27.5391 11.7188V9.375H16.9922V11.7188C16.9922 13.0133 15.943 14.0625 14.6484 14.0625C13.3539 14.0625 12.3047 13.0133 12.3047 11.7188V9.375H9.375C6.79047 9.375 4.6875 11.478 4.6875 14.0625V50.625C4.6875 53.2095 6.79047 55.3125 9.375 55.3125H50.625C53.2095 55.3125 55.3125 53.2095 55.3125 50.625C55.3125 49.3304 56.3617 48.2812 57.6562 48.2812C58.9508 48.2812 60 49.3304 60 50.625C60 55.7945 55.7945 60 50.625 60H9.375C4.20547 60 0 55.7945 0 50.625V14.0625C0 8.89297 4.20547 4.6875 9.375 4.6875H12.3047V2.34375C12.3047 1.04919 13.3539 0 14.6484 0C15.943 0 16.9922 1.04919 16.9922 2.34375V4.6875H27.5391V2.34375C27.5391 1.04919 28.5883 0 29.8828 0C31.1774 0 32.2266 1.04919 32.2266 2.34375V4.6875H42.8906V2.34375C42.8906 1.04919 43.9398 0 45.2344 0C46.5289 0 47.5781 1.04919 47.5781 2.34375V4.6875H50.625C55.7945 4.6875 60 8.89297 60 14.0625V38.9062C60 40.2008 58.9508 41.25 57.6562 41.25C56.3617 41.25 55.3125 40.2008 55.3125 38.9062ZM32.2266 23.5547C32.2266 22.2601 31.1774 21.2109 29.8828 21.2109C28.5883 21.2109 27.5391 22.2601 27.5391 23.5547V38.6719C27.5391 39.9664 28.5883 41.0156 29.8828 41.0156C31.1774 41.0156 32.2266 39.9664 32.2266 38.6719V23.5547ZM29.8828 44.5312C28.5883 44.5312 27.5391 45.5804 27.5391 46.875C27.5391 48.1696 28.5883 49.2188 29.8828 49.2188C31.1774 49.2188 32.2266 48.1696 32.2266 46.875C32.2266 45.5804 31.1774 44.5312 29.8828 44.5312Z" fill="#FF4F0D"/>
</svg>
