<svg width="105" height="67" viewBox="0 0 105 67" fill="none" xmlns="http://www.w3.org/2000/svg">
<path d="M50.2502 30.2008C50.2502 29.5795 50.3809 29.0455 50.6425 28.5333L50.697 28.4352C51.1657 27.5851 51.9068 26.9856 52.7678 26.724C53.5743 26.4625 54.5116 26.4952 55.3181 26.8439L55.3399 26.833C55.656 26.7567 55.9284 26.6478 56.2118 26.5279L56.3208 26.4952C57.0728 26.2118 57.803 25.8848 58.566 25.5361L58.9692 25.3508L59.9065 24.9148C60.1463 24.795 60.3861 24.686 60.6258 24.5661C60.8547 24.468 61.0836 24.359 61.3125 24.25C61.5958 24.1192 61.8574 24.032 62.1081 23.9448C62.3914 23.8468 62.6312 23.8141 62.8601 23.8141C63.5031 23.8141 64.0154 24.141 64.2878 24.7514C64.6148 25.3944 64.5712 26.3317 63.4595 26.9747C62.01 27.8139 60.7784 28.5659 59.6994 29.2962C59.0673 29.7103 58.4679 30.1136 57.912 30.5713L57.7812 30.6803C57.6287 30.7893 57.4979 30.9092 57.378 31.0182C57.0837 32.2389 56.19 33.2088 54.9802 33.6012C54.577 33.7102 54.2173 33.7647 53.8795 33.7647C53.4108 33.7647 52.9095 33.6666 52.4626 33.4813C52.3863 33.4486 52.3209 33.4159 52.2773 33.3941L52.2228 33.3723L52.0812 33.296C52.0267 33.2633 51.9722 33.2306 51.9177 33.1979L51.667 33.0345C51.0894 32.5767 50.6643 31.9664 50.4136 31.258C50.3264 30.931 50.272 30.6585 50.2502 30.3861V30.2008ZM53.7596 49.6225C48.2557 49.6225 43.0133 47.3119 39.3077 43.2576L38.8827 43.5736C38.5012 43.8679 38.0435 44.0205 37.5639 44.0205C36.4413 44.0205 35.4931 43.1813 35.3515 42.0587L34.6975 36.5221C34.6212 35.9009 34.8283 35.2687 35.2425 34.8001C35.8528 34.1026 36.91 33.8628 37.771 34.2333L42.9043 36.424C43.6455 36.751 44.1468 37.4158 44.234 38.2005C44.3321 38.9961 44.0051 39.759 43.3621 40.2386L43.264 40.304C46.0214 43.1159 49.8142 44.718 53.7596 44.718C61.8574 44.718 68.4403 38.146 68.4403 30.07C68.4403 21.994 61.8574 15.4111 53.7596 15.4111C45.6726 15.4111 39.1878 20.4681 39.1878 28.5442C39.1878 29.8956 38.0871 30.9964 36.7247 30.9964C35.3733 30.9964 34.2725 29.8956 34.2725 28.5442C34.2725 17.7652 42.9588 10.5175 53.7596 10.5175C64.5603 10.5175 73.3557 19.2802 73.3557 30.07C73.3557 40.8489 64.5603 49.6225 53.7596 49.6225ZM23.1557 27.1818C20.0604 27.1164 17.5973 24.6206 17.6082 21.558C17.6191 18.4409 20.1476 15.9887 23.3083 16.0105C26.349 16.0432 28.8667 18.6262 28.8231 21.6561C28.7686 24.6751 26.142 27.2363 23.1557 27.1818ZM101.627 32.2062C101.191 31.9446 100.744 31.6394 100.287 31.2907C102.521 29.8629 103.894 27.269 104.09 24.7296C104.341 21.4272 102.456 18.539 99.3711 17.569C96.2323 16.5663 92.9517 17.8524 91.197 20.7624C91.0444 21.0131 90.9028 21.2637 90.7829 21.5253C90.4232 20.3809 89.9546 19.2802 89.366 18.2121C87.8075 15.3675 85.5623 12.9588 83.0229 10.9426C75.1213 4.65393 65.8137 1.80934 55.9611 0.501481C50.7079 -0.196044 49.5962 -0.130648 44.3212 0.479686C38.1416 1.18811 32.278 2.84473 26.9376 6.13618C26.1311 6.61572 25.063 6.88819 24.1039 6.89909C21.2593 6.94269 18.3929 6.68111 15.5483 6.7901C13.7827 6.85549 11.9408 7.16066 10.2733 7.7492C8.07171 8.51212 7.65755 10.5175 9.0962 12.3485C10.0989 13.6346 11.1888 14.8552 12.2678 16.1413C10.5021 18.6698 8.99811 23.1056 5.84835 24.0211C5.17262 24.2064 4.47509 24.3045 3.81027 24.4571C1.47792 25.002 -0.244095 27.3344 0.0283744 29.6449C0.486126 33.3941 0.889382 37.1542 1.45612 40.8925C1.6305 42.0587 2.09915 43.2685 2.74218 44.2494C3.61409 45.579 5.12903 46.015 6.68756 45.9932C8.97631 45.9605 10.6765 47.0504 12.3005 48.5435C14.7854 50.8213 18.2948 53.0556 19.8097 56.3362C21.1176 59.1589 19.679 65.8617 24.2238 66.265C27.0139 66.5047 30.1636 67.1587 32.8992 66.1996C36.91 64.7827 37.2261 60.3142 38.4685 56.6849C49.4981 57.7203 55.9066 58.4396 66.3913 58.5595C66.7619 59.9764 67.1324 61.2951 67.4703 62.6248C68.8762 68.0524 82.1946 68.6082 83.6986 63.2896C84.7885 59.4205 85.7585 55.5078 87.11 51.7368C88.3742 48.2056 90.5213 44.9251 91.415 41.2631C92.0907 38.4294 92.1125 35.3014 92.0471 32.3805C93.5839 34.5821 95.7309 36.5221 98.0851 37.9607C98.6409 38.2986 99.2404 38.4621 99.8507 38.4621C100.984 38.4621 102.096 37.8953 102.739 36.8491C103.709 35.2687 103.218 33.187 101.627 32.2062Z" fill="#C4C4C4"/>
</svg>
