<svg width="128" height="132" viewBox="0 0 128 132" fill="none" xmlns="http://www.w3.org/2000/svg">
<path d="M16.8814 102.208C16.2681 102.208 15.6788 102.112 15.1134 101.92C14.5481 101.728 14.0548 101.453 13.6334 101.096C13.2121 100.733 12.9108 100.304 12.7294 99.808L14.2894 99.224C14.3801 99.48 14.5534 99.7093 14.8094 99.912C15.0708 100.109 15.3801 100.264 15.7374 100.376C16.1001 100.488 16.4814 100.544 16.8814 100.544C17.3081 100.544 17.7081 100.475 18.0814 100.336C18.4601 100.197 18.7641 100.005 18.9934 99.76C19.2281 99.5147 19.3454 99.2267 19.3454 98.896C19.3454 98.5547 19.2228 98.2747 18.9774 98.056C18.7374 97.8373 18.4281 97.664 18.0494 97.536C17.6761 97.408 17.2868 97.312 16.8814 97.248C16.0974 97.12 15.3934 96.9333 14.7694 96.688C14.1508 96.4427 13.6601 96.0987 13.2974 95.656C12.9401 95.2133 12.7614 94.6373 12.7614 93.928C12.7614 93.2613 12.9508 92.68 13.3294 92.184C13.7134 91.688 14.2174 91.304 14.8414 91.032C15.4708 90.7547 16.1508 90.616 16.8814 90.616C17.4841 90.616 18.0654 90.712 18.6254 90.904C19.1908 91.0907 19.6868 91.3653 20.1134 91.728C20.5454 92.0853 20.8548 92.52 21.0414 93.032L19.4654 93.6C19.3748 93.3387 19.2014 93.112 18.9454 92.92C18.6894 92.7227 18.3801 92.568 18.0174 92.456C17.6601 92.344 17.2814 92.288 16.8814 92.288C16.4548 92.2827 16.0548 92.352 15.6814 92.496C15.3134 92.6347 15.0121 92.8267 14.7774 93.072C14.5428 93.3173 14.4254 93.6027 14.4254 93.928C14.4254 94.328 14.5348 94.632 14.7534 94.84C14.9721 95.048 15.2654 95.2027 15.6334 95.304C16.0068 95.4 16.4228 95.488 16.8814 95.568C17.6174 95.6853 18.2974 95.88 18.9214 96.152C19.5508 96.424 20.0548 96.7867 20.4334 97.24C20.8174 97.688 21.0094 98.24 21.0094 98.896C21.0094 99.5573 20.8174 100.139 20.4334 100.64C20.0548 101.136 19.5508 101.523 18.9214 101.8C18.2974 102.072 17.6174 102.208 16.8814 102.208ZM26.1126 102.208C25.3766 102.208 24.7046 102.019 24.0966 101.64C23.4939 101.261 23.0112 100.755 22.6486 100.12C22.2912 99.48 22.1126 98.7733 22.1126 98C22.1126 97.4133 22.2166 96.8667 22.4246 96.36C22.6326 95.848 22.9179 95.4 23.2806 95.016C23.6486 94.6267 24.0752 94.3227 24.5606 94.104C25.0459 93.8853 25.5632 93.776 26.1126 93.776C26.7259 93.776 27.2886 93.904 27.8006 94.16C28.3126 94.4107 28.7499 94.76 29.1126 95.208C29.4752 95.6507 29.7419 96.1627 29.9126 96.744C30.0832 97.32 30.1339 97.9333 30.0646 98.584H23.8966C23.9659 98.952 24.0992 99.2853 24.2966 99.584C24.4992 99.8773 24.7552 100.109 25.0646 100.28C25.3792 100.451 25.7286 100.539 26.1126 100.544C26.5179 100.544 26.8859 100.443 27.2166 100.24C27.5526 100.037 27.8272 99.7573 28.0406 99.4L29.7286 99.792C29.4086 100.501 28.9259 101.083 28.2806 101.536C27.6352 101.984 26.9126 102.208 26.1126 102.208ZM23.8406 97.312H28.3846C28.3312 96.928 28.1952 96.5813 27.9766 96.272C27.7632 95.9573 27.4939 95.7093 27.1686 95.528C26.8486 95.3413 26.4966 95.248 26.1126 95.248C25.7339 95.248 25.3819 95.3387 25.0566 95.52C24.7366 95.7013 24.4699 95.9493 24.2566 96.264C24.0486 96.5733 23.9099 96.9227 23.8406 97.312ZM31.4386 102V90H33.0946V102H31.4386ZM38.6282 102.208C37.8922 102.208 37.2202 102.019 36.6122 101.64C36.0095 101.261 35.5269 100.755 35.1642 100.12C34.8069 99.48 34.6282 98.7733 34.6282 98C34.6282 97.4133 34.7322 96.8667 34.9402 96.36C35.1482 95.848 35.4335 95.4 35.7962 95.016C36.1642 94.6267 36.5909 94.3227 37.0762 94.104C37.5615 93.8853 38.0789 93.776 38.6282 93.776C39.2415 93.776 39.8042 93.904 40.3162 94.16C40.8282 94.4107 41.2655 94.76 41.6282 95.208C41.9909 95.6507 42.2575 96.1627 42.4282 96.744C42.5989 97.32 42.6495 97.9333 42.5802 98.584H36.4122C36.4815 98.952 36.6149 99.2853 36.8122 99.584C37.0149 99.8773 37.2709 100.109 37.5802 100.28C37.8949 100.451 38.2442 100.539 38.6282 100.544C39.0335 100.544 39.4015 100.443 39.7322 100.24C40.0682 100.037 40.3429 99.7573 40.5562 99.4L42.2442 99.792C41.9242 100.501 41.4415 101.083 40.7962 101.536C40.1509 101.984 39.4282 102.208 38.6282 102.208ZM36.3562 97.312H40.9002C40.8469 96.928 40.7109 96.5813 40.4922 96.272C40.2789 95.9573 40.0095 95.7093 39.6842 95.528C39.3642 95.3413 39.0122 95.248 38.6282 95.248C38.2495 95.248 37.8975 95.3387 37.5722 95.52C37.2522 95.7013 36.9855 95.9493 36.7722 96.264C36.5642 96.5733 36.4255 96.9227 36.3562 97.312ZM49.1291 99.728L50.6171 100.536C50.2544 101.043 49.7931 101.448 49.2331 101.752C48.6784 102.056 48.0757 102.208 47.4251 102.208C46.6891 102.208 46.0171 102.019 45.4091 101.64C44.8064 101.261 44.3237 100.755 43.9611 100.12C43.6037 99.48 43.4251 98.7733 43.4251 98C43.4251 97.4133 43.5291 96.8667 43.7371 96.36C43.9451 95.848 44.2304 95.4 44.5931 95.016C44.9611 94.6267 45.3877 94.3227 45.8731 94.104C46.3584 93.8853 46.8757 93.776 47.4251 93.776C48.0757 93.776 48.6784 93.928 49.2331 94.232C49.7931 94.536 50.2544 94.944 50.6171 95.456L49.1291 96.264C48.9051 95.9973 48.6437 95.7947 48.3451 95.656C48.0464 95.512 47.7397 95.44 47.4251 95.44C46.9877 95.44 46.5904 95.56 46.2331 95.8C45.8811 96.0347 45.6011 96.3467 45.3931 96.736C45.1904 97.12 45.0891 97.5413 45.0891 98C45.0891 98.4533 45.1931 98.8747 45.4011 99.264C45.6091 99.648 45.8891 99.9573 46.2411 100.192C46.5984 100.427 46.9931 100.544 47.4251 100.544C47.7557 100.544 48.0704 100.469 48.3691 100.32C48.6677 100.171 48.9211 99.9733 49.1291 99.728ZM56.2853 95.664H54.6053L54.5973 102H52.9333L52.9413 95.664H51.6693V94H52.9413L52.9333 91.488H54.5973L54.6053 94H56.2853V95.664ZM71.7171 94H73.3811V102H71.7091L71.6451 100.84C71.4104 101.251 71.0931 101.581 70.6931 101.832C70.2984 102.083 69.8291 102.208 69.2851 102.208C68.6931 102.208 68.1384 102.099 67.6211 101.88C67.1091 101.656 66.6557 101.347 66.2611 100.952C65.8717 100.557 65.5651 100.104 65.3411 99.592C65.1224 99.0747 65.0131 98.52 65.0131 97.928C65.0131 97.3573 65.1197 96.8213 65.3331 96.32C65.5464 95.8133 65.8424 95.3707 66.2211 94.992C66.5997 94.6133 67.0371 94.3173 67.5331 94.104C68.0344 93.8853 68.5704 93.776 69.1411 93.776C69.7224 93.776 70.2344 93.9093 70.6771 94.176C71.1251 94.4373 71.4931 94.7733 71.7811 95.184L71.7171 94ZM69.3251 100.6C69.8051 100.6 70.2184 100.48 70.5651 100.24C70.9171 100 71.1811 99.6773 71.3571 99.272C71.5384 98.8667 71.6157 98.4187 71.5891 97.928C71.5571 97.4587 71.4317 97.032 71.2131 96.648C70.9997 96.264 70.7144 95.96 70.3571 95.736C69.9997 95.5067 69.5944 95.392 69.1411 95.392C68.6664 95.392 68.2371 95.512 67.8531 95.752C67.4744 95.992 67.1811 96.3147 66.9731 96.72C66.7651 97.1253 66.6744 97.576 66.7011 98.072C66.7331 98.536 66.8717 98.96 67.1171 99.344C67.3677 99.728 67.6851 100.035 68.0691 100.264C68.4584 100.488 68.8771 100.6 69.3251 100.6ZM82.7197 97.808V102H81.0557V97.84C81.0557 97.3867 80.9597 96.976 80.7677 96.608C80.581 96.2347 80.3224 95.9387 79.9917 95.72C79.6664 95.496 79.2957 95.384 78.8797 95.384C78.4637 95.384 78.0984 95.496 77.7837 95.72C77.4744 95.9387 77.2317 96.2347 77.0557 96.608C76.885 96.976 76.7997 97.3867 76.7997 97.84V102H75.1357V94H76.7997V95.08C77.077 94.6747 77.413 94.3573 77.8077 94.128C78.2024 93.8933 78.6477 93.776 79.1437 93.776C79.8637 93.776 80.4877 93.96 81.0157 94.328C81.549 94.696 81.965 95.184 82.2637 95.792C82.5624 96.4 82.7144 97.072 82.7197 97.808ZM88.4229 102V90.8H90.2229L95.3589 98.992V90.8H97.0229V102H95.2309L90.0789 93.808V102H88.4229ZM99.2019 102V90.8H105.802V92.464H100.866V95.168H105.034V96.832H100.866V102H99.2019ZM115.393 90.8V92.464H111.825V102H110.161V92.464H106.601V90.8H115.393ZM3.98319 121V109.8H10.5832V111.464H5.64719V114.168H9.81519V115.832H5.64719V121H3.98319ZM15.9299 114.672C15.7913 114.587 15.6393 114.52 15.4739 114.472C15.3139 114.419 15.1379 114.392 14.9459 114.392C14.5299 114.392 14.1673 114.501 13.8579 114.72C13.5486 114.939 13.3059 115.235 13.1299 115.608C12.9593 115.981 12.8739 116.395 12.8739 116.848V121H11.2019V113H12.8659V114.08C13.1433 113.68 13.4793 113.365 13.8739 113.136C14.2739 112.901 14.7193 112.784 15.2099 112.784C15.3913 112.784 15.5619 112.792 15.7219 112.808C15.8873 112.824 16.0446 112.856 16.1939 112.904L15.9299 114.672ZM20.3782 121.208C19.6422 121.208 18.9702 121.019 18.3622 120.64C17.7595 120.261 17.2769 119.755 16.9142 119.12C16.5569 118.48 16.3782 117.773 16.3782 117C16.3782 116.413 16.4822 115.867 16.6902 115.36C16.8982 114.848 17.1835 114.4 17.5462 114.016C17.9142 113.627 18.3409 113.323 18.8262 113.104C19.3115 112.885 19.8289 112.776 20.3782 112.776C21.1142 112.776 21.7835 112.965 22.3862 113.344C22.9942 113.723 23.4769 114.232 23.8342 114.872C24.1969 115.512 24.3782 116.221 24.3782 117C24.3782 117.581 24.2742 118.125 24.0662 118.632C23.8582 119.139 23.5702 119.587 23.2022 119.976C22.8395 120.36 22.4155 120.661 21.9302 120.88C21.4502 121.099 20.9329 121.208 20.3782 121.208ZM20.3782 119.544C20.8209 119.544 21.2182 119.427 21.5702 119.192C21.9222 118.957 22.1995 118.648 22.4022 118.264C22.6102 117.875 22.7142 117.453 22.7142 117C22.7142 116.536 22.6075 116.109 22.3942 115.72C22.1862 115.331 21.9062 115.021 21.5542 114.792C21.2022 114.557 20.8102 114.44 20.3782 114.44C19.9409 114.44 19.5435 114.557 19.1862 114.792C18.8342 115.027 18.5542 115.339 18.3462 115.728C18.1435 116.117 18.0422 116.541 18.0422 117C18.0422 117.475 18.1489 117.904 18.3622 118.288C18.5755 118.672 18.8582 118.979 19.2102 119.208C19.5675 119.432 19.9569 119.544 20.3782 119.544ZM25.4067 121V113H27.0707V113.968C27.3267 113.653 27.596 113.397 27.8787 113.2C28.1667 112.997 28.508 112.896 28.9027 112.896C29.4894 112.896 30.0094 113.029 30.4627 113.296C30.9214 113.557 31.3054 113.923 31.6147 114.392C31.924 113.917 32.308 113.549 32.7667 113.288C33.2307 113.027 33.748 112.896 34.3187 112.896C35.0067 112.896 35.612 113.069 36.1347 113.416C36.6574 113.763 37.068 114.224 37.3667 114.8C37.6654 115.371 37.8147 116 37.8147 116.688V121H36.1507V116.688C36.1507 116.293 36.0734 115.936 35.9187 115.616C35.7694 115.296 35.5587 115.04 35.2867 114.848C35.0147 114.656 34.692 114.56 34.3187 114.56C33.956 114.56 33.6307 114.656 33.3427 114.848C33.06 115.04 32.8387 115.296 32.6787 115.616C32.524 115.936 32.4467 116.293 32.4467 116.688V121H30.7827V116.688C30.7827 116.293 30.7027 115.936 30.5427 115.616C30.3827 115.296 30.1614 115.04 29.8787 114.848C29.596 114.656 29.2707 114.56 28.9027 114.56C28.5507 114.56 28.236 114.661 27.9587 114.864C27.6867 115.067 27.4707 115.333 27.3107 115.664C27.1507 115.995 27.0707 116.357 27.0707 116.752V121H25.4067ZM50.1753 109.8H52.1353L48.3113 115.944V121H46.6473V115.944L42.8313 109.8H44.7913L47.4793 114.128L50.1753 109.8ZM55.5501 121.208C54.8141 121.208 54.1421 121.019 53.5341 120.64C52.9314 120.261 52.4487 119.755 52.0861 119.12C51.7287 118.48 51.5501 117.773 51.5501 117C51.5501 116.413 51.6541 115.867 51.8621 115.36C52.0701 114.848 52.3554 114.4 52.7181 114.016C53.0861 113.627 53.5127 113.323 53.9981 113.104C54.4834 112.885 55.0007 112.776 55.5501 112.776C56.2861 112.776 56.9554 112.965 57.5581 113.344C58.1661 113.723 58.6487 114.232 59.0061 114.872C59.3687 115.512 59.5501 116.221 59.5501 117C59.5501 117.581 59.4461 118.125 59.2381 118.632C59.0301 119.139 58.7421 119.587 58.3741 119.976C58.0114 120.36 57.5874 120.661 57.1021 120.88C56.6221 121.099 56.1047 121.208 55.5501 121.208ZM55.5501 119.544C55.9927 119.544 56.3901 119.427 56.7421 119.192C57.0941 118.957 57.3714 118.648 57.5741 118.264C57.7821 117.875 57.8861 117.453 57.8861 117C57.8861 116.536 57.7794 116.109 57.5661 115.72C57.3581 115.331 57.0781 115.021 56.7261 114.792C56.3741 114.557 55.9821 114.44 55.5501 114.44C55.1127 114.44 54.7154 114.557 54.3581 114.792C54.0061 115.027 53.7261 115.339 53.5181 115.728C53.3154 116.117 53.2141 116.541 53.2141 117C53.2141 117.475 53.3207 117.904 53.5341 118.288C53.7474 118.672 54.0301 118.979 54.3821 119.208C54.7394 119.432 55.1287 119.544 55.5501 119.544ZM60.6863 117.176V113H62.3503V117.144C62.3503 117.597 62.4437 118.011 62.6303 118.384C62.8223 118.752 63.081 119.048 63.4063 119.272C63.737 119.491 64.113 119.6 64.5343 119.6C64.945 119.6 65.305 119.491 65.6143 119.272C65.929 119.048 66.1717 118.752 66.3423 118.384C66.5183 118.011 66.6063 117.597 66.6063 117.144V113H68.2703V121H66.6063V119.912C66.329 120.312 65.993 120.629 65.5983 120.864C65.2037 121.099 64.7583 121.216 64.2623 121.216C63.5477 121.216 62.921 121.035 62.3823 120.672C61.849 120.304 61.4357 119.813 61.1423 119.2C60.849 118.587 60.697 117.912 60.6863 117.176ZM74.9143 114.672C74.7757 114.587 74.6237 114.52 74.4583 114.472C74.2983 114.419 74.1223 114.392 73.9303 114.392C73.5143 114.392 73.1517 114.501 72.8423 114.72C72.533 114.939 72.2903 115.235 72.1143 115.608C71.9437 115.981 71.8583 116.395 71.8583 116.848V121H70.1863V113H71.8503V114.08C72.1277 113.68 72.4637 113.365 72.8583 113.136C73.2583 112.901 73.7037 112.784 74.1943 112.784C74.3757 112.784 74.5463 112.792 74.7063 112.808C74.8717 112.824 75.029 112.856 75.1783 112.904L74.9143 114.672ZM82.9216 121L80.0576 109.8H81.7776L83.8736 118.016L85.9616 109.8H87.4736L89.5696 118.016L91.6576 109.8H93.3776L90.5296 121H88.6176L86.7136 113.584L84.8336 121H82.9216ZM100.342 113H102.006V121H100.334L100.27 119.84C100.035 120.251 99.7181 120.581 99.3181 120.832C98.9234 121.083 98.4541 121.208 97.9101 121.208C97.3181 121.208 96.7634 121.099 96.2461 120.88C95.7341 120.656 95.2807 120.347 94.8861 119.952C94.4967 119.557 94.1901 119.104 93.9661 118.592C93.7474 118.075 93.6381 117.52 93.6381 116.928C93.6381 116.357 93.7447 115.821 93.9581 115.32C94.1714 114.813 94.4674 114.371 94.8461 113.992C95.2247 113.613 95.6621 113.317 96.1581 113.104C96.6594 112.885 97.1954 112.776 97.7661 112.776C98.3474 112.776 98.8594 112.909 99.3021 113.176C99.7501 113.437 100.118 113.773 100.406 114.184L100.342 113ZM97.9501 119.6C98.4301 119.6 98.8434 119.48 99.1901 119.24C99.5421 119 99.8061 118.677 99.9821 118.272C100.163 117.867 100.241 117.419 100.214 116.928C100.182 116.459 100.057 116.032 99.8381 115.648C99.6247 115.264 99.3394 114.96 98.9821 114.736C98.6247 114.507 98.2194 114.392 97.7661 114.392C97.2914 114.392 96.8621 114.512 96.4781 114.752C96.0994 114.992 95.8061 115.315 95.5981 115.72C95.3901 116.125 95.2994 116.576 95.3261 117.072C95.3581 117.536 95.4967 117.96 95.7421 118.344C95.9927 118.728 96.3101 119.035 96.6941 119.264C97.0834 119.488 97.5021 119.6 97.9501 119.6ZM104.017 121V109H105.673V121H104.017ZM107.782 121V109H109.438V121H107.782ZM114.972 121.208C114.236 121.208 113.564 121.019 112.956 120.64C112.353 120.261 111.871 119.755 111.508 119.12C111.151 118.48 110.972 117.773 110.972 117C110.972 116.413 111.076 115.867 111.284 115.36C111.492 114.848 111.777 114.4 112.14 114.016C112.508 113.627 112.935 113.323 113.42 113.104C113.905 112.885 114.423 112.776 114.972 112.776C115.585 112.776 116.148 112.904 116.66 113.16C117.172 113.411 117.609 113.76 117.972 114.208C118.335 114.651 118.601 115.163 118.772 115.744C118.943 116.32 118.993 116.933 118.924 117.584H112.756C112.825 117.952 112.959 118.285 113.156 118.584C113.359 118.877 113.615 119.109 113.924 119.28C114.239 119.451 114.588 119.539 114.972 119.544C115.377 119.544 115.745 119.443 116.076 119.24C116.412 119.037 116.687 118.757 116.9 118.4L118.588 118.792C118.268 119.501 117.785 120.083 117.14 120.536C116.495 120.984 115.772 121.208 114.972 121.208ZM112.7 116.312H117.244C117.191 115.928 117.055 115.581 116.836 115.272C116.623 114.957 116.353 114.709 116.028 114.528C115.708 114.341 115.356 114.248 114.972 114.248C114.593 114.248 114.241 114.339 113.916 114.52C113.596 114.701 113.329 114.949 113.116 115.264C112.908 115.573 112.769 115.923 112.7 116.312ZM124.473 114.664H122.793L122.785 121H121.121L121.129 114.664H119.857V113H121.129L121.121 110.488H122.785L122.793 113H124.473V114.664Z" fill="url(#paint0_radial_10_59)"/>
<g clip-path="url(#clip0_10_59)">
<path d="M55.6603 37.1875H35.1525C31.76 37.1875 29.0001 39.9474 29.0001 43.3398V63.8477C29.0001 67.2401 31.76 70 35.1525 70H55.6603C59.0527 70 61.8126 67.2401 61.8126 63.8477V43.3398C61.8126 39.9474 59.0527 37.1875 55.6603 37.1875ZM57.711 63.8477C57.711 64.9785 56.7911 65.8984 55.6603 65.8984H35.1525C34.0216 65.8984 33.1017 64.9785 33.1017 63.8477V43.3398C33.1017 42.209 34.0216 41.2891 35.1525 41.2891H55.6603C56.7911 41.2891 57.711 42.209 57.711 43.3398V63.8477ZM50.1085 12.9054L43.3556 19.6584L40.7041 17.007C39.9033 16.2061 38.6047 16.2061 37.8038 17.007C37.0029 17.8079 37.0029 19.1063 37.8038 19.9072L41.9054 24.0088C42.29 24.3934 42.8116 24.6094 43.3556 24.6094C43.8996 24.6094 44.4212 24.3934 44.8056 24.0086L53.0086 15.8055C53.8095 15.0046 53.8095 13.7062 53.0086 12.9053C52.2078 12.1044 50.9093 12.1044 50.1085 12.9054ZM92.8478 37.1875H72.34C68.9475 37.1875 66.1876 39.9474 66.1876 43.3398V63.8477C66.1876 67.2401 68.9475 70 72.34 70H92.8478C96.2402 70 99.0001 67.2401 99.0001 63.8477V43.3398C99.0001 39.9474 96.2402 37.1875 92.8478 37.1875ZM94.8985 63.8477C94.8985 64.9785 93.9786 65.8984 92.8478 65.8984H72.34C71.2091 65.8984 70.2892 64.9785 70.2892 63.8477V43.3398C70.2892 42.209 71.2091 41.2891 72.34 41.2891H92.8478C93.9786 41.2891 94.8985 42.209 94.8985 43.3398V63.8477ZM87.296 50.0929L80.5431 56.8459L77.8916 54.1945C77.0908 53.3936 75.7922 53.3936 74.9913 54.1945C74.1904 54.9954 74.1904 56.2938 74.9913 57.0947L79.0929 61.1963C79.4775 61.5809 79.9991 61.7969 80.5431 61.7969C81.0871 61.7969 81.6087 61.5809 81.9931 61.1961L90.1961 52.993C90.997 52.1921 90.997 50.8937 90.1961 50.0928C89.3953 49.2919 88.0968 49.292 87.296 50.0929ZM92.8478 0H72.34C68.9475 0 66.1876 2.75994 66.1876 6.15234V26.6602C66.1876 30.0526 68.9475 32.8125 72.34 32.8125H92.8478C96.2402 32.8125 99.0001 30.0526 99.0001 26.6602V6.15234C99.0001 2.75994 96.2402 0 92.8478 0ZM94.8985 26.6602C94.8985 27.791 93.9786 28.7109 92.8478 28.7109H72.34C71.2091 28.7109 70.2892 27.791 70.2892 26.6602V6.15234C70.2892 5.02154 71.2091 4.10156 72.34 4.10156H92.8478C93.9786 4.10156 94.8985 5.02154 94.8985 6.15234V26.6602ZM55.6603 0H35.1525C31.76 0 29.0001 2.75994 29.0001 6.15234V26.6602C29.0001 30.0526 31.76 32.8125 35.1525 32.8125H55.6603C59.0527 32.8125 61.8126 30.0526 61.8126 26.6602V6.15234C61.8126 2.75994 59.0527 0 55.6603 0ZM57.711 26.6602C57.711 27.791 56.7911 28.7109 55.6603 28.7109H35.1525C34.0216 28.7109 33.1017 27.791 33.1017 26.6602V6.15234C33.1017 5.02154 34.0216 4.10156 35.1525 4.10156H55.6603C56.7911 4.10156 57.711 5.02154 57.711 6.15234V26.6602Z" fill="url(#paint1_radial_10_59)"/>
</g>
<defs>
<radialGradient id="paint0_radial_10_59" cx="0" cy="0" r="1" gradientUnits="userSpaceOnUse" gradientTransform="translate(48.7043 88.4324) rotate(40.7211) scale(66.7828 274.397)">
<stop stop-color="#FF4F0D"/>
<stop offset="1" stop-color="#7AB694"/>
</radialGradient>
<radialGradient id="paint1_radial_10_59" cx="0" cy="0" r="1" gradientUnits="userSpaceOnUse" gradientTransform="translate(55.6419 11.3514) rotate(64.7292) scale(64.8553 208.06)">
<stop stop-color="#FF4F0D"/>
<stop offset="1" stop-color="#7AB694"/>
</radialGradient>
<clipPath id="clip0_10_59">
<rect width="70" height="70" fill="white" transform="translate(29.0001)"/>
</clipPath>
</defs>
</svg>
