<svg width="85" height="67" viewBox="0 0 85 67" fill="none" xmlns="http://www.w3.org/2000/svg">
<path d="M8.07864 0.3932C7.52003 -0.131067 6.62448 -0.131067 6.07474 0.3932C5.52499 0.909146 5.52499 1.75796 6.07474 2.28222L13.2303 9.0644C8.75252 11.0699 4.56738 13.4499 0.816717 16.1878L0.568446 16.3708C0.258107 16.5872 0.0630375 16.9118 0.00983667 17.2696C-0.0344973 17.6357 0.0719045 17.9936 0.311309 18.2765L41.3381 66.5007C41.6041 66.8169 42.0119 67 42.4375 67C42.8631 67 43.271 66.8169 43.537 66.5007L57.0766 50.5813L66.8922 59.8766C67.1759 60.1429 67.5306 60.2678 67.8942 60.2678C68.2577 60.2678 68.6212 60.1429 68.8961 59.8766C69.4459 59.3524 69.4459 58.5119 68.8961 57.9876L8.07864 0.3932Z" fill="#C4C4C4"/>
<path d="M84.2978 16.3707L84.0495 16.1793C78.49 12.135 63.3277 2.71484 42.4375 2.71484C35.7608 2.71484 29.0664 3.6968 22.5315 5.61911C22.0527 5.76058 21.6892 6.11841 21.5739 6.57611C21.4587 7.0338 21.6005 7.50814 21.9463 7.841L60.4283 44.2817C60.6943 44.5313 61.049 44.6728 61.4302 44.6728C61.4568 44.6728 61.4746 44.6728 61.5012 44.6728C61.9002 44.6562 62.2815 44.4731 62.5297 44.1735L84.5549 18.2764C84.7943 18.0018 84.9096 17.6356 84.8564 17.2695C84.812 16.9116 84.6081 16.5871 84.2978 16.3707Z" fill="#C4C4C4"/>
</svg>
