<svg width="84" height="62" viewBox="0 0 84 62" fill="none" xmlns="http://www.w3.org/2000/svg">
<path d="M77.0417 22.2131C76.6402 22.632 76.1079 22.8328 75.5755 22.8502C75.2614 22.8415 74.8076 22.7368 74.3974 22.2655C73.8825 21.6721 74.0134 20.8168 74.7901 19.7172C75.2265 19.1063 76.073 18.382 77.1988 18.0591C77.7137 18.3296 78.0366 18.7136 78.1587 19.2111C78.3769 20.1012 77.9406 21.2794 77.0417 22.2131ZM57.7987 49.7904C57.79 49.7904 57.7813 49.7991 57.7725 49.8078C57.7463 49.8253 57.7289 49.8515 57.7027 49.8689C57.6853 49.8864 57.6591 49.9125 57.6416 49.93C57.6242 49.9562 57.6067 49.9736 57.5893 49.9998C57.5718 50.026 57.5544 50.0435 57.5369 50.0696C57.5195 50.0958 57.5107 50.1307 57.502 50.1569C57.4845 50.1831 57.4758 50.2005 57.4671 50.2267C57.4584 50.2616 57.4496 50.2878 57.4409 50.3227C57.4322 50.3489 57.4322 50.3751 57.4235 50.4013C57.4235 50.4274 57.4235 50.4623 57.4147 50.4885C57.4147 50.5234 57.4147 50.5496 57.4147 50.5845C57.4147 50.5933 57.4147 50.602 57.4147 50.6107L58.2962 60.1755H51.8033L49.4994 54.948C49.4994 54.9306 49.4906 54.9218 49.4819 54.9044C49.4645 54.8782 49.447 54.8433 49.4296 54.8171C49.4121 54.7997 49.4034 54.7735 49.3859 54.756C49.3685 54.7298 49.3423 54.7037 49.3161 54.6775C49.2986 54.66 49.2812 54.6426 49.2637 54.6251C49.2376 54.5989 49.2114 54.5815 49.1852 54.564C49.1677 54.5466 49.1416 54.5378 49.1154 54.5204C49.0892 54.5029 49.063 54.4942 49.0368 54.4855C49.0107 54.468 48.9845 54.4593 48.9496 54.4506C48.9234 54.4418 48.9059 54.4331 48.8797 54.4244C48.8448 54.4157 48.8099 54.4157 48.775 54.4069C48.7488 54.4069 48.7314 54.4069 48.7139 54.3982C48.6703 54.3982 48.6354 54.3982 48.5918 54.4069C48.5743 54.4069 48.5481 54.4069 48.5307 54.4069C48.4958 54.4157 48.4521 54.4244 48.4172 54.4331C48.4085 54.4331 48.391 54.4331 48.3736 54.4418C44.8653 55.5589 41.296 56.0738 37.1333 56.0738C33.337 56.0738 30.0819 55.6462 26.8791 54.7124C26.8616 54.7124 26.8529 54.7124 26.8442 54.7037C26.8092 54.6949 26.7743 54.6949 26.7482 54.6862C26.7132 54.6862 26.6871 54.6775 26.6609 54.6775C26.626 54.6775 26.5998 54.6775 26.5736 54.6775C26.5387 54.6775 26.5125 54.6862 26.4776 54.6862C26.4514 54.6949 26.4253 54.6949 26.3991 54.7037C26.3642 54.7124 26.338 54.7211 26.3118 54.7298C26.2856 54.7386 26.2507 54.756 26.2245 54.7647C26.1984 54.7735 26.1722 54.7909 26.1547 54.7997C26.1285 54.8171 26.1024 54.8346 26.0762 54.852C26.05 54.8695 26.0325 54.8869 26.0064 54.9044C25.9889 54.9218 25.9627 54.948 25.9453 54.9742C25.9278 54.9916 25.9016 55.0091 25.8842 55.0353C25.8667 55.0615 25.858 55.0876 25.8406 55.1051C25.8231 55.14 25.8056 55.1662 25.7882 55.1924C25.7882 55.2011 25.7795 55.2098 25.7707 55.2185L23.5977 60.1755H17.0874L17.7594 51.0907C17.7594 51.0907 17.7594 51.082 17.7594 51.0732C17.7594 51.0383 17.7594 51.0034 17.7594 50.9685C17.7594 50.9423 17.7594 50.9161 17.7507 50.89C17.7507 50.8551 17.7419 50.8289 17.7332 50.794C17.7245 50.7678 17.7157 50.7416 17.707 50.7154C17.6983 50.6892 17.6808 50.6631 17.6721 50.6369C17.6547 50.6107 17.6459 50.5845 17.6285 50.5583C17.6197 50.5322 17.5936 50.506 17.5761 50.4885C17.5587 50.4623 17.5412 50.4362 17.5238 50.4187C17.5063 50.4013 17.4801 50.3751 17.4627 50.3576C17.4365 50.3402 17.419 50.314 17.3928 50.2965C17.3841 50.2965 17.3754 50.2878 17.3667 50.2791C12.7588 47.1199 9.52112 42.931 7.74955 37.8257C7.61864 37.4504 7.26956 37.2061 6.87685 37.2061L1.83266 37.1974V22.9724H6.83322C7.22593 22.9724 7.57501 22.728 7.70591 22.3615C9.93129 16.0606 13.4483 11.8717 18.7804 9.16631C19.1033 9.00923 19.2953 8.6776 19.2866 8.3198L11.6843 2.25327C17 2.00019 26 2.00017 31.5 4.50017L32.5 5.00017C32.1596 5.03508 32.6833 5.28816 32.5 5.00017C34 5.37881 35.4228 5.37881 37.1333 5.37881C39.1841 5.37881 41.2 5.50972 43.1461 5.77153L40.5455 11.5662C40.3448 12.02 40.5455 12.5524 40.9993 12.7618L44.7432 14.4549L41.2437 20.3543C41.1127 20.5725 41.0866 20.8343 41.1564 21.0786C41.2262 21.323 41.4007 21.5237 41.6364 21.6372L48.6616 25.032L47.1256 32.0397C47.0384 32.4499 47.2391 32.8601 47.6143 33.0433C47.9896 33.2353 48.4434 33.1393 48.7139 32.8339L55.6693 24.8923C55.9486 24.5781 55.9748 24.1156 55.7304 23.7753L52.5364 19.2285L55.521 17.0468C55.7217 16.8984 55.8526 16.6802 55.8875 16.4359C55.9224 16.2003 55.8526 15.9472 55.7042 15.7552L52.3182 11.4615L55.0672 9.41067C63.5236 13.7916 68.3583 21.2445 68.3583 29.954C68.3583 37.9042 64.6057 44.9469 57.7987 49.7904ZM83.2815 18.3907C81.379 16.3312 79.3805 15.9995 78.0278 16.0781C77.8096 16.0955 77.5915 16.1217 77.3733 16.1566C77.3471 16.1479 77.3122 16.1304 77.2773 16.1217C74.5545 15.2228 72.2069 15.2927 70.3045 16.3486C68.9867 17.073 68.1314 18.1464 67.5991 19.0714C65.1294 14.2803 60.9666 10.2921 55.3901 7.52564C55.0759 7.36856 54.7006 7.40347 54.4214 7.61291L50.4593 10.5626C50.2673 10.711 50.1364 10.9292 50.1015 11.1735C50.0753 11.4091 50.1364 11.6535 50.2935 11.8542L53.6709 16.1392L50.7299 18.286C50.3284 18.5827 50.2412 19.1325 50.5204 19.534L53.8105 24.2378L49.6826 28.9504L50.6164 24.7265C50.7037 24.3163 50.503 23.8974 50.119 23.7142L43.3294 20.4328L46.8376 14.5072C46.9685 14.289 47.0035 14.0185 46.9249 13.7742C46.8464 13.5298 46.6718 13.3291 46.4275 13.2244L42.5963 11.479L45.3191 5.41372C45.4326 5.16064 45.4239 4.86392 45.2842 4.61957C45.1533 4.36648 44.909 4.20067 44.6297 4.14831C42.2211 3.7556 39.699 3.5636 37.1333 3.5636C35.5537 3.5636 34 4.00017 32.5 3.50017C26.9597 -0.244982 16.7285 1.18858 11.9636 0.464242L9.17967 0.0366211C8.97649 0.0366162 8.66082 0.114581 8.42042 0.254795C8 0.5 8 1.5 8.5 2L16.5 8.3198C11.1853 11.1648 8.51752 14.9261 6.18742 21.1485H0.916331C0.410168 21.1485 0 21.5586 0 22.0561V38.105C0 38.6111 0.410168 39.0126 0.916331 39.0126L6.23106 39.0213C8.11608 44.0655 11.3625 48.2457 15.8918 51.466L15.1849 61.022C15.1675 61.2751 15.2547 61.5194 15.4293 61.7027C15.5951 61.8947 15.8394 61.9994 16.1013 61.9994H24.1999C24.5664 61.9994 24.8893 61.7812 25.0377 61.4496L27.1409 56.6759C30.2651 57.505 33.4679 57.8977 37.1333 57.8977C41.1826 57.8977 44.6995 57.4265 48.1467 56.4141L50.3546 61.4496C50.503 61.7812 50.8346 61.9994 51.2011 61.9994H59.2998C59.5528 61.9994 59.8059 61.8859 59.9805 61.7027C60.155 61.5107 60.2335 61.2576 60.2161 61.0045L59.291 50.9511C66.325 45.776 70.191 38.3406 70.191 29.954C70.191 26.917 69.6499 24.0109 68.6114 21.323C68.7336 20.8866 69.4056 18.9231 71.2208 17.9282C72.1633 17.4046 73.2891 17.2213 74.5719 17.3609C74.0745 17.7362 73.6382 18.1813 73.2891 18.6787C71.5611 21.1135 72.364 22.7106 73.036 23.4873C73.6731 24.2203 74.5632 24.6392 75.5319 24.6654C75.5581 24.6654 75.593 24.6654 75.6279 24.6654C76.6402 24.6654 77.6351 24.2291 78.3682 23.4698C79.7121 22.0735 80.3143 20.2758 79.939 18.7747C79.8779 18.5391 79.7994 18.3122 79.6947 18.1027C80.4888 18.3645 81.2393 18.8794 81.9201 19.6125C82.2604 19.9878 82.8364 20.0139 83.2116 19.6736C83.5869 19.342 83.6218 18.766 83.2815 18.3907Z" fill="#C4C4C4"/>
<path d="M21.5352 15.464C21.0714 14.9992 20.5203 14.6305 19.9135 14.3793C19.3068 14.1281 18.6565 13.9992 17.9998 14C15.2385 14 13 16.2386 13 19C13 20.3807 13.5599 21.631 14.4648 22.536C14.9286 23.0008 15.4797 23.3695 16.0865 23.6207C16.6932 23.8719 17.3435 24.0008 18.0002 24C20.7615 24 23 21.7614 23 19C23 17.6193 22.4401 16.369 21.5352 15.464V15.464ZM20.8928 21.8914C20.5133 22.2719 20.0624 22.5736 19.566 22.7792C19.0696 22.9848 18.5375 23.0903 18.0002 23.0897C15.7409 23.0897 13.9095 21.2581 13.9095 18.9988C13.9088 18.4614 14.0143 17.9293 14.2199 17.4328C14.4255 16.9364 14.7272 16.4855 15.1077 16.1061C15.487 15.7256 15.9378 15.4239 16.4341 15.2183C16.9305 15.0127 17.4626 14.9072 17.9998 14.9078C20.2587 14.9078 22.0901 16.7394 22.0901 18.9983C22.0908 19.5356 21.9853 20.0677 21.7797 20.5641C21.5741 21.0604 21.2724 21.5112 20.8919 21.8906L20.8928 21.8914Z" fill="#C4C4C4"/>
<path d="M18.5361 18.9887L19.8769 17.6399C19.943 17.5674 19.9788 17.472 19.9767 17.3736C19.9745 17.2752 19.9347 17.1815 19.8655 17.1119C19.7963 17.0423 19.7031 17.0023 19.6053 17.0003C19.5074 16.9982 19.4126 17.0342 19.3406 17.1008L19.3409 17.1004L18.0001 18.4492L16.6593 17.1004C16.5872 17.0339 16.4923 16.998 16.3945 17.0001C16.2967 17.0022 16.2035 17.0423 16.1343 17.1119C16.0652 17.1815 16.0254 17.2753 16.0234 17.3737C16.0213 17.4721 16.0571 17.5675 16.1233 17.6399L16.1229 17.6396L17.4638 18.9883L16.1229 20.337C16.0852 20.3718 16.0549 20.414 16.0338 20.4609C16.0127 20.5078 16.0012 20.5585 16.0001 20.61C15.999 20.6615 16.0082 20.7127 16.0273 20.7605C16.0464 20.8083 16.0749 20.8517 16.1111 20.8881C16.1472 20.9245 16.1904 20.9532 16.2379 20.9724C16.2854 20.9917 16.3363 21.001 16.3874 20.9999C16.4386 20.9988 16.4891 20.9873 16.5357 20.9661C16.5824 20.9449 16.6243 20.9144 16.6589 20.8765L16.6593 20.8762L18.0001 19.5274L19.3409 20.8762C19.3755 20.9141 19.4174 20.9446 19.4641 20.9659C19.5107 20.9871 19.5611 20.9986 19.6123 20.9997C19.6635 21.0009 19.7144 20.9915 19.7619 20.9724C19.8094 20.9532 19.8526 20.9245 19.8888 20.8881C19.925 20.8517 19.9535 20.8083 19.9726 20.7605C19.9917 20.7128 20.001 20.6616 19.9999 20.6101C19.9988 20.5586 19.9874 20.5079 19.9663 20.461C19.9453 20.414 19.9149 20.3719 19.8772 20.337L19.8769 20.3367L18.5361 18.9887Z" fill="#C4C4C4"/>
</svg>
