<svg width="8" height="8" viewBox="0 0 8 8" fill="none" xmlns="http://www.w3.org/2000/svg">
<path fill-rule="evenodd" clip-rule="evenodd" d="M0.5 4C0.5 4.92826 0.868749 5.8185 1.52513 6.47487C2.1815 7.13125 3.07174 7.5 4 7.5C4.92826 7.5 5.8185 7.13125 6.47487 6.47487C7.13125 5.8185 7.5 4.92826 7.5 4C7.5 3.07174 7.13125 2.1815 6.47487 1.52513C5.8185 0.868749 4.92826 0.5 4 0.5C3.07174 0.5 2.1815 0.868749 1.52513 1.52513C0.868749 2.1815 0.5 3.07174 0.5 4V4ZM8 4C8 5.06087 7.57857 6.07828 6.82843 6.82843C6.07828 7.57857 5.06087 8 4 8C2.93913 8 1.92172 7.57857 1.17157 6.82843C0.421427 6.07828 0 5.06087 0 4C0 2.93913 0.421427 1.92172 1.17157 1.17157C1.92172 0.421427 2.93913 0 4 0C5.06087 0 6.07828 0.421427 6.82843 1.17157C7.57857 1.92172 8 2.93913 8 4V4ZM2.927 5.4015C2.88012 5.44844 2.81652 5.47484 2.75018 5.47489C2.68384 5.47494 2.62019 5.44863 2.57325 5.40175C2.52631 5.35487 2.49991 5.29127 2.49986 5.22493C2.49981 5.15859 2.52612 5.09494 2.573 5.048L4.6215 3H3.2375C3.1712 3 3.10761 2.97366 3.06072 2.92678C3.01384 2.87989 2.9875 2.8163 2.9875 2.75C2.9875 2.6837 3.01384 2.62011 3.06072 2.57322C3.10761 2.52634 3.1712 2.5 3.2375 2.5H5.225C5.2913 2.5 5.35489 2.52634 5.40178 2.57322C5.44866 2.62011 5.475 2.6837 5.475 2.75V4.7375C5.475 4.8038 5.44866 4.86739 5.40178 4.91428C5.35489 4.96116 5.2913 4.9875 5.225 4.9875C5.1587 4.9875 5.09511 4.96116 5.04822 4.91428C5.00134 4.86739 4.975 4.8038 4.975 4.7375V3.3535L2.927 5.4015V5.4015Z" fill="#B0B5B7"/>
</svg>
