<svg width="25" height="25" viewBox="0 0 25 25" fill="none" xmlns="http://www.w3.org/2000/svg">
<circle cx="12.5" cy="12.5" r="12.5" fill="white"/>
<path d="M12.5 25C19.4036 25 25 19.4036 25 12.5C25 5.59644 19.4036 0 12.5 0C5.59644 0 0 5.59644 0 12.5C0 19.4036 5.59644 25 12.5 25Z" fill="#172852"/>
<path d="M10.0687 5.58624C11.5325 5.03874 13.18 5.03749 14.6712 5.48749C16.6125 6.08999 18.2512 7.55499 19.1075 9.39374C19.3437 9.91749 19.57 10.4637 19.5925 11.0462C18.5012 10.4137 17.305 10.0037 16.1062 9.62999C14.1887 8.93875 12.1812 8.45874 10.3662 7.50874C9.94372 7.25624 9.40497 6.99749 9.28997 6.47124C9.24372 6.01624 9.72497 5.76249 10.0687 5.58624Z" fill="#FFD83D"/>
<path d="M5.65004 10.0112C6.07379 8.86119 6.76879 7.79369 7.71254 7.00244C7.95254 8.97619 8.79254 10.8837 10.18 12.3187C11.8438 14.0474 14.2138 15.1087 16.625 15.0687C17.5825 15.0987 18.5188 14.8774 19.4525 14.6987C18.5338 18.0187 14.895 20.2224 11.5238 19.6924C9.48879 19.4324 7.61004 18.2274 6.47629 16.5262C5.19754 14.6462 4.87504 12.1499 5.65004 10.0112Z" fill="#FFD83D"/>
<path d="M16.1062 9.62988C17.305 10.0036 18.5012 10.4136 19.5925 11.0461L19.6662 11.0849C19.7675 11.8461 19.8412 12.6224 19.7062 13.3849C19.1575 13.1524 18.7125 12.7436 18.2475 12.3824C17.3525 11.6374 16.4387 10.7849 16.1062 9.62988Z" fill="#FF6F03"/>
</svg>
