<svg width="227" height="209" viewBox="0 0 227 209" fill="none" xmlns="http://www.w3.org/2000/svg">
<path d="M70.0525 199.806C72.1966 202.063 74.4587 204.205 76.8294 206.222H179.035C190.305 195.508 200.973 180.129 210.321 158.871C210.321 158.871 226.877 116.954 223.023 80.2113C219.169 43.4684 195.035 14.4335 160.849 8.24947C126.663 2.06543 96.2756 35.9781 58.1198 47.7347C19.9641 59.4913 -7.98223 90.9998 2.06046 133.264C12.1032 175.529 40.1467 168.256 70.0525 199.806Z" fill="#263238"/>
<path d="M26.88 80.4893H200.589C201.874 80.4893 203.106 80.9997 204.015 81.9084C204.924 82.8171 205.434 84.0495 205.434 85.3346V199.519H22.0393V85.3299C22.0405 84.0465 22.5509 82.816 23.4585 81.9084C24.366 81.0009 25.5965 80.4905 26.88 80.4893V80.4893Z" fill="white" stroke="#263238" stroke-linecap="round" stroke-linejoin="round"/>
<path d="M197.981 89.7862H29.4788V185.011H197.981V89.7862Z" stroke="#263238" stroke-linecap="round" stroke-linejoin="round"/>
<path d="M177.164 193.789H51.1345V199.996H177.164V193.789Z" fill="#263238" stroke="#263238" stroke-linecap="round" stroke-linejoin="round"/>
<path d="M177.164 196.777H51.1345V199.996H177.164V196.777Z" fill="white" stroke="#263238" stroke-linecap="round" stroke-linejoin="round"/>
<path d="M7.20679 203.674C7.20679 203.674 9.2774 206.208 15.4892 208.274H212.823C212.823 208.274 217.422 207.125 219.493 203.906L7.20679 203.674Z" fill="#263238" stroke="#263238" stroke-linecap="round" stroke-linejoin="round"/>
<path d="M219.048 199.144H7.66553C7.18201 199.144 6.79004 199.536 6.79004 200.02V203.105C6.79004 203.588 7.18201 203.98 7.66553 203.98H219.048C219.532 203.98 219.924 203.588 219.924 203.105V200.02C219.924 199.536 219.532 199.144 219.048 199.144Z" fill="white" stroke="#263238" stroke-linecap="round" stroke-linejoin="round"/>
<path d="M115.3 84.0886C115.301 83.7696 115.207 83.4574 115.031 83.1917C114.854 82.926 114.603 82.7187 114.308 82.596C114.014 82.4732 113.69 82.4407 113.377 82.5023C113.064 82.564 112.776 82.7172 112.55 82.9424C112.324 83.1677 112.17 83.4549 112.107 83.7677C112.045 84.0806 112.077 84.4049 112.198 84.6998C112.32 84.9946 112.527 85.2466 112.792 85.424C113.057 85.6013 113.369 85.696 113.688 85.696C114.115 85.696 114.524 85.5268 114.826 85.2255C115.129 84.9241 115.299 84.5153 115.3 84.0886V84.0886Z" fill="white" stroke="#263238" stroke-linecap="round" stroke-linejoin="round"/>
<path d="M0.819092 208.274H226.409" stroke="#263238" stroke-linecap="round" stroke-linejoin="round"/>
<path d="M128.308 107.657C128.869 107.098 129.283 106.408 129.515 105.651C129.747 104.893 129.789 104.09 129.637 103.312L126.603 106.342C126.43 106.511 126.197 106.607 125.954 106.607C125.712 106.607 125.479 106.511 125.306 106.342L122.786 103.822C122.616 103.649 122.521 103.416 122.521 103.173C122.521 102.931 122.616 102.698 122.786 102.525L125.815 99.4906C124.968 99.3278 124.093 99.3945 123.28 99.6837C122.467 99.9729 121.746 100.474 121.192 101.136C120.638 101.797 120.27 102.594 120.128 103.445C119.986 104.296 120.073 105.17 120.382 105.976L112.553 113.624L111.798 112.868L113.03 111.636C113.088 111.573 113.121 111.49 113.121 111.405C113.121 111.319 113.088 111.236 113.03 111.173L112.076 110.223C112.014 110.163 111.931 110.13 111.845 110.13C111.758 110.13 111.675 110.163 111.613 110.223L111.15 110.687L110.117 109.658L110.515 109.26C110.596 109.174 110.641 109.061 110.641 108.943C110.641 108.825 110.596 108.711 110.515 108.625L101.973 100.084C101.77 99.88 101.528 99.7186 101.262 99.6084C100.997 99.4983 100.712 99.4416 100.424 99.4416C100.136 99.4416 99.8511 99.4983 99.5852 99.6084C99.3194 99.7186 99.0778 99.88 98.8744 100.084L98.0035 100.954C97.8 101.158 97.6385 101.399 97.5284 101.665C97.4183 101.931 97.3616 102.216 97.3616 102.504C97.3616 102.792 97.4183 103.077 97.5284 103.342C97.6385 103.608 97.8 103.85 98.0035 104.053L106.545 112.595C106.631 112.676 106.745 112.721 106.863 112.721C106.981 112.721 107.094 112.676 107.18 112.595L107.574 112.197L108.607 113.23L108.143 113.693C108.083 113.755 108.05 113.838 108.05 113.925C108.05 114.011 108.083 114.094 108.143 114.156L109.07 115.111C109.133 115.168 109.216 115.201 109.302 115.201C109.387 115.201 109.47 115.168 109.533 115.111L110.765 113.878L111.506 114.619L105.021 120.952C104.216 120.642 103.341 120.553 102.49 120.695C101.638 120.836 100.84 121.204 100.178 121.758C99.5162 122.313 99.0149 123.034 98.7262 123.848C98.4375 124.662 98.3719 125.538 98.5362 126.385L101.57 123.356C101.743 123.186 101.976 123.091 102.219 123.091C102.461 123.091 102.694 123.186 102.867 123.356L105.387 125.876C105.557 126.049 105.652 126.282 105.652 126.524C105.652 126.767 105.557 127 105.387 127.173L102.358 130.207C103.205 130.37 104.081 130.303 104.893 130.014C105.706 129.725 106.427 129.223 106.981 128.562C107.536 127.901 107.903 127.103 108.045 126.252C108.188 125.401 108.1 124.528 107.791 123.722L114.277 117.394L123.124 126.242C122.998 126.569 122.969 126.927 123.041 127.27C123.113 127.614 123.284 127.929 123.532 128.178L125.667 130.314L128.229 127.752L126.093 125.616C125.845 125.369 125.529 125.198 125.186 125.126C124.842 125.053 124.485 125.082 124.157 125.209L115.31 116.403L123.133 108.764C124.01 109.102 124.966 109.177 125.885 108.98C126.804 108.784 127.646 108.324 128.308 107.657V107.657Z" fill="#263238" stroke="#263238" stroke-linecap="round" stroke-linejoin="round"/>
<path d="M101.028 142.617C101.028 143.543 101.394 144.085 102.223 144.085C103.053 144.085 103.4 143.534 103.4 142.617V134.83H104.465V142.561C104.465 144.104 103.752 145.137 102.177 145.137C100.602 145.137 99.9073 144.104 99.9073 142.561V134.83H101.028V142.617Z" fill="#263238"/>
<path d="M106.587 145.021H105.568V134.83H107.008L109.366 142.195V134.83H110.372V145.021H109.213L106.587 136.785V145.021Z" fill="#263238"/>
<path d="M113.925 134.83C115.509 134.83 116.241 135.793 116.241 137.364V142.501C116.241 144.057 115.513 145.021 113.925 145.021H111.53V134.83H113.925ZM113.925 143.983C114.74 143.983 115.134 143.478 115.134 142.543V137.304C115.134 136.377 114.74 135.863 113.911 135.863H112.688V143.983H113.925Z" fill="#263238"/>
<path d="M120.924 139.342V140.361H118.432V143.983H121.489V145.021H117.297V134.83H121.489V135.858H118.432V139.337L120.924 139.342Z" fill="#263238"/>
<path d="M124.806 134.83C126.408 134.83 127.075 135.645 127.075 137.146V137.975C127.075 139.096 126.682 139.796 125.811 140.074C126.737 140.347 127.089 141.107 127.089 142.195V143.784C127.058 144.202 127.128 144.622 127.293 145.007H126.144C125.984 144.614 125.919 144.189 125.954 143.766V142.167C125.954 141.019 125.417 140.653 124.472 140.653H123.671V145.007H122.536V134.816L124.806 134.83ZM124.5 139.634C125.426 139.634 125.94 139.342 125.94 138.244V137.248C125.94 136.322 125.607 135.858 124.764 135.858H123.657V139.629L124.5 139.634Z" fill="#263238"/>
<path d="M86.6452 158.093V159.02H85.5891V158.042C85.5891 157.116 85.2232 156.574 84.394 156.574C83.5648 156.574 83.1989 157.125 83.1989 158.042V163.42C83.1989 164.347 83.5787 164.889 84.394 164.889C85.2093 164.889 85.5891 164.337 85.5891 163.42V162.095H86.6638V163.36C86.6638 164.902 85.9365 165.922 84.3477 165.922C82.7588 165.922 82.064 164.902 82.064 163.36V158.093C82.064 156.551 82.7912 155.531 84.3477 155.531C85.9041 155.531 86.6452 156.551 86.6452 158.093Z" fill="#263238"/>
<path d="M87.5902 158.093C87.5902 156.537 88.3638 155.531 89.9063 155.531C91.4489 155.531 92.2502 156.537 92.2502 158.093V163.36C92.2502 164.902 91.4767 165.922 89.9063 165.922C88.336 165.922 87.5902 164.902 87.5902 163.36V158.093ZM88.7112 163.42C88.7112 164.347 89.105 164.889 89.9202 164.889C90.7355 164.889 91.1292 164.351 91.1292 163.42V158.033C91.1292 157.106 90.7494 156.564 89.9202 156.564C89.0911 156.564 88.7112 157.116 88.7112 158.033V163.42Z" fill="#263238"/>
<path d="M94.344 165.82H93.325V155.629H94.7656L97.1234 162.994V155.629H98.1286V165.82H96.9474L94.344 157.584V165.82Z" fill="#263238"/>
<path d="M103.701 158.093V158.366H102.622V158.033C102.622 157.106 102.274 156.578 101.459 156.578C100.644 156.578 100.296 157.116 100.296 158.019C100.296 160.303 103.715 160.52 103.715 163.388C103.715 164.93 102.974 165.935 101.399 165.935C99.824 165.935 99.1152 164.93 99.1152 163.388V162.809H100.181V163.448C100.181 164.374 100.556 164.902 101.371 164.902C102.186 164.902 102.566 164.365 102.566 163.448C102.566 161.178 99.1616 160.96 99.1616 158.093C99.1616 156.518 99.8888 155.545 101.417 155.545C102.946 155.545 103.701 156.537 103.701 158.093Z" fill="#263238"/>
<path d="M106.189 165.82V156.666H104.308V155.633H109.214V156.666H107.337V165.82H106.189Z" fill="#263238"/>
<path d="M112.257 155.633C113.855 155.633 114.527 156.449 114.527 157.949V158.783C114.527 159.9 114.133 160.599 113.262 160.877C114.189 161.155 114.541 161.91 114.541 163.003V164.578C114.506 164.996 114.576 165.417 114.744 165.801H113.596C113.433 165.41 113.368 164.986 113.406 164.564V162.962C113.406 161.813 112.868 161.451 111.919 161.451H111.122V165.801H109.987V155.61L112.257 155.633ZM111.965 160.437C112.868 160.437 113.406 160.145 113.406 159.047V158.07C113.406 157.143 113.072 156.68 112.224 156.68H111.122V160.451L111.965 160.437Z" fill="#263238"/>
<path d="M116.797 163.42C116.797 164.347 117.158 164.889 117.987 164.889C118.816 164.889 119.168 164.337 119.168 163.42V155.633H120.229V163.36C120.229 164.902 119.516 165.935 117.945 165.935C116.375 165.935 115.676 164.902 115.676 163.36V155.633H116.797V163.42Z" fill="#263238"/>
<path d="M125.848 158.093V159.02H124.769V158.042C124.769 157.116 124.407 156.574 123.578 156.574C122.749 156.574 122.383 157.125 122.383 158.042V163.42C122.383 164.347 122.763 164.889 123.578 164.889C124.393 164.889 124.769 164.337 124.769 163.42V162.095H125.848V163.36C125.848 164.902 125.121 165.922 123.532 165.922C121.943 165.922 121.248 164.902 121.248 163.36V158.093C121.248 156.551 121.975 155.531 123.532 155.531C125.088 155.531 125.848 156.551 125.848 158.093Z" fill="#263238"/>
<path d="M128.363 165.82V156.666H126.51V155.633H131.397V156.666H129.544V165.82H128.363Z" fill="#263238"/>
<path d="M133.301 155.633V165.824H132.166V155.633H133.301Z" fill="#263238"/>
<path d="M134.371 158.093C134.371 156.537 135.145 155.531 136.687 155.531C138.23 155.531 139.031 156.537 139.031 158.093V163.36C139.031 164.902 138.258 165.922 136.687 165.922C135.117 165.922 134.371 164.902 134.371 163.36V158.093ZM135.492 163.42C135.492 164.347 135.886 164.889 136.701 164.889C137.517 164.889 137.91 164.351 137.91 163.42V158.033C137.91 157.106 137.53 156.564 136.701 156.564C135.872 156.564 135.492 157.116 135.492 158.033V163.42Z" fill="#263238"/>
<path d="M141.125 165.82H140.106V155.629H141.546L143.904 162.994V155.629H144.909V165.82H143.728L141.125 157.584V165.82Z" fill="#263238"/>
<path d="M149.625 147.726H75.7317V152.131H149.625V147.726Z" fill="#B0B5B7"/>
<path d="M104.632 147.726H99.7128L97.1882 152.127H102.108L104.632 147.726Z" fill="#263238"/>
<path d="M149.625 152.127V148.152L147.346 152.127H149.625Z" fill="#263238"/>
<path d="M114.661 147.726H109.742L107.222 152.127H112.141L114.661 147.726Z" fill="#263238"/>
<path d="M94.5987 147.726H89.6792L87.1547 152.127H92.0787L94.5987 147.726Z" fill="#263238"/>
<path d="M77.126 152.127H82.0454L84.57 147.726H79.6459L77.126 152.127Z" fill="#263238"/>
<path d="M144.757 147.726H139.837L137.317 152.127H142.237L144.757 147.726Z" fill="#263238"/>
<path d="M124.694 147.726H119.775L117.25 152.127H122.174L124.694 147.726Z" fill="#263238"/>
<path d="M134.728 147.726H129.804L127.284 152.127H132.203L134.728 147.726Z" fill="#263238"/>
<path d="M42.157 157.051L29.5017 205.397H57.7259L45.0707 157.051C44.9937 156.722 44.8079 156.429 44.5435 156.219C44.279 156.01 43.9514 155.896 43.6138 155.896C43.2763 155.896 42.9487 156.01 42.6842 156.219C42.4197 156.429 42.2339 156.722 42.157 157.051V157.051Z" fill="#B0B5B7" stroke="#263238" stroke-linecap="round" stroke-linejoin="round"/>
<path d="M29.5017 205.397H52.4961L40.9989 161.47L29.5017 205.397Z" fill="#263238" stroke="#263238" stroke-linecap="round" stroke-linejoin="round"/>
<path d="M60.5748 204.337H25.3697C24.3464 204.337 23.5168 205.166 23.5168 206.19V206.426C23.5168 207.449 24.3464 208.279 25.3697 208.279H60.5748C61.5981 208.279 62.4277 207.449 62.4277 206.426V206.19C62.4277 205.166 61.5981 204.337 60.5748 204.337Z" fill="#B0B5B7" stroke="#263238" stroke-linecap="round" stroke-linejoin="round"/>
<path d="M48.5263 204.337H25.3697C24.3464 204.337 23.5168 205.166 23.5168 206.19V206.426C23.5168 207.449 24.3464 208.279 25.3697 208.279H48.5263C49.5496 208.279 50.3792 207.449 50.3792 206.426V206.19C50.3792 205.166 49.5496 204.337 48.5263 204.337Z" fill="#263238" stroke="#263238" stroke-linecap="round" stroke-linejoin="round"/>
<path d="M34.5509 186.113H52.6769L50.4858 177.738H36.742L34.5509 186.113Z" fill="white" stroke="#263238" stroke-linecap="round" stroke-linejoin="round"/>
<path d="M34.5509 186.113H47.4517L45.2606 177.738H36.742L34.5509 186.113Z" fill="#BABABA" stroke="#263238" stroke-linecap="round" stroke-linejoin="round"/>
<path d="M116.663 55.6618C118.25 54.0753 118.25 51.5031 116.663 49.9166C115.077 48.3301 112.505 48.3301 110.918 49.9166C109.332 51.5031 109.332 54.0753 110.918 55.6618C112.505 57.2483 115.077 57.2483 116.663 55.6618Z" fill="white" stroke="#263238" stroke-linecap="round" stroke-linejoin="round"/>
<path d="M113.906 19.9783V1" stroke="#263238" stroke-width="2" stroke-linecap="round" stroke-linejoin="round"/>
<path d="M113.906 32.5131V19.9783" stroke="#808080" stroke-width="2" stroke-miterlimit="10"/>
<path d="M107.611 32.5131L95.071 54.2383H132.481L119.937 32.5131H107.611Z" fill="#B0B5B7" stroke="#263238" stroke-width="0.972732" stroke-miterlimit="10"/>
<path d="M108.871 32.5131L98.8881 54.2383H128.664L118.682 32.5131H108.871Z" fill="#263238" stroke="#263238" stroke-linecap="round" stroke-linejoin="round"/>
<path d="M79.4235 80.4893H26.88C25.5962 80.4893 24.3649 80.9993 23.4571 81.9071C22.5493 82.8149 22.0393 84.0462 22.0393 85.33V177.085L79.4235 80.4893Z" fill="#808080" stroke="#263238" stroke-miterlimit="10"/>
<path d="M148.031 80.4893H200.575C201.859 80.4893 203.09 80.9993 203.998 81.9071C204.906 82.8149 205.416 84.0462 205.416 85.33V177.368L148.031 80.4893Z" fill="#808080" stroke="#263238" stroke-miterlimit="10"/>
<path d="M79.4235 80.4893L22.0393 177.099" stroke="#263238" stroke-linecap="round" stroke-linejoin="round"/>
<path d="M148.031 80.4893L205.416 177.368" stroke="#263238" stroke-linecap="round" stroke-linejoin="round"/>
<path d="M29.4786 164.722V89.7861H73.6887" stroke="#263238" stroke-linecap="round" stroke-linejoin="round"/>
<path d="M153.641 89.7861H197.976V165.102" stroke="#263238" stroke-linecap="round" stroke-linejoin="round"/>
<path d="M148.032 80.4893L132.481 54.2384H95.0712L79.4235 80.4893" fill="white" fill-opacity="0.3"/>
<path d="M148.032 80.4893L132.481 54.2384H95.0712L79.4235 80.4893" stroke="#263238" stroke-miterlimit="10"/>
</svg>
