<svg width="113" height="77" viewBox="0 0 113 77" fill="none" xmlns="http://www.w3.org/2000/svg">
<path d="M56.7461 8.83774C57.1203 9.21197 57.1203 9.8186 56.7461 10.1928C56.5587 10.3802 56.3139 10.4736 56.0685 10.4736C55.8232 10.4736 55.5783 10.3802 55.391 10.1928C52.0272 6.82955 46.5561 6.82955 43.1928 10.1928C42.8186 10.5671 42.212 10.5671 41.8378 10.1928C41.4635 9.8186 41.4635 9.21197 41.8378 8.83774C45.9476 4.72745 52.6358 4.72745 56.7461 8.83774ZM76.125 39.2917C76.125 40.3156 75.7263 41.2783 75.0018 42.0018C74.2783 42.7263 73.3157 43.125 72.2917 43.125C71.2677 43.125 70.3051 42.7263 69.5815 42.0018L59.519 31.9393C59.1448 31.5651 59.1448 30.9585 59.519 30.5842L60.8741 29.2292L58.749 27.1041C56.219 29.3192 52.9108 30.6667 49.2917 30.6667C41.3653 30.6667 34.9167 24.218 34.9167 16.2917C34.9167 8.36528 41.3653 1.91666 49.2917 1.91666C57.2181 1.91666 63.6667 8.36528 63.6667 16.2917C63.6667 19.9108 62.3193 23.219 60.1041 25.749L62.2292 27.8741L63.5843 26.519C63.9585 26.1448 64.5651 26.1448 64.9393 26.519L75.0018 36.5815C75.7263 37.305 76.125 38.2677 76.125 39.2917ZM61.75 16.2917C61.75 9.42232 56.1615 3.83332 49.2917 3.83332C42.4219 3.83332 36.8333 9.42232 36.8333 16.2917C36.8333 23.161 42.4219 28.75 49.2917 28.75C56.1615 28.75 61.75 23.161 61.75 16.2917ZM74.2083 39.2917C74.2083 38.7799 74.009 38.2988 73.6468 37.9366L64.2618 28.5516L61.5516 31.2618L70.9366 40.6468C71.6611 41.3713 72.9227 41.3713 73.6468 40.6468C74.009 40.2845 74.2083 39.8034 74.2083 39.2917Z" fill="#B0B5B7"/>
<path d="M8.04037 70V58.8H9.84038L14.9764 66.992V58.8H16.6404V70H14.8484L9.69638 61.808V70H8.04037ZM21.9331 70.208C21.1971 70.208 20.5251 70.0187 19.9171 69.64C19.3145 69.2613 18.8318 68.7547 18.4691 68.12C18.1118 67.48 17.9331 66.7733 17.9331 66C17.9331 65.4133 18.0371 64.8667 18.2451 64.36C18.4531 63.848 18.7385 63.4 19.1011 63.016C19.4691 62.6267 19.8958 62.3227 20.3811 62.104C20.8665 61.8853 21.3838 61.776 21.9331 61.776C22.6691 61.776 23.3385 61.9653 23.9411 62.344C24.5491 62.7227 25.0318 63.232 25.3891 63.872C25.7518 64.512 25.9331 65.2213 25.9331 66C25.9331 66.5813 25.8291 67.1253 25.6211 67.632C25.4131 68.1387 25.1251 68.5867 24.7571 68.976C24.3945 69.36 23.9705 69.6613 23.4851 69.88C23.0051 70.0987 22.4878 70.208 21.9331 70.208ZM21.9331 68.544C22.3758 68.544 22.7731 68.4267 23.1251 68.192C23.4771 67.9573 23.7545 67.648 23.9571 67.264C24.1651 66.8747 24.2691 66.4533 24.2691 66C24.2691 65.536 24.1625 65.1093 23.9491 64.72C23.7411 64.3307 23.4611 64.0213 23.1091 63.792C22.7571 63.5573 22.3651 63.44 21.9331 63.44C21.4958 63.44 21.0985 63.5573 20.7411 63.792C20.3891 64.0267 20.1091 64.3387 19.9011 64.728C19.6985 65.1173 19.5971 65.5413 19.5971 66C19.5971 66.4747 19.7038 66.904 19.9171 67.288C20.1305 67.672 20.4131 67.9787 20.7651 68.208C21.1225 68.432 21.5118 68.544 21.9331 68.544ZM38.61 65.816V70H36.946V65.848C36.946 65.3947 36.85 64.9813 36.658 64.608C36.4713 64.2347 36.2207 63.9387 35.906 63.72C35.5913 63.5013 35.242 63.392 34.858 63.392C34.442 63.392 34.0873 63.5013 33.794 63.72C33.5007 63.9387 33.274 64.2347 33.114 64.608C32.9593 64.9813 32.882 65.3947 32.882 65.848V70H31.21V58H32.874V62.936C33.098 62.504 33.3913 62.2053 33.754 62.04C34.122 61.8693 34.5433 61.784 35.018 61.784C35.738 61.784 36.3647 61.968 36.898 62.336C37.4313 62.704 37.8473 63.1947 38.146 63.808C38.4447 64.416 38.5993 65.0853 38.61 65.816ZM40.21 62H41.874V70H40.21V62ZM41.05 60.68C40.7993 60.68 40.5887 60.5973 40.418 60.432C40.2473 60.2667 40.162 60.0587 40.162 59.808C40.162 59.5627 40.2473 59.3573 40.418 59.192C40.5887 59.0213 40.7993 58.936 41.05 58.936C41.2953 58.936 41.5033 59.0213 41.674 59.192C41.8447 59.3573 41.93 59.5627 41.93 59.808C41.93 60.0587 41.8447 60.2667 41.674 60.432C41.5033 60.5973 41.2953 60.68 41.05 60.68ZM46.7681 70.152C46.3468 70.1253 45.9361 70.04 45.5361 69.896C45.1361 69.752 44.7841 69.5573 44.4801 69.312C44.1815 69.0613 43.9575 68.768 43.8081 68.432L45.2241 67.824C45.2935 67.968 45.4135 68.1093 45.5841 68.248C45.7601 68.3867 45.9655 68.5013 46.2001 68.592C46.4348 68.6773 46.6801 68.72 46.9361 68.72C47.1868 68.72 47.4188 68.6853 47.6321 68.616C47.8508 68.5413 48.0295 68.4293 48.1681 68.28C48.3068 68.1307 48.3761 67.952 48.3761 67.744C48.3761 67.5093 48.2961 67.328 48.1361 67.2C47.9815 67.0667 47.7868 66.9653 47.5521 66.896C47.3175 66.8267 47.0828 66.76 46.8481 66.696C46.3255 66.5787 45.8455 66.4187 45.4081 66.216C44.9761 66.008 44.6321 65.744 44.3761 65.424C44.1201 65.0987 43.9921 64.7013 43.9921 64.232C43.9921 63.72 44.1281 63.2773 44.4001 62.904C44.6775 62.5253 45.0428 62.2347 45.4961 62.032C45.9495 61.8293 46.4321 61.728 46.9441 61.728C47.5841 61.728 48.1708 61.864 48.7041 62.136C49.2375 62.408 49.6455 62.7813 49.9281 63.256L48.6081 64.04C48.5281 63.88 48.4081 63.736 48.2481 63.608C48.0881 63.48 47.9068 63.3787 47.7041 63.304C47.5015 63.224 47.2908 63.1787 47.0721 63.168C46.8001 63.1573 46.5468 63.1893 46.3121 63.264C46.0828 63.3333 45.8988 63.4453 45.7601 63.6C45.6215 63.7547 45.5521 63.952 45.5521 64.192C45.5521 64.4267 45.6348 64.6027 45.8001 64.72C45.9655 64.832 46.1735 64.9227 46.4241 64.992C46.6801 65.0613 46.9415 65.1387 47.2081 65.224C47.6828 65.3733 48.1281 65.5573 48.5441 65.776C48.9601 65.9893 49.2961 66.2533 49.5521 66.568C49.8081 66.8827 49.9308 67.2667 49.9201 67.72C49.9201 68.2213 49.7681 68.6613 49.4641 69.04C49.1655 69.4187 48.7761 69.7067 48.2961 69.904C47.8161 70.1013 47.3068 70.184 46.7681 70.152ZM55.5903 63.664H53.9103L53.9023 70H52.2383L52.2463 63.664H50.9743V62H52.2463L52.2383 59.488H53.9023L53.9103 62H55.5903V63.664ZM60.3081 70.208C59.5721 70.208 58.9001 70.0187 58.2921 69.64C57.6895 69.2613 57.2068 68.7547 56.8441 68.12C56.4868 67.48 56.3081 66.7733 56.3081 66C56.3081 65.4133 56.4121 64.8667 56.6201 64.36C56.8281 63.848 57.1135 63.4 57.4761 63.016C57.8441 62.6267 58.2708 62.3227 58.7561 62.104C59.2415 61.8853 59.7588 61.776 60.3081 61.776C61.0441 61.776 61.7135 61.9653 62.3161 62.344C62.9241 62.7227 63.4068 63.232 63.7641 63.872C64.1268 64.512 64.3081 65.2213 64.3081 66C64.3081 66.5813 64.2041 67.1253 63.9961 67.632C63.7881 68.1387 63.5001 68.5867 63.1321 68.976C62.7695 69.36 62.3455 69.6613 61.8601 69.88C61.3801 70.0987 60.8628 70.208 60.3081 70.208ZM60.3081 68.544C60.7508 68.544 61.1481 68.4267 61.5001 68.192C61.8521 67.9573 62.1295 67.648 62.3321 67.264C62.5401 66.8747 62.6441 66.4533 62.6441 66C62.6441 65.536 62.5375 65.1093 62.3241 64.72C62.1161 64.3307 61.8361 64.0213 61.4841 63.792C61.1321 63.5573 60.7401 63.44 60.3081 63.44C59.8708 63.44 59.4735 63.5573 59.1161 63.792C58.7641 64.0267 58.4841 64.3387 58.2761 64.728C58.0735 65.1173 57.9721 65.5413 57.9721 66C57.9721 66.4747 58.0788 66.904 58.2921 67.288C58.5055 67.672 58.7881 67.9787 59.1401 68.208C59.4975 68.432 59.8868 68.544 60.3081 68.544ZM70.3286 63.672C70.19 63.5867 70.038 63.52 69.8726 63.472C69.7126 63.4187 69.5366 63.392 69.3446 63.392C68.9286 63.392 68.566 63.5013 68.2566 63.72C67.9473 63.9387 67.7046 64.2347 67.5286 64.608C67.358 64.9813 67.2726 65.3947 67.2726 65.848V70H65.6006V62H67.2646V63.08C67.542 62.68 67.878 62.3653 68.2726 62.136C68.6726 61.9013 69.118 61.784 69.6086 61.784C69.79 61.784 69.9606 61.792 70.1206 61.808C70.286 61.824 70.4433 61.856 70.5926 61.904L70.3286 63.672ZM77.1275 62H78.9035L74.5195 74H72.7515L74.1995 70L71.3275 62H73.1435L75.0315 67.72L77.1275 62ZM89.8306 62H91.6066L87.2226 74H85.4546L86.9026 70L84.0306 62H85.8466L87.7346 67.72L89.8306 62ZM96.0425 70.208C95.3065 70.208 94.6345 70.0187 94.0265 69.64C93.4238 69.2613 92.9412 68.7547 92.5785 68.12C92.2212 67.48 92.0425 66.7733 92.0425 66C92.0425 65.4133 92.1465 64.8667 92.3545 64.36C92.5625 63.848 92.8478 63.4 93.2105 63.016C93.5785 62.6267 94.0052 62.3227 94.4905 62.104C94.9758 61.8853 95.4932 61.776 96.0425 61.776C96.6558 61.776 97.2185 61.904 97.7305 62.16C98.2425 62.4107 98.6798 62.76 99.0425 63.208C99.4052 63.6507 99.6718 64.1627 99.8425 64.744C100.013 65.32 100.064 65.9333 99.9945 66.584H93.8265C93.8958 66.952 94.0292 67.2853 94.2265 67.584C94.4292 67.8773 94.6852 68.1093 94.9945 68.28C95.3092 68.4507 95.6585 68.5387 96.0425 68.544C96.4478 68.544 96.8158 68.4427 97.1465 68.24C97.4825 68.0373 97.7572 67.7573 97.9705 67.4L99.6585 67.792C99.3385 68.5013 98.8558 69.0827 98.2105 69.536C97.5652 69.984 96.8425 70.208 96.0425 70.208ZM93.7705 65.312H98.3145C98.2612 64.928 98.1252 64.5813 97.9065 64.272C97.6932 63.9573 97.4238 63.7093 97.0985 63.528C96.7785 63.3413 96.4265 63.248 96.0425 63.248C95.6638 63.248 95.3118 63.3387 94.9865 63.52C94.6665 63.7013 94.3998 63.9493 94.1865 64.264C93.9785 64.5733 93.8398 64.9227 93.7705 65.312ZM105.543 63.664H103.863L103.855 70H102.191L102.199 63.664H100.927V62H102.199L102.191 59.488H103.855L103.863 62H105.543V63.664Z" fill="#B0B5B7"/>
</svg>
