<svg width="30" height="30" viewBox="0 0 30 30" fill="none" xmlns="http://www.w3.org/2000/svg">
<rect width="30" height="30" rx="15" fill="#CECECE"/>
<path d="M14.0486 17.076C14.0486 16.468 14.2006 15.9107 14.5046 15.404C14.8086 14.8973 15.2246 14.5 15.7526 14.212C16.014 14.0733 16.2193 13.8707 16.3686 13.604C16.518 13.332 16.5926 13.0333 16.5926 12.708C16.5926 12.3987 16.5153 12.1187 16.3606 11.868C16.2113 11.612 16.0086 11.412 15.7526 11.268C15.4966 11.1187 15.2166 11.044 14.9126 11.044C14.6033 11.044 14.3206 11.1187 14.0646 11.268C13.8086 11.412 13.606 11.612 13.4566 11.868C13.3073 12.1187 13.2326 12.3987 13.2326 12.708H11.2806C11.2806 12.0413 11.4433 11.436 11.7686 10.892C12.094 10.3427 12.5313 9.90533 13.0806 9.58C13.6353 9.25467 14.246 9.092 14.9126 9.092C15.5793 9.092 16.1873 9.25467 16.7366 9.58C17.286 9.90533 17.7233 10.3427 18.0486 10.892C18.3793 11.436 18.5446 12.0413 18.5446 12.708C18.5446 13.3907 18.3766 14.02 18.0406 14.596C17.71 15.172 17.254 15.6173 16.6726 15.932C16.4646 16.044 16.2993 16.2013 16.1766 16.404C16.0593 16.6067 16.0006 16.8307 16.0006 17.076H14.0486ZM15.0966 20.708C14.814 20.708 14.574 20.6093 14.3766 20.412C14.1846 20.2147 14.0886 19.9747 14.0886 19.692C14.0886 19.4147 14.1846 19.18 14.3766 18.988C14.574 18.796 14.814 18.7 15.0966 18.7C15.374 18.7 15.6086 18.796 15.8006 18.988C15.9926 19.18 16.0886 19.4147 16.0886 19.692C16.0886 19.9747 15.9926 20.2147 15.8006 20.412C15.6086 20.6093 15.374 20.708 15.0966 20.708Z" fill="white"/>
</svg>
