<svg width="232" height="59" viewBox="0 0 232 59" fill="none" xmlns="http://www.w3.org/2000/svg">
<path d="M33.5536 55.208C32.9402 55.208 32.3509 55.112 31.7856 54.92C31.2202 54.728 30.7269 54.4533 30.3056 54.096C29.8842 53.7333 29.5829 53.304 29.4016 52.808L30.9616 52.224C31.0522 52.48 31.2256 52.7093 31.4816 52.912C31.7429 53.1093 32.0522 53.264 32.4096 53.376C32.7722 53.488 33.1536 53.544 33.5536 53.544C33.9802 53.544 34.3802 53.4747 34.7536 53.336C35.1322 53.1973 35.4362 53.0053 35.6656 52.76C35.9002 52.5147 36.0176 52.2267 36.0176 51.896C36.0176 51.5547 35.8949 51.2747 35.6496 51.056C35.4096 50.8373 35.1002 50.664 34.7216 50.536C34.3482 50.408 33.9589 50.312 33.5536 50.248C32.7696 50.12 32.0656 49.9333 31.4416 49.688C30.8229 49.4427 30.3322 49.0987 29.9696 48.656C29.6122 48.2133 29.4336 47.6373 29.4336 46.928C29.4336 46.2613 29.6229 45.68 30.0016 45.184C30.3856 44.688 30.8896 44.304 31.5136 44.032C32.1429 43.7547 32.8229 43.616 33.5536 43.616C34.1562 43.616 34.7376 43.712 35.2976 43.904C35.8629 44.0907 36.3589 44.3653 36.7856 44.728C37.2176 45.0853 37.5269 45.52 37.7136 46.032L36.1376 46.6C36.0469 46.3387 35.8736 46.112 35.6176 45.92C35.3616 45.7227 35.0522 45.568 34.6896 45.456C34.3322 45.344 33.9536 45.288 33.5536 45.288C33.1269 45.2827 32.7269 45.352 32.3536 45.496C31.9856 45.6347 31.6842 45.8267 31.4496 46.072C31.2149 46.3173 31.0976 46.6027 31.0976 46.928C31.0976 47.328 31.2069 47.632 31.4256 47.84C31.6442 48.048 31.9376 48.2027 32.3056 48.304C32.6789 48.4 33.0949 48.488 33.5536 48.568C34.2896 48.6853 34.9696 48.88 35.5936 49.152C36.2229 49.424 36.7269 49.7867 37.1056 50.24C37.4896 50.688 37.6816 51.24 37.6816 51.896C37.6816 52.5573 37.4896 53.1387 37.1056 53.64C36.7269 54.136 36.2229 54.5227 35.5936 54.8C34.9696 55.072 34.2896 55.208 33.5536 55.208ZM42.7847 55.208C42.0487 55.208 41.3767 55.0187 40.7687 54.64C40.166 54.2613 39.6834 53.7547 39.3207 53.12C38.9634 52.48 38.7847 51.7733 38.7847 51C38.7847 50.4133 38.8887 49.8667 39.0967 49.36C39.3047 48.848 39.59 48.4 39.9527 48.016C40.3207 47.6267 40.7474 47.3227 41.2327 47.104C41.718 46.8853 42.2354 46.776 42.7847 46.776C43.398 46.776 43.9607 46.904 44.4727 47.16C44.9847 47.4107 45.422 47.76 45.7847 48.208C46.1474 48.6507 46.414 49.1627 46.5847 49.744C46.7554 50.32 46.806 50.9333 46.7367 51.584H40.5687C40.638 51.952 40.7714 52.2853 40.9687 52.584C41.1714 52.8773 41.4274 53.1093 41.7367 53.28C42.0514 53.4507 42.4007 53.5387 42.7847 53.544C43.19 53.544 43.558 53.4427 43.8887 53.24C44.2247 53.0373 44.4994 52.7573 44.7127 52.4L46.4007 52.792C46.0807 53.5013 45.598 54.0827 44.9527 54.536C44.3074 54.984 43.5847 55.208 42.7847 55.208ZM40.5127 50.312H45.0567C45.0034 49.928 44.8674 49.5813 44.6487 49.272C44.4354 48.9573 44.166 48.7093 43.8407 48.528C43.5207 48.3413 43.1687 48.248 42.7847 48.248C42.406 48.248 42.054 48.3387 41.7287 48.52C41.4087 48.7013 41.142 48.9493 40.9287 49.264C40.7207 49.5733 40.582 49.9227 40.5127 50.312ZM48.1107 55V43H49.7667V55H48.1107ZM55.3003 55.208C54.5643 55.208 53.8923 55.0187 53.2843 54.64C52.6816 54.2613 52.199 53.7547 51.8363 53.12C51.479 52.48 51.3003 51.7733 51.3003 51C51.3003 50.4133 51.4043 49.8667 51.6123 49.36C51.8203 48.848 52.1056 48.4 52.4683 48.016C52.8363 47.6267 53.263 47.3227 53.7483 47.104C54.2336 46.8853 54.751 46.776 55.3003 46.776C55.9136 46.776 56.4763 46.904 56.9883 47.16C57.5003 47.4107 57.9376 47.76 58.3003 48.208C58.663 48.6507 58.9296 49.1627 59.1003 49.744C59.271 50.32 59.3216 50.9333 59.2523 51.584H53.0843C53.1536 51.952 53.287 52.2853 53.4843 52.584C53.687 52.8773 53.943 53.1093 54.2523 53.28C54.567 53.4507 54.9163 53.5387 55.3003 53.544C55.7056 53.544 56.0736 53.4427 56.4043 53.24C56.7403 53.0373 57.015 52.7573 57.2283 52.4L58.9163 52.792C58.5963 53.5013 58.1136 54.0827 57.4683 54.536C56.823 54.984 56.1003 55.208 55.3003 55.208ZM53.0283 50.312H57.5723C57.519 49.928 57.383 49.5813 57.1643 49.272C56.951 48.9573 56.6816 48.7093 56.3563 48.528C56.0363 48.3413 55.6843 48.248 55.3003 48.248C54.9216 48.248 54.5696 48.3387 54.2443 48.52C53.9243 48.7013 53.6576 48.9493 53.4443 49.264C53.2363 49.5733 53.0976 49.9227 53.0283 50.312ZM65.8012 52.728L67.2892 53.536C66.9265 54.0427 66.4652 54.448 65.9052 54.752C65.3505 55.056 64.7479 55.208 64.0972 55.208C63.3612 55.208 62.6892 55.0187 62.0812 54.64C61.4785 54.2613 60.9959 53.7547 60.6332 53.12C60.2759 52.48 60.0972 51.7733 60.0972 51C60.0972 50.4133 60.2012 49.8667 60.4092 49.36C60.6172 48.848 60.9025 48.4 61.2652 48.016C61.6332 47.6267 62.0599 47.3227 62.5452 47.104C63.0305 46.8853 63.5479 46.776 64.0972 46.776C64.7479 46.776 65.3505 46.928 65.9052 47.232C66.4652 47.536 66.9265 47.944 67.2892 48.456L65.8012 49.264C65.5772 48.9973 65.3159 48.7947 65.0172 48.656C64.7185 48.512 64.4119 48.44 64.0972 48.44C63.6599 48.44 63.2625 48.56 62.9052 48.8C62.5532 49.0347 62.2732 49.3467 62.0652 49.736C61.8625 50.12 61.7612 50.5413 61.7612 51C61.7612 51.4533 61.8652 51.8747 62.0732 52.264C62.2812 52.648 62.5612 52.9573 62.9132 53.192C63.2705 53.4267 63.6652 53.544 64.0972 53.544C64.4279 53.544 64.7425 53.4693 65.0412 53.32C65.3399 53.1707 65.5932 52.9733 65.8012 52.728ZM72.9574 48.664H71.2774L71.2694 55H69.6054L69.6134 48.664H68.3414V47H69.6134L69.6054 44.488H71.2694L71.2774 47H72.9574V48.664ZM78.2334 55V43.8H81.9374C82.7108 43.8 83.4361 43.9467 84.1134 44.24C84.7908 44.528 85.3854 44.9307 85.8974 45.448C86.4094 45.96 86.8094 46.5547 87.0974 47.232C87.3908 47.904 87.5374 48.6267 87.5374 49.4C87.5374 50.1733 87.3908 50.8987 87.0974 51.576C86.8094 52.248 86.4094 52.8427 85.8974 53.36C85.3854 53.872 84.7908 54.2747 84.1134 54.568C83.4361 54.856 82.7108 55 81.9374 55H78.2334ZM79.8974 53.336H81.9374C82.4814 53.336 82.9881 53.2347 83.4574 53.032C83.9321 52.8293 84.3508 52.5467 84.7134 52.184C85.0814 51.8213 85.3668 51.4027 85.5694 50.928C85.7721 50.4533 85.8734 49.944 85.8734 49.4C85.8734 48.856 85.7721 48.3467 85.5694 47.872C85.3668 47.3973 85.0814 46.9787 84.7134 46.616C84.3508 46.2533 83.9321 45.9707 83.4574 45.768C82.9881 45.5653 82.4814 45.464 81.9374 45.464H79.8974V53.336ZM92.3003 55.208C91.5643 55.208 90.8923 55.0187 90.2843 54.64C89.6816 54.2613 89.199 53.7547 88.8363 53.12C88.479 52.48 88.3003 51.7733 88.3003 51C88.3003 50.4133 88.4043 49.8667 88.6123 49.36C88.8203 48.848 89.1056 48.4 89.4683 48.016C89.8363 47.6267 90.263 47.3227 90.7483 47.104C91.2336 46.8853 91.751 46.776 92.3003 46.776C92.9136 46.776 93.4763 46.904 93.9883 47.16C94.5003 47.4107 94.9376 47.76 95.3003 48.208C95.663 48.6507 95.9296 49.1627 96.1003 49.744C96.271 50.32 96.3216 50.9333 96.2523 51.584H90.0843C90.1536 51.952 90.287 52.2853 90.4843 52.584C90.687 52.8773 90.943 53.1093 91.2523 53.28C91.567 53.4507 91.9163 53.5387 92.3003 53.544C92.7056 53.544 93.0736 53.4427 93.4043 53.24C93.7403 53.0373 94.015 52.7573 94.2283 52.4L95.9163 52.792C95.5963 53.5013 95.1136 54.0827 94.4683 54.536C93.823 54.984 93.1003 55.208 92.3003 55.208ZM90.0283 50.312H94.5723C94.519 49.928 94.383 49.5813 94.1643 49.272C93.951 48.9573 93.6816 48.7093 93.3563 48.528C93.0363 48.3413 92.6843 48.248 92.3003 48.248C91.9216 48.248 91.5696 48.3387 91.2443 48.52C90.9243 48.7013 90.6576 48.9493 90.4443 49.264C90.2363 49.5733 90.0976 49.9227 90.0283 50.312ZM100.213 55.152C99.7921 55.1253 99.3814 55.04 98.9814 54.896C98.5814 54.752 98.2294 54.5573 97.9254 54.312C97.6268 54.0613 97.4028 53.768 97.2534 53.432L98.6694 52.824C98.7388 52.968 98.8588 53.1093 99.0294 53.248C99.2054 53.3867 99.4108 53.5013 99.6454 53.592C99.8801 53.6773 100.125 53.72 100.381 53.72C100.632 53.72 100.864 53.6853 101.077 53.616C101.296 53.5413 101.475 53.4293 101.613 53.28C101.752 53.1307 101.821 52.952 101.821 52.744C101.821 52.5093 101.741 52.328 101.581 52.2C101.427 52.0667 101.232 51.9653 100.997 51.896C100.763 51.8267 100.528 51.76 100.293 51.696C99.7708 51.5787 99.2908 51.4187 98.8534 51.216C98.4214 51.008 98.0774 50.744 97.8214 50.424C97.5654 50.0987 97.4374 49.7013 97.4374 49.232C97.4374 48.72 97.5734 48.2773 97.8454 47.904C98.1228 47.5253 98.4881 47.2347 98.9414 47.032C99.3948 46.8293 99.8774 46.728 100.389 46.728C101.029 46.728 101.616 46.864 102.149 47.136C102.683 47.408 103.091 47.7813 103.373 48.256L102.053 49.04C101.973 48.88 101.853 48.736 101.693 48.608C101.533 48.48 101.352 48.3787 101.149 48.304C100.947 48.224 100.736 48.1787 100.517 48.168C100.245 48.1573 99.9921 48.1893 99.7574 48.264C99.5281 48.3333 99.3441 48.4453 99.2054 48.6C99.0668 48.7547 98.9974 48.952 98.9974 49.192C98.9974 49.4267 99.0801 49.6027 99.2454 49.72C99.4108 49.832 99.6188 49.9227 99.8694 49.992C100.125 50.0613 100.387 50.1387 100.653 50.224C101.128 50.3733 101.573 50.5573 101.989 50.776C102.405 50.9893 102.741 51.2533 102.997 51.568C103.253 51.8827 103.376 52.2667 103.365 52.72C103.365 53.2213 103.213 53.6613 102.909 54.04C102.611 54.4187 102.221 54.7067 101.741 54.904C101.261 55.1013 100.752 55.184 100.213 55.152ZM109.036 48.664H107.356L107.348 55H105.684L105.692 48.664H104.42V47H105.692L105.684 44.488H107.348L107.356 47H109.036V48.664ZM110.124 47H111.788V55H110.124V47ZM110.964 45.68C110.713 45.68 110.503 45.5973 110.332 45.432C110.161 45.2667 110.076 45.0587 110.076 44.808C110.076 44.5627 110.161 44.3573 110.332 44.192C110.503 44.0213 110.713 43.936 110.964 43.936C111.209 43.936 111.417 44.0213 111.588 44.192C111.759 44.3573 111.844 44.5627 111.844 44.808C111.844 45.0587 111.759 45.2667 111.588 45.432C111.417 45.5973 111.209 45.68 110.964 45.68ZM121.673 50.808V55H120.009V50.84C120.009 50.3867 119.913 49.976 119.721 49.608C119.534 49.2347 119.276 48.9387 118.945 48.72C118.62 48.496 118.249 48.384 117.833 48.384C117.417 48.384 117.052 48.496 116.737 48.72C116.428 48.9387 116.185 49.2347 116.009 49.608C115.838 49.976 115.753 50.3867 115.753 50.84V55H114.089V47H115.753V48.08C116.03 47.6747 116.366 47.3573 116.761 47.128C117.156 46.8933 117.601 46.776 118.097 46.776C118.817 46.776 119.441 46.96 119.969 47.328C120.502 47.696 120.918 48.184 121.217 48.792C121.516 49.4 121.668 50.072 121.673 50.808ZM129.483 47H131.147V55H129.475L129.411 53.84C129.176 54.2507 128.859 54.5813 128.459 54.832C128.064 55.0827 127.595 55.208 127.051 55.208C126.459 55.208 125.904 55.0987 125.387 54.88C124.875 54.656 124.422 54.3467 124.027 53.952C123.638 53.5573 123.331 53.104 123.107 52.592C122.888 52.0747 122.779 51.52 122.779 50.928C122.779 50.3573 122.886 49.8213 123.099 49.32C123.312 48.8133 123.608 48.3707 123.987 47.992C124.366 47.6133 124.803 47.3173 125.299 47.104C125.8 46.8853 126.336 46.776 126.907 46.776C127.488 46.776 128 46.9093 128.443 47.176C128.891 47.4373 129.259 47.7733 129.547 48.184L129.483 47ZM127.091 53.6C127.571 53.6 127.984 53.48 128.331 53.24C128.683 53 128.947 52.6773 129.123 52.272C129.304 51.8667 129.382 51.4187 129.355 50.928C129.323 50.4587 129.198 50.032 128.979 49.648C128.766 49.264 128.48 48.96 128.123 48.736C127.766 48.5067 127.36 48.392 126.907 48.392C126.432 48.392 126.003 48.512 125.619 48.752C125.24 48.992 124.947 49.3147 124.739 49.72C124.531 50.1253 124.44 50.576 124.467 51.072C124.499 51.536 124.638 51.96 124.883 52.344C125.134 52.728 125.451 53.0347 125.835 53.264C126.224 53.488 126.643 53.6 127.091 53.6ZM137.286 48.664H135.606L135.598 55H133.934L133.942 48.664H132.67V47H133.942L133.934 44.488H135.598L135.606 47H137.286V48.664ZM138.374 47H140.038V55H138.374V47ZM139.214 45.68C138.963 45.68 138.753 45.5973 138.582 45.432C138.411 45.2667 138.326 45.0587 138.326 44.808C138.326 44.5627 138.411 44.3573 138.582 44.192C138.753 44.0213 138.963 43.936 139.214 43.936C139.459 43.936 139.667 44.0213 139.838 44.192C140.009 44.3573 140.094 44.5627 140.094 44.808C140.094 45.0587 140.009 45.2667 139.838 45.432C139.667 45.5973 139.459 45.68 139.214 45.68ZM146.082 55.208C145.346 55.208 144.674 55.0187 144.066 54.64C143.463 54.2613 142.98 53.7547 142.618 53.12C142.26 52.48 142.082 51.7733 142.082 51C142.082 50.4133 142.186 49.8667 142.394 49.36C142.602 48.848 142.887 48.4 143.25 48.016C143.618 47.6267 144.044 47.3227 144.53 47.104C145.015 46.8853 145.532 46.776 146.082 46.776C146.818 46.776 147.487 46.9653 148.09 47.344C148.698 47.7227 149.18 48.232 149.538 48.872C149.9 49.512 150.082 50.2213 150.082 51C150.082 51.5813 149.978 52.1253 149.77 52.632C149.562 53.1387 149.274 53.5867 148.906 53.976C148.543 54.36 148.119 54.6613 147.634 54.88C147.154 55.0987 146.636 55.208 146.082 55.208ZM146.082 53.544C146.524 53.544 146.922 53.4267 147.274 53.192C147.626 52.9573 147.903 52.648 148.106 52.264C148.314 51.8747 148.418 51.4533 148.418 51C148.418 50.536 148.311 50.1093 148.098 49.72C147.89 49.3307 147.61 49.0213 147.258 48.792C146.906 48.5573 146.514 48.44 146.082 48.44C145.644 48.44 145.247 48.5573 144.89 48.792C144.538 49.0267 144.258 49.3387 144.05 49.728C143.847 50.1173 143.746 50.5413 143.746 51C143.746 51.4747 143.852 51.904 144.066 52.288C144.279 52.672 144.562 52.9787 144.914 53.208C145.271 53.432 145.66 53.544 146.082 53.544ZM158.798 50.808V55H157.134V50.84C157.134 50.3867 157.038 49.976 156.846 49.608C156.659 49.2347 156.401 48.9387 156.07 48.72C155.745 48.496 155.374 48.384 154.958 48.384C154.542 48.384 154.177 48.496 153.862 48.72C153.553 48.9387 153.31 49.2347 153.134 49.608C152.963 49.976 152.878 50.3867 152.878 50.84V55H151.214V47H152.878V48.08C153.155 47.6747 153.491 47.3573 153.886 47.128C154.281 46.8933 154.726 46.776 155.222 46.776C155.942 46.776 156.566 46.96 157.094 47.328C157.627 47.696 158.043 48.184 158.342 48.792C158.641 49.4 158.793 50.072 158.798 50.808ZM169.629 52.728L171.117 53.536C170.755 54.0427 170.293 54.448 169.733 54.752C169.179 55.056 168.576 55.208 167.925 55.208C167.189 55.208 166.517 55.0187 165.909 54.64C165.307 54.2613 164.824 53.7547 164.461 53.12C164.104 52.48 163.925 51.7733 163.925 51C163.925 50.4133 164.029 49.8667 164.237 49.36C164.445 48.848 164.731 48.4 165.093 48.016C165.461 47.6267 165.888 47.3227 166.373 47.104C166.859 46.8853 167.376 46.776 167.925 46.776C168.576 46.776 169.179 46.928 169.733 47.232C170.293 47.536 170.755 47.944 171.117 48.456L169.629 49.264C169.405 48.9973 169.144 48.7947 168.845 48.656C168.547 48.512 168.24 48.44 167.925 48.44C167.488 48.44 167.091 48.56 166.733 48.8C166.381 49.0347 166.101 49.3467 165.893 49.736C165.691 50.12 165.589 50.5413 165.589 51C165.589 51.4533 165.693 51.8747 165.901 52.264C166.109 52.648 166.389 52.9573 166.741 53.192C167.099 53.4267 167.493 53.544 167.925 53.544C168.256 53.544 168.571 53.4693 168.869 53.32C169.168 53.1707 169.421 52.9733 169.629 52.728ZM179.821 50.816V55H178.157V50.848C178.157 50.3947 178.061 49.9813 177.869 49.608C177.682 49.2347 177.432 48.9387 177.117 48.72C176.802 48.5013 176.453 48.392 176.069 48.392C175.653 48.392 175.298 48.5013 175.005 48.72C174.712 48.9387 174.485 49.2347 174.325 49.608C174.17 49.9813 174.093 50.3947 174.093 50.848V55H172.421V43H174.085V47.936C174.309 47.504 174.602 47.2053 174.965 47.04C175.333 46.8693 175.754 46.784 176.229 46.784C176.949 46.784 177.576 46.968 178.109 47.336C178.642 47.704 179.058 48.1947 179.357 48.808C179.656 49.416 179.81 50.0853 179.821 50.816ZM187.467 47H189.131V55H187.459L187.395 53.84C187.161 54.2507 186.843 54.5813 186.443 54.832C186.049 55.0827 185.579 55.208 185.035 55.208C184.443 55.208 183.889 55.0987 183.371 54.88C182.859 54.656 182.406 54.3467 182.011 53.952C181.622 53.5573 181.315 53.104 181.091 52.592C180.873 52.0747 180.763 51.52 180.763 50.928C180.763 50.3573 180.87 49.8213 181.083 49.32C181.297 48.8133 181.593 48.3707 181.971 47.992C182.35 47.6133 182.787 47.3173 183.283 47.104C183.785 46.8853 184.321 46.776 184.891 46.776C185.473 46.776 185.985 46.9093 186.427 47.176C186.875 47.4373 187.243 47.7733 187.531 48.184L187.467 47ZM185.075 53.6C185.555 53.6 185.969 53.48 186.315 53.24C186.667 53 186.931 52.6773 187.107 52.272C187.289 51.8667 187.366 51.4187 187.339 50.928C187.307 50.4587 187.182 50.032 186.963 49.648C186.75 49.264 186.465 48.96 186.107 48.736C185.75 48.5067 185.345 48.392 184.891 48.392C184.417 48.392 183.987 48.512 183.603 48.752C183.225 48.992 182.931 49.3147 182.723 49.72C182.515 50.1253 182.425 50.576 182.451 51.072C182.483 51.536 182.622 51.96 182.867 52.344C183.118 52.728 183.435 53.0347 183.819 53.264C184.209 53.488 184.627 53.6 185.075 53.6ZM191.046 47H192.71V55H191.046V47ZM191.886 45.68C191.635 45.68 191.425 45.5973 191.254 45.432C191.083 45.2667 190.998 45.0587 190.998 44.808C190.998 44.5627 191.083 44.3573 191.254 44.192C191.425 44.0213 191.635 43.936 191.886 43.936C192.131 43.936 192.339 44.0213 192.51 44.192C192.681 44.3573 192.766 44.5627 192.766 44.808C192.766 45.0587 192.681 45.2667 192.51 45.432C192.339 45.5973 192.131 45.68 191.886 45.68ZM202.595 50.808V55H200.931V50.84C200.931 50.3867 200.835 49.976 200.643 49.608C200.456 49.2347 200.198 48.9387 199.867 48.72C199.542 48.496 199.171 48.384 198.755 48.384C198.339 48.384 197.974 48.496 197.659 48.72C197.35 48.9387 197.107 49.2347 196.931 49.608C196.76 49.976 196.675 50.3867 196.675 50.84V55H195.011V47H196.675V48.08C196.952 47.6747 197.288 47.3573 197.683 47.128C198.078 46.8933 198.523 46.776 199.019 46.776C199.739 46.776 200.363 46.96 200.891 47.328C201.424 47.696 201.84 48.184 202.139 48.792C202.438 49.4 202.59 50.072 202.595 50.808Z" fill="black"/>
<rect x="101" width="30" height="30" rx="15" fill="#FF4F0D"/>
<path d="M112.499 20.5V18.756C112.846 18.4947 113.257 18.172 113.731 17.788C114.206 17.3987 114.694 16.98 115.195 16.532C115.697 16.0787 116.161 15.6253 116.587 15.172C117.014 14.7187 117.361 14.2867 117.627 13.876C117.899 13.4653 118.035 13.1133 118.035 12.82C118.035 12.4947 117.955 12.1987 117.795 11.932C117.635 11.66 117.422 11.444 117.155 11.284C116.894 11.124 116.601 11.044 116.275 11.044C115.95 11.044 115.654 11.124 115.387 11.284C115.121 11.444 114.907 11.66 114.747 11.932C114.587 12.1987 114.507 12.4947 114.507 12.82H112.555C112.555 12.116 112.726 11.484 113.067 10.924C113.409 10.3587 113.859 9.91333 114.419 9.588C114.985 9.25733 115.603 9.092 116.275 9.092C116.958 9.092 117.579 9.26 118.139 9.596C118.699 9.92667 119.147 10.3747 119.483 10.94C119.819 11.5053 119.987 12.132 119.987 12.82C119.987 13.1827 119.921 13.548 119.787 13.916C119.654 14.284 119.467 14.6547 119.227 15.028C118.987 15.4013 118.705 15.78 118.379 16.164C118.054 16.5427 117.694 16.932 117.299 17.332C116.91 17.7267 116.499 18.132 116.067 18.548H120.043V20.5H112.499Z" fill="white"/>
</svg>
