<svg width="232" height="59" viewBox="0 0 232 59" fill="none" xmlns="http://www.w3.org/2000/svg">
<path d="M62.1786 55.208C61.5652 55.208 60.9759 55.112 60.4106 54.92C59.8452 54.728 59.3519 54.4533 58.9306 54.096C58.5092 53.7333 58.2079 53.304 58.0266 52.808L59.5866 52.224C59.6772 52.48 59.8506 52.7093 60.1066 52.912C60.3679 53.1093 60.6772 53.264 61.0346 53.376C61.3972 53.488 61.7786 53.544 62.1786 53.544C62.6052 53.544 63.0052 53.4747 63.3786 53.336C63.7572 53.1973 64.0612 53.0053 64.2906 52.76C64.5252 52.5147 64.6426 52.2267 64.6426 51.896C64.6426 51.5547 64.5199 51.2747 64.2746 51.056C64.0346 50.8373 63.7252 50.664 63.3466 50.536C62.9732 50.408 62.5839 50.312 62.1786 50.248C61.3946 50.12 60.6906 49.9333 60.0666 49.688C59.4479 49.4427 58.9572 49.0987 58.5946 48.656C58.2372 48.2133 58.0586 47.6373 58.0586 46.928C58.0586 46.2613 58.2479 45.68 58.6266 45.184C59.0106 44.688 59.5146 44.304 60.1386 44.032C60.7679 43.7547 61.4479 43.616 62.1786 43.616C62.7812 43.616 63.3626 43.712 63.9226 43.904C64.4879 44.0907 64.9839 44.3653 65.4106 44.728C65.8426 45.0853 66.1519 45.52 66.3386 46.032L64.7626 46.6C64.6719 46.3387 64.4986 46.112 64.2426 45.92C63.9866 45.7227 63.6772 45.568 63.3146 45.456C62.9572 45.344 62.5786 45.288 62.1786 45.288C61.7519 45.2827 61.3519 45.352 60.9786 45.496C60.6106 45.6347 60.3092 45.8267 60.0746 46.072C59.8399 46.3173 59.7226 46.6027 59.7226 46.928C59.7226 47.328 59.8319 47.632 60.0506 47.84C60.2692 48.048 60.5626 48.2027 60.9306 48.304C61.3039 48.4 61.7199 48.488 62.1786 48.568C62.9146 48.6853 63.5946 48.88 64.2186 49.152C64.8479 49.424 65.3519 49.7867 65.7306 50.24C66.1146 50.688 66.3066 51.24 66.3066 51.896C66.3066 52.5573 66.1146 53.1387 65.7306 53.64C65.3519 54.136 64.8479 54.5227 64.2186 54.8C63.5946 55.072 62.9146 55.208 62.1786 55.208ZM71.4097 55.208C70.6737 55.208 70.0017 55.0187 69.3937 54.64C68.791 54.2613 68.3084 53.7547 67.9457 53.12C67.5884 52.48 67.4097 51.7733 67.4097 51C67.4097 50.4133 67.5137 49.8667 67.7217 49.36C67.9297 48.848 68.215 48.4 68.5777 48.016C68.9457 47.6267 69.3724 47.3227 69.8577 47.104C70.343 46.8853 70.8604 46.776 71.4097 46.776C72.023 46.776 72.5857 46.904 73.0977 47.16C73.6097 47.4107 74.047 47.76 74.4097 48.208C74.7724 48.6507 75.039 49.1627 75.2097 49.744C75.3804 50.32 75.431 50.9333 75.3617 51.584H69.1937C69.263 51.952 69.3964 52.2853 69.5937 52.584C69.7964 52.8773 70.0524 53.1093 70.3617 53.28C70.6764 53.4507 71.0257 53.5387 71.4097 53.544C71.815 53.544 72.183 53.4427 72.5137 53.24C72.8497 53.0373 73.1244 52.7573 73.3377 52.4L75.0257 52.792C74.7057 53.5013 74.223 54.0827 73.5777 54.536C72.9324 54.984 72.2097 55.208 71.4097 55.208ZM69.1377 50.312H73.6817C73.6284 49.928 73.4924 49.5813 73.2737 49.272C73.0604 48.9573 72.791 48.7093 72.4657 48.528C72.1457 48.3413 71.7937 48.248 71.4097 48.248C71.031 48.248 70.679 48.3387 70.3537 48.52C70.0337 48.7013 69.767 48.9493 69.5537 49.264C69.3457 49.5733 69.207 49.9227 69.1377 50.312ZM76.7357 55V43H78.3917V55H76.7357ZM83.9253 55.208C83.1893 55.208 82.5173 55.0187 81.9093 54.64C81.3066 54.2613 80.824 53.7547 80.4613 53.12C80.104 52.48 79.9253 51.7733 79.9253 51C79.9253 50.4133 80.0293 49.8667 80.2373 49.36C80.4453 48.848 80.7306 48.4 81.0933 48.016C81.4613 47.6267 81.888 47.3227 82.3733 47.104C82.8586 46.8853 83.376 46.776 83.9253 46.776C84.5386 46.776 85.1013 46.904 85.6133 47.16C86.1253 47.4107 86.5626 47.76 86.9253 48.208C87.288 48.6507 87.5546 49.1627 87.7253 49.744C87.896 50.32 87.9466 50.9333 87.8773 51.584H81.7093C81.7786 51.952 81.912 52.2853 82.1093 52.584C82.312 52.8773 82.568 53.1093 82.8773 53.28C83.192 53.4507 83.5413 53.5387 83.9253 53.544C84.3306 53.544 84.6986 53.4427 85.0293 53.24C85.3653 53.0373 85.64 52.7573 85.8533 52.4L87.5413 52.792C87.2213 53.5013 86.7386 54.0827 86.0933 54.536C85.448 54.984 84.7253 55.208 83.9253 55.208ZM81.6533 50.312H86.1973C86.144 49.928 86.008 49.5813 85.7893 49.272C85.576 48.9573 85.3066 48.7093 84.9813 48.528C84.6613 48.3413 84.3093 48.248 83.9253 48.248C83.5466 48.248 83.1946 48.3387 82.8693 48.52C82.5493 48.7013 82.2826 48.9493 82.0693 49.264C81.8613 49.5733 81.7226 49.9227 81.6533 50.312ZM94.4262 52.728L95.9142 53.536C95.5515 54.0427 95.0902 54.448 94.5302 54.752C93.9755 55.056 93.3729 55.208 92.7222 55.208C91.9862 55.208 91.3142 55.0187 90.7062 54.64C90.1035 54.2613 89.6209 53.7547 89.2582 53.12C88.9009 52.48 88.7222 51.7733 88.7222 51C88.7222 50.4133 88.8262 49.8667 89.0342 49.36C89.2422 48.848 89.5275 48.4 89.8902 48.016C90.2582 47.6267 90.6849 47.3227 91.1702 47.104C91.6555 46.8853 92.1729 46.776 92.7222 46.776C93.3729 46.776 93.9755 46.928 94.5302 47.232C95.0902 47.536 95.5515 47.944 95.9142 48.456L94.4262 49.264C94.2022 48.9973 93.9409 48.7947 93.6422 48.656C93.3435 48.512 93.0369 48.44 92.7222 48.44C92.2849 48.44 91.8875 48.56 91.5302 48.8C91.1782 49.0347 90.8982 49.3467 90.6902 49.736C90.4875 50.12 90.3862 50.5413 90.3862 51C90.3862 51.4533 90.4902 51.8747 90.6982 52.264C90.9062 52.648 91.1862 52.9573 91.5382 53.192C91.8955 53.4267 92.2902 53.544 92.7222 53.544C93.0529 53.544 93.3675 53.4693 93.6662 53.32C93.9649 53.1707 94.2182 52.9733 94.4262 52.728ZM101.582 48.664H99.9024L99.8944 55H98.2304L98.2384 48.664H96.9664V47H98.2384L98.2304 44.488H99.8944L99.9024 47H101.582V48.664ZM116.182 47H117.958L113.574 59H111.806L113.254 55L110.382 47H112.198L114.086 52.72L116.182 47ZM122.394 55.208C121.658 55.208 120.986 55.0187 120.378 54.64C119.775 54.2613 119.293 53.7547 118.93 53.12C118.573 52.48 118.394 51.7733 118.394 51C118.394 50.4133 118.498 49.8667 118.706 49.36C118.914 48.848 119.199 48.4 119.562 48.016C119.93 47.6267 120.357 47.3227 120.842 47.104C121.327 46.8853 121.845 46.776 122.394 46.776C123.13 46.776 123.799 46.9653 124.402 47.344C125.01 47.7227 125.493 48.232 125.85 48.872C126.213 49.512 126.394 50.2213 126.394 51C126.394 51.5813 126.29 52.1253 126.082 52.632C125.874 53.1387 125.586 53.5867 125.218 53.976C124.855 54.36 124.431 54.6613 123.946 54.88C123.466 55.0987 122.949 55.208 122.394 55.208ZM122.394 53.544C122.837 53.544 123.234 53.4267 123.586 53.192C123.938 52.9573 124.215 52.648 124.418 52.264C124.626 51.8747 124.73 51.4533 124.73 51C124.73 50.536 124.623 50.1093 124.41 49.72C124.202 49.3307 123.922 49.0213 123.57 48.792C123.218 48.5573 122.826 48.44 122.394 48.44C121.957 48.44 121.559 48.5573 121.202 48.792C120.85 49.0267 120.57 49.3387 120.362 49.728C120.159 50.1173 120.058 50.5413 120.058 51C120.058 51.4747 120.165 51.904 120.378 52.288C120.591 52.672 120.874 52.9787 121.226 53.208C121.583 53.432 121.973 53.544 122.394 53.544ZM127.53 51.176V47H129.194V51.144C129.194 51.5973 129.288 52.0107 129.474 52.384C129.666 52.752 129.925 53.048 130.25 53.272C130.581 53.4907 130.957 53.6 131.378 53.6C131.789 53.6 132.149 53.4907 132.458 53.272C132.773 53.048 133.016 52.752 133.186 52.384C133.362 52.0107 133.45 51.5973 133.45 51.144V47H135.114V55H133.45V53.912C133.173 54.312 132.837 54.6293 132.442 54.864C132.048 55.0987 131.602 55.216 131.106 55.216C130.392 55.216 129.765 55.0347 129.226 54.672C128.693 54.304 128.28 53.8133 127.986 53.2C127.693 52.5867 127.541 51.912 127.53 51.176ZM141.758 48.672C141.62 48.5867 141.468 48.52 141.302 48.472C141.142 48.4187 140.966 48.392 140.774 48.392C140.358 48.392 139.996 48.5013 139.686 48.72C139.377 48.9387 139.134 49.2347 138.958 49.608C138.788 49.9813 138.702 50.3947 138.702 50.848V55H137.03V47H138.694V48.08C138.972 47.68 139.308 47.3653 139.702 47.136C140.102 46.9013 140.548 46.784 141.038 46.784C141.22 46.784 141.39 46.792 141.55 46.808C141.716 46.824 141.873 46.856 142.022 46.904L141.758 48.672ZM147.158 55V43.8H148.958L154.094 51.992V43.8H155.758V55H153.966L148.814 46.808V55H147.158ZM157.937 55V43.8H164.537V45.464H159.601V48.168H163.769V49.832H159.601V55H157.937ZM174.127 43.8V45.464H170.559V55H168.895V45.464H165.335V43.8H174.127Z" fill="black"/>
<rect x="96" width="30" height="30" rx="15" fill="#FF4F0D"/>
<path d="M110.767 20.5V11.252H109.359L109.887 9.3H112.719V20.5H110.767Z" fill="white"/>
</svg>
