<svg width="232" height="59" viewBox="0 0 232 59" fill="none" xmlns="http://www.w3.org/2000/svg">
<path d="M64.1004 55.208C63.4871 55.208 62.8978 55.112 62.3324 54.92C61.7671 54.728 61.2738 54.4533 60.8524 54.096C60.4311 53.7333 60.1298 53.304 59.9484 52.808L61.5084 52.224C61.5991 52.48 61.7724 52.7093 62.0284 52.912C62.2898 53.1093 62.5991 53.264 62.9564 53.376C63.3191 53.488 63.7004 53.544 64.1004 53.544C64.5271 53.544 64.9271 53.4747 65.3004 53.336C65.6791 53.1973 65.9831 53.0053 66.2124 52.76C66.4471 52.5147 66.5644 52.2267 66.5644 51.896C66.5644 51.5547 66.4418 51.2747 66.1964 51.056C65.9564 50.8373 65.6471 50.664 65.2684 50.536C64.8951 50.408 64.5058 50.312 64.1004 50.248C63.3164 50.12 62.6124 49.9333 61.9884 49.688C61.3698 49.4427 60.8791 49.0987 60.5164 48.656C60.1591 48.2133 59.9804 47.6373 59.9804 46.928C59.9804 46.2613 60.1698 45.68 60.5484 45.184C60.9324 44.688 61.4364 44.304 62.0604 44.032C62.6898 43.7547 63.3698 43.616 64.1004 43.616C64.7031 43.616 65.2844 43.712 65.8444 43.904C66.4098 44.0907 66.9058 44.3653 67.3324 44.728C67.7644 45.0853 68.0738 45.52 68.2604 46.032L66.6844 46.6C66.5938 46.3387 66.4204 46.112 66.1644 45.92C65.9084 45.7227 65.5991 45.568 65.2364 45.456C64.8791 45.344 64.5004 45.288 64.1004 45.288C63.6738 45.2827 63.2738 45.352 62.9004 45.496C62.5324 45.6347 62.2311 45.8267 61.9964 46.072C61.7618 46.3173 61.6444 46.6027 61.6444 46.928C61.6444 47.328 61.7538 47.632 61.9724 47.84C62.1911 48.048 62.4844 48.2027 62.8524 48.304C63.2258 48.4 63.6418 48.488 64.1004 48.568C64.8364 48.6853 65.5164 48.88 66.1404 49.152C66.7698 49.424 67.2738 49.7867 67.6524 50.24C68.0364 50.688 68.2284 51.24 68.2284 51.896C68.2284 52.5573 68.0364 53.1387 67.6524 53.64C67.2738 54.136 66.7698 54.5227 66.1404 54.8C65.5164 55.072 64.8364 55.208 64.1004 55.208ZM73.3316 55.208C72.5956 55.208 71.9236 55.0187 71.3156 54.64C70.7129 54.2613 70.2302 53.7547 69.8676 53.12C69.5102 52.48 69.3316 51.7733 69.3316 51C69.3316 50.4133 69.4356 49.8667 69.6436 49.36C69.8516 48.848 70.1369 48.4 70.4996 48.016C70.8676 47.6267 71.2942 47.3227 71.7796 47.104C72.2649 46.8853 72.7822 46.776 73.3316 46.776C73.9449 46.776 74.5076 46.904 75.0196 47.16C75.5316 47.4107 75.9689 47.76 76.3316 48.208C76.6942 48.6507 76.9609 49.1627 77.1316 49.744C77.3022 50.32 77.3529 50.9333 77.2836 51.584H71.1156C71.1849 51.952 71.3182 52.2853 71.5156 52.584C71.7182 52.8773 71.9742 53.1093 72.2836 53.28C72.5982 53.4507 72.9476 53.5387 73.3316 53.544C73.7369 53.544 74.1049 53.4427 74.4356 53.24C74.7716 53.0373 75.0462 52.7573 75.2596 52.4L76.9476 52.792C76.6276 53.5013 76.1449 54.0827 75.4996 54.536C74.8542 54.984 74.1316 55.208 73.3316 55.208ZM71.0596 50.312H75.6036C75.5502 49.928 75.4142 49.5813 75.1956 49.272C74.9822 48.9573 74.7129 48.7093 74.3876 48.528C74.0676 48.3413 73.7156 48.248 73.3316 48.248C72.9529 48.248 72.6009 48.3387 72.2756 48.52C71.9556 48.7013 71.6889 48.9493 71.4756 49.264C71.2676 49.5733 71.1289 49.9227 71.0596 50.312ZM78.6576 55V43H80.3136V55H78.6576ZM85.8472 55.208C85.1112 55.208 84.4392 55.0187 83.8312 54.64C83.2285 54.2613 82.7459 53.7547 82.3832 53.12C82.0259 52.48 81.8472 51.7733 81.8472 51C81.8472 50.4133 81.9512 49.8667 82.1592 49.36C82.3672 48.848 82.6525 48.4 83.0152 48.016C83.3832 47.6267 83.8099 47.3227 84.2952 47.104C84.7805 46.8853 85.2979 46.776 85.8472 46.776C86.4605 46.776 87.0232 46.904 87.5352 47.16C88.0472 47.4107 88.4845 47.76 88.8472 48.208C89.2099 48.6507 89.4765 49.1627 89.6472 49.744C89.8179 50.32 89.8685 50.9333 89.7992 51.584H83.6312C83.7005 51.952 83.8339 52.2853 84.0312 52.584C84.2339 52.8773 84.4899 53.1093 84.7992 53.28C85.1139 53.4507 85.4632 53.5387 85.8472 53.544C86.2525 53.544 86.6205 53.4427 86.9512 53.24C87.2872 53.0373 87.5619 52.7573 87.7752 52.4L89.4632 52.792C89.1432 53.5013 88.6605 54.0827 88.0152 54.536C87.3699 54.984 86.6472 55.208 85.8472 55.208ZM83.5752 50.312H88.1192C88.0659 49.928 87.9299 49.5813 87.7112 49.272C87.4979 48.9573 87.2285 48.7093 86.9032 48.528C86.5832 48.3413 86.2312 48.248 85.8472 48.248C85.4685 48.248 85.1165 48.3387 84.7912 48.52C84.4712 48.7013 84.2045 48.9493 83.9912 49.264C83.7832 49.5733 83.6445 49.9227 83.5752 50.312ZM96.3481 52.728L97.8361 53.536C97.4734 54.0427 97.0121 54.448 96.4521 54.752C95.8974 55.056 95.2947 55.208 94.6441 55.208C93.9081 55.208 93.2361 55.0187 92.6281 54.64C92.0254 54.2613 91.5427 53.7547 91.1801 53.12C90.8227 52.48 90.6441 51.7733 90.6441 51C90.6441 50.4133 90.7481 49.8667 90.9561 49.36C91.1641 48.848 91.4494 48.4 91.8121 48.016C92.1801 47.6267 92.6067 47.3227 93.0921 47.104C93.5774 46.8853 94.0947 46.776 94.6441 46.776C95.2947 46.776 95.8974 46.928 96.4521 47.232C97.0121 47.536 97.4734 47.944 97.8361 48.456L96.3481 49.264C96.1241 48.9973 95.8627 48.7947 95.5641 48.656C95.2654 48.512 94.9587 48.44 94.6441 48.44C94.2067 48.44 93.8094 48.56 93.4521 48.8C93.1001 49.0347 92.8201 49.3467 92.6121 49.736C92.4094 50.12 92.3081 50.5413 92.3081 51C92.3081 51.4533 92.4121 51.8747 92.6201 52.264C92.8281 52.648 93.1081 52.9573 93.4601 53.192C93.8174 53.4267 94.2121 53.544 94.6441 53.544C94.9747 53.544 95.2894 53.4693 95.5881 53.32C95.8867 53.1707 96.1401 52.9733 96.3481 52.728ZM103.504 48.664H101.824L101.816 55H100.152L100.16 48.664H98.8883V47H100.16L100.152 44.488H101.816L101.824 47H103.504V48.664ZM114.26 47H116.036L111.652 59H109.884L111.332 55L108.46 47H110.276L112.164 52.72L114.26 47ZM120.472 55.208C119.736 55.208 119.064 55.0187 118.456 54.64C117.854 54.2613 117.371 53.7547 117.008 53.12C116.651 52.48 116.472 51.7733 116.472 51C116.472 50.4133 116.576 49.8667 116.784 49.36C116.992 48.848 117.278 48.4 117.64 48.016C118.008 47.6267 118.435 47.3227 118.92 47.104C119.406 46.8853 119.923 46.776 120.472 46.776C121.208 46.776 121.878 46.9653 122.48 47.344C123.088 47.7227 123.571 48.232 123.928 48.872C124.291 49.512 124.472 50.2213 124.472 51C124.472 51.5813 124.368 52.1253 124.16 52.632C123.952 53.1387 123.664 53.5867 123.296 53.976C122.934 54.36 122.51 54.6613 122.024 54.88C121.544 55.0987 121.027 55.208 120.472 55.208ZM120.472 53.544C120.915 53.544 121.312 53.4267 121.664 53.192C122.016 52.9573 122.294 52.648 122.496 52.264C122.704 51.8747 122.808 51.4533 122.808 51C122.808 50.536 122.702 50.1093 122.488 49.72C122.28 49.3307 122 49.0213 121.648 48.792C121.296 48.5573 120.904 48.44 120.472 48.44C120.035 48.44 119.638 48.5573 119.28 48.792C118.928 49.0267 118.648 49.3387 118.44 49.728C118.238 50.1173 118.136 50.5413 118.136 51C118.136 51.4747 118.243 51.904 118.456 52.288C118.67 52.672 118.952 52.9787 119.304 53.208C119.662 53.432 120.051 53.544 120.472 53.544ZM125.608 51.176V47H127.272V51.144C127.272 51.5973 127.366 52.0107 127.552 52.384C127.744 52.752 128.003 53.048 128.328 53.272C128.659 53.4907 129.035 53.6 129.456 53.6C129.867 53.6 130.227 53.4907 130.536 53.272C130.851 53.048 131.094 52.752 131.264 52.384C131.44 52.0107 131.528 51.5973 131.528 51.144V47H133.192V55H131.528V53.912C131.251 54.312 130.915 54.6293 130.52 54.864C130.126 55.0987 129.68 55.216 129.184 55.216C128.47 55.216 127.843 55.0347 127.304 54.672C126.771 54.304 126.358 53.8133 126.064 53.2C125.771 52.5867 125.619 51.912 125.608 51.176ZM139.836 48.672C139.698 48.5867 139.546 48.52 139.38 48.472C139.22 48.4187 139.044 48.392 138.852 48.392C138.436 48.392 138.074 48.5013 137.764 48.72C137.455 48.9387 137.212 49.2347 137.036 49.608C136.866 49.9813 136.78 50.3947 136.78 50.848V55H135.108V47H136.772V48.08C137.05 47.68 137.386 47.3653 137.78 47.136C138.18 46.9013 138.626 46.784 139.116 46.784C139.298 46.784 139.468 46.792 139.628 46.808C139.794 46.824 139.951 46.856 140.1 46.904L139.836 48.672ZM145.236 55V43.8H147.036L152.172 51.992V43.8H153.836V55H152.044L146.892 46.808V55H145.236ZM156.015 55V43.8H162.615V45.464H157.679V48.168H161.847V49.832H157.679V55H156.015ZM172.205 43.8V45.464H168.637V55H166.973V45.464H163.413V43.8H172.205Z" fill="black"/>
<rect x="96" width="30" height="30" rx="15" fill="#FF4F0D"/>
<path d="M110.767 20.5V11.252H109.359L109.887 9.3H112.719V20.5H110.767Z" fill="white"/>
</svg>
