<svg xmlns="http://www.w3.org/2000/svg" xmlns:xlink="http://www.w3.org/1999/xlink" width="250" zoomAndPan="magnify" viewBox="0 0 187.5 187.499992" height="250" preserveAspectRatio="xMidYMid meet" version="1.0"><defs><clipPath id="id1"><path d="M 0 0 L 187 0 L 187 187 L 0 187 Z M 0 0 " clip-rule="nonzero"/></clipPath></defs><g clip-path="url(#id1)"><path fill="rgb(69.018555%, 70.979309%, 71.759033%)" d="M 187.5 93.75 C 187.5 95.285156 187.460938 96.816406 187.386719 98.351562 C 187.3125 99.882812 187.199219 101.414062 187.046875 102.9375 C 186.898438 104.464844 186.710938 105.988281 186.484375 107.507812 C 186.261719 109.023438 185.996094 110.535156 185.699219 112.039062 C 185.398438 113.542969 185.0625 115.042969 184.691406 116.53125 C 184.316406 118.019531 183.910156 119.496094 183.464844 120.964844 C 183.019531 122.433594 182.535156 123.890625 182.019531 125.332031 C 181.503906 126.777344 180.949219 128.210938 180.363281 129.625 C 179.777344 131.042969 179.15625 132.445312 178.5 133.832031 C 177.84375 135.21875 177.152344 136.589844 176.429688 137.945312 C 175.707031 139.296875 174.949219 140.632812 174.160156 141.945312 C 173.375 143.261719 172.550781 144.558594 171.699219 145.835938 C 170.847656 147.109375 169.964844 148.363281 169.050781 149.597656 C 168.136719 150.828125 167.191406 152.039062 166.21875 153.222656 C 165.246094 154.410156 164.246094 155.570312 163.214844 156.707031 C 162.183594 157.84375 161.125 158.957031 160.042969 160.042969 C 158.957031 161.125 157.84375 162.183594 156.707031 163.214844 C 155.570312 164.246094 154.410156 165.246094 153.222656 166.21875 C 152.039062 167.191406 150.828125 168.136719 149.597656 169.050781 C 148.363281 169.964844 147.109375 170.847656 145.835938 171.699219 C 144.558594 172.550781 143.261719 173.375 141.945312 174.160156 C 140.632812 174.949219 139.296875 175.707031 137.945312 176.429688 C 136.589844 177.152344 135.21875 177.84375 133.832031 178.5 C 132.445312 179.15625 131.042969 179.777344 129.625 180.363281 C 128.210938 180.949219 126.777344 181.503906 125.332031 182.019531 C 123.890625 182.535156 122.433594 183.019531 120.964844 183.464844 C 119.496094 183.910156 118.019531 184.316406 116.53125 184.691406 C 115.042969 185.0625 113.542969 185.398438 112.039062 185.699219 C 110.535156 185.996094 109.023438 186.261719 107.507812 186.484375 C 105.988281 186.710938 104.464844 186.898438 102.9375 187.046875 C 101.414062 187.199219 99.882812 187.3125 98.351562 187.386719 C 96.816406 187.460938 95.285156 187.5 93.75 187.5 C 92.214844 187.5 90.683594 187.460938 89.148438 187.386719 C 87.617188 187.3125 86.085938 187.199219 84.5625 187.046875 C 83.035156 186.898438 81.511719 186.710938 79.992188 186.484375 C 78.476562 186.261719 76.964844 185.996094 75.460938 185.699219 C 73.957031 185.398438 72.457031 185.0625 70.96875 184.691406 C 69.480469 184.316406 68.003906 183.910156 66.535156 183.464844 C 65.066406 183.019531 63.609375 182.535156 62.167969 182.019531 C 60.722656 181.503906 59.289062 180.949219 57.875 180.363281 C 56.457031 179.777344 55.054688 179.15625 53.667969 178.5 C 52.28125 177.84375 50.910156 177.152344 49.554688 176.429688 C 48.203125 175.707031 46.867188 174.949219 45.554688 174.160156 C 44.238281 173.375 42.941406 172.550781 41.664062 171.699219 C 40.390625 170.847656 39.136719 169.964844 37.902344 169.050781 C 36.671875 168.136719 35.460938 167.191406 34.277344 166.21875 C 33.089844 165.246094 31.929688 164.246094 30.792969 163.214844 C 29.65625 162.183594 28.542969 161.125 27.457031 160.042969 C 26.375 158.957031 25.316406 157.84375 24.285156 156.707031 C 23.253906 155.570312 22.253906 154.410156 21.28125 153.222656 C 20.308594 152.039062 19.363281 150.828125 18.449219 149.597656 C 17.535156 148.363281 16.652344 147.109375 15.800781 145.835938 C 14.949219 144.558594 14.125 143.261719 13.339844 141.945312 C 12.550781 140.632812 11.792969 139.296875 11.070312 137.945312 C 10.347656 136.589844 9.65625 135.21875 9 133.832031 C 8.34375 132.445312 7.722656 131.042969 7.136719 129.625 C 6.550781 128.210938 5.996094 126.777344 5.480469 125.332031 C 4.964844 123.890625 4.480469 122.433594 4.035156 120.964844 C 3.589844 119.496094 3.183594 118.019531 2.808594 116.53125 C 2.4375 115.042969 2.101562 113.542969 1.800781 112.039062 C 1.503906 110.535156 1.238281 109.023438 1.015625 107.507812 C 0.789062 105.988281 0.601562 104.464844 0.453125 102.9375 C 0.300781 101.414062 0.1875 99.882812 0.113281 98.351562 C 0.0390625 96.816406 0 95.285156 0 93.75 C 0 92.214844 0.0390625 90.683594 0.113281 89.148438 C 0.1875 87.617188 0.300781 86.085938 0.453125 84.5625 C 0.601562 83.035156 0.789062 81.511719 1.015625 79.992188 C 1.238281 78.476562 1.503906 76.964844 1.800781 75.460938 C 2.101562 73.957031 2.4375 72.457031 2.808594 70.96875 C 3.183594 69.480469 3.589844 68.003906 4.035156 66.535156 C 4.480469 65.066406 4.964844 63.609375 5.480469 62.167969 C 5.996094 60.722656 6.550781 59.289062 7.136719 57.875 C 7.722656 56.457031 8.34375 55.054688 9 53.667969 C 9.65625 52.28125 10.347656 50.910156 11.070312 49.554688 C 11.792969 48.203125 12.550781 46.867188 13.339844 45.554688 C 14.125 44.238281 14.949219 42.941406 15.800781 41.664062 C 16.652344 40.390625 17.535156 39.136719 18.449219 37.902344 C 19.363281 36.671875 20.308594 35.460938 21.28125 34.277344 C 22.253906 33.089844 23.253906 31.929688 24.285156 30.792969 C 25.316406 29.65625 26.375 28.542969 27.457031 27.457031 C 28.542969 26.375 29.65625 25.316406 30.792969 24.285156 C 31.929688 23.253906 33.089844 22.253906 34.277344 21.28125 C 35.460938 20.308594 36.671875 19.363281 37.902344 18.449219 C 39.136719 17.535156 40.390625 16.652344 41.664062 15.800781 C 42.941406 14.949219 44.238281 14.125 45.554688 13.339844 C 46.867188 12.550781 48.203125 11.792969 49.554688 11.070312 C 50.910156 10.347656 52.28125 9.65625 53.667969 9 C 55.054688 8.34375 56.457031 7.722656 57.875 7.136719 C 59.289062 6.550781 60.722656 5.996094 62.167969 5.480469 C 63.609375 4.964844 65.066406 4.480469 66.535156 4.035156 C 68.003906 3.589844 69.480469 3.183594 70.96875 2.808594 C 72.457031 2.4375 73.957031 2.101562 75.460938 1.800781 C 76.964844 1.503906 78.476562 1.238281 79.992188 1.015625 C 81.511719 0.789062 83.035156 0.601562 84.5625 0.453125 C 86.085938 0.300781 87.617188 0.1875 89.148438 0.113281 C 90.683594 0.0390625 92.214844 0 93.75 0 C 95.285156 0 96.816406 0.0390625 98.351562 0.113281 C 99.882812 0.1875 101.414062 0.300781 102.9375 0.453125 C 104.464844 0.601562 105.988281 0.789062 107.507812 1.015625 C 109.023438 1.238281 110.535156 1.503906 112.039062 1.800781 C 113.542969 2.101562 115.042969 2.4375 116.53125 2.808594 C 118.019531 3.183594 119.496094 3.589844 120.964844 4.035156 C 122.433594 4.480469 123.890625 4.964844 125.332031 5.480469 C 126.777344 5.996094 128.210938 6.550781 129.625 7.136719 C 131.042969 7.722656 132.445312 8.34375 133.832031 9 C 135.21875 9.65625 136.589844 10.347656 137.945312 11.070312 C 139.296875 11.792969 140.632812 12.550781 141.945312 13.339844 C 143.261719 14.125 144.558594 14.949219 145.835938 15.800781 C 147.109375 16.652344 148.363281 17.535156 149.597656 18.449219 C 150.828125 19.363281 152.039062 20.308594 153.222656 21.28125 C 154.410156 22.253906 155.570312 23.253906 156.707031 24.285156 C 157.84375 25.316406 158.957031 26.375 160.042969 27.457031 C 161.125 28.542969 162.183594 29.65625 163.214844 30.792969 C 164.246094 31.929688 165.246094 33.089844 166.21875 34.277344 C 167.191406 35.460938 168.136719 36.671875 169.050781 37.902344 C 169.964844 39.136719 170.847656 40.390625 171.699219 41.664062 C 172.550781 42.941406 173.375 44.238281 174.160156 45.554688 C 174.949219 46.867188 175.707031 48.203125 176.429688 49.554688 C 177.152344 50.910156 177.84375 52.28125 178.5 53.667969 C 179.15625 55.054688 179.777344 56.457031 180.363281 57.875 C 180.949219 59.289062 181.503906 60.722656 182.019531 62.167969 C 182.535156 63.609375 183.019531 65.066406 183.464844 66.535156 C 183.910156 68.003906 184.316406 69.480469 184.691406 70.96875 C 185.0625 72.457031 185.398438 73.957031 185.699219 75.460938 C 185.996094 76.964844 186.261719 78.476562 186.484375 79.992188 C 186.710938 81.511719 186.898438 83.035156 187.046875 84.5625 C 187.199219 86.085938 187.3125 87.617188 187.386719 89.148438 C 187.460938 90.683594 187.5 92.214844 187.5 93.75 Z M 187.5 93.75 " fill-opacity="1" fill-rule="nonzero"/></g><path fill="rgb(100%, 100%, 100%)" d="M 85.464844 139.132812 C 84.925781 140.105469 82.097656 128.574219 73.96875 123.328125 C 66.628906 118.59375 53.816406 120.207031 54.921875 118.957031 C 61.09375 111.375 72.707031 114.511719 75.3125 110.941406 L 77.882812 107.050781 C 77.882812 107.050781 99.578125 74.199219 100.886719 72.21875 C 102.582031 69.652344 99.132812 57.019531 100.652344 52.488281 C 100.652344 52.488281 112.773438 69.832031 129.648438 71.058594 C 126.691406 73.476562 112.824219 75.339844 110.535156 78.253906 C 108.765625 80.496094 87.328125 113.320312 87.328125 113.320312 C 87.328125 113.320312 85.945312 114.90625 84.789062 117.234375 C 82.738281 121.367188 89.859375 130.859375 85.464844 139.132812 " fill-opacity="1" fill-rule="nonzero"/><path fill="rgb(100%, 100%, 100%)" d="M 52.863281 139.355469 L 63.097656 123.859375 L 72.726562 124.339844 L 77.1875 133.210938 L 66.789062 148.953125 C 73.5 150.019531 80.328125 147.417969 84.113281 141.6875 C 89.40625 133.671875 86.757812 122.570312 78.199219 116.890625 C 69.640625 111.210938 58.410156 113.097656 53.117188 121.113281 C 49.457031 126.65625 49.597656 133.671875 52.863281 139.355469 " fill-opacity="1" fill-rule="nonzero"/><path fill="rgb(100%, 100%, 100%)" d="M 134.4375 48.191406 L 124.207031 63.6875 C 124.207031 63.6875 119.273438 66.691406 114.574219 63.207031 C 109.878906 59.71875 110.117188 54.335938 110.117188 54.335938 L 120.511719 38.59375 C 113.800781 37.527344 106.976562 40.125 103.1875 45.859375 C 97.894531 53.871094 100.542969 64.972656 109.101562 70.65625 C 117.660156 76.335938 128.890625 74.445312 134.183594 66.433594 C 137.84375 60.890625 137.703125 53.871094 134.4375 48.191406 " fill-opacity="1" fill-rule="nonzero"/></svg>