<svg width="27" height="27" viewBox="0 0 27 27" fill="none" xmlns="http://www.w3.org/2000/svg">
<rect width="27" height="27" rx="13.5" fill="#009F42"/>
<path d="M9.99938 19V17.256C10.346 16.9947 10.7567 16.672 11.2314 16.288C11.706 15.8987 12.194 15.48 12.6954 15.032C13.1967 14.5787 13.6607 14.1253 14.0874 13.672C14.514 13.2187 14.8607 12.7867 15.1274 12.376C15.3994 11.9653 15.5354 11.6133 15.5354 11.32C15.5354 10.9947 15.4554 10.6987 15.2954 10.432C15.1354 10.16 14.922 9.944 14.6554 9.784C14.394 9.624 14.1007 9.544 13.7754 9.544C13.45 9.544 13.154 9.624 12.8874 9.784C12.6207 9.944 12.4074 10.16 12.2474 10.432C12.0874 10.6987 12.0074 10.9947 12.0074 11.32H10.0554C10.0554 10.616 10.226 9.984 10.5674 9.424C10.9087 8.85867 11.3594 8.41333 11.9194 8.088C12.4847 7.75733 13.1034 7.592 13.7754 7.592C14.458 7.592 15.0794 7.76 15.6394 8.096C16.1994 8.42667 16.6474 8.87467 16.9834 9.44C17.3194 10.0053 17.4874 10.632 17.4874 11.32C17.4874 11.6827 17.4207 12.048 17.2874 12.416C17.154 12.784 16.9674 13.1547 16.7274 13.528C16.4874 13.9013 16.2047 14.28 15.8794 14.664C15.554 15.0427 15.194 15.432 14.7994 15.832C14.41 16.2267 13.9994 16.632 13.5674 17.048H17.5434V19H9.99938Z" fill="white"/>
</svg>
