<svg width="69" height="69" viewBox="0 0 69 69" fill="none" xmlns="http://www.w3.org/2000/svg">
<path d="M34.125 0C15.2801 0 0 15.2801 0 34.125C0 52.9699 15.2801 68.25 34.125 68.25C52.9699 68.25 68.25 52.9699 68.25 34.125C68.25 15.2801 52.9699 0 34.125 0ZM34.125 62.4609C18.4793 62.4609 5.78906 49.7707 5.78906 34.125C5.78906 18.4793 18.4793 5.78906 34.125 5.78906C49.7707 5.78906 62.4609 18.4793 62.4609 34.125C62.4609 49.7707 49.7707 62.4609 34.125 62.4609Z" fill="#FF4F0D"/>
<path d="M30.4688 20.7188C30.4688 21.6884 30.854 22.6184 31.5396 23.3041C32.2253 23.9898 33.1553 24.375 34.125 24.375C35.0947 24.375 36.0247 23.9898 36.7104 23.3041C37.396 22.6184 37.7812 21.6884 37.7812 20.7188C37.7812 19.7491 37.396 18.8191 36.7104 18.1334C36.0247 17.4477 35.0947 17.0625 34.125 17.0625C33.1553 17.0625 32.2253 17.4477 31.5396 18.1334C30.854 18.8191 30.4688 19.7491 30.4688 20.7188V20.7188ZM35.9531 29.25H32.2969C31.9617 29.25 31.6875 29.5242 31.6875 29.8594V50.5781C31.6875 50.9133 31.9617 51.1875 32.2969 51.1875H35.9531C36.2883 51.1875 36.5625 50.9133 36.5625 50.5781V29.8594C36.5625 29.5242 36.2883 29.25 35.9531 29.25Z" fill="#FF4F0D"/>
</svg>
