<svg width="185" height="38" viewBox="0 0 185 38" fill="none" xmlns="http://www.w3.org/2000/svg">
<path d="M53.4404 12.6045H55.3916L60.8838 25.3955H58.2822L57.0898 22.4687H51.5615L50.4053 25.3955H47.876L53.4404 12.6045ZM56.3311 20.5176L54.3799 15.3145L52.3926 20.5176H56.3311ZM63.3408 12.6045H65.9424L69.4111 22.252L72.9883 12.6045H75.4092L70.2783 25.3955H68.3272L63.3408 12.6045ZM83.5391 12.6045H85.4902L90.9824 25.3955H88.3809L87.1885 22.4687H81.6602L80.5039 25.3955H77.9746L83.5391 12.6045ZM86.3936 20.5176L84.4424 15.3145L82.4551 20.5176H86.3936ZM96.0049 12.6045H98.2812V23.2998H103.701V25.3594H96.0049V12.6045ZM113.023 12.6045H114.975L120.467 25.3955H117.865L116.673 22.4687H111.145L109.988 25.3955H107.459L113.023 12.6045ZM115.914 20.5176L113.963 15.3145L111.976 20.5176H115.914ZM125.489 12.6045H128.488L134.667 22.1074H134.703V12.6045H136.979V25.3955H134.089L127.802 15.6035H127.766V25.3955H125.489V12.6045ZM152.155 15.6035C151.686 15.0977 151.216 14.7725 150.782 14.5918C150.349 14.4111 149.915 14.3389 149.481 14.3389C148.831 14.3389 148.217 14.4473 147.675 14.7002C147.133 14.917 146.699 15.2422 146.302 15.6758C145.904 16.0732 145.615 16.5791 145.398 17.1211C145.182 17.6631 145.109 18.2773 145.109 18.8916C145.109 19.5781 145.218 20.1924 145.398 20.7705C145.615 21.3486 145.904 21.8545 146.302 22.2881C146.699 22.7217 147.133 23.0469 147.675 23.2637C148.217 23.5166 148.831 23.625 149.481 23.625C149.987 23.625 150.493 23.5166 150.963 23.2637C151.469 23.0107 151.902 22.6133 152.336 22.0713L154.215 23.4082C153.637 24.2031 152.95 24.7812 152.119 25.1426C151.288 25.5039 150.421 25.6846 149.481 25.6846C148.506 25.6846 147.603 25.54 146.771 25.2148C145.94 24.8896 145.254 24.4561 144.64 23.8418C144.062 23.2637 143.592 22.541 143.267 21.7461C142.941 20.915 142.761 20.0117 142.761 19.0361C142.761 18.0244 142.941 17.085 143.267 16.2539C143.592 15.4229 144.062 14.7002 144.64 14.0859C145.254 13.5078 145.94 13.0381 146.771 12.7129C147.603 12.3877 148.506 12.207 149.481 12.207C150.349 12.207 151.144 12.3516 151.866 12.6768C152.625 12.9658 153.312 13.5078 153.926 14.2305L152.155 15.6035ZM159.31 12.6045H161.586V17.6992H167.548V12.6045H169.824V25.3955H167.548V19.7588H161.586V25.3955H159.31V12.6045ZM176.256 12.6045H184.675V14.6641H178.496V17.8076H184.35V19.8672H178.496V23.3359H185V25.3955H176.256V12.6045Z" fill="#A3A3A3"/>
<path d="M18.5 37.5C28.7173 37.5 37 29.2173 37 19C37 8.78273 28.7173 0.5 18.5 0.5C8.28273 0.5 0 8.78273 0 19C0 29.2173 8.28273 37.5 18.5 37.5Z" fill="#A3A3A3"/>
<path d="M12.7549 26.5518H8.27439C7.22654 26.5518 6.68455 26.5518 6.35935 26.335C5.99802 26.1182 5.78123 25.7207 5.78123 25.3232C5.7451 24.9619 6.03416 24.4922 6.54002 23.5527L16.3681 6.28125C16.9101 5.3418 17.1631 4.87207 17.5244 4.69141C17.8857 4.51074 18.3193 4.51074 18.6806 4.69141C19.0058 4.87207 19.2949 5.3418 19.8369 6.28125L22.1133 10.2559C22.5107 10.9424 22.6914 11.2676 22.7636 11.6289C22.872 12.0264 22.872 12.4238 22.7636 12.8213C22.6914 13.1826 22.4746 13.5078 22.1133 14.1943L16.1875 24.5283C15.79 25.2148 15.6094 25.5762 15.3203 25.8291C15.0312 26.1182 14.6699 26.335 14.2724 26.4434C13.9472 26.5518 13.5498 26.5518 12.7549 26.5518Z" fill="white"/>
<path d="M28.7617 26.5518H23.5586C22.4746 26.5518 21.9687 26.5518 21.6435 26.335C21.2822 26.1182 21.0654 25.7207 21.0654 25.3232C21.0293 24.9258 21.3183 24.4922 21.8603 23.5527L24.4619 19.0723C25.0039 18.1689 25.2568 17.6992 25.582 17.5186C25.9433 17.3379 26.3769 17.3379 26.7383 17.5186C27.0634 17.6992 27.3525 18.1328 27.8945 19.0723L30.4961 23.5527C31.0381 24.4922 31.3271 24.9619 31.291 25.3232C31.2549 25.7207 31.0381 26.1182 30.7129 26.335C30.3515 26.5518 29.8095 26.5518 28.7617 26.5518Z" fill="white"/>
</svg>
