<svg width="247" height="54" viewBox="0 0 247 54" fill="none" xmlns="http://www.w3.org/2000/svg">
<path fill-rule="evenodd" clip-rule="evenodd" d="M31.0037 3.34279C31.3896 3.47136 31.7756 3.47136 32.2902 3.59993C32.5475 3.59993 32.8048 3.85708 32.8048 4.11422C32.9334 4.62851 33.1907 5.14279 33.3193 5.78565C33.448 6.04279 33.3193 6.29994 33.062 6.17136C32.6761 6.04279 32.2902 6.04279 31.9042 5.91422C31.6469 5.91422 31.5183 5.65708 31.3896 5.39993C31.261 4.88565 31.0037 4.24279 30.8751 3.72851C30.7464 3.47136 30.8751 3.21422 31.0037 3.34279Z" fill="white"/>
<path fill-rule="evenodd" clip-rule="evenodd" d="M32.4188 0.642829C32.8048 0.771401 33.3194 0.899972 33.7053 1.02854C33.9626 1.02854 34.2199 1.41426 34.2199 1.6714C34.3485 2.05711 34.6058 2.5714 34.7345 3.08569C34.8631 3.34283 34.7345 3.4714 34.4772 3.4714C34.0912 3.34283 33.7053 3.21426 33.1907 3.21426C32.9334 3.21426 32.6761 2.95712 32.6761 2.5714C32.5475 2.05712 32.2902 1.54283 32.1616 0.899972C32.0329 0.771401 32.1616 0.514258 32.4188 0.642829Z" fill="white"/>
<path fill-rule="evenodd" clip-rule="evenodd" d="M34.8631 1.28564C35.249 1.41422 35.7636 1.54279 36.1495 1.67136C36.4068 1.79993 36.6641 2.05707 36.6641 2.31422C36.9214 2.8285 37.0501 3.34279 37.3074 3.85707C37.436 4.11422 37.3074 4.24279 37.0501 4.24279C36.6641 4.11422 36.1495 3.98564 35.7636 3.85707C35.5063 3.85707 35.249 3.47136 35.249 3.21422C35.1204 2.69993 34.8631 2.18564 34.7344 1.67136C34.6058 1.41422 34.7344 1.28564 34.8631 1.28564Z" fill="white"/>
<path fill-rule="evenodd" clip-rule="evenodd" d="M42.5818 4.11426C42.9677 4.24283 43.4823 4.49997 43.8682 4.75711C44.1255 4.88569 44.3828 5.14283 44.3828 5.39997C44.5114 5.91426 44.6401 6.29997 44.8974 6.81426C45.026 7.0714 44.8974 7.19997 44.6401 7.0714C44.2542 6.81426 43.7396 6.68569 43.3536 6.55711C43.0963 6.42854 42.839 6.1714 42.839 5.91426C42.7104 5.39997 42.5818 5.01426 42.3245 4.49997C42.3245 4.11426 42.4531 4.11426 42.5818 4.11426Z" fill="white"/>
<path fill-rule="evenodd" clip-rule="evenodd" d="M33.4479 3.85707C33.8339 3.98565 34.2198 3.98565 34.7344 4.11422C34.9917 4.11422 35.249 4.37136 35.249 4.75707C35.3776 5.27136 35.6349 5.78565 35.7635 6.29993C35.8922 6.55707 35.7636 6.68565 35.5063 6.68565C35.1203 6.55707 34.7344 6.4285 34.3484 6.4285C34.0912 6.4285 33.9625 6.17136 33.8339 5.91422C33.7052 5.39993 33.4479 4.88565 33.3193 4.24279C33.1906 3.98565 33.3193 3.7285 33.4479 3.85707Z" fill="white"/>
<path fill-rule="evenodd" clip-rule="evenodd" d="M35.8922 4.49999C36.2781 4.62856 36.7927 4.75713 37.1786 4.8857C37.4359 4.8857 37.6932 5.14284 37.6932 5.39999C37.8219 5.91427 38.0792 6.42856 38.2078 6.94284C38.3365 7.19999 38.2078 7.32856 37.9505 7.32856C37.5646 7.19999 37.05 7.07141 36.6641 7.07141C36.4068 7.07141 36.1495 6.81427 36.1495 6.55713C36.0208 6.04284 35.7635 5.52856 35.6349 5.01427C35.6349 4.49999 35.7635 4.37141 35.8922 4.49999Z" fill="white"/>
<path fill-rule="evenodd" clip-rule="evenodd" d="M38.4651 5.14282C38.851 5.27139 39.3656 5.39997 39.7516 5.52854C40.0089 5.65711 40.2661 5.91425 40.2661 6.17139C40.3948 6.68568 40.6521 7.19997 40.7807 7.58568C40.9094 7.84282 40.7807 7.97139 40.5234 7.84282C40.1375 7.71425 39.6229 7.58568 39.237 7.45711C38.9797 7.45711 38.7224 7.19997 38.7224 6.94282C38.5938 6.42854 38.3365 5.91425 38.2078 5.39996C38.0792 5.27139 38.2078 5.14282 38.4651 5.14282Z" fill="white"/>
<path fill-rule="evenodd" clip-rule="evenodd" d="M41.0381 6.04287C41.424 6.17144 41.9386 6.30001 42.3246 6.55716C42.5819 6.68573 42.8391 6.94287 42.8391 7.20001C42.9678 7.7143 43.0964 8.10001 43.3537 8.6143C43.4824 8.87144 43.3537 9.00001 43.0964 8.87144C42.7105 8.74287 42.1959 8.6143 41.81 8.35716C41.5527 8.22859 41.2954 7.97144 41.2954 7.7143C41.1668 7.20001 40.9095 6.68573 40.7808 6.30001C40.6522 6.04287 40.7808 5.9143 41.0381 6.04287Z" fill="white"/>
<path fill-rule="evenodd" clip-rule="evenodd" d="M43.611 7.07144C43.9969 7.20001 44.5115 7.45715 44.8974 7.58572C45.1547 7.71429 45.412 7.97144 45.412 8.22858C45.5407 8.74286 45.6693 9.12858 45.9266 9.64286C46.0553 9.90001 45.9266 10.0286 45.6693 9.90001C45.2834 9.64286 44.7688 9.51429 44.3829 9.38572C44.1256 9.25715 43.8683 9.00001 43.8683 8.74286C43.7396 8.22858 43.611 7.84286 43.3537 7.32858C43.225 7.07144 43.3537 6.94286 43.611 7.07144Z" fill="white"/>
<path fill-rule="evenodd" clip-rule="evenodd" d="M39.4943 8.22854C39.8802 8.35711 40.3948 8.48568 40.7807 8.61425C41.038 8.74283 41.2953 8.99997 41.2953 9.12854C41.424 9.64283 41.6813 10.1571 41.8099 10.5428C41.9386 10.8 41.8099 10.9285 41.5526 10.9285C41.1667 10.8 40.6521 10.6714 40.2662 10.5428C40.0089 10.5428 39.7516 10.2857 39.7516 10.0285C39.6229 9.51425 39.3656 8.99997 39.237 8.48568C39.1083 8.22854 39.237 8.09997 39.4943 8.22854Z" fill="white"/>
<path fill-rule="evenodd" clip-rule="evenodd" d="M41.9386 8.99999C42.3245 9.12856 42.8391 9.25713 43.225 9.51427C43.4823 9.64284 43.7396 9.89999 43.7396 10.1571C43.8683 10.6714 44.1255 11.0571 44.2542 11.5714C44.3828 11.8286 44.2542 11.9571 43.9969 11.8286C43.611 11.7 43.0964 11.5714 42.7104 11.4428C42.4531 11.3143 42.1959 11.0571 42.1959 10.9286C42.0672 10.4143 41.8099 9.89999 41.6813 9.51427C41.6813 8.99999 41.8099 8.87141 41.9386 8.99999Z" fill="white"/>
<path fill-rule="evenodd" clip-rule="evenodd" d="M38.0792 10.6714C38.4651 10.8 38.8511 10.8 39.3657 10.9285C39.6229 10.9285 39.8802 11.1857 39.8802 11.4428C40.0089 11.9571 40.2662 12.4714 40.3948 12.9857C40.5235 13.2428 40.3948 13.3714 40.1375 13.3714C39.7516 13.2428 39.3657 13.2428 38.9797 13.1142C38.7224 13.1142 38.5938 12.8571 38.4651 12.6C38.3365 12.0857 38.0792 11.5714 37.9505 11.0571C37.6933 10.8 37.8219 10.6714 38.0792 10.6714Z" fill="white"/>
<path fill-rule="evenodd" clip-rule="evenodd" d="M40.5235 11.1857C40.9094 11.3142 41.424 11.4428 41.8099 11.5714C42.0672 11.5714 42.3245 11.8285 42.3245 12.0857C42.4531 12.6 42.7104 13.1142 42.8391 13.5C42.9677 13.7571 42.8391 13.8857 42.5818 13.8857C42.1959 13.7571 41.6813 13.6285 41.2953 13.6285C41.038 13.6285 40.7808 13.3714 40.7808 13.1142C40.6521 12.6 40.3948 12.0857 40.2662 11.5714C40.1375 11.3142 40.2662 11.1857 40.5235 11.1857Z" fill="white"/>
<path fill-rule="evenodd" clip-rule="evenodd" d="M42.9677 11.9571C43.3537 12.0857 43.8683 12.2143 44.2542 12.3429C44.5115 12.4714 44.7688 12.7286 44.7688 12.9857C44.8974 13.5 45.1547 13.8857 45.2834 14.4C45.412 14.6572 45.2834 14.7857 45.0261 14.6571C44.6401 14.5286 44.1256 14.4 43.7396 14.2714C43.4823 14.1429 43.225 14.0143 43.225 13.7571C43.0964 13.2429 42.8391 12.7286 42.7104 12.3429C42.7104 11.9572 42.7105 11.8286 42.9677 11.9571Z" fill="white"/>
<path fill-rule="evenodd" clip-rule="evenodd" d="M45.5407 12.8571C45.9266 12.9857 46.4412 13.2428 46.8271 13.3714C47.0844 13.4999 47.3417 13.7571 47.3417 14.0142C47.4704 14.5285 47.599 14.9142 47.8563 15.4285C47.9849 15.6857 47.8563 15.8142 47.599 15.6857C47.2131 15.5571 46.6985 15.2999 46.3125 15.1714C46.0553 15.0428 45.798 14.7857 45.798 14.5285C45.6693 14.0142 45.5407 13.6285 45.2834 13.1142C45.1547 12.8571 45.2834 12.7285 45.5407 12.8571Z" fill="white"/>
<path fill-rule="evenodd" clip-rule="evenodd" d="M45.5407 5.5286C46.0553 5.78574 46.4412 6.04288 46.9558 6.30003C47.2131 6.4286 47.4704 6.81431 47.599 6.94288C47.7277 7.45717 47.8563 7.84288 48.1136 8.35717C48.2422 8.61431 48.1136 8.61431 47.8563 8.48574C47.2131 8.2286 46.6985 7.97146 46.3125 7.71431C46.0553 7.58574 45.798 7.3286 45.798 7.07146C45.6693 6.55717 45.5407 6.17146 45.2834 5.65717C45.1547 5.5286 45.2834 5.40003 45.5407 5.5286Z" fill="white"/>
<path fill-rule="evenodd" clip-rule="evenodd" d="M46.4412 8.35708C46.9558 8.61422 47.3417 8.87137 47.8563 8.99994C48.1136 9.12851 48.3709 9.51422 48.4995 9.64279C48.6282 10.1571 48.7568 10.5428 49.0141 11.0571C49.1427 11.3142 49.0141 11.3142 48.7568 11.1857C48.2422 10.9285 47.8563 10.6714 47.3417 10.5428C47.0844 10.4142 46.8271 10.1571 46.8271 9.89994C46.4412 9.51422 46.3125 8.99994 46.1839 8.61422C46.0552 8.35708 46.1839 8.22851 46.4412 8.35708Z" fill="white"/>
<path fill-rule="evenodd" clip-rule="evenodd" d="M47.3417 11.1857C47.8563 11.4428 48.2422 11.5714 48.7568 11.8286C49.0141 11.9571 49.2714 12.2143 49.4001 12.4714C49.5287 12.9857 49.6573 13.3714 49.9146 13.8857C50.0433 14.1428 49.9146 14.1428 49.6573 14.0143C49.1428 13.7571 48.7568 13.5 48.2422 13.3714C47.985 13.2428 47.7277 12.9857 47.7277 12.7286C47.599 12.2143 47.4704 11.8286 47.2131 11.3143C47.0844 11.1857 47.2131 11.0571 47.3417 11.1857Z" fill="white"/>
<path fill-rule="evenodd" clip-rule="evenodd" d="M48.3708 14.0143C48.8854 14.2715 49.2713 14.4 49.7859 14.6572C50.0432 14.7857 50.3005 15.0429 50.4292 15.3C50.5578 15.8143 50.6864 16.2 50.9437 16.7143C51.0724 16.9715 50.9437 16.9715 50.6864 16.8429C50.1719 16.5857 49.7859 16.4572 49.2713 16.2C49.014 16.0715 48.7568 15.8143 48.7568 15.5572C48.6281 15.0429 48.4995 14.6572 48.2422 14.1429C47.9849 14.0143 48.1135 13.8857 48.3708 14.0143Z" fill="white"/>
<path fill-rule="evenodd" clip-rule="evenodd" d="M48.2422 7.0714C48.7568 7.32855 49.2714 7.71426 49.6573 7.9714C49.9146 8.09997 50.1719 8.48569 50.3005 8.74283C50.4292 9.25712 50.5578 9.64283 50.8151 10.1571C50.9438 10.4143 50.8151 10.4143 50.5578 10.2857C50.0432 9.89997 49.5287 9.64283 49.1427 9.38569C48.8854 9.25712 48.6281 8.8714 48.4995 8.74283C48.3709 8.22855 48.2422 7.84283 47.9849 7.32854C47.8563 6.94283 47.9849 6.94283 48.2422 7.0714Z" fill="white"/>
<path fill-rule="evenodd" clip-rule="evenodd" d="M51.2011 9.00002C51.7157 9.38574 52.2303 9.90002 52.7449 10.2857C53.0022 10.5429 53.2595 10.9286 53.3881 11.0572C53.5167 11.4429 53.6454 11.9572 53.9027 12.4715C54.0313 12.7286 53.774 12.7286 53.5167 12.4715C53.0022 12.0857 52.4876 11.5715 51.973 11.1857C51.7157 10.9286 51.4584 10.6715 51.3298 10.4143C51.2011 9.90002 51.0725 9.51431 50.8152 9.00002C50.8152 8.87145 50.9438 8.74288 51.2011 9.00002Z" fill="white"/>
<path fill-rule="evenodd" clip-rule="evenodd" d="M54.4172 11.8285C55.0604 12.4714 55.7037 13.2428 56.4755 14.2714C56.8615 14.7857 60.0776 24.4285 60.0776 24.4285C60.0776 24.4285 57.3761 16.7142 57.1188 16.3285C56.4755 15.4285 55.7037 14.6571 55.1891 14.0142C54.9318 13.7571 54.6745 13.3714 54.5459 13.1142C54.4172 12.7285 54.2886 12.2142 54.1599 11.8285C53.9026 11.4428 54.1599 11.5714 54.4172 11.8285Z" fill="white"/>
<path fill-rule="evenodd" clip-rule="evenodd" d="M52.1016 11.6999C52.6162 12.0857 53.1308 12.4714 53.6454 12.9857C53.9027 13.2428 54.16 13.6285 54.2886 13.7571C54.4173 14.2714 54.5459 14.6571 54.8032 15.1714C54.9318 15.4285 54.6746 15.4285 54.4173 15.1714C53.9027 14.7857 53.3881 14.2714 52.8735 13.8857C52.6162 13.7571 52.3589 13.3714 52.2303 13.1142C52.1016 12.5999 51.973 12.2142 51.7157 11.6999C51.7157 11.5714 51.8443 11.5714 52.1016 11.6999Z" fill="white"/>
<path fill-rule="evenodd" clip-rule="evenodd" d="M55.3177 14.5286C55.961 15.1714 56.6042 15.9429 57.2474 16.8429C57.6334 17.2286 60.0776 24.4286 60.0776 24.4286C60.0776 24.4286 58.2766 19.1572 57.8907 18.7714C57.2474 18 56.6042 17.2286 55.961 16.7143C55.7037 16.4572 55.4464 16.0714 55.3177 15.8143C55.1891 15.3 55.0604 14.9143 54.9318 14.5286C54.8032 14.1429 55.0604 14.2714 55.3177 14.5286Z" fill="white"/>
<path fill-rule="evenodd" clip-rule="evenodd" d="M50.172 12.6C50.6866 12.8571 51.0725 13.2429 51.5871 13.5C51.8444 13.6286 52.1017 14.0143 52.2303 14.2714C52.3589 14.7857 52.4876 15.1714 52.7449 15.6857C52.8735 15.9429 52.7449 15.9429 52.4876 15.8143C51.973 15.5571 51.4584 15.1714 51.0725 14.9143C50.8152 14.7857 50.5579 14.5286 50.5579 14.2714C50.4293 13.7571 50.3006 13.3714 50.0433 12.8571C49.786 12.6 49.9147 12.4714 50.172 12.6Z" fill="white"/>
<path fill-rule="evenodd" clip-rule="evenodd" d="M53.0021 14.5286C53.5167 14.9143 54.0313 15.3 54.5459 15.8143C54.8032 16.0715 55.0605 16.4572 55.1891 16.5857C55.3178 17.1 55.4464 17.4857 55.7037 18C55.8324 18.2572 55.5751 18.2572 55.3178 18C54.8032 17.6143 54.2886 17.2286 53.774 16.8429C53.5167 16.7143 53.2594 16.3286 53.1308 16.0714C53.0021 15.5572 52.8735 15.1714 52.6162 14.6572C52.6162 14.4 52.7449 14.2714 53.0021 14.5286Z" fill="white"/>
<path fill-rule="evenodd" clip-rule="evenodd" d="M56.2182 17.2285C56.8615 17.7428 57.5047 18.5143 58.1479 19.2857C58.5339 19.6714 60.2063 24.4285 60.2063 24.4285C60.2063 24.4285 59.1771 21.7285 58.7912 21.3428C58.1479 20.5714 57.5047 19.9285 56.9901 19.4143C56.7328 19.1571 56.4755 18.7714 56.3469 18.5143C56.2182 18.1285 56.0896 17.6143 55.9609 17.2285C55.7037 16.8428 55.9609 16.9714 56.2182 17.2285Z" fill="white"/>
<path fill-rule="evenodd" clip-rule="evenodd" d="M51.0725 15.4285C51.5871 15.6856 51.973 16.0713 52.4876 16.3285C52.7449 16.4571 53.0022 16.8428 53.1308 17.0999C53.2595 17.6142 53.3881 17.9999 53.6454 18.5142C53.774 18.7713 53.6454 18.7713 53.3881 18.6428C52.8735 18.3856 52.3589 17.9999 51.973 17.7428C51.7157 17.6142 51.4584 17.3571 51.4584 17.0999C51.3298 16.5856 51.2011 16.1999 50.9438 15.6856C50.6865 15.4285 50.8152 15.2999 51.0725 15.4285Z" fill="white"/>
<path fill-rule="evenodd" clip-rule="evenodd" d="M54.0312 17.3571C54.5458 17.7428 55.0604 18.1285 55.575 18.5142C55.8323 18.7714 56.0896 19.1571 56.2182 19.2857C56.3469 19.7999 56.4755 20.1857 56.7328 20.6999C56.8614 20.9571 56.6042 20.9571 56.3469 20.6999C55.8323 20.3142 55.3177 19.9285 54.8031 19.5428C54.5458 19.4142 54.2885 19.0285 54.1599 18.7714C54.0312 18.2571 53.9026 17.8714 53.6453 17.3571C53.5167 17.2285 53.7739 17.0999 54.0312 17.3571Z" fill="white"/>
<path fill-rule="evenodd" clip-rule="evenodd" d="M57.1188 19.7999C57.762 20.3142 58.2766 20.9571 58.9198 21.7285C59.1771 22.1142 60.0776 24.2999 60.0776 24.2999C60.0776 24.2999 59.8203 24.0428 59.563 23.6571C58.9198 23.0142 58.4052 22.3713 57.762 21.8571C57.5047 21.5999 57.2474 21.2142 57.1188 21.0856C56.9901 20.6999 56.8615 20.1856 56.7328 19.7999C56.6042 19.5428 56.8615 19.5428 57.1188 19.7999Z" fill="white"/>
<path fill-rule="evenodd" clip-rule="evenodd" d="M53.6454 53.3571C54.0313 52.9714 54.4173 52.7142 54.8032 52.3285C54.9318 52.2 54.9318 51.9428 54.8032 51.8142C54.4173 51.4285 54.16 51.0428 53.774 50.7857C53.6454 50.6571 53.5167 50.6571 53.2594 50.7857C52.8735 51.1714 52.4876 51.4285 52.1016 51.6857C51.973 51.8142 51.973 51.9428 52.1016 52.0714C52.4876 52.4571 52.7449 52.8428 53.1308 53.2285C53.3881 53.4857 53.5167 53.4857 53.6454 53.3571ZM50.1719 45.5142C50.5579 45.1285 50.9438 44.8714 51.3298 44.4857C51.4584 44.3571 51.4584 44.1 51.3298 43.9714C51.0725 43.5857 50.6865 43.3285 50.4292 42.9428C50.3006 42.8142 50.1719 42.8142 50.0433 42.9428C49.6574 43.2 49.2714 43.5857 48.8855 43.8428C48.7568 43.9714 48.7568 44.1 48.8855 44.2285C49.2714 44.6142 49.5287 45 49.9146 45.2571C49.9146 45.6428 50.0433 45.6428 50.1719 45.5142ZM52.2303 43.5857C52.6162 43.2 52.8735 42.8142 53.2594 42.5571C53.3881 42.4285 53.3881 42.1714 53.2594 42.0428C53.0022 41.6571 52.6162 41.4 52.3589 41.0142C52.2303 40.8857 52.1016 40.8857 51.973 41.0142C51.587 41.4 51.3298 41.6571 50.9438 42.0428C50.8152 42.1714 50.8152 42.3 50.9438 42.4285C51.2011 42.8142 51.587 43.0714 51.8443 43.4571C51.973 43.7142 52.1016 43.7142 52.2303 43.5857ZM54.16 41.5285C54.5459 41.1428 54.8032 40.7571 55.0605 40.3714C55.1891 40.2428 55.1891 39.9857 55.0605 39.8571C54.8032 39.6 54.5459 39.2142 54.16 38.9571C54.0313 38.8285 53.9027 38.8285 53.774 38.9571C53.3881 39.3428 53.1308 39.7285 52.7449 40.1142C52.6162 40.2428 52.6162 40.5 52.7449 40.6285C53.0022 41.0142 53.3881 41.2714 53.6454 41.6571C53.9027 41.7857 54.0313 41.6571 54.16 41.5285ZM55.961 39.3428C56.2183 38.9571 56.4756 38.5714 56.8615 38.0571C56.9902 37.9285 56.9902 37.6714 56.8615 37.5428C56.6042 37.2857 56.3469 37.0285 56.0896 36.6428C55.961 36.5142 55.8324 36.5142 55.7037 36.7714C55.4464 37.1571 55.0605 37.5428 54.8032 37.9285C54.6745 38.0571 54.6745 38.3142 54.8032 38.4428C55.0605 38.7 55.3178 39.0857 55.7037 39.3428C55.5751 39.6 55.8324 39.6 55.961 39.3428ZM57.5048 37.0285C57.762 36.6428 58.0193 36.1285 58.2766 35.6142C58.4053 35.4857 58.4053 35.2285 58.2766 35.1C58.0193 34.8428 57.762 34.5857 57.6334 34.3285C57.5048 34.2 57.3761 34.3285 57.2475 34.4571C56.9902 34.8428 56.7329 35.3571 56.3469 35.7428C56.2183 35.8714 56.2183 36.1285 56.3469 36.2571C56.6042 36.5142 56.8615 36.7714 57.1188 37.1571C57.2475 37.2857 57.3761 37.1571 57.5048 37.0285ZM58.9199 34.4571C59.1772 33.9428 59.3058 33.4285 59.5631 32.9142C59.6917 32.7857 59.5631 32.5285 59.5631 32.4C59.3058 32.1428 59.1772 32.0142 58.9199 31.7571C58.7912 31.6285 58.7912 31.7571 58.6626 31.8857C58.4053 32.4 58.148 32.7857 57.8907 33.3C57.762 33.4285 57.762 33.6857 57.8907 33.8142C58.148 34.0714 58.4053 34.3285 58.5339 34.5857C58.6626 34.7142 58.7912 34.5857 58.9199 34.4571ZM59.949 31.5C60.0777 30.9857 60.2063 30.3428 60.335 29.7C60.335 29.4428 60.335 29.1857 60.335 29.1857C60.2063 29.0571 60.0777 28.9285 59.949 28.8C59.949 28.8 59.8204 28.9285 59.8204 29.0571C59.6917 29.5714 59.4344 30.0857 59.3058 30.6C59.1771 30.7285 59.1771 30.9857 59.3058 31.1142C59.4344 31.3714 59.6917 31.5 59.8204 31.7571C59.8204 31.7571 59.949 31.7571 59.949 31.5ZM54.0313 45.5142C54.4173 45.1285 54.6745 44.7428 55.0605 44.3571C55.1891 44.2285 55.1891 43.9714 55.0605 43.8428C54.8032 43.4571 54.4173 43.2 54.16 42.8142C54.0313 42.6857 53.9027 42.6857 53.774 42.8142C53.3881 43.2 53.1308 43.5857 52.7449 43.8428C52.6162 43.9714 52.6162 44.2285 52.7449 44.3571C53.0022 44.7428 53.3881 45 53.6454 45.3857C53.774 45.6428 53.9027 45.6428 54.0313 45.5142ZM55.8324 43.4571C56.0897 43.0714 56.4756 42.6857 56.7329 42.3C56.8615 42.1714 56.8615 41.9142 56.7329 41.7857C56.4756 41.5285 56.0897 41.1428 55.8324 40.8857C55.7037 40.7571 55.5751 40.7571 55.4464 40.8857C55.1891 41.2714 54.8032 41.6571 54.5459 42.0428C54.4173 42.1714 54.4173 42.4285 54.5459 42.5571C54.8032 42.9428 55.1891 43.2 55.4464 43.5857C55.5751 43.5857 55.7037 43.5857 55.8324 43.4571ZM57.5048 41.1428C57.762 40.7571 58.0193 40.2428 58.2766 39.8571C58.4053 39.7285 58.4053 39.4714 58.2766 39.3428C58.0193 39.0857 57.762 38.8285 57.5048 38.4428C57.3761 38.3142 57.2475 38.4428 57.1188 38.5714C56.8615 38.9571 56.6042 39.4714 56.2183 39.8571C56.0897 39.9857 56.0897 40.2428 56.2183 40.3714C56.4756 40.6285 56.7329 41.0142 57.1188 41.2714C57.2475 41.2714 57.3761 41.2714 57.5048 41.1428ZM58.9199 38.5714C59.1772 38.0571 59.4344 37.6714 59.5631 37.1571C59.6917 37.0285 59.6917 36.7714 59.5631 36.6428C59.3058 36.3857 59.0485 36.1285 58.9199 35.8714C58.7912 35.7428 58.6626 35.8714 58.6626 36C58.4053 36.5142 58.148 36.9 57.8907 37.4142C57.762 37.5428 57.762 37.8 57.8907 37.9285C58.148 38.1857 58.4053 38.4428 58.6626 38.8285C58.6626 38.8285 58.7912 38.7 58.9199 38.5714ZM60.0777 35.7428C60.2063 35.2285 60.4636 34.7142 60.5923 34.0714C60.5923 33.8142 60.5923 33.6857 60.5923 33.5571C60.335 33.3 60.2063 33.1714 59.949 32.9142C59.8204 32.7857 59.8204 32.9142 59.6917 33.1714C59.5631 33.6857 59.3058 34.2 59.0485 34.7142C58.9199 34.8428 58.9199 35.1 59.0485 35.2285C59.3058 35.4857 59.5631 35.7428 59.6917 36C59.949 36 60.0777 36 60.0777 35.7428ZM60.9782 32.5285C61.1068 31.8857 61.1068 31.2428 61.1068 30.6C61.1068 30.3428 61.1068 30.0857 60.9782 30.0857C60.8495 29.9571 60.7209 29.8285 60.5923 29.7C60.5923 29.7 60.4636 29.8285 60.4636 30.0857C60.335 30.7285 60.2063 31.3714 60.0777 31.8857C60.0777 32.1428 60.0777 32.2714 60.0777 32.4C60.2063 32.6571 60.4636 32.7857 60.5923 33.0428C60.8495 32.9142 60.8495 32.7857 60.9782 32.5285ZM53.9027 49.5C54.2886 49.1142 54.6745 48.8571 54.9318 48.4714C55.0605 48.3428 55.0605 48.0857 54.9318 47.9571C54.6745 47.5714 54.2886 47.3142 54.0313 46.9285C53.9027 46.8 53.774 46.8 53.6454 46.9285C53.2594 47.3142 52.8735 47.5714 52.6162 47.9571C52.4876 48.0857 52.4876 48.2142 52.6162 48.3428C53.0022 48.7285 53.2594 49.1142 53.6454 49.3714C53.5167 49.5 53.774 49.6285 53.9027 49.5ZM55.8324 47.4428C56.0897 47.0571 56.4756 46.6714 56.7329 46.2857C56.8615 46.1571 56.8615 45.9 56.7329 45.7714C56.4756 45.3857 56.0897 45.1285 55.8324 44.7428C55.7037 44.6142 55.5751 44.6142 55.4464 44.7428C55.0605 45.1285 54.8032 45.5142 54.4173 45.9C54.2886 46.0285 54.2886 46.2857 54.4173 46.4142C54.6745 46.8 55.0605 47.0571 55.3178 47.4428C55.4464 47.5714 55.7037 47.5714 55.8324 47.4428ZM57.5048 45.2571C57.762 44.8714 58.148 44.4857 58.4053 43.9714C58.5339 43.8428 58.5339 43.5857 58.4053 43.4571C58.148 43.2 57.8907 42.8142 57.5048 42.5571C57.3761 42.4285 57.2475 42.4285 57.1188 42.6857C56.8615 43.0714 56.4756 43.4571 56.2183 43.9714C56.0897 44.1 56.0897 44.3571 56.2183 44.4857C56.4756 44.8714 56.8615 45.1285 57.1188 45.5142C57.2475 45.3857 57.3761 45.3857 57.5048 45.2571ZM59.0485 42.8142C59.3058 42.3 59.5631 41.9142 59.8204 41.4C59.949 41.2714 59.949 41.0142 59.8204 40.8857C59.5631 40.6285 59.3058 40.3714 59.0485 39.9857C58.9199 39.8571 58.7912 39.9857 58.6626 40.1142C58.4053 40.6285 58.148 41.0142 57.8907 41.4C57.762 41.5285 57.762 41.7857 57.8907 41.9142C58.148 42.1714 58.4053 42.5571 58.7912 42.8142C58.7912 42.9428 59.0485 42.9428 59.0485 42.8142ZM60.335 40.1142C60.5923 39.6 60.7209 39.0857 60.8495 38.5714C60.8495 38.3142 60.8495 38.1857 60.8495 38.0571C60.5923 37.8 60.335 37.5428 60.2063 37.2857C60.0777 37.1571 59.949 37.2857 59.949 37.4142C59.6917 37.9285 59.5631 38.4428 59.3058 38.9571C59.1771 39.0857 59.1771 39.3428 59.3058 39.4714C59.5631 39.7285 59.8204 39.9857 60.0777 40.2428C60.2063 40.3714 60.335 40.2428 60.335 40.1142ZM61.3641 37.0285C61.4928 36.3857 61.6214 35.8714 61.7501 35.2285C61.7501 34.9714 61.7501 34.7142 61.6214 34.7142C61.4928 34.4571 61.2355 34.3285 60.9782 34.0714C60.8495 33.9428 60.8495 34.0714 60.7209 34.3285C60.5923 34.9714 60.4636 35.4857 60.2063 36C60.2063 36.2571 60.2063 36.3857 60.2063 36.5142C60.4636 36.7714 60.7209 37.0285 60.8495 37.2857C61.2355 37.4142 61.3641 37.2857 61.3641 37.0285ZM61.8787 33.5571C61.8787 32.9142 61.8787 32.1428 61.8787 31.3714C61.8787 31.1142 61.7501 30.8571 61.7501 30.7285C61.6214 30.6 61.4928 30.4714 61.3641 30.3428C61.3641 30.3428 61.2355 30.4714 61.2355 30.7285C61.2355 31.5 61.1068 32.1428 61.1068 32.7857C61.1068 33.0428 61.1068 33.3 61.2355 33.3C61.3641 33.5571 61.6214 33.6857 61.7501 33.9428C61.8787 33.9428 61.8787 33.8142 61.8787 33.5571ZM55.7037 51.4285C56.0897 51.0428 56.3469 50.6571 56.7329 50.2714C56.8615 50.1428 56.8615 49.8857 56.7329 49.7571C56.4756 49.3714 56.0897 49.1142 55.8324 48.7285C55.7037 48.6 55.5751 48.6 55.4464 48.7285C55.0605 49.1142 54.8032 49.5 54.4173 49.7571C54.2886 49.8857 54.2886 50.1428 54.4173 50.2714C54.8032 50.6571 55.0605 51.0428 55.4464 51.3C55.4464 51.5571 55.5751 51.5571 55.7037 51.4285ZM57.6334 49.3714C57.8907 48.9857 58.2766 48.6 58.5339 48.2142C58.6626 48.0857 58.6626 47.8285 58.5339 47.7C58.2766 47.3142 57.8907 47.0571 57.6334 46.6714C57.5048 46.5428 57.3761 46.5428 57.2475 46.6714C56.9902 47.0571 56.6042 47.4428 56.3469 47.8285C56.2183 47.9571 56.2183 48.2142 56.3469 48.3428C56.6042 48.7285 56.9902 48.9857 57.2475 49.3714C57.2475 49.5 57.5048 49.5 57.6334 49.3714ZM60.7209 44.4857C60.9782 43.9714 61.1068 43.4571 61.3641 42.9428C61.4928 42.8142 61.3641 42.5571 61.3641 42.4285C61.1068 42.1714 60.8495 41.9142 60.5923 41.5285C60.4636 41.4 60.335 41.5285 60.2063 41.6571C59.949 42.1714 59.6917 42.5571 59.5631 43.0714C59.4344 43.2 59.4344 43.4571 59.5631 43.5857C59.8204 43.8428 60.0777 44.2285 60.4636 44.4857C60.4636 44.7428 60.5923 44.6142 60.7209 44.4857ZM61.7501 41.6571C61.8787 41.1428 62.136 40.6285 62.2647 39.9857C62.2647 39.7285 62.2647 39.6 62.2647 39.4714C62.0074 39.2142 61.7501 38.9571 61.6214 38.7C61.4928 38.5714 61.3641 38.7 61.3641 38.9571C61.2355 39.4714 60.9782 39.9857 60.8495 40.5C60.7209 40.6285 60.8495 40.8857 60.8495 41.0142C61.1068 41.2714 61.3641 41.5285 61.6214 41.9142C61.6214 41.9142 61.7501 41.7857 61.7501 41.6571ZM62.6506 38.4428C62.7792 37.8 62.7792 37.1571 62.9079 36.5142C62.9079 36.2571 62.9079 36 62.7792 35.8714C62.5219 35.6142 62.3933 35.4857 62.136 35.2285C62.0074 35.1 62.0074 35.2285 62.0074 35.4857C61.8787 36.1285 61.7501 36.7714 61.6214 37.2857C61.6214 37.5428 61.6214 37.8 61.7501 37.8C62.0074 38.0571 62.2647 38.3142 62.3933 38.5714C62.5219 38.8285 62.5219 38.7 62.6506 38.4428ZM62.9079 34.7142C62.9079 33.9428 62.7792 33.1714 62.6506 32.2714C62.6506 31.8857 62.5219 31.6285 62.5219 31.6285C62.3933 31.5 62.2647 31.3714 62.136 31.2428C62.136 31.2428 62.136 31.3714 62.136 31.6285C62.2647 32.4 62.2647 33.1714 62.2647 33.9428C62.2647 34.2 62.2647 34.4571 62.3933 34.5857C62.5219 34.8428 62.7792 34.9714 62.9079 35.2285C62.9079 35.1 62.9079 34.9714 62.9079 34.7142ZM62.136 29.7C61.7501 28.6714 61.3641 27.3857 60.5923 25.8428C60.335 25.2 60.0777 24.8142 60.0777 24.8142C60.0777 24.8142 60.0777 25.0714 60.0777 25.3285C60.0777 26.1 60.0777 26.7428 59.949 27.3857C59.949 27.6428 59.949 27.7714 59.949 27.9C60.0777 28.0285 60.2063 28.1571 60.335 28.2857C60.335 28.2857 60.4636 28.1571 60.4636 27.9C60.4636 27.1285 60.335 26.3571 60.2063 25.4571C60.0777 25.0714 60.0777 24.8142 60.0777 24.8142C60.0777 24.8142 60.2063 25.0714 60.2063 25.4571C60.4636 26.3571 60.4636 27.2571 60.5923 28.0285C60.5923 28.2857 60.5923 28.5428 60.7209 28.5428C60.8495 28.6714 60.9782 28.8 61.1068 28.9285C61.1068 28.9285 61.1068 28.8 61.1068 28.4142C60.9782 27.5142 60.8495 26.6142 60.4636 25.4571C60.335 25.0714 60.2063 24.6857 60.2063 24.6857C60.2063 24.6857 60.335 25.0714 60.4636 25.4571C60.8495 26.6142 61.1068 27.6428 61.2355 28.4142C61.2355 28.6714 61.3641 28.9285 61.3641 29.0571C61.4928 29.1857 61.6214 29.3142 61.7501 29.4428C61.7501 29.4428 61.7501 29.3142 61.7501 28.9285C61.4928 27.9 61.2355 26.8714 60.7209 25.5857C60.4636 25.0714 60.335 24.6857 60.335 24.6857C60.335 24.6857 60.5923 25.0714 60.7209 25.5857C61.2355 26.8714 61.6214 28.0285 61.8787 29.0571C62.0074 29.4428 62.0074 29.7 62.136 29.7C62.2647 29.8285 62.3933 29.9571 62.5219 30.0857C62.2647 30.3428 62.2647 30.0857 62.136 29.7ZM49.9146 49.2428C50.3006 48.9857 50.6865 48.6 51.0725 48.3428C51.2011 48.2142 51.2011 48.0857 51.0725 47.9571C50.6865 47.5714 50.4292 47.1857 50.0433 46.9285C49.9147 46.8 49.6574 46.8 49.5287 46.9285C49.1428 47.1857 48.7568 47.5714 48.3709 47.8285C48.2423 47.9571 48.2423 48.0857 48.3709 48.2142C48.7568 48.6 49.0141 48.9857 49.4001 49.3714C49.5287 49.2428 49.786 49.3714 49.9146 49.2428Z" fill="white"/>
<path fill-rule="evenodd" clip-rule="evenodd" d="M73.1995 30.6L86.8359 17.1H75.2578L67.4104 24.8143L59.563 17.1H57.8906C58.0193 17.4857 58.2766 18 58.5339 18.5143C59.3057 20.5714 60.2062 23.5285 61.1068 27.1285C63.6797 30.0857 64.8375 34.0714 64.5802 39.0857L67.2818 36.3857L75.6437 44.7428H87.2219L74.2286 31.6285L73.1995 30.6Z" fill="white"/>
<path fill-rule="evenodd" clip-rule="evenodd" d="M245.714 44.6142H234.393L228.218 37.2857H215.096V44.6142H206.605V30.5999H230.533C231.82 30.5999 232.978 30.3428 233.878 29.8285C234.779 29.3142 235.293 28.5428 235.293 27.5142C235.293 26.4857 234.907 25.5857 234.007 25.0714C233.235 24.5571 232.077 24.2999 230.533 24.2999H206.605L212.137 17.0999H229.762C231.305 17.0999 232.978 17.2285 234.65 17.4857C236.322 17.7428 237.866 18.2571 239.153 19.0285C240.568 19.7999 241.597 20.8285 242.497 21.9857C243.398 23.1428 243.784 24.8142 243.784 26.8714C243.784 27.8999 243.655 28.9285 243.269 29.9571C242.883 30.8571 242.497 31.7571 241.854 32.5285C241.211 33.2999 240.439 33.9428 239.539 34.4571C238.638 34.9714 237.609 35.3571 236.58 35.6142C237.094 35.9999 237.609 36.3857 238.123 37.0285C238.638 37.5428 239.41 38.3142 240.439 39.3428L245.714 44.6142ZM171.742 44.6142L176.888 37.5428H183.835C184.607 37.5428 185.507 37.5428 186.408 37.5428C187.308 37.5428 188.08 37.5428 188.723 37.6714C188.338 37.1571 187.952 36.5142 187.437 35.7428C186.922 34.9714 186.408 34.3285 186.022 33.6857L181.133 26.3571L168.269 44.6142H158.234L175.859 19.7999C176.373 19.0285 177.145 18.2571 178.046 17.6142C178.946 16.9714 179.976 16.7142 181.391 16.7142C182.677 16.7142 183.706 16.9714 184.607 17.6142C185.507 18.2571 186.151 18.8999 186.794 19.7999L203.904 44.6142H171.742ZM157.334 37.6714L151.802 44.7428H127.488V17.2285H135.979V37.6714H157.334ZM124.658 37.6714L119.255 44.7428H92.7537V17.2285H124.529L118.997 24.4285H101.244V27.7714H122.985L118.097 34.0714H101.244V37.7999H124.658V37.6714ZM15.0516 44.6142L20.1974 37.5428H27.0157C27.7875 37.5428 28.6881 37.5428 29.5886 37.5428C30.4891 37.5428 31.261 37.5428 31.9042 37.6714C31.5183 37.1571 31.1323 36.5142 30.6177 35.7428C30.1032 34.9714 29.5886 34.3285 29.2026 33.6857L24.3141 26.3571L11.4495 44.6142H1.2865L18.911 19.7999C19.4256 19.0285 20.1974 18.2571 21.098 17.6142C21.9985 16.9714 23.0276 16.7142 24.4427 16.7142C25.7292 16.7142 26.7584 16.9714 27.6589 17.6142C28.5594 18.2571 29.2026 18.8999 29.8459 19.7999L46.9558 44.6142H15.0516Z" fill="white"/>
</svg>
