<svg width="189" height="42" viewBox="0 0 189 42" fill="none" xmlns="http://www.w3.org/2000/svg">
<path fill-rule="evenodd" clip-rule="evenodd" d="M23.7234 2.60008C24.0188 2.70008 24.3141 2.70008 24.7078 2.80008C24.9047 2.80008 25.1016 3.00009 25.1016 3.20009C25.2 3.60009 25.3969 4.00008 25.4953 4.50008C25.5938 4.70008 25.4953 4.90009 25.2984 4.80009C25.0031 4.70009 24.7078 4.70008 24.4125 4.60009C24.2156 4.60009 24.1172 4.40008 24.0188 4.20008C23.9203 3.80008 23.7234 3.30009 23.625 2.90009C23.5266 2.70009 23.625 2.50008 23.7234 2.60008Z" fill="black"/>
<path fill-rule="evenodd" clip-rule="evenodd" d="M24.8063 0.500033C25.1016 0.600033 25.4954 0.700033 25.7907 0.800033C25.9875 0.800033 26.1844 1.10003 26.1844 1.30003C26.2829 1.60003 26.4797 2.00003 26.5782 2.40003C26.6766 2.60003 26.5782 2.70003 26.3813 2.70003C26.086 2.60003 25.7907 2.50003 25.3969 2.50003C25.2 2.50003 25.0032 2.30003 25.0032 2.00003C24.9047 1.60003 24.7079 1.20003 24.6094 0.700033C24.511 0.600033 24.6094 0.400033 24.8063 0.500033Z" fill="black"/>
<path fill-rule="evenodd" clip-rule="evenodd" d="M26.6766 1C26.9719 1.1 27.3656 1.2 27.6609 1.3C27.8578 1.4 28.0547 1.6 28.0547 1.8C28.2516 2.2 28.35 2.6 28.5469 3C28.6453 3.2 28.5469 3.3 28.35 3.3C28.0547 3.2 27.6609 3.1 27.3656 3C27.1688 3 26.9719 2.7 26.9719 2.5C26.8734 2.1 26.6766 1.7 26.5781 1.3C26.4797 1.1 26.5781 1 26.6766 1Z" fill="black"/>
<path fill-rule="evenodd" clip-rule="evenodd" d="M32.5829 3.20007C32.8782 3.30007 33.2719 3.50007 33.5672 3.70007C33.7641 3.80007 33.961 4.00007 33.961 4.20007C34.0594 4.60007 34.1579 4.90007 34.3547 5.30007C34.4532 5.50007 34.3547 5.60007 34.1579 5.50007C33.8626 5.30007 33.4688 5.20007 33.1735 5.10007C32.9766 5.00007 32.7797 4.80007 32.7797 4.60007C32.6813 4.20007 32.5829 3.90007 32.386 3.50007C32.386 3.20007 32.4844 3.20007 32.5829 3.20007Z" fill="black"/>
<path fill-rule="evenodd" clip-rule="evenodd" d="M25.5938 2.99999C25.8891 3.09999 26.1844 3.09999 26.5782 3.19999C26.7751 3.19999 26.9719 3.39999 26.9719 3.69999C27.0704 4.09999 27.2672 4.49999 27.3657 4.89999C27.4641 5.09999 27.3657 5.19999 27.1688 5.19999C26.8735 5.09999 26.5782 4.99999 26.2829 4.99999C26.086 4.99999 25.9876 4.79999 25.8891 4.59999C25.7907 4.19999 25.5938 3.79999 25.4954 3.29999C25.3969 3.09999 25.4954 2.89999 25.5938 2.99999Z" fill="black"/>
<path fill-rule="evenodd" clip-rule="evenodd" d="M27.4641 3.50006C27.7594 3.60006 28.1531 3.70006 28.4485 3.80006C28.6453 3.80006 28.8422 4.00006 28.8422 4.20006C28.9406 4.60006 29.1375 5.00006 29.236 5.40006C29.3344 5.60006 29.236 5.70006 29.0391 5.70006C28.7438 5.60006 28.35 5.50006 28.0547 5.50006C27.8578 5.50006 27.661 5.30006 27.661 5.10006C27.5625 4.70006 27.3656 4.30006 27.2672 3.90006C27.2672 3.50006 27.3656 3.40006 27.4641 3.50006Z" fill="black"/>
<path fill-rule="evenodd" clip-rule="evenodd" d="M29.4328 4C29.7281 4.1 30.1218 4.2 30.4171 4.3C30.614 4.4 30.8109 4.6 30.8109 4.8C30.9093 5.2 31.1062 5.6 31.2046 5.9C31.3031 6.1 31.2046 6.2 31.0078 6.1C30.7124 6 30.3187 5.9 30.0234 5.8C29.8265 5.8 29.6296 5.6 29.6296 5.4C29.5312 5 29.3343 4.6 29.2359 4.2C29.1374 4.1 29.2359 4 29.4328 4Z" fill="black"/>
<path fill-rule="evenodd" clip-rule="evenodd" d="M31.4015 4.7C31.6968 4.8 32.0906 4.9 32.3859 5.1C32.5828 5.2 32.7796 5.4 32.7796 5.6C32.8781 6 32.9765 6.3 33.1734 6.7C33.2718 6.9 33.1734 7 32.9765 6.9C32.6812 6.8 32.2874 6.7 31.9921 6.5C31.7953 6.4 31.5984 6.2 31.5984 6C31.4999 5.6 31.3031 5.2 31.2046 4.9C31.1062 4.7 31.2046 4.6 31.4015 4.7Z" fill="black"/>
<path fill-rule="evenodd" clip-rule="evenodd" d="M33.3703 5.50005C33.6656 5.60005 34.0593 5.80005 34.3546 5.90005C34.5515 6.00005 34.7484 6.20005 34.7484 6.40005C34.8468 6.80005 34.9453 7.10005 35.1421 7.50005C35.2406 7.70005 35.1421 7.80005 34.9453 7.70005C34.6499 7.50005 34.2562 7.40005 33.9609 7.30005C33.764 7.20005 33.5671 7.00005 33.5671 6.80005C33.4687 6.40005 33.3703 6.10005 33.1734 5.70005C33.0749 5.50005 33.1734 5.40005 33.3703 5.50005Z" fill="black"/>
<path fill-rule="evenodd" clip-rule="evenodd" d="M30.2204 6.40007C30.5157 6.50007 30.9094 6.60007 31.2047 6.70007C31.4016 6.80007 31.5985 7.00007 31.5985 7.10007C31.6969 7.50007 31.8938 7.90007 31.9922 8.20007C32.0907 8.40007 31.9922 8.50007 31.7954 8.50007C31.5 8.40007 31.1063 8.30007 30.811 8.20007C30.6141 8.20007 30.4172 8.00007 30.4172 7.80007C30.3188 7.40007 30.1219 7.00007 30.0235 6.60007C29.925 6.40007 30.0235 6.30007 30.2204 6.40007Z" fill="black"/>
<path fill-rule="evenodd" clip-rule="evenodd" d="M32.0907 7.00006C32.386 7.10006 32.7797 7.20006 33.075 7.40006C33.2719 7.50006 33.4688 7.70006 33.4688 7.90006C33.5672 8.30006 33.7641 8.60006 33.8625 9.00006C33.961 9.20006 33.8625 9.30006 33.6657 9.20006C33.3704 9.10006 32.9766 9.00006 32.6813 8.90006C32.4844 8.80006 32.2875 8.60006 32.2875 8.50006C32.1891 8.10006 31.9922 7.70006 31.8938 7.40006C31.8938 7.00006 31.9922 6.90006 32.0907 7.00006Z" fill="black"/>
<path fill-rule="evenodd" clip-rule="evenodd" d="M29.1375 8.30005C29.4328 8.40005 29.7281 8.40005 30.1219 8.50005C30.3188 8.50005 30.5156 8.70005 30.5156 8.90005C30.6141 9.30005 30.811 9.70005 30.9094 10.1C31.0078 10.3 30.9094 10.4 30.7125 10.4C30.4172 10.3 30.1219 10.3 29.8266 10.2C29.6297 10.2 29.5313 10 29.4328 9.80005C29.3344 9.40005 29.1375 9.00005 29.0391 8.60005C28.8422 8.40005 28.9406 8.30005 29.1375 8.30005Z" fill="black"/>
<path fill-rule="evenodd" clip-rule="evenodd" d="M31.0078 8.70007C31.3031 8.80007 31.6969 8.90007 31.9922 9.00007C32.1891 9.00007 32.386 9.20007 32.386 9.40007C32.4844 9.80007 32.6813 10.2001 32.7797 10.5001C32.8781 10.7001 32.7797 10.8001 32.5828 10.8001C32.2875 10.7001 31.8938 10.6001 31.5985 10.6001C31.4016 10.6001 31.2047 10.4001 31.2047 10.2001C31.1063 9.80007 30.9094 9.40007 30.811 9.00007C30.7125 8.80007 30.811 8.70007 31.0078 8.70007Z" fill="black"/>
<path fill-rule="evenodd" clip-rule="evenodd" d="M32.8782 9.30007C33.1735 9.40007 33.5672 9.50007 33.8625 9.60007C34.0594 9.70007 34.2563 9.90007 34.2563 10.1001C34.3547 10.5001 34.5516 10.8001 34.65 11.2001C34.7485 11.4001 34.65 11.5001 34.4531 11.4001C34.1578 11.3001 33.7641 11.2001 33.4688 11.1001C33.2719 11.0001 33.075 10.9001 33.075 10.7001C32.9766 10.3001 32.7797 9.90007 32.6813 9.60007C32.6813 9.30007 32.6813 9.20007 32.8782 9.30007Z" fill="black"/>
<path fill-rule="evenodd" clip-rule="evenodd" d="M34.8468 10C35.1421 10.1 35.5359 10.3 35.8312 10.4C36.0281 10.5 36.2249 10.7 36.2249 10.9C36.3234 11.3 36.4218 11.6 36.6187 12C36.7171 12.2 36.6187 12.3 36.4218 12.2C36.1265 12.1 35.7328 11.9 35.4374 11.8C35.2406 11.7 35.0437 11.5 35.0437 11.3C34.9453 10.9 34.8468 10.6 34.6499 10.2C34.5515 10 34.6499 9.90005 34.8468 10Z" fill="black"/>
<path fill-rule="evenodd" clip-rule="evenodd" d="M34.8468 4.30009C35.2406 4.50009 35.5359 4.70009 35.9296 4.90009C36.1265 5.00009 36.3234 5.30009 36.4218 5.40009C36.5203 5.80009 36.6187 6.10009 36.8156 6.50009C36.914 6.70009 36.8156 6.70009 36.6187 6.60009C36.1265 6.40009 35.7328 6.20009 35.4374 6.00009C35.2406 5.90009 35.0437 5.70009 35.0437 5.50009C34.9453 5.10009 34.8468 4.80009 34.6499 4.40009C34.5515 4.30009 34.6499 4.20009 34.8468 4.30009Z" fill="black"/>
<path fill-rule="evenodd" clip-rule="evenodd" d="M35.5359 6.50005C35.9297 6.70005 36.225 6.90005 36.6187 7.00005C36.8156 7.10005 37.0125 7.40005 37.1109 7.50005C37.2093 7.90005 37.3078 8.20005 37.5047 8.60005C37.6031 8.80005 37.5047 8.80005 37.3078 8.70005C36.914 8.50005 36.6187 8.30005 36.225 8.20005C36.0281 8.10005 35.8312 7.90005 35.8312 7.70005C35.5359 7.40005 35.4375 7.00005 35.339 6.70005C35.2406 6.50005 35.339 6.40005 35.5359 6.50005Z" fill="black"/>
<path fill-rule="evenodd" clip-rule="evenodd" d="M36.225 8.69999C36.6188 8.89999 36.9141 8.99999 37.3078 9.19999C37.5047 9.29999 37.7016 9.49999 37.8 9.69999C37.8985 10.1 37.9969 10.4 38.1938 10.8C38.2922 11 38.1938 11 37.9969 10.9C37.6031 10.7 37.3078 10.5 36.9141 10.4C36.7172 10.3 36.5203 10.1 36.5203 9.89999C36.4219 9.49999 36.3235 9.19999 36.1266 8.79999C36.0282 8.69999 36.1266 8.59999 36.225 8.69999Z" fill="black"/>
<path fill-rule="evenodd" clip-rule="evenodd" d="M37.0125 10.9001C37.4063 11.1001 37.7016 11.2001 38.0953 11.4001C38.2922 11.5001 38.4891 11.7001 38.5875 11.9001C38.686 12.3001 38.7844 12.6001 38.9813 13.0001C39.0797 13.2001 38.9813 13.2001 38.7844 13.1001C38.3906 12.9001 38.0953 12.8001 37.7016 12.6001C37.5047 12.5001 37.3078 12.3001 37.3078 12.1001C37.2094 11.7001 37.111 11.4001 36.9141 11.0001C36.7172 10.9001 36.8156 10.8001 37.0125 10.9001Z" fill="black"/>
<path fill-rule="evenodd" clip-rule="evenodd" d="M36.9141 5.49999C37.3078 5.69999 37.7016 5.99999 37.9969 6.19999C38.1938 6.29999 38.3906 6.59999 38.4891 6.79999C38.5875 7.19999 38.686 7.49999 38.8828 7.89999C38.9813 8.09999 38.8828 8.09999 38.686 7.99999C38.2922 7.69999 37.8985 7.49999 37.6031 7.29999C37.4063 7.19999 37.2094 6.89999 37.111 6.79999C37.0125 6.39999 36.9141 6.09999 36.7172 5.69999C36.6188 5.39999 36.7172 5.39999 36.9141 5.49999Z" fill="black"/>
<path fill-rule="evenodd" clip-rule="evenodd" d="M39.1781 6.99999C39.5719 7.29999 39.9656 7.69999 40.3594 7.99999C40.5562 8.19999 40.7531 8.49999 40.8516 8.59999C40.95 8.89999 41.0484 9.29999 41.2453 9.69999C41.3438 9.89999 41.1469 9.89999 40.95 9.69999C40.5562 9.39999 40.1625 8.99999 39.7688 8.69999C39.5719 8.49999 39.375 8.29999 39.2766 8.09999C39.1781 7.69999 39.0797 7.39999 38.8828 6.99999C38.8828 6.89999 38.9812 6.79999 39.1781 6.99999Z" fill="black"/>
<path fill-rule="evenodd" clip-rule="evenodd" d="M41.639 9.20008C42.1312 9.70008 42.6234 10.3001 43.214 11.1001C43.5093 11.5001 45.9703 19.0001 45.9703 19.0001C45.9703 19.0001 43.9031 13.0001 43.7062 12.7001C43.214 12.0001 42.6234 11.4001 42.2296 10.9001C42.0328 10.7001 41.8359 10.4001 41.7375 10.2001C41.639 9.90008 41.5406 9.50008 41.4421 9.20008C41.2453 8.90008 41.4421 9.00008 41.639 9.20008Z" fill="black"/>
<path fill-rule="evenodd" clip-rule="evenodd" d="M39.8672 9.10002C40.261 9.40002 40.6547 9.70002 41.0485 10.1C41.2453 10.3 41.4422 10.6 41.5406 10.7C41.6391 11.1 41.7375 11.4 41.9344 11.8C42.0328 12 41.836 12 41.6391 11.8C41.2453 11.5 40.8516 11.1 40.4578 10.8C40.261 10.7 40.0641 10.4 39.9656 10.2C39.8672 9.80002 39.7688 9.50002 39.5719 9.10002C39.5719 9.00002 39.6703 9.00002 39.8672 9.10002Z" fill="black"/>
<path fill-rule="evenodd" clip-rule="evenodd" d="M42.3281 11.3001C42.8203 11.8001 43.3125 12.4001 43.8046 13.1001C44.1 13.4001 45.9703 19.0001 45.9703 19.0001C45.9703 19.0001 44.5921 14.9001 44.2968 14.6001C43.8046 14.0001 43.3125 13.4001 42.8203 13.0001C42.6234 12.8001 42.4265 12.5001 42.3281 12.3001C42.2296 11.9001 42.1312 11.6001 42.0328 11.3001C41.9343 11.0001 42.1312 11.1001 42.3281 11.3001Z" fill="black"/>
<path fill-rule="evenodd" clip-rule="evenodd" d="M38.3906 9.79997C38.7843 9.99997 39.0796 10.3 39.4734 10.5C39.6703 10.6 39.8671 10.9 39.9656 11.1C40.064 11.5 40.1624 11.8 40.3593 12.2C40.4578 12.4 40.3593 12.4 40.1624 12.3C39.7687 12.1 39.3749 11.8 39.0796 11.6C38.8828 11.5 38.6859 11.3 38.6859 11.1C38.5874 10.7 38.489 10.4 38.2921 9.99997C38.0953 9.79997 38.1937 9.69997 38.3906 9.79997Z" fill="black"/>
<path fill-rule="evenodd" clip-rule="evenodd" d="M40.5563 11.3001C40.95 11.6001 41.3438 11.9001 41.7375 12.3001C41.9344 12.5001 42.1313 12.8001 42.2297 12.9001C42.3282 13.3001 42.4266 13.6001 42.6235 14.0001C42.7219 14.2001 42.525 14.2001 42.3282 14.0001C41.9344 13.7001 41.5407 13.4001 41.1469 13.1001C40.95 13.0001 40.7532 12.7001 40.6547 12.5001C40.5563 12.1001 40.4579 11.8001 40.261 11.4001C40.261 11.2001 40.3594 11.1001 40.5563 11.3001Z" fill="black"/>
<path fill-rule="evenodd" clip-rule="evenodd" d="M43.0172 13.4C43.5094 13.8 44.0016 14.4 44.4938 15C44.7891 15.3 46.0688 19 46.0688 19C46.0688 19 45.2813 16.9 44.9859 16.6C44.4938 16 44.0016 15.5 43.6078 15.1C43.4109 14.9 43.2141 14.6 43.1156 14.4C43.0172 14.1 42.9188 13.7 42.8203 13.4C42.6234 13.1 42.8203 13.2 43.0172 13.4Z" fill="black"/>
<path fill-rule="evenodd" clip-rule="evenodd" d="M39.0797 12C39.4734 12.2 39.7687 12.5 40.1625 12.7C40.3593 12.8 40.5562 13.1 40.6547 13.3C40.7531 13.7 40.8515 14 41.0484 14.4C41.1468 14.6 41.0484 14.6 40.8515 14.5C40.4578 14.3 40.064 14 39.7687 13.8C39.5718 13.7 39.375 13.5 39.375 13.3C39.2765 12.9 39.1781 12.6 38.9812 12.2C38.7843 12 38.8828 11.9 39.0797 12Z" fill="black"/>
<path fill-rule="evenodd" clip-rule="evenodd" d="M41.3437 13.5C41.7375 13.8 42.1312 14.1 42.525 14.4C42.7218 14.6 42.9187 14.9 43.0171 15C43.1156 15.4 43.214 15.7 43.4109 16.1C43.5093 16.3 43.3125 16.3 43.1156 16.1C42.7218 15.8 42.3281 15.5 41.9343 15.2C41.7375 15.1 41.5406 14.8 41.4421 14.6C41.3437 14.2 41.2453 13.9 41.0484 13.5C40.95 13.4 41.1468 13.3 41.3437 13.5Z" fill="black"/>
<path fill-rule="evenodd" clip-rule="evenodd" d="M43.7063 15.4C44.1985 15.8 44.5922 16.3 45.0844 16.9C45.2813 17.2 45.9703 18.9 45.9703 18.9C45.9703 18.9 45.7735 18.7 45.5766 18.4C45.0844 17.9 44.6906 17.4 44.1985 17C44.0016 16.8 43.8047 16.5 43.7063 16.4C43.6078 16.1 43.5094 15.7 43.4109 15.4C43.3125 15.2 43.5094 15.2 43.7063 15.4Z" fill="black"/>
<path fill-rule="evenodd" clip-rule="evenodd" d="M41.0485 41.5001C41.3438 41.2001 41.6391 41.0001 41.9344 40.7001C42.0329 40.6001 42.0329 40.4001 41.9344 40.3001C41.6391 40.0001 41.4422 39.7001 41.1469 39.5001C41.0485 39.4001 40.9501 39.4001 40.7532 39.5001C40.4579 39.8001 40.1626 40.0001 39.8672 40.2001C39.7688 40.3001 39.7688 40.4001 39.8672 40.5001C40.1626 40.8001 40.3594 41.1001 40.6547 41.4001C40.8516 41.6001 40.9501 41.6001 41.0485 41.5001ZM38.3907 35.4001C38.686 35.1001 38.9813 34.9001 39.2766 34.6001C39.3751 34.5001 39.3751 34.3001 39.2766 34.2001C39.0797 33.9001 38.7844 33.7001 38.5876 33.4001C38.4891 33.3001 38.3907 33.3001 38.2922 33.4001C37.9969 33.6001 37.7016 33.9001 37.4063 34.1001C37.3079 34.2001 37.3079 34.3001 37.4063 34.4001C37.7016 34.7001 37.8985 35.0001 38.1938 35.2001C38.1938 35.5001 38.2922 35.5001 38.3907 35.4001ZM39.9657 33.9001C40.261 33.6001 40.4579 33.3001 40.7532 33.1001C40.8516 33.0001 40.8516 32.8001 40.7532 32.7001C40.5563 32.4001 40.261 32.2001 40.0641 31.9001C39.9657 31.8001 39.8672 31.8001 39.7688 31.9001C39.4735 32.2001 39.2766 32.4001 38.9813 32.7001C38.8829 32.8001 38.8829 32.9001 38.9813 33.0001C39.1782 33.3001 39.4735 33.5001 39.6704 33.8001C39.7688 34.0001 39.8672 34.0001 39.9657 33.9001ZM41.4422 32.3001C41.7375 32.0001 41.9344 31.7001 42.1313 31.4001C42.2297 31.3001 42.2297 31.1001 42.1313 31.0001C41.9344 30.8001 41.7375 30.5001 41.4422 30.3001C41.3438 30.2001 41.2454 30.2001 41.1469 30.3001C40.8516 30.6001 40.6547 30.9001 40.3594 31.2001C40.261 31.3001 40.261 31.5001 40.3594 31.6001C40.5563 31.9001 40.8516 32.1001 41.0485 32.4001C41.2454 32.5001 41.3438 32.4001 41.4422 32.3001ZM42.8204 30.6001C43.0172 30.3001 43.2141 30.0001 43.5094 29.6001C43.6079 29.5001 43.6079 29.3001 43.5094 29.2001C43.3126 29.0001 43.1157 28.8001 42.9188 28.5001C42.8204 28.4001 42.7219 28.4001 42.6235 28.6001C42.4266 28.9001 42.1313 29.2001 41.9344 29.5001C41.836 29.6001 41.836 29.8001 41.9344 29.9001C42.1313 30.1001 42.3282 30.4001 42.6235 30.6001C42.525 30.8001 42.7219 30.8001 42.8204 30.6001ZM44.0016 28.8001C44.1985 28.5001 44.3954 28.1001 44.5922 27.7001C44.6907 27.6001 44.6907 27.4001 44.5922 27.3001C44.3954 27.1001 44.1985 26.9001 44.1 26.7001C44.0016 26.6001 43.9032 26.7001 43.8047 26.8001C43.6079 27.1001 43.411 27.5001 43.1157 27.8001C43.0172 27.9001 43.0172 28.1001 43.1157 28.2001C43.3125 28.4001 43.5094 28.6001 43.7063 28.9001C43.8047 29.0001 43.9032 28.9001 44.0016 28.8001ZM45.0844 26.8001C45.2813 26.4001 45.3797 26.0001 45.5766 25.6001C45.675 25.5001 45.5766 25.3001 45.5766 25.2001C45.3797 25.0001 45.2813 24.9001 45.0844 24.7001C44.986 24.6001 44.986 24.7001 44.8875 24.8001C44.6907 25.2001 44.4938 25.5001 44.2969 25.9001C44.1985 26.0001 44.1985 26.2001 44.2969 26.3001C44.4938 26.5001 44.6907 26.7001 44.7891 26.9001C44.8876 27.0001 44.986 26.9001 45.0844 26.8001ZM45.8719 24.5001C45.9704 24.1001 46.0688 23.6001 46.1672 23.1001C46.1672 22.9001 46.1672 22.7001 46.1672 22.7001C46.0688 22.6001 45.9704 22.5001 45.8719 22.4001C45.8719 22.4001 45.7735 22.5001 45.7735 22.6001C45.6751 23.0001 45.4782 23.4001 45.3797 23.8001C45.2813 23.9001 45.2813 24.1001 45.3797 24.2001C45.4782 24.4001 45.6751 24.5001 45.7735 24.7001C45.7735 24.7001 45.8719 24.7001 45.8719 24.5001ZM41.3438 35.4001C41.6391 35.1001 41.836 34.8001 42.1313 34.5001C42.2297 34.4001 42.2297 34.2001 42.1313 34.1001C41.9344 33.8001 41.6391 33.6001 41.4422 33.3001C41.3438 33.2001 41.2454 33.2001 41.1469 33.3001C40.8516 33.6001 40.6547 33.9001 40.3594 34.1001C40.261 34.2001 40.261 34.4001 40.3594 34.5001C40.5563 34.8001 40.8516 35.0001 41.0485 35.3001C41.1469 35.5001 41.2454 35.5001 41.3438 35.4001ZM42.7219 33.8001C42.9188 33.5001 43.2141 33.2001 43.411 32.9001C43.5094 32.8001 43.5094 32.6001 43.411 32.5001C43.2141 32.3001 42.9188 32.0001 42.7219 31.8001C42.6235 31.7001 42.525 31.7001 42.4266 31.8001C42.2297 32.1001 41.9344 32.4001 41.7376 32.7001C41.6391 32.8001 41.6391 33.0001 41.7376 33.1001C41.9344 33.4001 42.2297 33.6001 42.4266 33.9001C42.525 33.9001 42.6235 33.9001 42.7219 33.8001ZM44.0016 32.0001C44.1985 31.7001 44.3954 31.3001 44.5922 31.0001C44.6907 30.9001 44.6907 30.7001 44.5922 30.6001C44.3954 30.4001 44.1985 30.2001 44.0016 29.9001C43.9032 29.8001 43.8047 29.9001 43.7063 30.0001C43.5094 30.3001 43.3126 30.7001 43.0172 31.0001C42.9188 31.1001 42.9188 31.3001 43.0172 31.4001C43.2141 31.6001 43.411 31.9001 43.7063 32.1001C43.8047 32.1001 43.9032 32.1001 44.0016 32.0001ZM45.0844 30.0001C45.2813 29.6001 45.4782 29.3001 45.5766 28.9001C45.675 28.8001 45.675 28.6001 45.5766 28.5001C45.3797 28.3001 45.1829 28.1001 45.0844 27.9001C44.986 27.8001 44.8875 27.9001 44.8875 28.0001C44.6907 28.4001 44.4938 28.7001 44.2969 29.1001C44.1985 29.2001 44.1985 29.4001 44.2969 29.5001C44.4938 29.7001 44.6907 29.9001 44.8875 30.2001C44.8875 30.2001 44.986 30.1001 45.0844 30.0001ZM45.9704 27.8001C46.0688 27.4001 46.2657 27.0001 46.3641 26.5001C46.3641 26.3001 46.3641 26.2001 46.3641 26.1001C46.1672 25.9001 46.0688 25.8001 45.8719 25.6001C45.7735 25.5001 45.7735 25.6001 45.6751 25.8001C45.5766 26.2001 45.3797 26.6001 45.1829 27.0001C45.0844 27.1001 45.0844 27.3001 45.1829 27.4001C45.3797 27.6001 45.5766 27.8001 45.6751 28.0001C45.8719 28.0001 45.9704 28.0001 45.9704 27.8001ZM46.6594 25.3001C46.7579 24.8001 46.7579 24.3001 46.7579 23.8001C46.7579 23.6001 46.7579 23.4001 46.6594 23.4001C46.561 23.3001 46.4625 23.2001 46.3641 23.1001C46.3641 23.1001 46.2657 23.2001 46.2657 23.4001C46.1672 23.9001 46.0688 24.4001 45.9704 24.8001C45.9704 25.0001 45.9704 25.1001 45.9704 25.2001C46.0688 25.4001 46.2657 25.5001 46.3641 25.7001C46.561 25.6001 46.561 25.5001 46.6594 25.3001ZM41.2454 38.5001C41.5407 38.2001 41.836 38.0001 42.0329 37.7001C42.1313 37.6001 42.1313 37.4001 42.0329 37.3001C41.836 37.0001 41.5407 36.8001 41.3438 36.5001C41.2454 36.4001 41.1469 36.4001 41.0485 36.5001C40.7532 36.8001 40.4579 37.0001 40.261 37.3001C40.1626 37.4001 40.1626 37.5001 40.261 37.6001C40.5563 37.9001 40.7532 38.2001 41.0485 38.4001C40.9501 38.5001 41.1469 38.6001 41.2454 38.5001ZM42.7219 36.9001C42.9188 36.6001 43.2141 36.3001 43.411 36.0001C43.5094 35.9001 43.5094 35.7001 43.411 35.6001C43.2141 35.3001 42.9188 35.1001 42.7219 34.8001C42.6235 34.7001 42.525 34.7001 42.4266 34.8001C42.1313 35.1001 41.9344 35.4001 41.6391 35.7001C41.5407 35.8001 41.5407 36.0001 41.6391 36.1001C41.836 36.4001 42.1313 36.6001 42.3282 36.9001C42.4266 37.0001 42.6235 37.0001 42.7219 36.9001ZM44.0016 35.2001C44.1985 34.9001 44.4938 34.6001 44.6907 34.2001C44.7891 34.1001 44.7891 33.9001 44.6907 33.8001C44.4938 33.6001 44.2969 33.3001 44.0016 33.1001C43.9032 33.0001 43.8047 33.0001 43.7063 33.2001C43.5094 33.5001 43.2141 33.8001 43.0172 34.2001C42.9188 34.3001 42.9188 34.5001 43.0172 34.6001C43.2141 34.9001 43.5094 35.1001 43.7063 35.4001C43.8047 35.3001 43.9032 35.3001 44.0016 35.2001ZM45.1829 33.3001C45.3797 32.9001 45.5766 32.6001 45.7735 32.2001C45.8719 32.1001 45.8719 31.9001 45.7735 31.8001C45.5766 31.6001 45.3797 31.4001 45.1829 31.1001C45.0844 31.0001 44.986 31.1001 44.8875 31.2001C44.6907 31.6001 44.4938 31.9001 44.2969 32.2001C44.1985 32.3001 44.1985 32.5001 44.2969 32.6001C44.4938 32.8001 44.6907 33.1001 44.986 33.3001C44.986 33.4001 45.1829 33.4001 45.1829 33.3001ZM46.1672 31.2001C46.3641 30.8001 46.4626 30.4001 46.561 30.0001C46.561 29.8001 46.561 29.7001 46.561 29.6001C46.3641 29.4001 46.1672 29.2001 46.0688 29.0001C45.9704 28.9001 45.8719 29.0001 45.8719 29.1001C45.675 29.5001 45.5766 29.9001 45.3797 30.3001C45.2813 30.4001 45.2813 30.6001 45.3797 30.7001C45.5766 30.9001 45.7735 31.1001 45.9704 31.3001C46.0688 31.4001 46.1672 31.3001 46.1672 31.2001ZM46.9547 28.8001C47.0532 28.3001 47.1516 27.9001 47.2501 27.4001C47.2501 27.2001 47.2501 27.0001 47.1516 27.0001C47.0532 26.8001 46.8563 26.7001 46.6594 26.5001C46.561 26.4001 46.561 26.5001 46.4626 26.7001C46.3641 27.2001 46.2657 27.6001 46.0688 28.0001C46.0688 28.2001 46.0688 28.3001 46.0688 28.4001C46.2657 28.6001 46.4626 28.8001 46.561 29.0001C46.8563 29.1001 46.9547 29.0001 46.9547 28.8001ZM47.3485 26.1001C47.3485 25.6001 47.3485 25.0001 47.3485 24.4001C47.3485 24.2001 47.2501 24.0001 47.2501 23.9001C47.1516 23.8001 47.0532 23.7001 46.9547 23.6001C46.9547 23.6001 46.8563 23.7001 46.8563 23.9001C46.8563 24.5001 46.7579 25.0001 46.7579 25.5001C46.7579 25.7001 46.7579 25.9001 46.8563 25.9001C46.9547 26.1001 47.1516 26.2001 47.2501 26.4001C47.3485 26.4001 47.3485 26.3001 47.3485 26.1001ZM42.6235 40.0001C42.9188 39.7001 43.1157 39.4001 43.411 39.1001C43.5094 39.0001 43.5094 38.8001 43.411 38.7001C43.2141 38.4001 42.9188 38.2001 42.7219 37.9001C42.6235 37.8001 42.525 37.8001 42.4266 37.9001C42.1313 38.2001 41.9344 38.5001 41.6391 38.7001C41.5407 38.8001 41.5407 39.0001 41.6391 39.1001C41.9344 39.4001 42.1313 39.7001 42.4266 39.9001C42.4266 40.1001 42.525 40.1001 42.6235 40.0001ZM44.1 38.4001C44.2969 38.1001 44.5922 37.8001 44.7891 37.5001C44.8876 37.4001 44.8876 37.2001 44.7891 37.1001C44.5922 36.8001 44.2969 36.6001 44.1 36.3001C44.0016 36.2001 43.9032 36.2001 43.8047 36.3001C43.6079 36.6001 43.3125 36.9001 43.1157 37.2001C43.0172 37.3001 43.0172 37.5001 43.1157 37.6001C43.3125 37.9001 43.6079 38.1001 43.8047 38.4001C43.8047 38.5001 44.0016 38.5001 44.1 38.4001ZM46.4626 34.6001C46.6594 34.2001 46.7579 33.8001 46.9547 33.4001C47.0532 33.3001 46.9547 33.1001 46.9547 33.0001C46.7579 32.8001 46.561 32.6001 46.3641 32.3001C46.2657 32.2001 46.1672 32.3001 46.0688 32.4001C45.8719 32.8001 45.675 33.1001 45.5766 33.5001C45.4782 33.6001 45.4782 33.8001 45.5766 33.9001C45.7735 34.1001 45.9704 34.4001 46.2657 34.6001C46.2657 34.8001 46.3641 34.7001 46.4626 34.6001ZM47.2501 32.4001C47.3485 32.0001 47.5454 31.6001 47.6438 31.1001C47.6438 30.9001 47.6438 30.8001 47.6438 30.7001C47.4469 30.5001 47.2501 30.3001 47.1516 30.1001C47.0532 30.0001 46.9547 30.1001 46.9547 30.3001C46.8563 30.7001 46.6594 31.1001 46.561 31.5001C46.4626 31.6001 46.561 31.8001 46.561 31.9001C46.7579 32.1001 46.9547 32.3001 47.1516 32.6001C47.1516 32.6001 47.2501 32.5001 47.2501 32.4001ZM47.9391 29.9001C48.0376 29.4001 48.0376 28.9001 48.136 28.4001C48.136 28.2001 48.136 28.0001 48.0375 27.9001C47.8407 27.7001 47.7422 27.6001 47.5454 27.4001C47.4469 27.3001 47.4469 27.4001 47.4469 27.6001C47.3485 28.1001 47.2501 28.6001 47.1516 29.0001C47.1516 29.2001 47.1516 29.4001 47.2501 29.4001C47.4469 29.6001 47.6438 29.8001 47.7422 30.0001C47.8407 30.2001 47.8407 30.1001 47.9391 29.9001ZM48.136 27.0001C48.136 26.4001 48.0376 25.8001 47.9391 25.1001C47.9391 24.8001 47.8407 24.6001 47.8407 24.6001C47.7422 24.5001 47.6438 24.4001 47.5454 24.3001C47.5454 24.3001 47.5454 24.4001 47.5454 24.6001C47.6438 25.2001 47.6438 25.8001 47.6438 26.4001C47.6438 26.6001 47.6438 26.8001 47.7422 26.9001C47.8407 27.1001 48.0376 27.2001 48.136 27.4001C48.136 27.3001 48.136 27.2001 48.136 27.0001ZM47.5454 23.1001C47.25 22.3001 46.9547 21.3001 46.3641 20.1001C46.1672 19.6001 45.9704 19.3001 45.9704 19.3001C45.9704 19.3001 45.9704 19.5001 45.9704 19.7001C45.9704 20.3001 45.9704 20.8001 45.8719 21.3001C45.8719 21.5001 45.8719 21.6001 45.8719 21.7001C45.9704 21.8001 46.0688 21.9001 46.1672 22.0001C46.1672 22.0001 46.2657 21.9001 46.2657 21.7001C46.2657 21.1001 46.1672 20.5001 46.0688 19.8001C45.9704 19.5001 45.9704 19.3001 45.9704 19.3001C45.9704 19.3001 46.0688 19.5001 46.0688 19.8001C46.2657 20.5001 46.2657 21.2001 46.3641 21.8001C46.3641 22.0001 46.3641 22.2001 46.4626 22.2001C46.561 22.3001 46.6594 22.4001 46.7579 22.5001C46.7579 22.5001 46.7579 22.4001 46.7579 22.1001C46.6594 21.4001 46.561 20.7001 46.2657 19.8001C46.1672 19.5001 46.0688 19.2001 46.0688 19.2001C46.0688 19.2001 46.1672 19.5001 46.2657 19.8001C46.561 20.7001 46.7579 21.5001 46.8563 22.1001C46.8563 22.3001 46.9547 22.5001 46.9547 22.6001C47.0532 22.7001 47.1516 22.8001 47.2501 22.9001C47.2501 22.9001 47.2501 22.8001 47.2501 22.5001C47.0532 21.7001 46.8563 20.9001 46.4626 19.9001C46.2657 19.5001 46.1672 19.2001 46.1672 19.2001C46.1672 19.2001 46.3641 19.5001 46.4626 19.9001C46.8563 20.9001 47.1516 21.8001 47.3485 22.6001C47.4469 22.9001 47.4469 23.1001 47.5454 23.1001C47.6438 23.2001 47.7422 23.3001 47.8407 23.4001C47.6438 23.6001 47.6438 23.4001 47.5454 23.1001ZM38.1938 38.3001C38.4891 38.1001 38.7844 37.8001 39.0797 37.6001C39.1782 37.5001 39.1782 37.4001 39.0797 37.3001C38.7844 37.0001 38.5876 36.7001 38.2922 36.5001C38.1938 36.4001 37.9969 36.4001 37.8985 36.5001C37.6032 36.7001 37.3079 37.0001 37.0125 37.2001C36.9141 37.3001 36.9141 37.4001 37.0125 37.5001C37.3079 37.8001 37.5047 38.1001 37.8001 38.4001C37.8985 38.3001 38.0954 38.4001 38.1938 38.3001Z" fill="black"/>
<path fill-rule="evenodd" clip-rule="evenodd" d="M56.0109 23.8L66.4453 13.3H57.5859L51.5813 19.3L45.5766 13.3H44.2969C44.3953 13.6 44.5922 14 44.7891 14.4C45.3797 16 46.0687 18.3 46.7578 21.1C48.7266 23.4 49.6125 26.5 49.4156 30.4L51.4828 28.3L57.8812 34.8H66.7406L56.7984 24.6L56.0109 23.8Z" fill="black"/>
<path fill-rule="evenodd" clip-rule="evenodd" d="M188.016 34.7H179.353L174.628 29H164.587V34.7H158.091V23.8H176.4C177.384 23.8 178.27 23.6 178.959 23.2C179.648 22.8 180.042 22.2 180.042 21.4C180.042 20.6 179.747 19.9 179.058 19.5C178.467 19.1 177.581 18.9 176.4 18.9H158.091L162.323 13.3H175.809C176.991 13.3 178.27 13.4 179.55 13.6C180.83 13.8 182.011 14.2 182.995 14.8C184.078 15.4 184.866 16.2 185.555 17.1C186.244 18 186.539 19.3 186.539 20.9C186.539 21.7 186.441 22.5 186.145 23.3C185.85 24 185.555 24.7 185.062 25.3C184.57 25.9 183.98 26.4 183.291 26.8C182.602 27.2 181.814 27.5 181.027 27.7C181.42 28 181.814 28.3 182.208 28.8C182.602 29.2 183.192 29.8 183.98 30.6L188.016 34.7ZM131.414 34.7L135.352 29.2H140.667C141.258 29.2 141.947 29.2 142.636 29.2C143.325 29.2 143.916 29.2 144.408 29.3C144.113 28.9 143.817 28.4 143.423 27.8C143.03 27.2 142.636 26.7 142.341 26.2L138.6 20.5L128.756 34.7H121.078L134.564 15.4C134.958 14.8 135.548 14.2 136.237 13.7C136.927 13.2 137.714 13 138.797 13C139.781 13 140.569 13.2 141.258 13.7C141.947 14.2 142.439 14.7 142.931 15.4L156.023 34.7H131.414ZM120.389 29.3L116.156 34.8H97.5516V13.4H104.048V29.3H120.389ZM95.3859 29.3L91.2516 34.8H70.9734V13.4H95.2875L91.0547 19H77.4703V21.6H94.1062L90.3656 26.5H77.4703V29.4H95.3859V29.3ZM11.5172 34.7L15.4547 29.2H20.6719C21.2625 29.2 21.9516 29.2 22.6406 29.2C23.3297 29.2 23.9203 29.2 24.4125 29.3C24.1172 28.9 23.8219 28.4 23.4281 27.8C23.0344 27.2 22.6406 26.7 22.3453 26.2L18.6047 20.5L8.76094 34.7H0.984375L14.4703 15.4C14.8641 14.8 15.4547 14.2 16.1437 13.7C16.8328 13.2 17.6203 13 18.7031 13C19.6875 13 20.475 13.2 21.1641 13.7C21.8531 14.2 22.3453 14.7 22.8375 15.4L35.9297 34.7H11.5172Z" fill="black"/>
</svg>
