<svg width="139" height="34" viewBox="0 0 139 34" fill="none" xmlns="http://www.w3.org/2000/svg">
<path d="M39.4091 19.5633C39.4071 19.6814 39.3572 19.7941 39.2704 19.8765C39.1836 19.9589 39.0668 20.0044 38.9458 20.003H30.4127C30.6315 22.0636 32.2146 23.9483 34.454 23.9483C35.9856 23.9483 37.1182 23.3829 37.9676 22.1893C38.0072 22.1266 38.0619 22.0743 38.127 22.037C38.192 21.9998 38.2655 21.9787 38.3409 21.9757C38.3971 21.9741 38.453 21.9838 38.5053 22.004C38.5575 22.0243 38.605 22.0548 38.6447 22.0936C38.6845 22.1325 38.7157 22.1788 38.7365 22.2298C38.7573 22.2808 38.7672 22.3354 38.7656 22.3903C38.7659 22.4661 38.7435 22.5403 38.7012 22.6039C37.8389 24.0614 36.1272 24.7776 34.454 24.7776C31.5839 24.7776 29.5247 22.2647 29.5247 19.5884C29.5247 16.9121 31.571 14.3992 34.454 14.3992C37.337 14.3992 39.3962 16.887 39.4091 19.5633ZM38.4953 19.1737C38.3151 17.1131 36.6935 15.2284 34.454 15.2284C32.2146 15.2284 30.6315 17.1131 30.4127 19.1737H38.4953Z" fill="#8D8D8D"/>
<path d="M49.7826 14.6001C49.8942 14.6033 50.0004 14.648 50.0793 14.725C50.1583 14.8021 50.2041 14.9058 50.2073 15.0147C50.2089 15.0696 50.199 15.1242 50.1782 15.1752C50.1574 15.2262 50.1262 15.2726 50.0865 15.3114C50.0467 15.3502 49.9992 15.3807 49.947 15.401C49.8947 15.4213 49.8388 15.4309 49.7826 15.4294H47.4916V24.2121C47.4906 24.3217 47.4456 24.4266 47.3661 24.5042C47.2867 24.5817 47.1793 24.6257 47.0669 24.6267C46.9553 24.6235 46.8491 24.5788 46.7702 24.5018C46.6912 24.4247 46.6454 24.321 46.6422 24.2121V15.4294H44.4414C44.3852 15.4309 44.3292 15.4213 44.277 15.401C44.2247 15.3807 44.1772 15.3502 44.1375 15.3114C44.0977 15.2726 44.0665 15.2262 44.0457 15.1752C44.0249 15.1242 44.015 15.0696 44.0166 15.0147C44.0177 14.9051 44.0627 14.8002 44.1422 14.7226C44.2216 14.6451 44.329 14.6011 44.4414 14.6001H46.6422V11.3961C46.6424 11.2899 46.6814 11.1873 46.7522 11.1067C46.823 11.0261 46.9209 10.9728 47.0283 10.9563C47.0884 10.9485 47.1494 10.9535 47.2073 10.9709C47.2653 10.9883 47.3186 11.0176 47.3639 11.057C47.4091 11.0964 47.445 11.1448 47.4693 11.199C47.4936 11.2532 47.5056 11.3118 47.5045 11.371V14.6001H49.7826Z" fill="#8D8D8D"/>
<path d="M63.747 18.847V24.1619C63.7437 24.2708 63.6979 24.3745 63.619 24.4516C63.54 24.5286 63.4339 24.5733 63.3222 24.5765C63.266 24.5781 63.2101 24.5684 63.1578 24.5481C63.1056 24.5278 63.0581 24.4974 63.0184 24.4585C62.9786 24.4197 62.9474 24.3734 62.9266 24.3224C62.9058 24.2714 62.8959 24.2167 62.8975 24.1619V18.847C62.8975 17.0503 61.855 15.2661 59.8086 15.2661C57.1831 15.2661 56.0505 17.5026 56.2049 19.8019C56.2049 19.8648 56.2307 20.1286 56.2307 20.1663V24.1493C56.2304 24.2555 56.1914 24.3581 56.1207 24.4387C56.0499 24.5193 55.952 24.5726 55.8446 24.5891C55.7845 24.5969 55.7234 24.5919 55.6655 24.5745C55.6076 24.5571 55.5542 24.5278 55.509 24.4884C55.4638 24.449 55.4278 24.4006 55.4036 24.3464C55.3793 24.2922 55.3673 24.2336 55.3684 24.1744V6.69698C55.3694 6.58732 55.4144 6.48243 55.4939 6.40488C55.5733 6.32733 55.6807 6.28333 55.7931 6.28235C55.9047 6.28551 56.0109 6.33021 56.0898 6.40729C56.1688 6.48438 56.2146 6.58801 56.2178 6.69698V16.5728C56.9514 15.2912 58.2642 14.4243 59.7958 14.4243C62.3184 14.4243 63.747 16.5728 63.747 18.847Z" fill="#8D8D8D"/>
<path d="M79.0756 19.5633C79.0736 19.6814 79.0237 19.7941 78.9369 19.8765C78.8501 19.9589 78.7334 20.0044 78.6123 20.003H70.0792C70.298 22.0636 71.8811 23.9483 74.1205 23.9483C75.6521 23.9483 76.7847 23.3829 77.6341 22.1893C77.6737 22.1266 77.7284 22.0743 77.7935 22.037C77.8585 21.9998 77.932 21.9787 78.0074 21.9757C78.0636 21.9741 78.1195 21.9838 78.1718 22.004C78.224 22.0243 78.2715 22.0548 78.3112 22.0936C78.351 22.1325 78.3822 22.1788 78.403 22.2298C78.4238 22.2808 78.4337 22.3354 78.4321 22.3903C78.4324 22.4661 78.41 22.5403 78.3677 22.6039C77.5054 24.0614 75.7937 24.7776 74.1205 24.7776C71.2504 24.7776 69.1912 22.2647 69.1912 19.5884C69.1912 16.9121 71.2376 14.3992 74.1205 14.3992C76.9777 14.3992 79.0627 16.887 79.0756 19.5633ZM78.1489 19.1737C77.9688 17.1131 76.3471 15.2284 74.1076 15.2284C71.8682 15.2284 70.2851 17.1131 70.0664 19.1737H78.1489Z" fill="#8D8D8D"/>
<path d="M89.5649 14.9896C89.5731 15.1012 89.5357 15.2113 89.461 15.2961C89.3862 15.3808 89.2802 15.4333 89.1659 15.4419C86.6562 15.8063 85.5236 17.8041 85.5236 20.1285V24.1115C85.5234 24.2177 85.4844 24.3203 85.4136 24.4009C85.3429 24.4815 85.245 24.5349 85.1375 24.5513C85.0775 24.5591 85.0164 24.5541 84.9585 24.5368C84.9006 24.5194 84.8472 24.49 84.802 24.4506C84.7568 24.4113 84.7208 24.3629 84.6965 24.3087C84.6722 24.2545 84.6602 24.1958 84.6613 24.1367V15.0524C84.6615 14.9463 84.7005 14.8436 84.7713 14.763C84.8421 14.6824 84.94 14.6291 85.0474 14.6127C85.1075 14.6049 85.1686 14.6098 85.2265 14.6272C85.2844 14.6446 85.3378 14.674 85.383 14.7133C85.4282 14.7527 85.4642 14.8011 85.4884 14.8553C85.5127 14.9095 85.5247 14.9682 85.5236 15.0273V16.8743C86.2315 15.7058 87.6344 14.6001 89.1016 14.6001C89.3204 14.6001 89.5649 14.7509 89.5649 14.9896Z" fill="#8D8D8D"/>
<path d="M103.594 19.5633C103.592 19.6814 103.542 19.7941 103.455 19.8765C103.368 19.9589 103.251 20.0044 103.13 20.003H94.5972C94.816 22.0636 96.399 23.9483 98.6385 23.9483C100.17 23.9483 101.303 23.3829 102.152 22.1893C102.192 22.1266 102.246 22.0743 102.311 22.037C102.377 21.9998 102.45 21.9787 102.525 21.9757C102.582 21.9741 102.637 21.9838 102.69 22.004C102.742 22.0243 102.789 22.0548 102.829 22.0936C102.869 22.1325 102.9 22.1788 102.921 22.2298C102.942 22.2808 102.952 22.3354 102.95 22.3903C102.95 22.4661 102.928 22.5403 102.886 22.6039C102.023 24.0614 100.312 24.7776 98.6385 24.7776C95.7684 24.7776 93.7091 22.2647 93.7091 19.5884C93.7091 16.9121 95.7555 14.3992 98.6385 14.3992C101.521 14.3992 103.581 16.887 103.594 19.5633ZM102.68 19.1737C102.5 17.1131 100.878 15.2284 98.6385 15.2284C96.399 15.2284 94.816 17.1131 94.5972 19.1737H102.68Z" fill="#8D8D8D"/>
<path d="M117.391 15.0901V24.2121C117.387 24.321 117.342 24.4247 117.263 24.5018C117.184 24.5789 117.078 24.6236 116.966 24.6267C116.91 24.6283 116.854 24.6186 116.802 24.5983C116.749 24.578 116.702 24.5476 116.662 24.5087C116.622 24.4699 116.591 24.4236 116.57 24.3726C116.55 24.3216 116.54 24.267 116.541 24.2121V22.4782C115.833 23.8477 114.585 24.8403 112.989 24.8403C110.454 24.8403 109.051 22.6918 109.051 20.4176V15.0776C109.052 14.9679 109.097 14.863 109.176 14.7855C109.256 14.7079 109.363 14.6639 109.475 14.6629C109.587 14.6661 109.693 14.7108 109.772 14.7879C109.851 14.865 109.897 14.9686 109.9 15.0776V20.4176C109.9 22.2143 110.943 23.9985 112.989 23.9985C115.859 23.9985 116.541 21.3725 116.541 18.47V15.065C116.542 14.9978 116.56 14.9318 116.592 14.8725C116.625 14.8132 116.671 14.7623 116.728 14.7242C116.784 14.6861 116.85 14.6617 116.918 14.6533C116.986 14.6448 117.056 14.6524 117.12 14.6755C117.201 14.7122 117.27 14.7708 117.318 14.8442C117.366 14.9177 117.391 15.003 117.391 15.0901Z" fill="#8D8D8D"/>
<path d="M139 18.8093V24.1492C138.997 24.2582 138.951 24.3619 138.872 24.4389C138.793 24.516 138.687 24.5607 138.575 24.5639C138.519 24.5654 138.463 24.5558 138.411 24.5355C138.359 24.5152 138.311 24.4847 138.271 24.4459C138.232 24.4071 138.2 24.3608 138.18 24.3097C138.159 24.2587 138.149 24.2041 138.151 24.1492V18.8093C138.151 17.0125 137.108 15.2535 135.062 15.2535C132.488 15.2535 131.509 17.9423 131.509 20.028V24.1492C131.506 24.2582 131.46 24.3619 131.381 24.4389C131.302 24.516 131.196 24.5607 131.085 24.5639C131.028 24.5654 130.973 24.5558 130.92 24.5355C130.868 24.5152 130.821 24.4847 130.781 24.4459C130.741 24.4071 130.71 24.3608 130.689 24.3097C130.668 24.2587 130.658 24.2041 130.66 24.1492V18.8093C130.66 17.0125 129.617 15.2535 127.571 15.2535C124.971 15.2535 123.903 17.2512 123.993 19.915C123.993 19.9778 124.019 20.0909 123.993 20.1286V24.1367C123.993 24.2428 123.954 24.3455 123.883 24.4261C123.812 24.5067 123.714 24.56 123.607 24.5764C123.547 24.5842 123.486 24.5793 123.428 24.5619C123.37 24.5445 123.317 24.5151 123.271 24.4758C123.226 24.4364 123.19 24.388 123.166 24.3338C123.142 24.2796 123.13 24.2209 123.131 24.1618V15.0524C123.131 14.9463 123.17 14.8436 123.241 14.763C123.312 14.6824 123.409 14.6291 123.517 14.6127C123.577 14.6049 123.638 14.6098 123.696 14.6272C123.754 14.6446 123.807 14.674 123.852 14.7133C123.898 14.7527 123.934 14.8011 123.958 14.8553C123.982 14.9095 123.994 14.9682 123.993 15.0273V16.5476C124.727 15.266 126.04 14.4242 127.571 14.4242C129.309 14.4242 130.66 15.5048 131.213 17.0753C131.921 15.5173 133.298 14.4242 135.062 14.4242C137.571 14.4242 139 16.5476 139 18.8093Z" fill="#8D8D8D"/>
<path opacity="0.6" d="M10.6824 12.5773L0 17.3142L10.6824 23.4834L21.3777 17.3142L10.6824 12.5773Z" fill="#8D8D8D"/>
<path opacity="0.45" d="M0 17.3141L10.6824 23.4834V0L0 17.3141Z" fill="#8D8D8D"/>
<path opacity="0.8" d="M10.6824 0V23.4834L21.3777 17.3141L10.6824 0Z" fill="#8D8D8D"/>
<path opacity="0.45" d="M0 19.2993L10.6824 34V25.456L0 19.2993Z" fill="#8D8D8D"/>
<path opacity="0.8" d="M10.6824 25.456V34L21.3777 19.2993L10.6824 25.456Z" fill="#8D8D8D"/>
</svg>
