<svg width="161" height="40" viewBox="0 0 161 40" fill="none" xmlns="http://www.w3.org/2000/svg">
<path d="M29.1204 6.34464C29.7963 5.99857 30.8541 5.99857 31.5594 6.34464L38.5824 9.97838C38.9938 10.2091 39.2288 10.5263 39.2582 10.8436V29.0699C39.2582 29.4448 39.0232 29.7909 38.5824 30.0216L31.5594 33.6554C30.8835 34.0014 29.8257 34.0014 29.1204 33.6554L22.0974 30.0216C21.6567 29.7909 21.4216 29.4448 21.4216 29.0699C21.4216 29.0123 21.4216 29.0123 21.4216 28.9834V10.9877C21.4216 10.9589 21.4216 10.9301 21.4216 10.9301V10.8724C21.451 10.5552 21.6567 10.2091 22.0974 10.0072L29.1204 6.34464ZM38.1416 21.0238L31.53 24.4268C30.8541 24.7729 29.7963 24.7729 29.091 24.4268L22.5382 21.0238V29.0411L29.1204 32.4153C29.5024 32.6172 29.8844 32.819 30.2371 32.819H30.2958C30.7072 32.819 31.0598 32.6172 31.4712 32.4441L38.1416 28.9834V21.0238ZM20.2756 28.6662C20.2756 29.3583 20.3637 29.8198 20.5106 30.137C20.6576 30.3965 20.8339 30.6273 21.2159 30.858L21.2453 30.8868C21.3334 30.9445 21.4216 31.0022 21.5391 31.0598L21.686 31.1464L22.0974 31.3771L21.5097 32.2999L21.069 32.0404L21.0102 31.9827C20.8633 31.8962 20.7751 31.8385 20.687 31.752C19.5997 31.031 19.2177 30.2812 19.2177 28.6662V28.6085H20.2756V28.6662ZM29.7669 16.1211C29.7081 16.15 29.6787 16.1788 29.62 16.1788L22.597 19.7837C22.597 19.7837 22.5676 19.7837 22.5676 19.8125H22.597L29.62 23.4751C29.6787 23.504 29.7081 23.5328 29.7669 23.5328V16.1211ZM30.8835 16.1211V23.504C30.9423 23.4751 30.9717 23.4463 31.0305 23.4463L38.0534 19.8125C38.0534 19.8125 38.0828 19.8125 38.0828 19.7837H38.0534L31.0598 16.1788C30.9717 16.1788 30.9423 16.15 30.8835 16.1211ZM38.1416 12.1413L31.8238 15.4001L38.1416 18.659V12.1413ZM22.5382 12.1413V18.6301L28.8266 15.4001L22.5382 12.1413ZM31.0305 7.29633C30.6484 7.09446 30.002 7.09446 29.6494 7.29633L22.597 10.9301C22.597 10.9301 22.5676 10.9301 22.5676 10.9589H22.597L29.62 14.5927C30.002 14.7945 30.6484 14.7945 31.0011 14.5927L38.0241 10.9589C38.0241 10.9589 38.0534 10.9589 38.0534 10.9301H38.0241L31.0305 7.29633ZM39.1995 7.72892L39.6402 7.98847L39.699 8.04615C39.8459 8.13267 39.9341 8.19035 40.0222 8.27686C41.0801 8.969 41.4915 9.74766 41.4915 11.3338V11.3915H40.3749C40.3749 10.6994 40.2867 10.2379 40.1398 9.9207C39.9929 9.66115 39.8165 9.43043 39.4345 9.19972L39.4052 9.17088C39.317 9.1132 39.2288 9.05552 39.1113 8.99784L38.9644 8.91133L38.553 8.68061L39.1995 7.72892Z" fill="#8D8D8D"/>
<path d="M59.0343 28.8681V17.7361H62.1785V15.6885H59.0343V14.2466C59.0343 12.5739 59.7689 11.7664 61.2381 11.7664C61.6789 11.7664 62.1197 11.8241 62.5899 11.9683V9.80533C62.0022 9.63229 61.3557 9.54578 60.6505 9.54578C59.2987 9.54578 58.2115 9.92069 57.4769 10.6993C56.7129 11.4492 56.3309 12.5739 56.3309 14.0447V15.7174H53.745V17.765H56.3309V28.9257H59.0343V28.8681ZM69.9361 29.0411C70.9646 29.0411 71.8755 28.8392 72.6395 28.4355C73.4035 28.0029 73.9912 27.3973 74.3732 26.6186V28.8681H77.0472V15.6885H74.3732V17.8226C73.9618 17.044 73.3741 16.4384 72.6101 16.0058C71.8461 15.5732 70.9352 15.3713 69.9067 15.3713C68.7313 15.3713 67.7322 15.6597 66.8213 16.2365C65.9104 16.8133 65.2051 17.6208 64.7056 18.659C64.206 19.6972 63.9416 20.9084 63.9416 22.2639C63.9416 23.6193 64.1766 24.8017 64.7056 25.8399C65.2051 26.8781 65.881 27.6568 66.7919 28.2048C67.7028 28.7527 68.7607 29.0411 69.9361 29.0411ZM70.6119 26.9647C69.3778 26.9647 68.4375 26.5609 67.7616 25.7246C67.0858 24.9171 66.7331 23.7347 66.7331 22.2639C66.7331 20.7642 67.0858 19.6107 67.7616 18.7455C68.4375 17.9092 69.3778 17.4766 70.6119 17.4766C71.8461 17.4766 72.7864 17.8803 73.4623 18.7167C74.1087 19.5241 74.4614 20.7066 74.4614 22.2062C74.4614 23.7058 74.1087 24.8594 73.4623 25.6957C72.7277 26.5609 71.7873 26.9647 70.6119 26.9647ZM83.6882 28.8681V21.3699C83.6882 20.2163 84.0408 19.2646 84.7167 18.5725C85.3926 17.8803 86.3329 17.5342 87.4495 17.5342C88.4486 17.5342 89.1832 17.7938 89.624 18.3129C90.0941 18.832 90.2998 19.6683 90.2998 20.8219V28.8681H93.0033V20.6777C93.0033 17.1593 91.3871 15.4001 88.1841 15.4001C87.1557 15.4001 86.2447 15.602 85.4219 16.0634C84.6286 16.5249 83.9821 17.1593 83.5707 17.9957L83.3356 15.7174H80.8085C80.9554 16.8133 81.0142 18.0533 81.0142 19.4376V28.8969H83.6882V28.8681ZM101.995 29.0411C102.759 29.0411 103.406 28.9546 103.993 28.7527V26.6186C103.494 26.7628 103.053 26.8205 102.583 26.8205C101.877 26.8205 101.319 26.6186 100.908 26.2437C100.526 25.8688 100.291 25.2055 100.291 24.3115V17.7361H104.023V15.6885H100.32V11.478L97.6167 12.372V15.6597H95.0014V17.7073H97.6167V24.5422C97.6167 25.9841 97.9987 27.1089 98.7627 27.8875C99.5561 28.6662 100.614 29.0411 101.995 29.0411ZM112.309 29.0411C113.602 29.0411 114.748 28.7527 115.747 28.2048C116.746 27.6568 117.51 26.8493 118.039 25.8111C118.568 24.7729 118.862 23.5616 118.862 22.2062C118.862 20.8219 118.598 19.6395 118.039 18.5725C117.51 17.5342 116.717 16.7267 115.747 16.1788C114.748 15.6309 113.602 15.3425 112.309 15.3425C110.987 15.3425 109.841 15.6309 108.842 16.1788C107.843 16.7267 107.079 17.5342 106.55 18.5725C106.021 19.6107 105.727 20.8219 105.727 22.2062C105.727 23.5905 105.991 24.7729 106.55 25.8111C107.079 26.8493 107.872 27.628 108.842 28.2048C109.841 28.7527 110.987 29.0411 112.309 29.0411ZM112.28 26.9647C111.046 26.9647 110.105 26.5609 109.429 25.7823C108.783 24.9748 108.43 23.7924 108.43 22.2639C108.43 20.7354 108.783 19.5818 109.459 18.7743C110.135 17.9668 111.075 17.5342 112.309 17.5342C113.514 17.5342 114.454 17.938 115.13 18.7743C115.777 19.5818 116.129 20.7642 116.129 22.2639C116.129 23.8212 115.777 25.0036 115.13 25.7823C114.484 26.5609 113.543 26.9647 112.28 26.9647ZM124.68 28.8681V21.3987C124.68 20.2163 124.974 19.2646 125.591 18.5436C126.208 17.8515 127.031 17.5054 128.03 17.5054C128.941 17.5054 129.558 17.765 129.969 18.2841C130.351 18.8032 130.587 19.6395 130.587 20.7642V28.8392H133.29V21.3987C133.29 20.2163 133.584 19.2646 134.201 18.5436C134.818 17.8515 135.611 17.5054 136.64 17.5054C137.551 17.5054 138.168 17.765 138.579 18.2841C138.961 18.8032 139.196 19.6395 139.196 20.7642V28.8392H141.87V20.6777C141.87 17.1593 140.372 15.4001 137.374 15.4001C136.375 15.4001 135.494 15.6309 134.7 16.0923C133.907 16.5537 133.319 17.1593 132.908 17.938C132.291 16.2365 130.91 15.4001 128.823 15.4001C127.854 15.4001 127.002 15.602 126.238 16.0346C125.503 16.4672 124.945 17.0728 124.563 17.8803L124.328 15.6885H121.83C121.977 16.7844 122.036 18.0245 122.036 19.4088V28.8681H124.68Z" fill="#8D8D8D"/>
</svg>
