<svg width="152" height="29" viewBox="0 0 152 29" fill="none" xmlns="http://www.w3.org/2000/svg">
<path d="M7.83175 23.312C6.90375 23.312 6.01175 23.168 5.15575 22.88C4.30775 22.584 3.56375 22.164 2.92375 21.62C2.28375 21.068 1.82375 20.408 1.54375 19.64L4.29175 18.632C4.40375 18.952 4.63175 19.244 4.97575 19.508C5.31975 19.772 5.73975 19.984 6.23575 20.144C6.73175 20.304 7.26375 20.384 7.83175 20.384C8.41575 20.384 8.95975 20.296 9.46375 20.12C9.97575 19.936 10.3878 19.684 10.6998 19.364C11.0118 19.036 11.1678 18.656 11.1678 18.224C11.1678 17.784 11.0038 17.424 10.6758 17.144C10.3478 16.856 9.92775 16.628 9.41575 16.46C8.90375 16.292 8.37575 16.164 7.83175 16.076C6.63975 15.892 5.57175 15.608 4.62775 15.224C3.68375 14.84 2.93575 14.308 2.38375 13.628C1.83975 12.948 1.56775 12.068 1.56775 10.988C1.56775 9.972 1.85975 9.084 2.44375 8.324C3.02775 7.564 3.79575 6.972 4.74775 6.548C5.69975 6.124 6.72775 5.912 7.83175 5.912C8.75175 5.912 9.63975 6.056 10.4958 6.344C11.3518 6.632 12.0998 7.052 12.7397 7.604C13.3878 8.156 13.8518 8.82 14.1318 9.596L11.3718 10.592C11.2598 10.272 11.0318 9.98 10.6878 9.716C10.3438 9.452 9.92375 9.244 9.42775 9.092C8.93175 8.932 8.39975 8.852 7.83175 8.852C7.26375 8.844 6.72375 8.936 6.21175 9.128C5.70775 9.312 5.29575 9.564 4.97575 9.884C4.65575 10.204 4.49575 10.572 4.49575 10.988C4.49575 11.524 4.64375 11.928 4.93975 12.2C5.24375 12.472 5.64775 12.672 6.15175 12.8C6.65575 12.92 7.21575 13.032 7.83175 13.136C8.95175 13.312 9.98775 13.608 10.9398 14.024C11.8918 14.44 12.6558 14.996 13.2318 15.692C13.8078 16.38 14.0958 17.224 14.0958 18.224C14.0958 19.24 13.8078 20.132 13.2318 20.9C12.6558 21.66 11.8918 22.252 10.9398 22.676C9.98775 23.1 8.95175 23.312 7.83175 23.312ZM16.4791 17.18V11H19.4071V17.132C19.4071 17.748 19.5351 18.312 19.7911 18.824C20.0471 19.336 20.4031 19.744 20.8591 20.048C21.3151 20.344 21.8351 20.492 22.4191 20.492C23.0031 20.492 23.5031 20.344 23.9191 20.048C24.3431 19.744 24.6671 19.336 24.8911 18.824C25.1231 18.312 25.2391 17.748 25.2391 17.132V11H28.1671V23H25.2391V21.572C24.8471 22.1 24.3711 22.528 23.8111 22.856C23.2591 23.176 22.6311 23.336 21.9271 23.336C20.8151 23.336 19.8551 23.06 19.0471 22.508C18.2391 21.948 17.6111 21.204 17.1631 20.276C16.7151 19.34 16.4871 18.308 16.4791 17.18ZM33.4461 29H30.5181V11H33.4461V12.524C33.8381 11.98 34.3181 11.54 34.8861 11.204C35.4621 10.86 36.1341 10.688 36.9021 10.688C37.7821 10.688 38.6021 10.852 39.3621 11.18C40.1221 11.508 40.7901 11.964 41.3661 12.548C41.9501 13.124 42.4021 13.792 42.7221 14.552C43.0501 15.312 43.2141 16.128 43.2141 17C43.2141 17.872 43.0501 18.692 42.7221 19.46C42.4021 20.228 41.9501 20.904 41.3661 21.488C40.7901 22.064 40.1221 22.516 39.3621 22.844C38.6021 23.172 37.7821 23.336 36.9021 23.336C36.1341 23.336 35.4621 23.168 34.8861 22.832C34.3181 22.488 33.8381 22.044 33.4461 21.5V29ZM36.8661 13.508C36.2581 13.508 35.7141 13.668 35.2341 13.988C34.7541 14.3 34.3781 14.72 34.1061 15.248C33.8341 15.776 33.6981 16.36 33.6981 17C33.6981 17.64 33.8341 18.228 34.1061 18.764C34.3781 19.292 34.7541 19.716 35.2341 20.036C35.7141 20.348 36.2581 20.504 36.8661 20.504C37.4821 20.504 38.0461 20.348 38.5581 20.036C39.0701 19.724 39.4781 19.304 39.7821 18.776C40.0861 18.24 40.2381 17.648 40.2381 17C40.2381 16.36 40.0861 15.776 39.7821 15.248C39.4781 14.72 39.0701 14.3 38.5581 13.988C38.0541 13.668 37.4901 13.508 36.8661 13.508ZM48.2586 29H45.3306V11H48.2586V12.524C48.6506 11.98 49.1306 11.54 49.6986 11.204C50.2746 10.86 50.9466 10.688 51.7146 10.688C52.5946 10.688 53.4146 10.852 54.1746 11.18C54.9346 11.508 55.6026 11.964 56.1786 12.548C56.7626 13.124 57.2146 13.792 57.5346 14.552C57.8626 15.312 58.0266 16.128 58.0266 17C58.0266 17.872 57.8626 18.692 57.5346 19.46C57.2146 20.228 56.7626 20.904 56.1786 21.488C55.6026 22.064 54.9346 22.516 54.1746 22.844C53.4146 23.172 52.5946 23.336 51.7146 23.336C50.9466 23.336 50.2746 23.168 49.6986 22.832C49.1306 22.488 48.6506 22.044 48.2586 21.5V29ZM51.6786 13.508C51.0706 13.508 50.5266 13.668 50.0466 13.988C49.5666 14.3 49.1906 14.72 48.9186 15.248C48.6466 15.776 48.5106 16.36 48.5106 17C48.5106 17.64 48.6466 18.228 48.9186 18.764C49.1906 19.292 49.5666 19.716 50.0466 20.036C50.5266 20.348 51.0706 20.504 51.6786 20.504C52.2946 20.504 52.8586 20.348 53.3706 20.036C53.8826 19.724 54.2906 19.304 54.5946 18.776C54.8986 18.24 55.0506 17.648 55.0506 17C55.0506 16.36 54.8986 15.776 54.5946 15.248C54.2906 14.72 53.8826 14.3 53.3706 13.988C52.8666 13.668 52.3026 13.508 51.6786 13.508ZM65.47 23.312C64.366 23.312 63.358 23.028 62.446 22.46C61.542 21.892 60.818 21.132 60.274 20.18C59.738 19.22 59.47 18.16 59.47 17C59.47 16.12 59.626 15.3 59.938 14.54C60.25 13.772 60.678 13.1 61.222 12.524C61.774 11.94 62.414 11.484 63.142 11.156C63.87 10.828 64.646 10.664 65.47 10.664C66.574 10.664 67.578 10.948 68.482 11.516C69.394 12.084 70.118 12.848 70.654 13.808C71.198 14.768 71.47 15.832 71.47 17C71.47 17.872 71.314 18.688 71.002 19.448C70.69 20.208 70.258 20.88 69.706 21.464C69.162 22.04 68.526 22.492 67.798 22.82C67.078 23.148 66.302 23.312 65.47 23.312ZM65.47 20.384C66.054 20.384 66.578 20.228 67.042 19.916C67.506 19.604 67.87 19.192 68.134 18.68C68.406 18.168 68.542 17.608 68.542 17C68.542 16.376 68.402 15.808 68.122 15.296C67.85 14.776 67.478 14.364 67.006 14.06C66.542 13.748 66.03 13.592 65.47 13.592C64.894 13.592 64.374 13.748 63.91 14.06C63.446 14.372 63.078 14.788 62.806 15.308C62.534 15.828 62.398 16.392 62.398 17C62.398 17.632 62.538 18.204 62.818 18.716C63.098 19.228 63.47 19.636 63.934 19.94C64.406 20.236 64.918 20.384 65.47 20.384ZM80.6344 13.976C80.4184 13.832 80.1824 13.716 79.9264 13.628C79.6784 13.54 79.4024 13.496 79.0984 13.496C78.5144 13.496 78.0104 13.648 77.5864 13.952C77.1704 14.256 76.8504 14.664 76.6264 15.176C76.4024 15.68 76.2904 16.24 76.2904 16.856V23H73.3384V11H76.2664V12.416C76.6664 11.888 77.1424 11.468 77.6944 11.156C78.2544 10.844 78.8864 10.688 79.5904 10.688C79.8624 10.688 80.1224 10.696 80.3704 10.712C80.6264 10.728 80.8704 10.772 81.1024 10.844L80.6344 13.976ZM89.9423 13.928H87.6143V23H84.6863V13.928H82.9103V11H84.6863V7.232H87.6143V11H89.9423V13.928ZM97.0403 23.312C95.9363 23.312 94.9283 23.028 94.0163 22.46C93.1123 21.892 92.3883 21.128 91.8443 20.168C91.3083 19.208 91.0403 18.148 91.0403 16.988C91.0403 16.116 91.1963 15.3 91.5083 14.54C91.8203 13.772 92.2483 13.1 92.7923 12.524C93.3443 11.94 93.9843 11.484 94.7123 11.156C95.4403 10.828 96.2163 10.664 97.0403 10.664C97.9763 10.664 98.8323 10.864 99.6083 11.264C100.392 11.656 101.056 12.196 101.6 12.884C102.144 13.572 102.54 14.356 102.788 15.236C103.036 16.116 103.092 17.036 102.956 17.996H94.1843C94.2963 18.444 94.4803 18.848 94.7363 19.208C94.9923 19.56 95.3163 19.844 95.7083 20.06C96.1003 20.268 96.5443 20.376 97.0403 20.384C97.5523 20.392 98.0163 20.272 98.4323 20.024C98.8563 19.768 99.2083 19.424 99.4883 18.992L102.476 19.688C101.988 20.752 101.26 21.624 100.292 22.304C99.3243 22.976 98.2403 23.312 97.0403 23.312ZM94.0883 15.8H99.9923C99.9043 15.32 99.7163 14.888 99.4283 14.504C99.1483 14.112 98.8003 13.8 98.3843 13.568C97.9683 13.336 97.5203 13.22 97.0403 13.22C96.5603 13.22 96.1163 13.336 95.7083 13.568C95.3003 13.792 94.9523 14.1 94.6643 14.492C94.3843 14.876 94.1923 15.312 94.0883 15.8ZM114.028 5H116.956V23H114.028V21.5C113.644 22.036 113.16 22.472 112.576 22.808C111.992 23.144 111.316 23.312 110.548 23.312C109.676 23.312 108.86 23.148 108.1 22.82C107.34 22.492 106.668 22.04 106.084 21.464C105.508 20.88 105.056 20.208 104.728 19.448C104.4 18.688 104.236 17.872 104.236 17C104.236 16.128 104.4 15.312 104.728 14.552C105.056 13.792 105.508 13.124 106.084 12.548C106.668 11.964 107.34 11.508 108.1 11.18C108.86 10.852 109.676 10.688 110.548 10.688C111.316 10.688 111.992 10.856 112.576 11.192C113.16 11.52 113.644 11.956 114.028 12.5V5ZM110.584 20.492C111.208 20.492 111.76 20.336 112.24 20.024C112.72 19.712 113.096 19.292 113.368 18.764C113.64 18.228 113.776 17.64 113.776 17C113.776 16.352 113.64 15.764 113.368 15.236C113.096 14.7 112.716 14.276 112.228 13.964C111.748 13.652 111.2 13.496 110.584 13.496C109.968 13.496 109.408 13.656 108.904 13.976C108.4 14.288 107.996 14.708 107.692 15.236C107.388 15.764 107.236 16.352 107.236 17C107.236 17.648 107.388 18.236 107.692 18.764C107.996 19.292 108.4 19.712 108.904 20.024C109.416 20.336 109.976 20.492 110.584 20.492ZM131.894 10.664C133.062 10.664 134.126 10.948 135.086 11.516C136.046 12.084 136.81 12.848 137.378 13.808C137.946 14.76 138.23 15.816 138.23 16.976C138.23 17.848 138.066 18.668 137.738 19.436C137.41 20.204 136.954 20.88 136.37 21.464C135.794 22.04 135.122 22.492 134.354 22.82C133.594 23.148 132.774 23.312 131.894 23.312C131.142 23.312 130.474 23.144 129.89 22.808C129.314 22.464 128.83 22.02 128.438 21.476V23H125.51V5H128.438V12.5C128.83 11.956 129.314 11.516 129.89 11.18C130.474 10.836 131.142 10.664 131.894 10.664ZM131.858 20.48C132.482 20.48 133.046 20.324 133.55 20.012C134.062 19.692 134.47 19.268 134.774 18.74C135.078 18.212 135.23 17.624 135.23 16.976C135.23 16.336 135.078 15.752 134.774 15.224C134.47 14.688 134.062 14.264 133.55 13.952C133.038 13.64 132.474 13.484 131.858 13.484C131.25 13.484 130.706 13.644 130.226 13.964C129.746 14.276 129.37 14.7 129.098 15.236C128.826 15.764 128.69 16.344 128.69 16.976C128.69 17.624 128.826 18.216 129.098 18.752C129.37 19.28 129.746 19.7 130.226 20.012C130.706 20.324 131.25 20.48 131.858 20.48ZM147.594 11H150.702L144.138 29H141.03L143.202 23L138.882 11H142.086L144.666 18.992L147.594 11Z" fill="white"/>
</svg>
