<svg width="1375" height="40" viewBox="0 0 1375 40" fill="none" xmlns="http://www.w3.org/2000/svg">
<path d="M29.1204 6.34464C29.7963 5.99857 30.8541 5.99857 31.5594 6.34464L38.5824 9.97838C38.9938 10.2091 39.2288 10.5263 39.2582 10.8436V29.0699C39.2582 29.4448 39.0232 29.7909 38.5824 30.0216L31.5594 33.6554C30.8835 34.0014 29.8257 34.0014 29.1204 33.6554L22.0974 30.0216C21.6567 29.7909 21.4216 29.4448 21.4216 29.0699C21.4216 29.0123 21.4216 29.0123 21.4216 28.9834V10.9877C21.4216 10.9589 21.4216 10.9301 21.4216 10.9301V10.8724C21.451 10.5552 21.6567 10.2091 22.0974 10.0072L29.1204 6.34464ZM38.1416 21.0238L31.53 24.4268C30.8541 24.7729 29.7963 24.7729 29.091 24.4268L22.5382 21.0238V29.0411L29.1204 32.4153C29.5024 32.6172 29.8844 32.819 30.2371 32.819H30.2958C30.7072 32.819 31.0598 32.6172 31.4712 32.4441L38.1416 28.9834V21.0238ZM20.2756 28.6662C20.2756 29.3583 20.3637 29.8198 20.5106 30.137C20.6576 30.3965 20.8339 30.6273 21.2159 30.858L21.2453 30.8868C21.3334 30.9445 21.4216 31.0022 21.5391 31.0598L21.686 31.1464L22.0974 31.3771L21.5097 32.2999L21.069 32.0404L21.0102 31.9827C20.8633 31.8962 20.7751 31.8385 20.687 31.752C19.5997 31.031 19.2177 30.2812 19.2177 28.6662V28.6085H20.2756V28.6662ZM29.7669 16.1211C29.7081 16.15 29.6787 16.1788 29.62 16.1788L22.597 19.7837C22.597 19.7837 22.5676 19.7837 22.5676 19.8125H22.597L29.62 23.4751C29.6787 23.504 29.7081 23.5328 29.7669 23.5328V16.1211ZM30.8835 16.1211V23.504C30.9423 23.4751 30.9717 23.4463 31.0305 23.4463L38.0534 19.8125C38.0534 19.8125 38.0828 19.8125 38.0828 19.7837H38.0534L31.0598 16.1788C30.9717 16.1788 30.9423 16.15 30.8835 16.1211ZM38.1416 12.1413L31.8238 15.4001L38.1416 18.659V12.1413ZM22.5382 12.1413V18.6301L28.8266 15.4001L22.5382 12.1413ZM31.0305 7.29633C30.6484 7.09446 30.002 7.09446 29.6494 7.29633L22.597 10.9301C22.597 10.9301 22.5676 10.9301 22.5676 10.9589H22.597L29.62 14.5927C30.002 14.7945 30.6484 14.7945 31.0011 14.5927L38.0241 10.9589C38.0241 10.9589 38.0534 10.9589 38.0534 10.9301H38.0241L31.0305 7.29633ZM39.1995 7.72892L39.6402 7.98847L39.699 8.04615C39.8459 8.13267 39.9341 8.19035 40.0222 8.27686C41.0801 8.969 41.4915 9.74766 41.4915 11.3338V11.3915H40.3749C40.3749 10.6994 40.2867 10.2379 40.1398 9.9207C39.9929 9.66115 39.8165 9.43043 39.4345 9.19972L39.4052 9.17088C39.317 9.1132 39.2288 9.05552 39.1113 8.99784L38.9644 8.91133L38.553 8.68061L39.1995 7.72892Z" fill="#8D8D8D"/>
<path d="M59.0343 28.8681V17.7361H62.1785V15.6885H59.0343V14.2466C59.0343 12.5739 59.7689 11.7664 61.2381 11.7664C61.6789 11.7664 62.1197 11.8241 62.5899 11.9683V9.80533C62.0022 9.63229 61.3557 9.54578 60.6505 9.54578C59.2987 9.54578 58.2115 9.92069 57.4769 10.6993C56.7129 11.4492 56.3309 12.5739 56.3309 14.0447V15.7174H53.745V17.765H56.3309V28.9257H59.0343V28.8681ZM69.9361 29.0411C70.9646 29.0411 71.8755 28.8392 72.6395 28.4355C73.4035 28.0029 73.9912 27.3973 74.3732 26.6186V28.8681H77.0472V15.6885H74.3732V17.8226C73.9618 17.044 73.3741 16.4384 72.6101 16.0058C71.8461 15.5732 70.9352 15.3713 69.9067 15.3713C68.7313 15.3713 67.7322 15.6597 66.8213 16.2365C65.9104 16.8133 65.2051 17.6208 64.7056 18.659C64.206 19.6972 63.9416 20.9084 63.9416 22.2639C63.9416 23.6193 64.1766 24.8017 64.7056 25.8399C65.2051 26.8781 65.881 27.6568 66.7919 28.2048C67.7028 28.7527 68.7607 29.0411 69.9361 29.0411ZM70.6119 26.9647C69.3778 26.9647 68.4375 26.5609 67.7616 25.7246C67.0858 24.9171 66.7331 23.7347 66.7331 22.2639C66.7331 20.7642 67.0858 19.6107 67.7616 18.7455C68.4375 17.9092 69.3778 17.4766 70.6119 17.4766C71.8461 17.4766 72.7864 17.8803 73.4623 18.7167C74.1087 19.5241 74.4614 20.7066 74.4614 22.2062C74.4614 23.7058 74.1087 24.8594 73.4623 25.6957C72.7277 26.5609 71.7873 26.9647 70.6119 26.9647ZM83.6882 28.8681V21.3699C83.6882 20.2163 84.0408 19.2646 84.7167 18.5725C85.3926 17.8803 86.3329 17.5342 87.4495 17.5342C88.4486 17.5342 89.1832 17.7938 89.624 18.3129C90.0941 18.832 90.2998 19.6683 90.2998 20.8219V28.8681H93.0033V20.6777C93.0033 17.1593 91.3871 15.4001 88.1841 15.4001C87.1557 15.4001 86.2447 15.602 85.4219 16.0634C84.6286 16.5249 83.9821 17.1593 83.5707 17.9957L83.3356 15.7174H80.8085C80.9554 16.8133 81.0142 18.0533 81.0142 19.4376V28.8969H83.6882V28.8681ZM101.995 29.0411C102.759 29.0411 103.406 28.9546 103.993 28.7527V26.6186C103.494 26.7628 103.053 26.8205 102.583 26.8205C101.877 26.8205 101.319 26.6186 100.908 26.2437C100.526 25.8688 100.291 25.2055 100.291 24.3115V17.7361H104.023V15.6885H100.32V11.478L97.6167 12.372V15.6597H95.0014V17.7073H97.6167V24.5422C97.6167 25.9841 97.9987 27.1089 98.7627 27.8875C99.5561 28.6662 100.614 29.0411 101.995 29.0411ZM112.309 29.0411C113.602 29.0411 114.748 28.7527 115.747 28.2048C116.746 27.6568 117.51 26.8493 118.039 25.8111C118.568 24.7729 118.862 23.5616 118.862 22.2062C118.862 20.8219 118.598 19.6395 118.039 18.5725C117.51 17.5342 116.717 16.7267 115.747 16.1788C114.748 15.6309 113.602 15.3425 112.309 15.3425C110.987 15.3425 109.841 15.6309 108.842 16.1788C107.843 16.7267 107.079 17.5342 106.55 18.5725C106.021 19.6107 105.727 20.8219 105.727 22.2062C105.727 23.5905 105.991 24.7729 106.55 25.8111C107.079 26.8493 107.872 27.628 108.842 28.2048C109.841 28.7527 110.987 29.0411 112.309 29.0411ZM112.28 26.9647C111.046 26.9647 110.105 26.5609 109.429 25.7823C108.783 24.9748 108.43 23.7924 108.43 22.2639C108.43 20.7354 108.783 19.5818 109.459 18.7743C110.135 17.9668 111.075 17.5342 112.309 17.5342C113.514 17.5342 114.454 17.938 115.13 18.7743C115.777 19.5818 116.129 20.7642 116.129 22.2639C116.129 23.8212 115.777 25.0036 115.13 25.7823C114.484 26.5609 113.543 26.9647 112.28 26.9647ZM124.68 28.8681V21.3987C124.68 20.2163 124.974 19.2646 125.591 18.5436C126.208 17.8515 127.031 17.5054 128.03 17.5054C128.941 17.5054 129.558 17.765 129.969 18.2841C130.351 18.8032 130.587 19.6395 130.587 20.7642V28.8392H133.29V21.3987C133.29 20.2163 133.584 19.2646 134.201 18.5436C134.818 17.8515 135.611 17.5054 136.64 17.5054C137.551 17.5054 138.168 17.765 138.579 18.2841C138.961 18.8032 139.196 19.6395 139.196 20.7642V28.8392H141.87V20.6777C141.87 17.1593 140.372 15.4001 137.374 15.4001C136.375 15.4001 135.494 15.6309 134.7 16.0923C133.907 16.5537 133.319 17.1593 132.908 17.938C132.291 16.2365 130.91 15.4001 128.823 15.4001C127.854 15.4001 127.002 15.602 126.238 16.0346C125.503 16.4672 124.945 17.0728 124.563 17.8803L124.328 15.6885H121.83C121.977 16.7844 122.036 18.0245 122.036 19.4088V28.8681H124.68Z" fill="#8D8D8D"/>
<path d="M313.036 15.4578C313.732 15.8904 314.342 16.4671 314.719 17.2458C315.154 18.0245 315.358 18.9762 315.358 20.0432C315.358 21.1103 315.154 22.0043 314.661 22.7829C314.226 23.5616 313.587 24.1672 312.775 24.5133C311.962 24.9459 311.005 25.1477 309.96 25.1477C309.379 25.1477 308.828 25.0324 308.277 24.8305C307.725 24.6863 307.261 24.3691 306.884 23.9942V29.4736H303.75V15.0252H306.448L306.71 16.1787C307.899 15.2271 309.205 14.7656 310.54 14.7656C311.469 14.7656 312.339 14.9963 313.036 15.4578ZM311.324 22.0043C311.875 21.5428 312.136 20.9084 312.136 20.1009C312.136 19.2934 311.875 18.6878 311.382 18.1398C310.888 17.6207 310.25 17.39 309.554 17.39C308.973 17.39 308.422 17.5054 307.986 17.7649C307.551 17.9668 307.232 18.3417 306.971 18.832V21.1968C307.145 21.6582 307.464 22.0331 307.841 22.2927C308.277 22.5522 308.77 22.7253 309.35 22.7253C310.134 22.7541 310.772 22.4657 311.324 22.0043Z" fill="#8D8D8D"/>
<path d="M317.215 17.3035C317.708 16.5537 318.347 15.9193 319.217 15.5155C320.088 15.0829 321.045 14.8234 322.148 14.8234C323.251 14.8234 324.209 15.0252 325.079 15.5155C325.892 15.9481 326.53 16.5826 327.024 17.3612C327.517 18.1399 327.72 19.0051 327.72 19.9856C327.72 20.995 327.517 21.8313 327.024 22.61C326.53 23.3886 325.95 24.0231 325.079 24.4557C324.267 24.8883 323.251 25.1478 322.148 25.1478C321.045 25.1478 320.088 24.9459 319.217 24.5133C318.347 24.0808 317.708 23.504 317.215 22.7253C316.78 21.9467 316.518 21.0238 316.518 19.9856C316.489 19.0051 316.78 18.111 317.215 17.3035ZM320.378 21.889C320.813 22.4081 321.394 22.6388 322.119 22.6388C322.845 22.6388 323.425 22.3792 323.86 21.889C324.296 21.4275 324.499 20.7354 324.499 19.9856C324.499 19.2069 324.296 18.5725 323.86 18.0822C323.367 17.5631 322.845 17.3035 322.09 17.3035C321.394 17.3035 320.842 17.5631 320.349 18.0534C319.914 18.5725 319.711 19.2069 319.711 20.0144C319.682 20.7354 319.914 21.3699 320.378 21.889Z" fill="#8D8D8D"/>
<path d="M332.769 7.55579V24.917H329.635V7.55579H332.769Z" fill="#8D8D8D"/>
<path d="M345.625 15.3136L339.241 29.5602H336.223L338.602 24.4556L334.075 15.3136H337.645L340.228 21.0238L342.81 15.3136H345.625Z" fill="#8D8D8D"/>
<path d="M357.64 15.3135V24.917C357.64 25.811 357.378 26.6473 356.827 27.3972C356.276 28.147 355.579 28.7238 354.65 29.1275C353.722 29.5601 352.764 29.762 351.69 29.762C350.878 29.762 350.181 29.6466 349.572 29.5024C348.992 29.3006 348.498 29.0698 348.121 28.868C347.686 28.6084 347.25 28.2912 346.757 27.8586L348.585 25.7533C349.021 26.1859 349.514 26.5032 349.949 26.705C350.385 26.9069 350.965 27.0799 351.632 27.0799C352.445 27.0799 353.083 26.8781 353.635 26.5032C354.186 26.1282 354.447 25.5515 354.447 24.8593V23.475C354.128 23.9365 353.693 24.3691 353.054 24.6863C352.416 25.0035 351.661 25.1477 350.791 25.1477C349.92 25.1477 349.05 24.9458 348.295 24.4556C347.541 24.023 346.931 23.3885 346.467 22.6099C346.032 21.8312 345.77 20.966 345.77 20.0143C345.77 19.0626 345.974 18.1686 346.467 17.39C346.96 16.6113 347.541 15.9768 348.353 15.4866C349.108 15.0251 349.92 14.7944 350.791 14.7944C351.603 14.7944 352.3 14.9098 352.967 15.1117C353.606 15.3135 354.099 15.6308 354.418 16.0057L354.738 15.2559H357.64V15.3135ZM354.447 21.2256V18.8608C354.244 18.3993 353.896 18.0244 353.432 17.7649C352.938 17.5053 352.416 17.3323 351.748 17.3323C350.994 17.3323 350.356 17.5918 349.804 18.0821C349.253 18.5435 348.992 19.178 348.992 19.9855C348.992 20.7353 349.253 21.3986 349.804 21.9466C350.356 22.4657 350.994 22.7252 351.748 22.7252C352.996 22.6387 353.896 22.1484 354.447 21.2256Z" fill="#8D8D8D"/>
<path d="M360.222 17.3035C360.716 16.5248 361.354 15.9192 362.225 15.4578C363.095 15.0252 364.053 14.7656 365.156 14.7656C366.258 14.7656 367.216 14.9675 368.087 15.4578C368.899 15.8904 369.538 16.5248 370.031 17.3035C370.466 18.0821 370.728 18.9473 370.728 19.9278C370.728 20.9372 370.524 21.7736 370.031 22.5522C369.596 23.3309 368.957 23.9653 368.087 24.3979C367.274 24.8305 366.258 25.0901 365.156 25.0901C364.053 25.0901 363.095 24.8882 362.225 24.4556C361.354 24.023 360.716 23.4462 360.222 22.6676C359.729 21.8889 359.526 20.9661 359.526 19.8702C359.526 19.005 359.758 18.111 360.222 17.3035ZM363.357 21.8889C363.792 22.408 364.372 22.6387 365.098 22.6387C365.794 22.6387 366.404 22.3792 366.839 21.8889C367.274 21.4275 367.477 20.7353 367.477 19.9855C367.477 19.2069 367.274 18.5724 366.839 18.0821C366.404 17.6207 365.823 17.3323 365.098 17.3323C364.401 17.3323 363.85 17.5919 363.357 18.0821C362.863 18.5436 362.66 19.2357 362.66 19.9855C362.718 20.7353 362.95 21.3698 363.357 21.8889Z" fill="#8D8D8D"/>
<path d="M381.813 15.6308C382.452 16.1499 382.742 16.842 382.771 17.6784V24.917H379.579V18.8608C379.521 17.9091 379.027 17.4477 378.128 17.4477C377.431 17.4477 376.822 17.7649 376.386 18.457C375.951 19.1492 375.748 19.9855 375.748 20.9949V24.9459H372.614V15.3136H375.487L375.69 16.842C376.067 16.2076 376.561 15.7462 377.199 15.3712C377.837 14.9963 378.592 14.8521 379.463 14.8521C380.391 14.8233 381.204 15.0829 381.813 15.6308Z" fill="#8D8D8D"/>
<path d="M290.342 15.1405C289.791 14.8233 289.095 14.8233 288.514 15.1405L284.306 17.563L281.433 19.1492L277.225 21.5717C276.674 21.8889 275.978 21.8889 275.397 21.5717L272.06 19.6683C271.508 19.3511 271.131 18.7743 271.131 18.1398V14.4196C271.131 13.7851 271.45 13.2083 272.06 12.8911L275.368 11.0454C275.92 10.7281 276.616 10.7281 277.196 11.0454L280.505 12.8911C281.056 13.2083 281.433 13.7851 281.433 14.4196V16.8421L284.306 15.1982V12.7757C284.306 12.1413 283.987 11.5645 283.378 11.2472L277.283 7.7577C276.732 7.44047 276.036 7.44047 275.455 7.7577L269.158 11.2472C268.577 11.5645 268.229 12.1413 268.229 12.7757V19.7837C268.229 20.4181 268.548 20.9949 269.158 21.3121L275.368 24.8017C275.92 25.1189 276.616 25.1189 277.196 24.8017L281.404 22.4369L284.277 20.793L288.485 18.4282C289.037 18.111 289.733 18.111 290.313 18.4282L293.622 20.2739C294.173 20.5912 294.55 21.1679 294.55 21.8024V25.5515C294.55 26.186 294.231 26.7628 293.622 27.08L290.313 28.9834C289.762 29.3006 289.066 29.3006 288.485 28.9834L285.177 27.1377C284.625 26.8204 284.248 26.2436 284.248 25.6092V23.1867L281.404 24.8017V27.2242C281.404 27.8586 281.723 28.4354 282.333 28.7527L288.543 32.2422C289.095 32.5594 289.791 32.5594 290.371 32.2422L296.582 28.7527C297.133 28.4354 297.51 27.8586 297.51 27.2242V20.2162C297.51 19.5818 297.191 19.005 296.582 18.6878L290.342 15.1405Z" fill="#8D8D8D"/>
<path d="M529.409 22.5633C529.407 22.6814 529.357 22.7941 529.27 22.8765C529.184 22.9589 529.067 23.0044 528.946 23.003H520.413C520.632 25.0636 522.215 26.9483 524.454 26.9483C525.986 26.9483 527.118 26.3829 527.968 25.1893C528.007 25.1266 528.062 25.0743 528.127 25.037C528.192 24.9998 528.265 24.9787 528.341 24.9757C528.397 24.9741 528.453 24.9838 528.505 25.004C528.558 25.0243 528.605 25.0548 528.645 25.0936C528.685 25.1325 528.716 25.1788 528.737 25.2298C528.757 25.2808 528.767 25.3354 528.766 25.3903C528.766 25.4661 528.744 25.5403 528.701 25.6039C527.839 27.0614 526.127 27.7776 524.454 27.7776C521.584 27.7776 519.525 25.2647 519.525 22.5884C519.525 19.9121 521.571 17.3992 524.454 17.3992C527.337 17.3992 529.396 19.887 529.409 22.5633ZM528.495 22.1737C528.315 20.1131 526.693 18.2284 524.454 18.2284C522.215 18.2284 520.632 20.1131 520.413 22.1737H528.495Z" fill="#8D8D8D"/>
<path d="M539.783 17.6001C539.894 17.6033 540 17.648 540.079 17.725C540.158 17.8021 540.204 17.9058 540.207 18.0147C540.209 18.0696 540.199 18.1242 540.178 18.1752C540.157 18.2262 540.126 18.2726 540.086 18.3114C540.047 18.3502 539.999 18.3807 539.947 18.401C539.895 18.4213 539.839 18.4309 539.783 18.4294H537.492V27.2121C537.491 27.3217 537.446 27.4266 537.366 27.5042C537.287 27.5817 537.179 27.6257 537.067 27.6267C536.955 27.6235 536.849 27.5788 536.77 27.5018C536.691 27.4247 536.645 27.321 536.642 27.2121V18.4294H534.441C534.385 18.4309 534.329 18.4213 534.277 18.401C534.225 18.3807 534.177 18.3502 534.137 18.3114C534.098 18.2726 534.066 18.2262 534.046 18.1752C534.025 18.1242 534.015 18.0696 534.017 18.0147C534.018 17.9051 534.063 17.8002 534.142 17.7226C534.222 17.6451 534.329 17.6011 534.441 17.6001H536.642V14.3961C536.642 14.2899 536.681 14.1873 536.752 14.1067C536.823 14.0261 536.921 13.9728 537.028 13.9563C537.088 13.9485 537.149 13.9535 537.207 13.9709C537.265 13.9883 537.319 14.0176 537.364 14.057C537.409 14.0964 537.445 14.1448 537.469 14.199C537.494 14.2532 537.506 14.3118 537.505 14.371V17.6001H539.783Z" fill="#8D8D8D"/>
<path d="M553.747 21.847V27.1619C553.744 27.2708 553.698 27.3745 553.619 27.4516C553.54 27.5286 553.434 27.5733 553.322 27.5765C553.266 27.5781 553.21 27.5684 553.158 27.5481C553.106 27.5278 553.058 27.4974 553.018 27.4585C552.979 27.4197 552.947 27.3734 552.927 27.3224C552.906 27.2714 552.896 27.2167 552.898 27.1619V21.847C552.898 20.0503 551.855 18.2661 549.809 18.2661C547.183 18.2661 546.05 20.5026 546.205 22.8019C546.205 22.8648 546.231 23.1286 546.231 23.1663V27.1493C546.23 27.2555 546.191 27.3581 546.121 27.4387C546.05 27.5193 545.952 27.5726 545.845 27.5891C545.785 27.5969 545.723 27.5919 545.666 27.5745C545.608 27.5571 545.554 27.5278 545.509 27.4884C545.464 27.449 545.428 27.4006 545.404 27.3464C545.379 27.2922 545.367 27.2336 545.368 27.1744V9.69698C545.369 9.58732 545.414 9.48243 545.494 9.40488C545.573 9.32733 545.681 9.28333 545.793 9.28235C545.905 9.28551 546.011 9.33021 546.09 9.40729C546.169 9.48438 546.215 9.58801 546.218 9.69698V19.5728C546.951 18.2912 548.264 17.4243 549.796 17.4243C552.318 17.4243 553.747 19.5728 553.747 21.847Z" fill="#8D8D8D"/>
<path d="M569.076 22.5633C569.074 22.6814 569.024 22.7941 568.937 22.8765C568.85 22.9589 568.733 23.0044 568.612 23.003H560.079C560.298 25.0636 561.881 26.9483 564.121 26.9483C565.652 26.9483 566.785 26.3829 567.634 25.1893C567.674 25.1266 567.728 25.0743 567.793 25.037C567.859 24.9998 567.932 24.9787 568.007 24.9757C568.064 24.9741 568.12 24.9838 568.172 25.004C568.224 25.0243 568.271 25.0548 568.311 25.0936C568.351 25.1325 568.382 25.1788 568.403 25.2298C568.424 25.2808 568.434 25.3354 568.432 25.3903C568.432 25.4661 568.41 25.5403 568.368 25.6039C567.505 27.0614 565.794 27.7776 564.121 27.7776C561.25 27.7776 559.191 25.2647 559.191 22.5884C559.191 19.9121 561.238 17.3992 564.121 17.3992C566.978 17.3992 569.063 19.887 569.076 22.5633ZM568.149 22.1737C567.969 20.1131 566.347 18.2284 564.108 18.2284C561.868 18.2284 560.285 20.1131 560.066 22.1737H568.149Z" fill="#8D8D8D"/>
<path d="M579.565 17.9896C579.573 18.1012 579.536 18.2113 579.461 18.2961C579.386 18.3808 579.28 18.4333 579.166 18.4419C576.656 18.8063 575.524 20.8041 575.524 23.1285V27.1115C575.523 27.2177 575.484 27.3203 575.414 27.4009C575.343 27.4815 575.245 27.5349 575.138 27.5513C575.077 27.5591 575.016 27.5541 574.958 27.5368C574.901 27.5194 574.847 27.49 574.802 27.4506C574.757 27.4113 574.721 27.3629 574.697 27.3087C574.672 27.2545 574.66 27.1958 574.661 27.1367V18.0524C574.662 17.9463 574.701 17.8436 574.771 17.763C574.842 17.6824 574.94 17.6291 575.047 17.6127C575.107 17.6049 575.169 17.6098 575.226 17.6272C575.284 17.6446 575.338 17.674 575.383 17.7133C575.428 17.7527 575.464 17.8011 575.488 17.8553C575.513 17.9095 575.525 17.9682 575.524 18.0273V19.8743C576.232 18.7058 577.634 17.6001 579.102 17.6001C579.32 17.6001 579.565 17.7509 579.565 17.9896Z" fill="#8D8D8D"/>
<path d="M593.594 22.5633C593.592 22.6814 593.542 22.7941 593.455 22.8765C593.368 22.9589 593.251 23.0044 593.13 23.003H584.597C584.816 25.0636 586.399 26.9483 588.638 26.9483C590.17 26.9483 591.303 26.3829 592.152 25.1893C592.192 25.1266 592.246 25.0743 592.311 25.037C592.377 24.9998 592.45 24.9787 592.525 24.9757C592.582 24.9741 592.637 24.9838 592.69 25.004C592.742 25.0243 592.789 25.0548 592.829 25.0936C592.869 25.1325 592.9 25.1788 592.921 25.2298C592.942 25.2808 592.952 25.3354 592.95 25.3903C592.95 25.4661 592.928 25.5403 592.886 25.6039C592.023 27.0614 590.312 27.7776 588.638 27.7776C585.768 27.7776 583.709 25.2647 583.709 22.5884C583.709 19.9121 585.756 17.3992 588.638 17.3992C591.521 17.3992 593.581 19.887 593.594 22.5633ZM592.68 22.1737C592.5 20.1131 590.878 18.2284 588.638 18.2284C586.399 18.2284 584.816 20.1131 584.597 22.1737H592.68Z" fill="#8D8D8D"/>
<path d="M607.391 18.0901V27.2121C607.387 27.321 607.342 27.4247 607.263 27.5018C607.184 27.5789 607.078 27.6236 606.966 27.6267C606.91 27.6283 606.854 27.6186 606.802 27.5983C606.749 27.578 606.702 27.5476 606.662 27.5087C606.622 27.4699 606.591 27.4236 606.57 27.3726C606.55 27.3216 606.54 27.267 606.541 27.2121V25.4782C605.833 26.8477 604.585 27.8403 602.989 27.8403C600.454 27.8403 599.051 25.6918 599.051 23.4176V18.0776C599.052 17.9679 599.097 17.863 599.176 17.7855C599.256 17.7079 599.363 17.6639 599.475 17.6629C599.587 17.6661 599.693 17.7108 599.772 17.7879C599.851 17.865 599.897 17.9686 599.9 18.0776V23.4176C599.9 25.2143 600.943 26.9985 602.989 26.9985C605.859 26.9985 606.541 24.3725 606.541 21.47V18.065C606.542 17.9978 606.56 17.9318 606.592 17.8725C606.625 17.8132 606.671 17.7623 606.728 17.7242C606.784 17.6861 606.85 17.6617 606.918 17.6533C606.986 17.6448 607.056 17.6524 607.12 17.6755C607.201 17.7122 607.27 17.7708 607.318 17.8442C607.366 17.9177 607.391 18.003 607.391 18.0901Z" fill="#8D8D8D"/>
<path d="M629 21.8093V27.1492C628.997 27.2582 628.951 27.3619 628.872 27.4389C628.793 27.516 628.687 27.5607 628.575 27.5639C628.519 27.5654 628.463 27.5558 628.411 27.5355C628.359 27.5152 628.311 27.4847 628.271 27.4459C628.232 27.4071 628.2 27.3608 628.18 27.3097C628.159 27.2587 628.149 27.2041 628.151 27.1492V21.8093C628.151 20.0125 627.108 18.2535 625.062 18.2535C622.488 18.2535 621.509 20.9423 621.509 23.028V27.1492C621.506 27.2582 621.46 27.3619 621.381 27.4389C621.302 27.516 621.196 27.5607 621.085 27.5639C621.028 27.5654 620.973 27.5558 620.92 27.5355C620.868 27.5152 620.821 27.4847 620.781 27.4459C620.741 27.4071 620.71 27.3608 620.689 27.3097C620.668 27.2587 620.658 27.2041 620.66 27.1492V21.8093C620.66 20.0125 619.617 18.2535 617.571 18.2535C614.971 18.2535 613.903 20.2512 613.993 22.915C613.993 22.9778 614.019 23.0909 613.993 23.1286V27.1367C613.993 27.2428 613.954 27.3455 613.883 27.4261C613.812 27.5067 613.714 27.56 613.607 27.5764C613.547 27.5842 613.486 27.5793 613.428 27.5619C613.37 27.5445 613.317 27.5151 613.271 27.4758C613.226 27.4364 613.19 27.388 613.166 27.3338C613.142 27.2796 613.13 27.2209 613.131 27.1618V18.0524C613.131 17.9463 613.17 17.8436 613.241 17.763C613.312 17.6824 613.409 17.6291 613.517 17.6127C613.577 17.6049 613.638 17.6098 613.696 17.6272C613.754 17.6446 613.807 17.674 613.852 17.7133C613.898 17.7527 613.934 17.8011 613.958 17.8553C613.982 17.9095 613.994 17.9682 613.993 18.0273V19.5476C614.727 18.266 616.04 17.4242 617.571 17.4242C619.309 17.4242 620.66 18.5048 621.213 20.0753C621.921 18.5173 623.298 17.4242 625.062 17.4242C627.571 17.4242 629 19.5476 629 21.8093Z" fill="#8D8D8D"/>
<path opacity="0.6" d="M500.682 15.5773L490 20.3142L500.682 26.4834L511.378 20.3142L500.682 15.5773Z" fill="#8D8D8D"/>
<path opacity="0.45" d="M490 20.3141L500.682 26.4834V3L490 20.3141Z" fill="#8D8D8D"/>
<path opacity="0.8" d="M500.682 3V26.4834L511.378 20.3141L500.682 3Z" fill="#8D8D8D"/>
<path opacity="0.45" d="M490 22.2993L500.682 37V28.456L490 22.2993Z" fill="#8D8D8D"/>
<path opacity="0.8" d="M500.682 28.456V37L511.378 22.2993L500.682 28.456Z" fill="#8D8D8D"/>
<path fill-rule="evenodd" clip-rule="evenodd" d="M806.98 15.0296C806.878 15.0296 806.675 15.0036 806.244 15.0036C805.863 15.0036 805.533 15.0296 805.204 15.1074C803.859 15.367 802.997 16.1197 802.261 16.9243V15.341H798.049V29.3309H802.286V23.491C802.286 22.8162 802.312 22.1673 802.388 21.5963C802.464 21.0252 802.616 20.5321 802.895 20.1168C803.149 19.7015 803.504 19.3901 803.986 19.1565C804.443 18.9229 805.077 18.819 805.889 18.819C806.498 18.819 807.106 18.9229 807.69 19.1046V15.1334C807.462 15.0815 807.233 15.0296 806.98 15.0296ZM818.066 15.0296C817.965 15.0296 817.762 15.0036 817.33 15.0036C816.95 15.0036 816.62 15.0296 816.29 15.1074C814.946 15.367 814.083 16.1197 813.347 16.9243V15.341H809.136V29.3309H813.347V23.491C813.347 22.8162 813.373 22.1673 813.449 21.5963C813.525 21.0252 813.677 20.5321 813.956 20.1168C814.21 19.7015 814.565 19.3901 815.047 19.1565C815.504 18.9229 816.138 18.819 816.95 18.819C817.559 18.819 818.168 18.9229 818.751 19.1046V15.1334C818.523 15.0815 818.294 15.0296 818.066 15.0296ZM774.151 14.3547H768.57V10.4614H784.071V14.3288H778.489V28.5523H774.177V14.3547H774.151ZM792.367 20.61C792.392 19.9351 792.138 19.2603 791.656 18.7931C791.174 18.274 790.54 18.0404 789.779 18.0404C789.322 18.0404 788.891 18.1183 788.536 18.274C788.206 18.4297 787.876 18.6114 787.623 18.845C787.369 19.0786 787.166 19.3641 787.039 19.6496C786.887 19.9611 786.811 20.2725 786.811 20.61H792.367ZM795.944 26.6316C795.259 27.5141 794.371 28.1889 793.381 28.6301C792.367 29.0973 791.276 29.3309 790.16 29.3309C789.145 29.3309 788.13 29.1752 787.191 28.8118C786.303 28.5004 785.492 28.0072 784.781 27.3583C784.096 26.7354 783.538 25.9568 783.158 25.0743C782.777 24.1918 782.574 23.2055 782.574 22.1154C782.574 21.0252 782.777 20.0389 783.158 19.1565C783.538 18.2999 784.096 17.5213 784.781 16.8724C785.492 16.2495 786.329 15.7563 787.191 15.4189C788.13 15.0815 789.145 14.8998 790.16 14.8998C791.149 14.8998 792.011 15.0815 792.823 15.4189C793.61 15.7563 794.295 16.2495 794.853 16.8724C795.411 17.4953 795.842 18.248 796.147 19.1565C796.451 20.0389 796.603 21.0252 796.603 22.1154V23.4391H786.811C786.988 24.2437 787.343 24.8926 787.902 25.3598C788.46 25.827 789.17 26.0865 789.982 26.0865C790.692 26.0865 791.276 25.9308 791.732 25.6193C792.214 25.3079 792.646 24.8926 793.001 24.4254C793.001 24.4513 795.944 26.6316 795.944 26.6316ZM828.366 24.1658V23.9322C828.366 23.6208 828.189 23.3872 827.909 23.2834C827.25 23.0498 826.565 22.9459 825.88 22.9459C824.231 22.9459 823.216 23.6208 823.216 24.8666V24.9185C823.216 25.9827 824.079 26.6056 825.322 26.6056C827.148 26.6056 828.366 25.5934 828.366 24.1658ZM819.461 25.0743V25.0224C819.461 21.9856 821.719 20.584 824.967 20.584C826.337 20.584 827.351 20.8176 828.315 21.155V20.9214C828.315 19.2862 827.326 18.3778 825.398 18.3778C823.926 18.3778 822.886 18.6633 821.618 19.1305L820.654 16.1197C822.151 15.4449 823.647 15.0036 825.956 15.0036C828.062 15.0036 829.584 15.5746 830.573 16.5609C831.588 17.5991 832.045 19.1305 832.045 20.9993V29.0973H828.29V27.5919C827.351 28.6561 826.057 29.3569 824.155 29.3569C821.592 29.3309 819.461 27.8255 819.461 25.0743ZM747.082 27.6958C747.792 30.5249 750.405 32.7051 751.725 32.6273C751.775 32.6273 756.722 31.641 759.437 26.8652C761.543 23.1276 760.832 19.5718 757.965 19.4679C756.951 19.5458 745.712 22.2711 747.082 27.6958ZM749.594 6.30859C747.716 6.30859 745.94 6.72388 744.342 7.45063C744.063 7.5804 743.784 7.71018 743.53 7.86591C743.353 7.96973 743.175 8.07355 742.997 8.17737L743.023 8.20333C742.49 8.5667 742.033 9.00794 741.653 9.52705C737.949 14.5624 750.38 18.2221 757.052 18.2221C760.122 20.4802 760.984 11.889 757.991 9.47514C755.631 7.45063 752.663 6.30859 749.594 6.30859Z" fill="#8D8D8D"/>
<path fill-rule="evenodd" clip-rule="evenodd" d="M744.926 9.26754C743.251 11.7852 737.644 13.5761 736.706 13.3166V13.2906L736.807 13.057C737.771 11.2142 739.141 9.60496 740.816 8.38506C741.145 8.12551 741.526 7.89191 741.881 7.65831C742.668 7.19112 743.479 7.19112 743.733 7.16516C746.219 7.24303 744.926 9.24158 744.926 9.26754Z" fill="#8D8D8D"/>
<path fill-rule="evenodd" clip-rule="evenodd" d="M743.48 28.2141C743.606 29.0446 743.48 32.315 743.302 32.6005C743.15 32.6005 742.845 32.6265 741.983 32.1333C740.283 31.147 738.811 29.8233 737.644 28.2141C736.807 27.0461 736.122 25.7483 735.666 24.3727C735.209 22.9451 734.955 21.4397 734.955 19.9343C734.955 18.2732 735.234 16.638 735.793 15.0807C736.807 16.4304 737.949 17.6503 738.938 18.9999C739.877 20.2977 741.171 22.4001 741.425 22.8413C743.124 25.6445 743.353 27.3835 743.48 28.2141Z" fill="#8D8D8D"/>
<path fill-rule="evenodd" clip-rule="evenodd" d="M762.405 20.0909C762.405 21.8818 762.075 23.5948 761.466 25.1781C759.868 26.9171 749.162 22.6085 749.061 22.5826C747.589 21.9078 743.124 19.9092 742.718 16.7686C742.135 12.2264 751.09 9.08583 755.023 8.95605C755.479 8.95605 756.925 8.98201 757.763 9.6828C760.731 12.2783 762.405 16.0938 762.405 20.0909ZM753.018 31.3036C753.678 28.9676 759.259 26.6057 760.502 26.4759C760.655 26.4499 760.731 26.5797 760.655 26.7095C759.361 29.0974 757.458 31.07 755.149 32.3677C753.982 32.9128 752.689 32.4975 753.018 31.3036Z" fill="#A3A3A3"/>
<g clip-path="url(#clip0_1040_7622)">
<path d="M962.959 30.185C962.86 29.091 962.753 27.825 962.638 26.3871C962.523 24.9492 962.408 23.4447 962.293 21.8735C962.177 20.3023 962.063 18.7214 961.951 17.1309C961.838 15.5404 961.742 14.0518 961.663 12.6649C961.237 13.9627 960.806 15.2668 960.37 16.5772C959.934 17.8876 959.52 19.1314 959.127 20.3085C958.735 21.4854 958.373 22.551 958.04 23.5053C957.708 24.4595 957.438 25.2293 957.232 25.8147C957.014 26.2093 956.793 26.5846 956.568 26.9406C956.363 27.2701 956.131 27.5828 955.875 27.8758C955.663 28.1221 955.417 28.3374 955.144 28.5153C954.913 28.6685 954.641 28.7514 954.363 28.7539C954.046 28.7653 953.733 28.6857 953.46 28.5248C953.34 28.4484 953.238 28.3476 953.16 28.2292C953.082 28.1107 953.031 27.9773 953.009 27.8377C952.997 27.7778 952.988 27.7173 952.982 27.6564C952.978 27.5957 952.982 27.5347 952.995 27.4752C952.564 25.6688 952.149 23.8462 951.75 22.0074C951.351 20.1685 950.977 18.3587 950.628 16.5777L950.382 15.3182C950.299 14.8983 950.225 14.4848 950.158 14.0775C949.869 15.2227 949.544 16.4124 949.182 17.6465C948.821 18.8807 948.431 20.0987 948.011 21.3008C947.592 22.5032 947.145 23.6606 946.67 24.7732C946.233 25.8111 945.737 26.8242 945.186 27.8077C944.73 28.6319 944.197 29.4116 943.593 30.1361C943.143 30.7012 942.572 31.1608 941.922 31.4816C941.498 31.6724 941.058 31.8287 940.608 31.9491C940.272 32.0388 939.926 32.0868 939.578 32.0922C939.196 32.1138 938.817 32.0171 938.493 31.8155C938.253 31.6601 938.084 31.4165 938.024 31.1381C937.967 30.7929 938.041 30.4391 938.233 30.1455C938.462 29.7795 938.806 29.4979 939.212 29.344C939.758 29.1149 940.303 28.6092 940.85 27.8269C941.465 26.9222 942.003 25.9677 942.456 24.9737C942.981 23.8542 943.488 22.6073 943.976 21.2329C944.464 19.8585 944.926 18.4653 945.361 17.0533C945.797 15.6412 946.196 14.2576 946.56 12.9024C946.923 11.5473 947.242 10.3226 947.515 9.22846C947.789 8.13446 948.011 7.22154 948.182 6.48969C948.353 5.75784 948.459 5.30301 948.5 5.12517C948.573 4.77408 948.782 4.46548 949.083 4.26627C949.36 4.09063 949.683 3.99784 950.012 3.999C950.202 3.98436 950.392 4.00999 950.571 4.07419C950.749 4.13839 950.912 4.23967 951.048 4.37123C951.336 4.76093 951.519 5.21775 951.577 5.69761C951.837 6.49925 952.071 7.25337 952.28 7.95996C952.489 8.66655 952.692 9.39182 952.889 10.1358C953.086 10.8801 953.279 11.6816 953.467 12.5404C953.654 13.3993 953.858 14.3886 954.077 15.5083C954.234 16.31 954.392 17.1942 954.549 18.1611C954.707 19.1279 954.902 20.2094 955.137 21.4055C956.133 18.6319 957.018 16.1858 957.789 14.0673C958.561 11.9487 959.247 10.1737 959.845 8.74232C960.29 7.62198 960.82 6.5373 961.433 5.49794C961.893 4.76644 962.303 4.40061 962.662 4.40043H962.796C962.835 4.40062 962.873 4.39745 962.91 4.39096C962.948 4.38464 962.986 4.38148 963.024 4.38149C963.332 4.38149 963.613 4.57239 963.868 4.95418C964.15 5.40956 964.341 5.91522 964.429 6.44287C964.5 7.06633 964.575 7.84246 964.654 8.77125C964.733 9.70005 964.815 10.7211 964.898 11.8344C964.981 12.9478 965.067 14.1216 965.155 15.3555C965.242 16.5895 965.328 17.8141 965.412 19.0295C965.497 20.2447 965.583 21.4248 965.673 22.5698C965.762 23.7148 965.853 24.7517 965.946 25.6805C965.953 25.8504 965.973 26.0196 966.006 26.1864C966.04 26.3581 966.074 26.5335 966.109 26.7125C966.174 27.0437 966.245 27.3777 966.324 27.7146C966.403 28.0515 966.475 28.3855 966.54 28.7166C966.615 29.0982 966.671 29.483 966.709 29.8712C966.75 30.2249 966.712 30.5834 966.597 30.9208C966.473 31.246 966.236 31.5166 965.928 31.6837C965.468 31.9082 964.957 32.0098 964.446 31.9786C964.276 31.9793 964.107 31.9448 963.952 31.8774C963.796 31.81 963.656 31.7112 963.541 31.5871C963.284 31.3269 963.09 30.8595 962.959 30.185Z" fill="#A3A3A3"/>
<path d="M1067.49 23.486C1067.39 23.8946 1067.27 24.2964 1067.12 24.6885C1066.94 25.1544 1066.74 25.6099 1066.51 26.053C1066.28 26.4983 1066.02 26.9258 1065.73 27.3318C1065.48 27.6848 1065.19 28.0054 1064.86 28.2859C1064.62 28.5083 1064.31 28.6402 1063.98 28.6581C1063.66 28.6668 1063.34 28.5876 1063.05 28.429C1062.8 28.2795 1062.57 28.0856 1062.38 27.8566C1062.19 27.6277 1062.04 27.3739 1061.92 27.1026C1061.81 26.8438 1061.71 26.5795 1061.62 26.3108C1061.43 25.7107 1061.36 25.0776 1061.42 24.4502C1061.47 23.8644 1061.65 23.2957 1061.93 22.7802C1062.2 22.2947 1062.59 21.8819 1063.06 21.5778C1063.53 21.2696 1064.09 21.1101 1064.66 21.1198C1064.92 21.1266 1065.17 21.1619 1065.42 21.225C1065.72 21.2975 1066.02 21.4033 1066.3 21.5407C1066.58 21.6753 1066.84 21.8454 1067.07 22.0465C1067.28 22.219 1067.44 22.4468 1067.53 22.7042C1067.58 22.9643 1067.57 23.2324 1067.49 23.486ZM1047.41 25.5471C1047.41 25.3056 1047.42 25.0066 1047.46 24.6501C1047.5 24.2738 1047.56 23.9007 1047.66 23.5336C1047.75 23.1352 1047.88 22.7432 1048.03 22.3598C1048.17 21.9771 1048.38 21.6195 1048.63 21.3005C1048.89 20.9894 1049.2 20.7329 1049.56 20.5465C1049.96 20.3484 1050.39 20.2501 1050.84 20.2603H1051.01C1051.07 20.2613 1051.13 20.2677 1051.19 20.2793C1051.36 20.3104 1051.53 20.3826 1051.67 20.4897C1051.83 20.6026 1051.94 20.7635 1052 20.9477C1052.07 21.2184 1052.04 21.5042 1051.93 21.759C1051.73 22.1637 1051.43 22.5093 1051.05 22.7608C1050.95 22.8372 1050.77 22.9836 1050.53 23.1998C1050.28 23.416 1049.99 23.6578 1049.65 23.9251C1049.31 24.1924 1048.94 24.4723 1048.56 24.7648C1048.17 25.0573 1047.78 25.3181 1047.41 25.5471H1047.41ZM1037.86 24.8316C1037.77 25.5209 1037.52 26.1817 1037.15 26.7688C1036.78 27.3351 1036.29 27.809 1035.71 28.1525C1035.1 28.5072 1034.41 28.6893 1033.71 28.6787C1033.37 28.6879 1033.04 28.6294 1032.73 28.5069C1032.48 28.4045 1032.25 28.2555 1032.06 28.0681C1031.89 27.898 1031.74 27.7014 1031.63 27.4859C1031.53 27.2861 1031.45 27.0787 1031.38 26.8656C1031.15 26.1603 1031.1 25.4081 1031.25 24.6803C1031.38 23.9848 1031.66 23.3249 1032.07 22.7431C1032.47 22.173 1033 21.6999 1033.61 21.3594C1034.22 21.0104 1034.92 20.8294 1035.64 20.8346C1035.92 20.827 1036.21 20.8892 1036.46 21.0158C1036.68 21.1292 1036.88 21.2812 1037.05 21.4644C1037.21 21.6416 1037.34 21.8409 1037.44 22.056C1037.53 22.2543 1037.61 22.4584 1037.68 22.6668C1037.9 23.3656 1037.97 24.1065 1037.86 24.8329L1037.86 24.8316ZM1001.48 25.2788C1001.44 25.8765 1001.27 26.4584 1000.98 26.9869C1000.72 27.4755 1000.34 27.8943 999.878 28.2083C999.414 28.5213 998.863 28.6846 998.302 28.6758C997.952 28.6845 997.605 28.5988 997.3 28.4277C997.022 28.2669 996.776 28.0566 996.575 27.8074C996.376 27.5623 996.21 27.2929 996.081 27.0058C995.963 26.7479 995.86 26.4835 995.773 26.2137C995.572 25.6017 995.499 24.9556 995.558 24.3147C995.608 23.7326 995.78 23.1673 996.062 22.6542C996.327 22.1749 996.708 21.7682 997.171 21.4704C997.648 21.1681 998.205 21.0125 998.771 21.0232C999.122 21.0126 999.47 21.088 999.784 21.2426C1000.05 21.3835 1000.29 21.5746 1000.49 21.8056C1000.68 22.0326 1000.84 22.2867 1000.96 22.5595C1001.07 22.8182 1001.17 23.0826 1001.26 23.3516C1001.46 23.9733 1001.54 24.6284 1001.48 25.2793L1001.48 25.2788ZM1104.93 25.2407C1104.84 24.9271 1104.65 24.6481 1104.4 24.4391C1104.2 24.2571 1103.94 24.1491 1103.67 24.1337C1103.58 24.1331 1103.48 24.1526 1103.38 24.191C1103.29 24.2286 1103.22 24.2961 1103.18 24.382C1102.97 24.713 1102.69 25.1232 1102.32 25.6129C1101.95 26.1133 1101.54 26.5854 1101.09 27.0253C1100.65 27.4679 1100.16 27.8556 1099.62 28.1799C1099.14 28.4834 1098.59 28.6487 1098.02 28.6571C1097.77 28.6634 1097.53 28.6245 1097.3 28.5427C1097.19 28.4924 1097.1 28.418 1097.02 28.3253C1096.95 28.2326 1096.9 28.1241 1096.87 28.0084C1096.77 27.6894 1096.76 27.3513 1096.83 27.0256C1096.9 26.6755 1097 26.3334 1097.14 26.0046C1097.28 25.6846 1097.43 25.3723 1097.6 25.0694C1097.76 24.7769 1097.89 24.5351 1097.98 24.3441C1098.29 23.747 1098.5 23.1112 1098.63 22.4548C1098.76 21.728 1098.71 20.9795 1098.47 20.279C1098.22 19.4188 1097.64 18.6894 1096.86 18.2466C1096.49 18.0384 1096.1 17.8875 1095.69 17.7993C1095.27 17.7105 1094.85 17.6657 1094.43 17.6657C1093.92 17.6565 1093.41 17.7275 1092.92 17.8762C1092.51 18.0041 1092.13 18.1902 1091.77 18.4286C1091.45 18.6506 1091.15 18.91 1090.89 19.2015C1090.64 19.4765 1090.41 19.7664 1090.2 20.0696C1090.06 19.6679 1089.85 19.2936 1089.57 18.9626C1089.1 18.3893 1088.46 17.9813 1087.73 17.7986C1087.39 17.7098 1087.03 17.6649 1086.67 17.6649C1086.04 17.6499 1085.41 17.7535 1084.82 17.9703C1084.34 18.1553 1083.9 18.4163 1083.5 18.7432C1083.14 19.0472 1082.81 19.3895 1082.52 19.7642C1082.24 20.1325 1081.98 20.476 1081.73 20.7949C1081.76 20.4285 1081.73 20.0594 1081.62 19.7071C1081.5 19.3004 1081.26 18.9418 1080.92 18.6861C1080.64 18.4682 1080.3 18.3443 1079.95 18.3331C1079.58 18.3333 1079.22 18.477 1078.95 18.7338C1078.63 19.0623 1078.44 19.4974 1078.42 19.9552C1078.37 20.4006 1078.3 20.9382 1078.21 21.5678C1078.12 22.1974 1078.03 22.8685 1077.92 23.5813C1077.89 23.7849 1077.87 23.9903 1077.84 24.1947C1077.28 25.0079 1076.75 25.7323 1076.23 26.3676C1076.01 26.6349 1075.78 26.8989 1075.53 27.1597C1075.3 27.4064 1075.06 27.639 1074.8 27.8563C1074.58 28.0416 1074.35 28.2047 1074.09 28.343C1073.9 28.4542 1073.69 28.5165 1073.47 28.5242C1073.32 28.5256 1073.17 28.4928 1073.04 28.4282C1072.9 28.3636 1072.79 28.269 1072.7 28.152C1072.47 27.8716 1072.31 27.5508 1072.21 27.2073C1072.1 26.862 1072.04 26.5071 1072.01 26.1482C1071.97 25.7349 1071.94 25.2928 1071.93 24.8219C1071.93 24.351 1071.93 23.8707 1071.95 23.3811C1071.97 22.8914 1071.99 22.4206 1072.01 21.9687C1072.04 21.5167 1072.06 21.1064 1072.08 20.7378C1072.1 20.3695 1072.1 20.0642 1072.09 19.8218C1072.08 19.7501 1072.06 19.6795 1072.04 19.6113C1071.9 19.2448 1071.64 18.9355 1071.3 18.7335C1070.91 18.4678 1070.45 18.3278 1069.98 18.3328C1069.8 18.3376 1069.63 18.3732 1069.46 18.4381C1069.28 18.5051 1069.1 18.5848 1068.93 18.6767C1068.73 18.7786 1068.54 18.8867 1068.36 19.001C1068.01 18.7506 1067.65 18.5273 1067.27 18.3331C1066.87 18.15 1066.46 17.9969 1066.04 17.8751C1065.54 17.7302 1065.02 17.6593 1064.5 17.6647C1063.53 17.6373 1062.58 17.83 1061.71 18.2276C1060.97 18.577 1060.33 19.0781 1059.8 19.6971C1059.3 20.3068 1058.91 21.0019 1058.65 21.749C1058.39 22.4994 1058.21 23.2776 1058.13 24.0679C1058.07 24.6348 1058.05 25.2052 1058.08 25.7747C1057.87 25.9194 1057.64 26.0788 1057.38 26.2529C1056.96 26.5335 1056.49 26.8294 1055.96 27.1405C1055.43 27.4516 1054.87 27.741 1054.29 28.0086C1053.72 28.2764 1053.12 28.4964 1052.5 28.6663C1051.91 28.8339 1051.3 28.9205 1050.69 28.9238C1050.19 28.9365 1049.7 28.8281 1049.26 28.6082C1048.88 28.4206 1048.57 28.1157 1048.39 27.74C1049.7 27.2235 1050.96 26.5879 1052.15 25.8412C1052.97 25.3335 1053.71 24.7097 1054.34 23.9898C1054.8 23.4841 1055.11 22.8684 1055.24 22.2054C1055.34 21.6451 1055.31 21.0694 1055.14 20.5258C1054.89 19.6826 1054.38 18.9397 1053.68 18.4073C1052.91 17.8741 1051.99 17.6061 1051.05 17.6444C1050.13 17.63 1049.2 17.7786 1048.33 18.0835C1047.57 18.3521 1046.87 18.7456 1046.24 19.2475C1045.66 19.7209 1045.16 20.2849 1044.76 20.9175C1044.37 21.5205 1044.07 22.1721 1043.86 22.8547C1043.66 23.4952 1043.55 24.1601 1043.54 24.83C1043.53 25.2207 1043.56 25.6112 1043.63 25.9965C1043.6 26.0051 1043.57 26.0143 1043.54 26.0228C1042.99 26.1773 1042.43 26.2543 1041.85 26.2516C1041.69 26.253 1041.52 26.237 1041.36 26.204C1041.19 26.164 1041.04 26.0739 1040.93 25.9462C1041.08 25.5166 1041.17 25.0714 1041.21 24.6198C1041.27 24.1318 1041.29 23.6412 1041.29 23.1504C1041.29 22.7198 1041.26 22.2895 1041.22 21.8613C1041.2 21.6042 1041.15 21.3491 1041.09 21.0984C1040.93 20.5608 1040.66 20.059 1040.31 19.6195C1039.66 18.8134 1038.79 18.2076 1037.8 17.873C1037.39 17.7283 1036.95 17.6511 1036.52 17.6441C1035.98 17.6404 1035.45 17.7144 1034.93 17.8638C1034.45 18.0046 1033.99 18.1965 1033.55 18.4362C1033.13 18.6679 1032.73 18.9361 1032.36 19.2378C1032 19.527 1031.67 19.8361 1031.34 20.1635C1031.72 18.3442 1032.04 16.5027 1032.3 14.6391C1032.55 12.7756 1032.87 10.9403 1033.25 9.1332C1033.33 8.86145 1033.38 8.58372 1033.41 8.30297C1033.45 8.02447 1033.42 7.74163 1033.34 7.47274C1033.23 7.13398 1033.01 6.83954 1032.72 6.63303C1032.32 6.37877 1031.85 6.25839 1031.37 6.28947C1031.15 6.28803 1030.93 6.32361 1030.72 6.3947C1030.53 6.45986 1030.35 6.5566 1030.19 6.68091C1030.04 6.79584 1029.91 6.93453 1029.81 7.09129C1029.71 7.23515 1029.65 7.39797 1029.62 7.56849L1027.91 19.9549C1027.86 20.286 1027.82 20.5564 1027.8 20.7659C1027.78 20.9755 1027.76 21.1597 1027.74 21.3184C1027.73 21.4778 1027.72 21.6305 1027.71 21.7764C1027.69 21.9223 1027.68 22.0941 1027.67 22.2917C1027.65 22.4892 1027.63 22.7278 1027.6 23.0075C1027.58 23.2872 1027.54 23.6371 1027.49 24.0571C1027.46 24.4165 1027.44 24.7827 1027.44 25.1557C1027.07 25.5182 1026.65 25.8804 1026.2 26.2424C1025.65 26.6777 1025.09 27.0823 1024.49 27.4544C1023.91 27.8233 1023.3 28.1425 1022.67 28.4085C1022.57 28.5064 1022.44 28.5756 1022.31 28.6089C1022.21 28.6271 1022.11 28.6367 1022.01 28.6376C1021.88 28.6434 1021.76 28.6026 1021.66 28.5232C1021.58 28.4527 1021.52 28.3601 1021.48 28.2559C1021.44 28.1423 1021.42 28.0214 1021.42 27.9003C1021.43 27.7791 1021.46 27.66 1021.51 27.5499C1021.56 27.3208 1021.65 27.0314 1021.76 26.6817C1021.88 26.332 1022 25.9472 1022.14 25.5271C1022.28 25.1075 1022.41 24.659 1022.53 24.1818C1022.66 23.7013 1022.76 23.2138 1022.82 22.7218C1022.89 22.2286 1022.92 21.7307 1022.9 21.2331C1022.89 20.7474 1022.81 20.2659 1022.66 19.8018C1022.49 19.1197 1022.06 18.5293 1021.46 18.1508C1020.89 17.8249 1020.25 17.6567 1019.6 17.6641C1018.98 17.6667 1018.36 17.7632 1017.77 17.9503C1017.17 18.136 1016.59 18.3823 1016.04 18.6854C1015.53 18.9648 1015.05 19.3044 1014.62 19.6968C1014.26 20.0056 1013.97 20.3779 1013.75 20.7943C1013.79 20.5925 1013.79 20.3871 1013.77 20.1835C1013.75 20.0023 1013.72 19.8234 1013.66 19.6492C1013.55 19.2565 1013.31 18.9108 1012.99 18.6664C1012.72 18.4601 1012.39 18.3431 1012.05 18.3323C1011.68 18.3336 1011.32 18.4769 1011.04 18.733C1010.71 19.0606 1010.51 19.4929 1010.47 19.9544C1010.44 20.1522 1010.4 20.3698 1010.36 20.6049C1010.3 20.6239 1010.24 20.6637 1010.21 20.7178C1010.1 20.9088 1009.97 21.141 1009.8 21.4144C1009.64 21.6878 1009.45 21.9772 1009.24 22.2825C1009.03 22.5878 1008.8 22.8932 1008.55 23.1988C1008.31 23.492 1008.05 23.7664 1007.77 24.0195C1007.51 24.2475 1007.24 24.446 1006.94 24.6112C1006.69 24.756 1006.41 24.8349 1006.12 24.8403C1005.93 24.8402 1005.73 24.8079 1005.55 24.7448C1005.35 24.6727 1005.16 24.5626 1005 24.4204C1005.04 23.9086 1005.03 23.3946 1004.98 22.8841C1004.94 22.4409 1004.85 22.003 1004.72 21.5767C1004.52 20.885 1004.15 20.2487 1003.66 19.7158C1003.21 19.2298 1002.68 18.8204 1002.1 18.5038C1001.55 18.2062 1000.95 17.9878 1000.34 17.8551C999.807 17.7353 999.261 17.6712 998.712 17.6641C997.715 17.6386 996.723 17.8241 995.804 18.2082C995.038 18.5388 994.353 19.0267 993.792 19.6395C993.262 20.2271 992.847 20.9065 992.567 21.6435C992.287 22.3696 992.093 23.1253 991.988 23.8956C991.888 24.626 991.866 25.3649 991.924 26.0998C991.966 26.7206 992.076 27.3351 992.252 27.9321C992.462 28.6338 992.819 29.284 993.298 29.8406C993.727 30.3358 994.229 30.7637 994.787 31.1099C995.276 31.4154 995.807 31.6499 996.364 31.8062C996.792 31.9325 997.235 32.0032 997.681 32.0167C998.553 32.0277 999.421 31.9087 1000.26 31.6637C1000.98 31.4465 1001.67 31.1145 1002.29 30.6806C1002.88 30.2691 1003.39 29.7587 1003.79 29.173C1004.2 28.5727 1004.53 27.9172 1004.76 27.2263C1005.1 27.4355 1005.48 27.6021 1005.87 27.7224C1006.2 27.8221 1006.54 27.8735 1006.89 27.8753C1007.36 27.8786 1007.83 27.7388 1008.22 27.4744C1008.63 27.2015 1009 26.8739 1009.32 26.501C1009.33 26.4934 1009.33 26.4855 1009.34 26.4779C1009.27 26.9514 1009.2 27.4065 1009.15 27.8369C1009.06 28.4733 1009.01 29.0332 1008.98 29.5165C1008.95 29.8674 1008.97 30.2218 1009.04 30.5662C1009.17 30.9723 1009.42 31.3313 1009.76 31.5968C1010.09 31.8733 1010.51 32.0225 1010.95 32.0177C1011.13 32.0324 1011.31 32.0027 1011.48 31.9311C1011.64 31.8595 1011.79 31.7484 1011.9 31.6074C1012.12 31.2972 1012.28 30.9469 1012.36 30.5769C1012.46 30.1362 1012.55 29.6901 1012.6 29.2406C1012.66 28.7855 1012.75 28.3356 1012.88 27.895C1013.09 27.2717 1013.35 26.5655 1013.63 25.7765C1013.92 24.9985 1014.28 24.2479 1014.7 23.5339C1015.09 22.857 1015.6 22.2531 1016.2 21.7493C1016.8 21.2635 1017.55 21.006 1018.31 21.0243C1018.52 21.0191 1018.72 21.0907 1018.87 21.2247C1019.02 21.3548 1019.13 21.5233 1019.18 21.7114C1019.26 21.9864 1019.26 22.2738 1019.2 22.5511C1019.14 22.8947 1019.06 23.2859 1018.95 23.7249C1018.83 24.1639 1018.71 24.6286 1018.57 25.1191C1018.43 25.6091 1018.3 26.1022 1018.2 26.5983C1018.09 27.0767 1018.02 27.5612 1017.98 28.0489C1017.94 28.4836 1017.97 28.9218 1018.07 29.3466C1018.09 29.4487 1018.11 29.5407 1018.13 29.6233C1018.15 29.7059 1018.18 29.792 1018.2 29.8809C1018.37 30.4848 1018.71 31.03 1019.17 31.4553C1019.64 31.8424 1020.23 32.0432 1020.84 32.0183C1021.09 32.0165 1021.34 31.991 1021.58 31.942C1021.86 31.8841 1022.15 31.8077 1022.42 31.7131C1023.2 31.4765 1023.96 31.1731 1024.68 30.8066C1025.28 30.4992 1025.85 30.1484 1026.39 29.757C1026.91 29.3812 1027.41 28.9766 1027.88 28.545L1027.98 28.4487C1028.15 28.8868 1028.35 29.3089 1028.59 29.7094C1028.9 30.2139 1029.28 30.6652 1029.74 31.0452C1030.21 31.4381 1030.75 31.745 1031.33 31.9517C1032 32.1845 1032.71 32.2976 1033.42 32.2858C1034.71 32.3195 1035.99 32.0062 1037.11 31.3793C1038.22 30.6884 1039.12 29.6984 1039.68 28.5245C1040.01 28.762 1040.37 28.9427 1040.76 29.0588C1041.14 29.1738 1041.54 29.2317 1041.95 29.2306C1042.56 29.2332 1043.18 29.1659 1043.78 29.0301C1044.12 28.9504 1044.46 28.8534 1044.8 28.7394C1045.2 29.354 1045.69 29.9109 1046.25 30.3949C1046.81 30.8858 1047.45 31.2853 1048.14 31.5787C1048.84 31.8719 1049.58 32.0213 1050.33 32.0177C1051.22 32.0194 1052.1 31.9006 1052.96 31.6647C1053.78 31.4401 1054.57 31.1431 1055.34 30.7771C1056.05 30.4369 1056.74 30.0445 1057.4 29.6033C1057.86 29.2894 1058.28 28.9875 1058.65 28.6976C1058.84 29.1625 1059.1 29.594 1059.43 29.9756C1059.82 30.4365 1060.29 30.8356 1060.8 31.1594C1061.26 31.447 1061.75 31.6685 1062.27 31.817C1062.67 31.9371 1063.08 32.0045 1063.5 32.0175C1064.13 32.0247 1064.75 31.8706 1065.29 31.5703C1065.84 31.2668 1066.34 30.8801 1066.76 30.4244C1067.2 29.9542 1067.59 29.4355 1067.91 28.8783C1068.22 28.3451 1068.5 27.7938 1068.75 27.2276C1068.73 27.4732 1068.74 27.7199 1068.79 27.9623C1068.83 28.2305 1068.9 28.4952 1068.98 28.7544C1069.11 29.17 1069.29 29.57 1069.51 29.9472C1069.73 30.3272 1070 30.6769 1070.31 30.9873C1070.61 31.2887 1070.96 31.54 1071.35 31.7318C1071.73 31.9239 1072.16 32.022 1072.59 32.018C1073.11 32.0144 1073.62 31.8936 1074.08 31.665C1074.59 31.4164 1075.07 31.1124 1075.51 30.7584C1075.99 30.3837 1076.43 29.972 1076.84 29.5273C1076.99 29.3645 1077.13 29.2022 1077.28 29.0401C1077.27 29.193 1077.26 29.34 1077.26 29.4797C1077.23 29.8383 1077.26 30.1988 1077.34 30.5485C1077.48 30.9633 1077.73 31.3289 1078.08 31.5982C1078.43 31.8851 1078.86 32.0406 1079.32 32.0369C1079.49 32.0512 1079.67 32.019 1079.84 31.9437C1080 31.8684 1080.14 31.7526 1080.24 31.6076C1080.45 31.2839 1080.59 30.9247 1080.66 30.5485C1080.76 30.0957 1080.83 29.6365 1080.86 29.1745C1080.89 28.7119 1080.95 28.2525 1081.06 27.8003C1081.19 27.3932 1081.33 26.9416 1081.48 26.4452C1081.63 25.9489 1081.8 25.4491 1081.99 24.9458C1082.19 24.4454 1082.41 23.9577 1082.67 23.4858C1082.91 23.0344 1083.21 22.6145 1083.55 22.2357C1083.88 21.882 1084.26 21.5851 1084.68 21.3578C1085.12 21.1308 1085.61 21.016 1086.1 21.024C1086.3 21.0199 1086.51 21.0913 1086.66 21.2245C1086.82 21.358 1086.94 21.5336 1087 21.7303C1087.05 21.9119 1087.08 22.1034 1087.06 22.2933C1087.04 22.491 1086.99 22.6861 1086.93 22.8754C1086.71 23.6008 1086.46 24.3101 1086.18 25.0034C1085.9 25.6966 1085.65 26.3806 1085.44 27.0553C1085.24 27.6961 1085.1 28.3542 1085.01 29.0212C1084.94 29.65 1085 30.2877 1085.19 30.8916C1085.26 31.0639 1085.37 31.2199 1085.5 31.3496C1085.64 31.4913 1085.8 31.6133 1085.98 31.7123C1086.16 31.8137 1086.35 31.8938 1086.55 31.9509C1086.72 32.004 1086.89 32.0328 1087.07 32.0367C1087.25 32.0509 1087.43 32.0188 1087.59 31.9435C1087.75 31.8682 1087.89 31.7523 1088 31.6074C1088.2 31.2837 1088.35 30.9245 1088.42 30.5483C1088.52 30.0953 1088.58 29.6362 1088.61 29.1743C1088.64 28.7117 1088.71 28.2522 1088.81 27.8C1088.94 27.393 1089.08 26.9413 1089.23 26.445C1089.38 25.9487 1089.56 25.4488 1089.75 24.9455C1089.95 24.445 1090.17 23.9573 1090.43 23.4855C1090.67 23.0341 1090.97 22.6142 1091.31 22.2354C1091.64 21.8817 1092.02 21.5849 1092.44 21.3576C1092.88 21.1305 1093.36 21.0157 1093.86 21.0237C1094.06 21.0196 1094.26 21.091 1094.42 21.2242C1094.58 21.3578 1094.69 21.5333 1094.75 21.7301C1094.81 21.9116 1094.83 22.1031 1094.81 22.293C1094.79 22.4907 1094.75 22.6858 1094.69 22.8752C1094.54 23.3751 1094.35 23.8606 1094.11 24.3257C1093.86 24.8139 1093.64 25.3144 1093.45 25.8252C1093.25 26.3447 1093.11 26.8863 1093.05 27.4378C1092.99 28.0432 1093.06 28.6547 1093.25 29.2319C1093.48 30.1026 1094.04 30.857 1094.8 31.3503C1095.55 31.8044 1096.42 32.0362 1097.31 32.0185C1098.02 32.0218 1098.72 31.8785 1099.38 31.5976C1100.04 31.3073 1100.67 30.932 1101.24 30.4812C1101.85 29.9985 1102.41 29.462 1102.93 28.8781C1103.46 28.2739 1103.97 27.641 1104.45 26.9793C1104.71 26.7349 1104.88 26.4233 1104.96 26.0822C1105.02 25.8038 1105.01 25.5154 1104.93 25.2425" fill="#A3A3A3"/>
<path d="M981.26 17.4403C979.44 17.4411 977.695 18.158 976.409 19.4333C975.122 20.7087 974.4 22.4381 974.401 24.2411C974.401 24.2458 974.401 24.2505 974.401 24.2553V24.266C974.406 24.3515 974.443 24.4318 974.506 24.4905C974.569 24.5492 974.652 24.5819 974.738 24.5817H987.782C987.868 24.5819 987.951 24.5493 988.014 24.4906C988.077 24.4319 988.115 24.3515 988.119 24.266V24.2553C988.119 24.2505 988.119 24.2458 988.119 24.2411C988.12 23.3482 987.942 22.4641 987.598 21.6391C987.253 20.8141 986.748 20.0645 986.111 19.433C985.474 18.8015 984.718 18.3004 983.885 17.9585C983.053 17.6166 982.161 17.4405 981.26 17.4403Z" fill="#A3A3A3"/>
<path d="M969.858 31.8342C969.858 31.9161 969.834 31.9961 969.788 32.0641C969.742 32.1322 969.677 32.1852 969.6 32.2165C969.524 32.2478 969.44 32.256 969.359 32.2401C969.278 32.2241 969.204 32.1847 969.145 32.1268C969.087 32.0689 969.047 31.9952 969.031 31.9149C969.015 31.8347 969.023 31.7515 969.055 31.6758C969.086 31.6002 969.14 31.5356 969.209 31.4901C969.277 31.4447 969.358 31.4204 969.441 31.4204C969.551 31.4204 969.658 31.464 969.736 31.5416C969.814 31.6192 969.858 31.7245 969.858 31.8342Z" fill="#A3A3A3"/>
<path d="M987.328 29.5444H973.332C973.261 29.5445 973.191 29.5629 973.129 29.5978C973.067 29.6327 973.015 29.6829 972.979 29.7435C972.943 29.8041 972.923 29.873 972.921 29.9435C972.92 30.014 972.937 30.0837 972.97 30.1458L972.977 30.1587C973.013 30.2233 973.065 30.2773 973.128 30.3148C973.192 30.3524 973.265 30.3722 973.339 30.372H987.321C987.395 30.3721 987.467 30.3524 987.531 30.3148C987.595 30.2772 987.647 30.2233 987.682 30.1587L987.689 30.1458C987.723 30.0837 987.74 30.014 987.738 29.9436C987.737 29.8731 987.717 29.8042 987.68 29.7436C987.644 29.683 987.592 29.6329 987.531 29.5979C987.469 29.563 987.399 29.5446 987.328 29.5444Z" fill="#A3A3A3"/>
<path d="M989.187 25.7926H973.331C973.275 25.7927 973.22 25.8041 973.169 25.8262C973.117 25.8482 973.071 25.8804 973.033 25.9207C972.994 25.9611 972.964 26.0088 972.945 26.0609C972.926 26.113 972.918 26.1684 972.921 26.2238C972.921 26.228 972.921 26.2324 972.921 26.2367C972.927 26.3405 972.973 26.4381 973.049 26.5094C973.125 26.5808 973.226 26.6204 973.331 26.6202H989.186C989.291 26.6204 989.392 26.5807 989.468 26.5094C989.545 26.4381 989.59 26.3405 989.596 26.2367C989.596 26.2324 989.596 26.228 989.596 26.2238C989.599 26.1685 989.591 26.1132 989.572 26.0612C989.553 26.0092 989.523 25.9616 989.485 25.9213C989.447 25.881 989.401 25.8488 989.35 25.8266C989.299 25.8045 989.243 25.7929 989.187 25.7926Z" fill="#A3A3A3"/>
<path d="M983.217 35.1725H976.072C975.979 35.1727 975.889 35.2039 975.817 35.261C975.744 35.318 975.693 35.3976 975.672 35.4869C975.651 35.5763 975.661 35.6701 975.7 35.7531C975.739 35.8362 975.806 35.9038 975.888 35.9449L975.915 35.9577C975.972 35.9857 976.035 36.0002 976.098 36.0001H983.191C983.255 36.0003 983.318 35.9858 983.375 35.9577L983.401 35.9449C983.484 35.9037 983.551 35.8361 983.59 35.7529C983.629 35.6697 983.639 35.5758 983.618 35.4864C983.596 35.3971 983.545 35.3174 983.473 35.2605C983.4 35.2035 983.31 35.1725 983.217 35.1725Z" fill="#A3A3A3"/>
<path d="M987.584 33.2965H980.437C980.345 33.2967 980.255 33.3279 980.182 33.385C980.11 33.442 980.059 33.5217 980.038 33.611C980.016 33.7003 980.026 33.7941 980.066 33.8772C980.105 33.9603 980.171 34.0278 980.254 34.0689L980.281 34.0818C980.338 34.1098 980.4 34.1243 980.464 34.1241H987.558C987.621 34.1243 987.684 34.1098 987.741 34.0818L987.768 34.0689C987.85 34.0278 987.917 33.9602 987.956 33.8771C987.995 33.794 988.005 33.7002 987.984 33.6108C987.963 33.5215 987.912 33.4419 987.839 33.3849C987.767 33.3278 987.677 33.2967 987.584 33.2965Z" fill="#A3A3A3"/>
<path d="M977.839 32.118L977.827 32.1051C977.773 32.0469 977.737 31.9744 977.724 31.8963C977.71 31.8183 977.72 31.738 977.752 31.6655C977.784 31.5929 977.837 31.5312 977.904 31.4878C977.971 31.4444 978.049 31.4212 978.129 31.4211H989.726C989.806 31.4212 989.884 31.4444 989.951 31.4878C990.018 31.5312 990.071 31.5929 990.103 31.6655C990.134 31.738 990.144 31.8183 990.131 31.8963C990.118 31.9744 990.082 32.0469 990.028 32.1051L990.016 32.118C989.977 32.1589 989.93 32.1916 989.878 32.214C989.827 32.2364 989.771 32.2481 989.714 32.2482H978.141C978.084 32.2481 978.028 32.2365 977.976 32.2141C977.925 32.1917 977.878 32.159 977.839 32.118Z" fill="#A3A3A3"/>
<path d="M970.932 31.4204H976.47C976.563 31.4206 976.653 31.4518 976.725 31.5089C976.798 31.5659 976.849 31.6456 976.87 31.7349C976.891 31.8242 976.881 31.918 976.842 32.0011C976.803 32.0841 976.736 32.1517 976.653 32.1928L976.627 32.2057C976.57 32.2337 976.507 32.2482 976.444 32.248H970.958C970.895 32.2482 970.832 32.2337 970.775 32.2057L970.748 32.1928C970.666 32.1517 970.599 32.0841 970.56 32.0009C970.521 31.9178 970.511 31.824 970.532 31.7346C970.553 31.6453 970.604 31.5656 970.677 31.5086C970.75 31.4516 970.839 31.4205 970.932 31.4204Z" fill="#A3A3A3"/>
<path d="M972.258 26.2073C972.258 26.289 972.233 26.3689 972.188 26.4369C972.142 26.5049 972.077 26.5578 972 26.5891C971.924 26.6204 971.84 26.6285 971.759 26.6126C971.678 26.5966 971.604 26.5572 971.546 26.4994C971.487 26.4416 971.447 26.3679 971.431 26.2877C971.415 26.2075 971.424 26.1244 971.455 26.0489C971.487 25.9733 971.54 25.9087 971.609 25.8633C971.677 25.8178 971.758 25.7935 971.84 25.7935C971.951 25.7935 972.057 25.837 972.136 25.9146C972.214 25.9923 972.258 26.0975 972.258 26.2073Z" fill="#A3A3A3"/>
<path d="M982.099 28.1931L982.103 28.1802C982.119 28.1198 982.121 28.0564 982.109 27.995C982.096 27.9336 982.07 27.8759 982.031 27.8263C981.993 27.7768 981.943 27.7366 981.887 27.7091C981.83 27.6815 981.768 27.6673 981.704 27.6675H970.106C970.043 27.6673 969.981 27.6815 969.924 27.7091C969.867 27.7366 969.818 27.7768 969.779 27.8263C969.741 27.8759 969.714 27.9336 969.702 27.995C969.69 28.0564 969.692 28.1198 969.708 28.1802C969.708 28.1844 969.711 28.1889 969.712 28.1931C969.735 28.2798 969.787 28.3564 969.859 28.411C969.931 28.4656 970.019 28.4952 970.11 28.4951H981.702C981.793 28.4951 981.881 28.4656 981.953 28.411C982.025 28.3564 982.077 28.2798 982.1 28.1931" fill="#A3A3A3"/>
<path d="M969.032 28.0824C969.032 28.1642 969.008 28.2441 968.962 28.312C968.916 28.38 968.851 28.433 968.775 28.4642C968.698 28.4955 968.614 28.5037 968.534 28.4877C968.453 28.4717 968.378 28.4323 968.32 28.3744C968.262 28.3166 968.222 28.2429 968.206 28.1627C968.19 28.0825 968.198 27.9993 968.23 27.9238C968.261 27.8482 968.315 27.7837 968.383 27.7382C968.452 27.6928 968.533 27.6686 968.615 27.6686C968.726 27.6686 968.832 27.7123 968.91 27.7899C968.989 27.8675 969.032 27.9727 969.032 28.0824Z" fill="#A3A3A3"/>
<path d="M972.258 29.9582C972.258 30.04 972.233 30.1199 972.188 30.1879C972.142 30.2559 972.077 30.3088 972 30.3401C971.924 30.3714 971.84 30.3795 971.759 30.3636C971.678 30.3476 971.604 30.3082 971.546 30.2504C971.487 30.1926 971.447 30.1189 971.431 30.0387C971.415 29.9585 971.424 29.8754 971.455 29.7998C971.487 29.7243 971.54 29.6597 971.609 29.6142C971.677 29.5688 971.758 29.5445 971.84 29.5444C971.951 29.5444 972.057 29.588 972.136 29.6656C972.214 29.7432 972.258 29.8485 972.258 29.9582Z" fill="#A3A3A3"/>
<path d="M979.364 33.7103C979.364 33.7922 979.339 33.8722 979.293 33.9402C979.248 34.0083 979.182 34.0613 979.106 34.0926C979.03 34.1239 978.946 34.1321 978.865 34.1161C978.784 34.1002 978.709 34.0608 978.651 34.0029C978.592 33.945 978.553 33.8713 978.537 33.791C978.52 33.7108 978.529 33.6276 978.56 33.5519C978.592 33.4763 978.645 33.4117 978.714 33.3662C978.783 33.3208 978.864 33.2965 978.946 33.2965C979.057 33.2965 979.163 33.3401 979.241 33.4177C979.32 33.4953 979.364 33.6006 979.364 33.7103Z" fill="#A3A3A3"/>
<path d="M974.998 35.5852C974.998 35.667 974.973 35.7469 974.927 35.8149C974.882 35.8828 974.816 35.9358 974.74 35.9671C974.664 35.9983 974.58 36.0065 974.499 35.9905C974.418 35.9745 974.344 35.9351 974.285 35.8772C974.227 35.8194 974.187 35.7457 974.171 35.6655C974.155 35.5853 974.163 35.5021 974.195 35.4266C974.227 35.3511 974.28 35.2865 974.349 35.2411C974.417 35.1956 974.498 35.1714 974.581 35.1714C974.691 35.1715 974.797 35.2151 974.876 35.2927C974.954 35.3703 974.998 35.4755 974.998 35.5852Z" fill="#A3A3A3"/>
</g>
<path d="M1243.44 13.6045H1245.39L1250.88 26.3955H1248.28L1247.09 23.4687H1241.56L1240.41 26.3955H1237.88L1243.44 13.6045ZM1246.33 21.5176L1244.38 16.3145L1242.39 21.5176H1246.33ZM1253.34 13.6045H1255.94L1259.41 23.252L1262.99 13.6045H1265.41L1260.28 26.3955H1258.33L1253.34 13.6045ZM1273.54 13.6045H1275.49L1280.98 26.3955H1278.38L1277.19 23.4687H1271.66L1270.5 26.3955H1267.97L1273.54 13.6045ZM1276.39 21.5176L1274.44 16.3145L1272.46 21.5176H1276.39ZM1286 13.6045H1288.28V24.2998H1293.7V26.3594H1286V13.6045ZM1303.02 13.6045H1304.97L1310.47 26.3955H1307.87L1306.67 23.4687H1301.14L1299.99 26.3955H1297.46L1303.02 13.6045ZM1305.91 21.5176L1303.96 16.3145L1301.98 21.5176H1305.91ZM1315.49 13.6045H1318.49L1324.67 23.1074H1324.7V13.6045H1326.98V26.3955H1324.09L1317.8 16.6035H1317.77V26.3955H1315.49V13.6045ZM1342.16 16.6035C1341.69 16.0977 1341.22 15.7725 1340.78 15.5918C1340.35 15.4111 1339.92 15.3389 1339.48 15.3389C1338.83 15.3389 1338.22 15.4473 1337.67 15.7002C1337.13 15.917 1336.7 16.2422 1336.3 16.6758C1335.9 17.0732 1335.62 17.5791 1335.4 18.1211C1335.18 18.6631 1335.11 19.2773 1335.11 19.8916C1335.11 20.5781 1335.22 21.1924 1335.4 21.7705C1335.62 22.3486 1335.9 22.8545 1336.3 23.2881C1336.7 23.7217 1337.13 24.0469 1337.67 24.2637C1338.22 24.5166 1338.83 24.625 1339.48 24.625C1339.99 24.625 1340.49 24.5166 1340.96 24.2637C1341.47 24.0107 1341.9 23.6133 1342.34 23.0713L1344.21 24.4082C1343.64 25.2031 1342.95 25.7812 1342.12 26.1426C1341.29 26.5039 1340.42 26.6846 1339.48 26.6846C1338.51 26.6846 1337.6 26.54 1336.77 26.2148C1335.94 25.8896 1335.25 25.4561 1334.64 24.8418C1334.06 24.2637 1333.59 23.541 1333.27 22.7461C1332.94 21.915 1332.76 21.0117 1332.76 20.0361C1332.76 19.0244 1332.94 18.085 1333.27 17.2539C1333.59 16.4229 1334.06 15.7002 1334.64 15.0859C1335.25 14.5078 1335.94 14.0381 1336.77 13.7129C1337.6 13.3877 1338.51 13.207 1339.48 13.207C1340.35 13.207 1341.14 13.3516 1341.87 13.6768C1342.62 13.9658 1343.31 14.5078 1343.93 15.2305L1342.16 16.6035ZM1349.31 13.6045H1351.59V18.6992H1357.55V13.6045H1359.82V26.3955H1357.55V20.7588H1351.59V26.3955H1349.31V13.6045ZM1366.26 13.6045H1374.67V15.6641H1368.5V18.8076H1374.35V20.8672H1368.5V24.3359H1375V26.3955H1366.26V13.6045Z" fill="#A3A3A3"/>
<path d="M1208.5 38.5C1218.72 38.5 1227 30.2173 1227 20C1227 9.78273 1218.72 1.5 1208.5 1.5C1198.28 1.5 1190 9.78273 1190 20C1190 30.2173 1198.28 38.5 1208.5 38.5Z" fill="#A3A3A3"/>
<path d="M1202.75 27.5518H1198.27C1197.23 27.5518 1196.68 27.5518 1196.36 27.335C1196 27.1182 1195.78 26.7207 1195.78 26.3232C1195.75 25.9619 1196.03 25.4922 1196.54 24.5527L1206.37 7.28125C1206.91 6.3418 1207.16 5.87207 1207.52 5.69141C1207.89 5.51074 1208.32 5.51074 1208.68 5.69141C1209.01 5.87207 1209.29 6.3418 1209.84 7.28125L1212.11 11.2559C1212.51 11.9424 1212.69 12.2676 1212.76 12.6289C1212.87 13.0264 1212.87 13.4238 1212.76 13.8213C1212.69 14.1826 1212.47 14.5078 1212.11 15.1943L1206.19 25.5283C1205.79 26.2148 1205.61 26.5762 1205.32 26.8291C1205.03 27.1182 1204.67 27.335 1204.27 27.4434C1203.95 27.5518 1203.55 27.5518 1202.75 27.5518Z" fill="white"/>
<path d="M1218.76 27.5518H1213.56C1212.47 27.5518 1211.97 27.5518 1211.64 27.335C1211.28 27.1182 1211.07 26.7207 1211.07 26.3232C1211.03 25.9258 1211.32 25.4922 1211.86 24.5527L1214.46 20.0723C1215 19.1689 1215.26 18.6992 1215.58 18.5186C1215.94 18.3379 1216.38 18.3379 1216.74 18.5186C1217.06 18.6992 1217.35 19.1328 1217.89 20.0723L1220.5 24.5527C1221.04 25.4922 1221.33 25.9619 1221.29 26.3232C1221.25 26.7207 1221.04 27.1182 1220.71 27.335C1220.35 27.5518 1219.81 27.5518 1218.76 27.5518Z" fill="white"/>
<defs>
<clipPath id="clip0_1040_7622">
<rect width="167" height="32" fill="white" transform="translate(938 4)"/>
</clipPath>
</defs>
</svg>
