<svg width="1069" height="40" viewBox="0 0 1069 40" fill="none" xmlns="http://www.w3.org/2000/svg">
<path d="M29.1204 6.34464C29.7963 5.99857 30.8541 5.99857 31.5594 6.34464L38.5824 9.97838C38.9938 10.2091 39.2288 10.5263 39.2582 10.8436V29.0699C39.2582 29.4448 39.0232 29.7909 38.5824 30.0216L31.5594 33.6554C30.8835 34.0014 29.8257 34.0014 29.1204 33.6554L22.0974 30.0216C21.6567 29.7909 21.4216 29.4448 21.4216 29.0699C21.4216 29.0123 21.4216 29.0123 21.4216 28.9834V10.9877C21.4216 10.9589 21.4216 10.9301 21.4216 10.9301V10.8724C21.451 10.5552 21.6567 10.2091 22.0974 10.0072L29.1204 6.34464ZM38.1416 21.0238L31.53 24.4268C30.8541 24.7729 29.7963 24.7729 29.091 24.4268L22.5382 21.0238V29.0411L29.1204 32.4153C29.5024 32.6172 29.8844 32.819 30.2371 32.819H30.2958C30.7072 32.819 31.0598 32.6172 31.4712 32.4441L38.1416 28.9834V21.0238ZM20.2756 28.6662C20.2756 29.3583 20.3637 29.8198 20.5106 30.137C20.6576 30.3965 20.8339 30.6273 21.2159 30.858L21.2453 30.8868C21.3334 30.9445 21.4216 31.0022 21.5391 31.0598L21.686 31.1464L22.0974 31.3771L21.5097 32.2999L21.069 32.0404L21.0102 31.9827C20.8633 31.8962 20.7751 31.8385 20.687 31.752C19.5997 31.031 19.2177 30.2812 19.2177 28.6662V28.6085H20.2756V28.6662ZM29.7669 16.1211C29.7081 16.15 29.6787 16.1788 29.62 16.1788L22.597 19.7837C22.597 19.7837 22.5676 19.7837 22.5676 19.8125H22.597L29.62 23.4751C29.6787 23.504 29.7081 23.5328 29.7669 23.5328V16.1211ZM30.8835 16.1211V23.504C30.9423 23.4751 30.9717 23.4463 31.0305 23.4463L38.0534 19.8125C38.0534 19.8125 38.0828 19.8125 38.0828 19.7837H38.0534L31.0598 16.1788C30.9717 16.1788 30.9423 16.15 30.8835 16.1211ZM38.1416 12.1413L31.8238 15.4001L38.1416 18.659V12.1413ZM22.5382 12.1413V18.6301L28.8266 15.4001L22.5382 12.1413ZM31.0305 7.29633C30.6484 7.09446 30.002 7.09446 29.6494 7.29633L22.597 10.9301C22.597 10.9301 22.5676 10.9301 22.5676 10.9589H22.597L29.62 14.5927C30.002 14.7945 30.6484 14.7945 31.0011 14.5927L38.0241 10.9589C38.0241 10.9589 38.0534 10.9589 38.0534 10.9301H38.0241L31.0305 7.29633ZM39.1995 7.72892L39.6402 7.98847L39.699 8.04615C39.8459 8.13267 39.9341 8.19035 40.0222 8.27686C41.0801 8.969 41.4915 9.74766 41.4915 11.3338V11.3915H40.3749C40.3749 10.6994 40.2867 10.2379 40.1398 9.9207C39.9929 9.66115 39.8165 9.43043 39.4345 9.19972L39.4052 9.17088C39.317 9.1132 39.2288 9.05552 39.1113 8.99784L38.9644 8.91133L38.553 8.68061L39.1995 7.72892Z" fill="#8D8D8D"/>
<path d="M59.0343 28.8681V17.7361H62.1785V15.6885H59.0343V14.2466C59.0343 12.5739 59.7689 11.7664 61.2381 11.7664C61.6789 11.7664 62.1197 11.8241 62.5899 11.9683V9.80533C62.0022 9.63229 61.3557 9.54578 60.6505 9.54578C59.2987 9.54578 58.2115 9.92069 57.4769 10.6993C56.7129 11.4492 56.3309 12.5739 56.3309 14.0447V15.7174H53.745V17.765H56.3309V28.9257H59.0343V28.8681ZM69.9361 29.0411C70.9646 29.0411 71.8755 28.8392 72.6395 28.4355C73.4035 28.0029 73.9912 27.3973 74.3732 26.6186V28.8681H77.0472V15.6885H74.3732V17.8226C73.9618 17.044 73.3741 16.4384 72.6101 16.0058C71.8461 15.5732 70.9352 15.3713 69.9067 15.3713C68.7313 15.3713 67.7322 15.6597 66.8213 16.2365C65.9104 16.8133 65.2051 17.6208 64.7056 18.659C64.206 19.6972 63.9416 20.9084 63.9416 22.2639C63.9416 23.6193 64.1766 24.8017 64.7056 25.8399C65.2051 26.8781 65.881 27.6568 66.7919 28.2048C67.7028 28.7527 68.7607 29.0411 69.9361 29.0411ZM70.6119 26.9647C69.3778 26.9647 68.4375 26.5609 67.7616 25.7246C67.0858 24.9171 66.7331 23.7347 66.7331 22.2639C66.7331 20.7642 67.0858 19.6107 67.7616 18.7455C68.4375 17.9092 69.3778 17.4766 70.6119 17.4766C71.8461 17.4766 72.7864 17.8803 73.4623 18.7167C74.1087 19.5241 74.4614 20.7066 74.4614 22.2062C74.4614 23.7058 74.1087 24.8594 73.4623 25.6957C72.7277 26.5609 71.7873 26.9647 70.6119 26.9647ZM83.6882 28.8681V21.3699C83.6882 20.2163 84.0408 19.2646 84.7167 18.5725C85.3926 17.8803 86.3329 17.5342 87.4495 17.5342C88.4486 17.5342 89.1832 17.7938 89.624 18.3129C90.0941 18.832 90.2998 19.6683 90.2998 20.8219V28.8681H93.0033V20.6777C93.0033 17.1593 91.3871 15.4001 88.1841 15.4001C87.1557 15.4001 86.2447 15.602 85.4219 16.0634C84.6286 16.5249 83.9821 17.1593 83.5707 17.9957L83.3356 15.7174H80.8085C80.9554 16.8133 81.0142 18.0533 81.0142 19.4376V28.8969H83.6882V28.8681ZM101.995 29.0411C102.759 29.0411 103.406 28.9546 103.993 28.7527V26.6186C103.494 26.7628 103.053 26.8205 102.583 26.8205C101.877 26.8205 101.319 26.6186 100.908 26.2437C100.526 25.8688 100.291 25.2055 100.291 24.3115V17.7361H104.023V15.6885H100.32V11.478L97.6167 12.372V15.6597H95.0014V17.7073H97.6167V24.5422C97.6167 25.9841 97.9987 27.1089 98.7627 27.8875C99.5561 28.6662 100.614 29.0411 101.995 29.0411ZM112.309 29.0411C113.602 29.0411 114.748 28.7527 115.747 28.2048C116.746 27.6568 117.51 26.8493 118.039 25.8111C118.568 24.7729 118.862 23.5616 118.862 22.2062C118.862 20.8219 118.598 19.6395 118.039 18.5725C117.51 17.5342 116.717 16.7267 115.747 16.1788C114.748 15.6309 113.602 15.3425 112.309 15.3425C110.987 15.3425 109.841 15.6309 108.842 16.1788C107.843 16.7267 107.079 17.5342 106.55 18.5725C106.021 19.6107 105.727 20.8219 105.727 22.2062C105.727 23.5905 105.991 24.7729 106.55 25.8111C107.079 26.8493 107.872 27.628 108.842 28.2048C109.841 28.7527 110.987 29.0411 112.309 29.0411ZM112.28 26.9647C111.046 26.9647 110.105 26.5609 109.429 25.7823C108.783 24.9748 108.43 23.7924 108.43 22.2639C108.43 20.7354 108.783 19.5818 109.459 18.7743C110.135 17.9668 111.075 17.5342 112.309 17.5342C113.514 17.5342 114.454 17.938 115.13 18.7743C115.777 19.5818 116.129 20.7642 116.129 22.2639C116.129 23.8212 115.777 25.0036 115.13 25.7823C114.484 26.5609 113.543 26.9647 112.28 26.9647ZM124.68 28.8681V21.3987C124.68 20.2163 124.974 19.2646 125.591 18.5436C126.208 17.8515 127.031 17.5054 128.03 17.5054C128.941 17.5054 129.558 17.765 129.969 18.2841C130.351 18.8032 130.587 19.6395 130.587 20.7642V28.8392H133.29V21.3987C133.29 20.2163 133.584 19.2646 134.201 18.5436C134.818 17.8515 135.611 17.5054 136.64 17.5054C137.551 17.5054 138.168 17.765 138.579 18.2841C138.961 18.8032 139.196 19.6395 139.196 20.7642V28.8392H141.87V20.6777C141.87 17.1593 140.372 15.4001 137.374 15.4001C136.375 15.4001 135.494 15.6309 134.7 16.0923C133.907 16.5537 133.319 17.1593 132.908 17.938C132.291 16.2365 130.91 15.4001 128.823 15.4001C127.854 15.4001 127.002 15.602 126.238 16.0346C125.503 16.4672 124.945 17.0728 124.563 17.8803L124.328 15.6885H121.83C121.977 16.7844 122.036 18.0245 122.036 19.4088V28.8681H124.68Z" fill="#8D8D8D"/>
<path d="M254.009 17.9858L259.094 13.0847L264.183 17.9887L267.142 15.1367L259.094 7.3808L251.049 15.1338L254.009 17.9858Z" fill="#8D8D8D"/>
<path d="M248.96 17.147L246 19.9993L248.96 22.8516L251.919 19.9993L248.96 17.147Z" fill="#8D8D8D"/>
<path d="M254.009 22.014L259.094 26.9152L264.183 22.0111L267.144 24.8617L267.142 24.8631L259.094 32.6192L251.049 24.866L251.045 24.8624L254.009 22.014Z" fill="#8D8D8D"/>
<path d="M269.23 17.1491L266.271 20.0014L269.23 22.8537L272.19 20.0014L269.23 17.1491Z" fill="#8D8D8D"/>
<path d="M262.096 19.9985H262.098L259.094 17.1042L256.875 19.243L256.62 19.4887L256.094 19.9955L256.09 19.9999L256.094 20.0043L259.094 22.8956L262.098 20.0014L262.099 19.9999L262.096 19.9985Z" fill="#8D8D8D"/>
<path d="M276.8 13.496H283.239C283.895 13.4496 284.554 13.5307 285.176 13.7344C285.799 13.9381 286.373 14.2602 286.864 14.6817C287.175 14.9785 287.419 15.3334 287.583 15.7247C287.746 16.1159 287.825 16.5353 287.814 16.9569V16.9948C287.82 17.338 287.77 17.68 287.666 18.0084C287.574 18.2893 287.441 18.5563 287.271 18.8018C287.111 19.0331 286.919 19.2422 286.7 19.4231C286.485 19.6005 286.25 19.7544 286 19.8818C286.724 20.1244 287.376 20.5348 287.896 21.077C288.388 21.6683 288.634 22.4143 288.587 23.1706V23.2085C288.6 23.7638 288.474 24.3139 288.221 24.8128C287.975 25.2731 287.615 25.6674 287.172 25.9598C286.672 26.2843 286.115 26.5176 285.527 26.6482C284.83 26.8076 284.115 26.8848 283.399 26.8779H276.8V13.496ZM282.593 18.9068C283.15 18.933 283.704 18.8176 284.2 18.5721C284.394 18.4637 284.553 18.305 284.658 18.1141C284.763 17.9232 284.81 17.7077 284.795 17.4921V17.4542C284.805 17.2559 284.763 17.0583 284.673 16.8799C284.583 16.7014 284.447 16.5478 284.279 16.4333C283.832 16.1708 283.313 16.0474 282.791 16.0796H279.779V18.909L282.593 18.9068ZM283.406 24.2987C283.96 24.3278 284.511 24.2051 284.995 23.945C285.184 23.8279 285.337 23.6642 285.439 23.4708C285.54 23.2774 285.585 23.0614 285.57 22.8453V22.8074C285.578 22.6019 285.533 22.3978 285.439 22.2129C285.346 22.0279 285.207 21.8678 285.035 21.7464C284.516 21.4445 283.912 21.3075 283.309 21.3548H279.779V24.2994H283.411L283.406 24.2987Z" fill="#8D8D8D"/>
<path d="M292.421 13.4961H295.477V26.8802H292.421V13.4961Z" fill="#8D8D8D"/>
<path d="M300.105 13.4961H302.922L309.429 21.7363V13.4961H312.445V26.8802H309.845L303.12 18.3717V26.8802H300.105V13.4961Z" fill="#8D8D8D"/>
<path d="M321.695 13.4006H324.512L330.464 26.8802H327.27L326 23.8787H320.127L318.857 26.8802H315.742L321.695 13.4006ZM324.909 21.2761L323.064 16.9365L321.219 21.2761H324.909Z" fill="#8D8D8D"/>
<path d="M333.762 13.4961H336.577L343.085 21.7363V13.4961H346.1V26.8802H343.502L336.776 18.3717V26.8802H333.762V13.4961Z" fill="#8D8D8D"/>
<path d="M357.098 27.1063C356.125 27.1151 355.16 26.933 354.262 26.5711C353.415 26.2351 352.647 25.7388 352.002 25.1115C351.358 24.4842 350.851 23.7387 350.512 22.9191C350.151 22.0623 349.969 21.1455 349.976 20.221V20.1831C349.969 19.2623 350.151 18.3493 350.512 17.4966C350.857 16.6787 351.362 15.9324 352 15.298C352.648 14.6579 353.424 14.1507 354.281 13.8067C355.212 13.435 356.211 13.2494 357.218 13.2613C357.813 13.257 358.408 13.3083 358.993 13.4144C359.493 13.506 359.981 13.647 360.451 13.8352C360.878 14.0087 361.284 14.2265 361.662 14.4849C362.029 14.7381 362.374 15.0195 362.693 15.3264L360.749 17.4871C360.252 17.0459 359.695 16.6727 359.092 16.378C358.502 16.1047 357.855 15.9674 357.201 15.9769C356.644 15.9717 356.092 16.0826 355.584 16.3021C355.097 16.5121 354.661 16.8181 354.304 17.2005C353.943 17.5895 353.661 18.0402 353.472 18.5292C353.271 19.0456 353.17 19.593 353.174 20.1444V20.1831C353.171 20.7375 353.272 21.2879 353.472 21.8078C353.658 22.2991 353.937 22.7531 354.295 23.1466C354.659 23.5422 355.106 23.8577 355.608 24.0716C356.109 24.2855 356.653 24.3929 357.201 24.3863C357.898 24.4074 358.59 24.2629 359.215 23.9655C359.81 23.6535 360.36 23.2678 360.851 22.8185L362.796 24.7145C362.452 25.0722 362.081 25.4045 361.685 25.7084C361.296 26.0048 360.873 26.2582 360.425 26.4639C359.948 26.6808 359.445 26.8412 358.927 26.9415C358.325 27.0564 357.712 27.1116 357.098 27.1063Z" fill="#8D8D8D"/>
<path d="M366.39 13.4961H376.846V16.1154H369.406V18.831H375.953V21.4503H369.406V24.2622H376.946V26.8815H366.39V13.4961Z" fill="#8D8D8D"/>
<path d="M528.982 15.4578C529.678 15.8904 530.288 16.4672 530.665 17.2459C531.1 18.0245 531.304 18.9762 531.304 20.0433C531.304 21.1103 531.1 22.0043 530.607 22.783C530.172 23.5616 529.533 24.1673 528.721 24.5133C527.908 24.9459 526.951 25.1478 525.906 25.1478C525.325 25.1478 524.774 25.0324 524.223 24.8306C523.671 24.6864 523.207 24.3691 522.83 23.9942V29.4737H519.696V15.0252H522.394L522.656 16.1788C523.845 15.2271 525.151 14.7657 526.486 14.7657C527.415 14.7657 528.285 14.9964 528.982 15.4578ZM527.27 22.0043C527.821 21.5429 528.082 20.9084 528.082 20.1009C528.082 19.2934 527.821 18.6878 527.328 18.1399C526.834 17.6208 526.196 17.3901 525.5 17.3901C524.919 17.3901 524.368 17.5054 523.932 17.765C523.497 17.9668 523.178 18.3418 522.917 18.832V21.1968C523.091 21.6583 523.41 22.0332 523.787 22.2927C524.223 22.5523 524.716 22.7253 525.296 22.7253C526.08 22.7542 526.718 22.4658 527.27 22.0043Z" fill="#8D8D8D"/>
<path d="M533.161 17.3035C533.654 16.5537 534.293 15.9193 535.163 15.5155C536.034 15.0829 536.991 14.8234 538.094 14.8234C539.197 14.8234 540.155 15.0252 541.025 15.5155C541.838 15.9481 542.476 16.5826 542.969 17.3612C543.463 18.1399 543.666 19.0051 543.666 19.9856C543.666 20.995 543.463 21.8313 542.969 22.61C542.476 23.3886 541.896 24.0231 541.025 24.4557C540.213 24.8883 539.197 25.1478 538.094 25.1478C536.991 25.1478 536.034 24.9459 535.163 24.5133C534.293 24.0808 533.654 23.504 533.161 22.7253C532.725 21.9467 532.464 21.0238 532.464 19.9856C532.435 19.0051 532.725 18.111 533.161 17.3035ZM536.324 21.889C536.759 22.4081 537.34 22.6388 538.065 22.6388C538.791 22.6388 539.371 22.3792 539.806 21.889C540.242 21.4275 540.445 20.7354 540.445 19.9856C540.445 19.2069 540.242 18.5725 539.806 18.0822C539.313 17.5631 538.791 17.3035 538.036 17.3035C537.34 17.3035 536.788 17.5631 536.295 18.0534C535.86 18.5725 535.656 19.2069 535.656 20.0144C535.627 20.7354 535.86 21.3699 536.324 21.889Z" fill="#8D8D8D"/>
<path d="M548.715 7.55591V24.9171H545.581V7.55591H548.715Z" fill="#8D8D8D"/>
<path d="M561.571 15.3137L555.187 29.5602H552.169L554.548 24.4557L550.021 15.3137H553.591L556.174 21.0238L558.756 15.3137H561.571Z" fill="#8D8D8D"/>
<path d="M573.585 15.3137V24.9171C573.585 25.8111 573.324 26.6475 572.773 27.3973C572.222 28.1471 571.525 28.7239 570.596 29.1276C569.668 29.5602 568.71 29.7621 567.636 29.7621C566.824 29.7621 566.127 29.6467 565.518 29.5026C564.938 29.3007 564.444 29.07 564.067 28.8681C563.632 28.6085 563.196 28.2913 562.703 27.8587L564.531 25.7535C564.967 26.186 565.46 26.5033 565.895 26.7051C566.33 26.907 566.911 27.0801 567.578 27.0801C568.391 27.0801 569.029 26.8782 569.581 26.5033C570.132 26.1284 570.393 25.5516 570.393 24.8594V23.4752C570.074 23.9366 569.639 24.3692 569 24.6864C568.362 25.0036 567.607 25.1478 566.737 25.1478C565.866 25.1478 564.996 24.946 564.241 24.4557C563.487 24.0231 562.877 23.3886 562.413 22.61C561.977 21.8313 561.716 20.9661 561.716 20.0145C561.716 19.0628 561.919 18.1687 562.413 17.3901C562.906 16.6114 563.487 15.977 564.299 15.4867C565.054 15.0253 565.866 14.7946 566.737 14.7946C567.549 14.7946 568.246 14.9099 568.913 15.1118C569.552 15.3137 570.045 15.6309 570.364 16.0058L570.683 15.256H573.585V15.3137ZM570.393 21.2257V18.8609C570.19 18.3995 569.842 18.0245 569.378 17.765C568.884 17.5054 568.362 17.3324 567.694 17.3324C566.94 17.3324 566.301 17.592 565.75 18.0822C565.199 18.5437 564.938 19.1781 564.938 19.9856C564.938 20.7354 565.199 21.3987 565.75 21.9467C566.301 22.4658 566.94 22.7253 567.694 22.7253C568.942 22.6388 569.842 22.1486 570.393 21.2257Z" fill="#8D8D8D"/>
<path d="M576.168 17.3035C576.662 16.5249 577.3 15.9193 578.171 15.4578C579.041 15.0252 579.999 14.7657 581.102 14.7657C582.204 14.7657 583.162 14.9676 584.033 15.4578C584.845 15.8904 585.484 16.5249 585.977 17.3035C586.412 18.0822 586.673 18.9474 586.673 19.9279C586.673 20.9373 586.47 21.7736 585.977 22.5523C585.542 23.3309 584.903 23.9654 584.033 24.398C583.22 24.8306 582.204 25.0901 581.102 25.0901C579.999 25.0901 579.041 24.8883 578.171 24.4557C577.3 24.0231 576.662 23.4463 576.168 22.6676C575.675 21.889 575.472 20.9661 575.472 19.8702C575.472 19.0051 575.704 18.111 576.168 17.3035ZM579.302 21.889C579.738 22.4081 580.318 22.6388 581.044 22.6388C581.74 22.6388 582.35 22.3792 582.785 21.889C583.22 21.4275 583.423 20.7354 583.423 19.9856C583.423 19.2069 583.22 18.5725 582.785 18.0822C582.35 17.6208 581.769 17.3324 581.044 17.3324C580.347 17.3324 579.796 17.5919 579.302 18.0822C578.809 18.5436 578.606 19.2358 578.606 19.9856C578.664 20.7354 578.896 21.3699 579.302 21.889Z" fill="#8D8D8D"/>
<path d="M597.759 15.6309C598.397 16.15 598.688 16.8421 598.717 17.6784V24.9171H595.524V18.8609C595.466 17.9092 594.973 17.4477 594.073 17.4477C593.377 17.4477 592.768 17.765 592.332 18.4571C591.897 19.1492 591.694 19.9856 591.694 20.995V24.9459H588.56V15.3136H591.433L591.636 16.8421C592.013 16.2076 592.506 15.7462 593.145 15.3713C593.783 14.9964 594.538 14.8522 595.408 14.8522C596.337 14.8234 597.15 15.0829 597.759 15.6309Z" fill="#8D8D8D"/>
<path d="M506.288 15.1406C505.737 14.8234 505.04 14.8234 504.46 15.1406L500.252 17.5631L497.379 19.1493L493.171 21.5718C492.62 21.889 491.923 21.889 491.343 21.5718L488.006 19.6684C487.454 19.3511 487.077 18.7743 487.077 18.1399V14.4196C487.077 13.7852 487.396 13.2084 488.006 12.8911L491.314 11.0454C491.865 10.7282 492.562 10.7282 493.142 11.0454L496.451 12.8911C497.002 13.2084 497.379 13.7852 497.379 14.4196V16.8421L500.252 15.1983V12.7758C500.252 12.1413 499.933 11.5645 499.324 11.2473L493.229 7.75776C492.678 7.44053 491.982 7.44053 491.401 7.75776L485.104 11.2473C484.523 11.5645 484.175 12.1413 484.175 12.7758V19.7837C484.175 20.4182 484.494 20.995 485.104 21.3122L491.314 24.8017C491.865 25.119 492.562 25.119 493.142 24.8017L497.35 22.4369L500.223 20.7931L504.431 18.4283C504.982 18.111 505.679 18.111 506.259 18.4283L509.568 20.274C510.119 20.5912 510.496 21.168 510.496 21.8025V25.5516C510.496 26.186 510.177 26.7628 509.568 27.08L506.259 28.9834C505.708 29.3007 505.011 29.3007 504.431 28.9834L501.123 27.1377C500.571 26.8205 500.194 26.2437 500.194 25.6092V23.1867L497.35 24.8017V27.2242C497.35 27.8587 497.669 28.4355 498.279 28.7527L504.489 32.2423C505.04 32.5595 505.737 32.5595 506.317 32.2423L512.528 28.7527C513.079 28.4355 513.456 27.8587 513.456 27.2242V20.2163C513.456 19.5818 513.137 19.0051 512.528 18.6878L506.288 15.1406Z" fill="#8D8D8D"/>
<g clip-path="url(#clip0_467_10116)">
<path d="M745.355 22.5632C745.353 22.6814 745.303 22.794 745.216 22.8764C745.129 22.9588 745.013 23.0043 744.892 23.003H736.359C736.577 25.0636 738.16 26.9483 740.4 26.9483C741.932 26.9483 743.064 26.3829 743.914 25.1892C743.953 25.1265 744.008 25.0742 744.073 25.037C744.138 24.9997 744.211 24.9787 744.287 24.9756C744.343 24.974 744.399 24.9837 744.451 25.004C744.503 25.0243 744.551 25.0548 744.591 25.0936C744.63 25.1324 744.662 25.1787 744.682 25.2297C744.703 25.2808 744.713 25.3354 744.712 25.3902C744.712 25.466 744.689 25.5403 744.647 25.6038C743.785 27.0613 742.073 27.7775 740.4 27.7775C737.53 27.7775 735.471 25.2646 735.471 22.5883C735.471 19.912 737.517 17.3991 740.4 17.3991C743.283 17.3991 745.342 19.8869 745.355 22.5632ZM744.441 22.1737C744.261 20.1131 742.639 18.2284 740.4 18.2284C738.16 18.2284 736.577 20.1131 736.359 22.1737H744.441Z" fill="#8D8D8D"/>
<path d="M755.728 17.6002C755.84 17.6033 755.946 17.648 756.025 17.7251C756.104 17.8022 756.15 17.9058 756.153 18.0148C756.155 18.0697 756.145 18.1243 756.124 18.1753C756.103 18.2263 756.072 18.2726 756.032 18.3115C755.993 18.3503 755.945 18.3808 755.893 18.401C755.841 18.4213 755.785 18.431 755.728 18.4294H753.438V27.2121C753.437 27.3218 753.391 27.4267 753.312 27.5042C753.233 27.5818 753.125 27.6258 753.013 27.6268C752.901 27.6236 752.795 27.5789 752.716 27.5018C752.637 27.4247 752.591 27.3211 752.588 27.2121V18.4294H750.387C750.331 18.431 750.275 18.4213 750.223 18.401C750.171 18.3808 750.123 18.3503 750.083 18.3115C750.044 18.2726 750.012 18.2263 749.992 18.1753C749.971 18.1243 749.961 18.0697 749.963 18.0148C749.964 17.9051 750.009 17.8002 750.088 17.7227C750.168 17.6451 750.275 17.6011 750.387 17.6002H752.588V14.3962C752.588 14.29 752.627 14.1874 752.698 14.1068C752.769 14.0262 752.867 13.9728 752.974 13.9564C753.034 13.9486 753.095 13.9536 753.153 13.9709C753.211 13.9883 753.265 14.0177 753.31 14.0571C753.355 14.0964 753.391 14.1449 753.415 14.199C753.44 14.2532 753.452 14.3119 753.45 14.371V17.6002H755.728Z" fill="#8D8D8D"/>
<path d="M769.693 21.847V27.1619C769.69 27.2708 769.644 27.3745 769.565 27.4516C769.486 27.5286 769.38 27.5733 769.268 27.5765C769.212 27.5781 769.156 27.5684 769.104 27.5481C769.052 27.5278 769.004 27.4974 768.964 27.4585C768.925 27.4197 768.893 27.3734 768.873 27.3224C768.852 27.2714 768.842 27.2167 768.843 27.1619V21.847C768.843 20.0503 767.801 18.2661 765.755 18.2661C763.129 18.2661 761.996 20.5026 762.151 22.8019C762.151 22.8648 762.177 23.1286 762.177 23.1663V27.1493C762.176 27.2555 762.137 27.3581 762.067 27.4387C761.996 27.5193 761.898 27.5726 761.79 27.5891C761.73 27.5969 761.669 27.5919 761.611 27.5745C761.554 27.5571 761.5 27.5278 761.455 27.4884C761.41 27.449 761.374 27.4006 761.349 27.3464C761.325 27.2922 761.313 27.2336 761.314 27.1744V9.69698C761.315 9.58732 761.36 9.48243 761.44 9.40488C761.519 9.32733 761.627 9.28333 761.739 9.28235C761.851 9.28551 761.957 9.33021 762.036 9.40729C762.115 9.48438 762.16 9.58801 762.164 9.69698V19.5728C762.897 18.2912 764.21 17.4243 765.742 17.4243C768.264 17.4243 769.693 19.5728 769.693 21.847Z" fill="#8D8D8D"/>
<path d="M785.022 22.5632C785.019 22.6814 784.97 22.794 784.883 22.8764C784.796 22.9588 784.679 23.0043 784.558 23.003H776.025C776.244 25.0636 777.827 26.9483 780.066 26.9483C781.598 26.9483 782.731 26.3829 783.58 25.1892C783.62 25.1265 783.674 25.0742 783.739 25.037C783.804 24.9997 783.878 24.9787 783.953 24.9756C784.009 24.974 784.065 24.9837 784.118 25.004C784.17 25.0243 784.217 25.0548 784.257 25.0936C784.297 25.1324 784.328 25.1787 784.349 25.2297C784.37 25.2808 784.38 25.3354 784.378 25.3902C784.378 25.466 784.356 25.5403 784.314 25.6038C783.451 27.0613 781.74 27.7775 780.066 27.7775C777.196 27.7775 775.137 25.2646 775.137 22.5883C775.137 19.912 777.183 17.3991 780.066 17.3991C782.924 17.3991 785.009 19.8869 785.022 22.5632ZM784.095 22.1737C783.915 20.1131 782.293 18.2284 780.054 18.2284C777.814 18.2284 776.231 20.1131 776.012 22.1737H784.095Z" fill="#8D8D8D"/>
<path d="M795.511 17.9897C795.519 18.1012 795.482 18.2114 795.407 18.2961C795.332 18.3809 795.226 18.4333 795.112 18.442C792.602 18.8064 791.47 20.8041 791.47 23.1286V27.1116C791.469 27.2178 791.43 27.3204 791.36 27.401C791.289 27.4816 791.191 27.5349 791.083 27.5514C791.023 27.5592 790.962 27.5542 790.904 27.5368C790.847 27.5195 790.793 27.4901 790.748 27.4507C790.703 27.4113 790.667 27.3629 790.642 27.3087C790.618 27.2545 790.606 27.1959 790.607 27.1367V18.0525C790.607 17.9463 790.646 17.8437 790.717 17.7631C790.788 17.6825 790.886 17.6292 790.993 17.6127C791.053 17.6049 791.114 17.6099 791.172 17.6273C791.23 17.6446 791.284 17.674 791.329 17.7134C791.374 17.7528 791.41 17.8012 791.434 17.8554C791.459 17.9096 791.471 17.9682 791.47 18.0274V19.8744C792.177 18.7058 793.58 17.6002 795.048 17.6002C795.266 17.6002 795.511 17.7509 795.511 17.9897Z" fill="#8D8D8D"/>
<path d="M809.539 22.5632C809.537 22.6814 809.488 22.794 809.401 22.8764C809.314 22.9588 809.197 23.0043 809.076 23.003H800.543C800.762 25.0636 802.345 26.9483 804.584 26.9483C806.116 26.9483 807.249 26.3829 808.098 25.1892C808.138 25.1265 808.192 25.0742 808.257 25.037C808.322 24.9997 808.396 24.9787 808.471 24.9756C808.527 24.974 808.583 24.9837 808.636 25.004C808.688 25.0243 808.735 25.0548 808.775 25.0936C808.815 25.1324 808.846 25.1787 808.867 25.2297C808.888 25.2808 808.898 25.3354 808.896 25.3902C808.896 25.466 808.874 25.5403 808.832 25.6038C807.969 27.0613 806.258 27.7775 804.584 27.7775C801.714 27.7775 799.655 25.2646 799.655 22.5883C799.655 19.912 801.701 17.3991 804.584 17.3991C807.467 17.3991 809.527 19.8869 809.539 22.5632ZM808.626 22.1737C808.446 20.1131 806.824 18.2284 804.584 18.2284C802.345 18.2284 800.762 20.1131 800.543 22.1737H808.626Z" fill="#8D8D8D"/>
<path d="M823.337 18.0902V27.2121C823.333 27.3211 823.288 27.4247 823.209 27.5018C823.13 27.5789 823.023 27.6236 822.912 27.6268C822.856 27.6283 822.8 27.6187 822.747 27.5984C822.695 27.5781 822.648 27.5476 822.608 27.5088C822.568 27.47 822.537 27.4237 822.516 27.3726C822.495 27.3216 822.486 27.267 822.487 27.2121V25.4782C821.779 26.8478 820.531 27.8404 818.935 27.8404C816.399 27.8404 814.997 25.6918 814.997 23.4176V18.0776C814.998 17.968 815.043 17.8631 815.122 17.7855C815.202 17.708 815.309 17.664 815.421 17.663C815.533 17.6662 815.639 17.7109 815.718 17.7879C815.797 17.865 815.843 17.9687 815.846 18.0776V23.4176C815.846 25.2144 816.889 26.9985 818.935 26.9985C821.805 26.9985 822.487 24.3725 822.487 21.4701V18.0651C822.488 17.9978 822.506 17.9318 822.538 17.8725C822.57 17.8132 822.617 17.7624 822.674 17.7243C822.73 17.6861 822.796 17.6618 822.864 17.6533C822.932 17.6448 823.002 17.6525 823.066 17.6756C823.147 17.7123 823.216 17.7708 823.264 17.8443C823.311 17.9178 823.337 18.0031 823.337 18.0902Z" fill="#8D8D8D"/>
<path d="M844.946 21.8093V27.1493C844.943 27.2583 844.897 27.3619 844.818 27.439C844.739 27.5161 844.633 27.5608 844.521 27.5639C844.465 27.5655 844.409 27.5558 844.357 27.5356C844.304 27.5153 844.257 27.4848 844.217 27.446C844.178 27.4072 844.146 27.3608 844.126 27.3098C844.105 27.2588 844.095 27.2042 844.096 27.1493V21.8093C844.096 20.0126 843.054 18.2535 841.008 18.2535C838.433 18.2535 837.455 20.9424 837.455 23.0281V27.1493C837.452 27.2583 837.406 27.3619 837.327 27.439C837.248 27.5161 837.142 27.5608 837.031 27.5639C836.974 27.5655 836.918 27.5558 836.866 27.5356C836.814 27.5153 836.766 27.4848 836.727 27.446C836.687 27.4072 836.656 27.3608 836.635 27.3098C836.614 27.2588 836.604 27.2042 836.606 27.1493V21.8093C836.606 20.0126 835.563 18.2535 833.517 18.2535C830.917 18.2535 829.849 20.2513 829.939 22.915C829.939 22.9778 829.965 23.0909 829.939 23.1286V27.1367C829.939 27.2429 829.9 27.3455 829.829 27.4261C829.758 27.5067 829.66 27.5601 829.553 27.5765C829.493 27.5843 829.432 27.5793 829.374 27.562C829.316 27.5446 829.263 27.5152 829.217 27.4758C829.172 27.4365 829.136 27.388 829.112 27.3339C829.088 27.2797 829.076 27.221 829.077 27.1619V18.0525C829.077 17.9463 829.116 17.8437 829.187 17.7631C829.257 17.6825 829.355 17.6292 829.463 17.6127C829.523 17.6049 829.584 17.6099 829.642 17.6273C829.7 17.6446 829.753 17.674 829.798 17.7134C829.844 17.7528 829.88 17.8012 829.904 17.8554C829.928 17.9096 829.94 17.9682 829.939 18.0274V19.5477C830.673 18.2661 831.985 17.4243 833.517 17.4243C835.254 17.4243 836.606 18.5048 837.159 20.0754C837.867 18.5174 839.244 17.4243 841.008 17.4243C843.517 17.4243 844.946 19.5477 844.946 21.8093Z" fill="#8D8D8D"/>
<path opacity="0.6" d="M716.628 15.5772L705.946 20.3141L716.628 26.4833L727.324 20.3141L716.628 15.5772Z" fill="#8D8D8D"/>
<path opacity="0.45" d="M705.946 20.3141L716.628 26.4834V3L705.946 20.3141Z" fill="#8D8D8D"/>
<path opacity="0.8" d="M716.628 3V26.4834L727.324 20.3141L716.628 3Z" fill="#8D8D8D"/>
<path opacity="0.45" d="M705.946 22.2993L716.628 37V28.456L705.946 22.2993Z" fill="#8D8D8D"/>
<path opacity="0.8" d="M716.628 28.456V37L727.324 22.2993L716.628 28.456Z" fill="#8D8D8D"/>
</g>
<path fill-rule="evenodd" clip-rule="evenodd" d="M1022.93 15.0296C1022.82 15.0296 1022.62 15.0036 1022.19 15.0036C1021.81 15.0036 1021.48 15.0296 1021.15 15.1074C1019.81 15.367 1018.94 16.1197 1018.21 16.9243V15.341H1014V29.3309H1018.23V23.491C1018.23 22.8162 1018.26 22.1673 1018.33 21.5963C1018.41 21.0252 1018.56 20.5321 1018.84 20.1168C1019.09 19.7015 1019.45 19.3901 1019.93 19.1565C1020.39 18.9229 1021.02 18.819 1021.83 18.819C1022.44 18.819 1023.05 18.9229 1023.64 19.1046V15.1334C1023.41 15.0815 1023.18 15.0296 1022.93 15.0296ZM1034.01 15.0296C1033.91 15.0296 1033.71 15.0036 1033.28 15.0036C1032.9 15.0036 1032.57 15.0296 1032.24 15.1074C1030.89 15.367 1030.03 16.1197 1029.29 16.9243V15.341H1025.08V29.3309H1029.29V23.491C1029.29 22.8162 1029.32 22.1673 1029.39 21.5963C1029.47 21.0252 1029.62 20.5321 1029.9 20.1168C1030.16 19.7015 1030.51 19.3901 1030.99 19.1565C1031.45 18.9229 1032.08 18.819 1032.9 18.819C1033.5 18.819 1034.11 18.9229 1034.7 19.1046V15.1334C1034.47 15.0815 1034.24 15.0296 1034.01 15.0296ZM990.097 14.3547H984.516V10.4614H1000.02V14.3288H994.435V28.5523H990.123V14.3547H990.097ZM1008.31 20.61C1008.34 19.9351 1008.08 19.2603 1007.6 18.7931C1007.12 18.274 1006.49 18.0404 1005.72 18.0404C1005.27 18.0404 1004.84 18.1183 1004.48 18.274C1004.15 18.4297 1003.82 18.6114 1003.57 18.845C1003.31 19.0786 1003.11 19.3641 1002.98 19.6496C1002.83 19.9611 1002.76 20.2725 1002.76 20.61H1008.31ZM1011.89 26.6316C1011.2 27.5141 1010.32 28.1889 1009.33 28.6301C1008.31 29.0973 1007.22 29.3309 1006.11 29.3309C1005.09 29.3309 1004.08 29.1752 1003.14 28.8118C1002.25 28.5004 1001.44 28.0072 1000.73 27.3583C1000.04 26.7354 999.484 25.9568 999.103 25.0743C998.723 24.1918 998.52 23.2055 998.52 22.1154C998.52 21.0252 998.723 20.0389 999.103 19.1565C999.484 18.2999 1000.04 17.5213 1000.73 16.8724C1001.44 16.2495 1002.27 15.7563 1003.14 15.4189C1004.08 15.0815 1005.09 14.8998 1006.11 14.8998C1007.09 14.8998 1007.96 15.0815 1008.77 15.4189C1009.56 15.7563 1010.24 16.2495 1010.8 16.8724C1011.36 17.4953 1011.79 18.248 1012.09 19.1565C1012.4 20.0389 1012.55 21.0252 1012.55 22.1154V23.4391H1002.76C1002.93 24.2437 1003.29 24.8926 1003.85 25.3598C1004.41 25.827 1005.12 26.0865 1005.93 26.0865C1006.64 26.0865 1007.22 25.9308 1007.68 25.6193C1008.16 25.3079 1008.59 24.8926 1008.95 24.4254C1008.95 24.4513 1011.89 26.6316 1011.89 26.6316ZM1044.31 24.1658V23.9322C1044.31 23.6208 1044.13 23.3872 1043.86 23.2834C1043.2 23.0498 1042.51 22.9459 1041.83 22.9459C1040.18 22.9459 1039.16 23.6208 1039.16 24.8666V24.9185C1039.16 25.9827 1040.02 26.6056 1041.27 26.6056C1043.09 26.6056 1044.31 25.5934 1044.31 24.1658ZM1035.41 25.0743V25.0224C1035.41 21.9856 1037.67 20.584 1040.91 20.584C1042.28 20.584 1043.3 20.8176 1044.26 21.155V20.9214C1044.26 19.2862 1043.27 18.3778 1041.34 18.3778C1039.87 18.3778 1038.83 18.6633 1037.56 19.1305L1036.6 16.1197C1038.1 15.4449 1039.59 15.0036 1041.9 15.0036C1044.01 15.0036 1045.53 15.5746 1046.52 16.5609C1047.53 17.5991 1047.99 19.1305 1047.99 20.9993V29.0973H1044.24V27.5919C1043.3 28.6561 1042 29.3569 1040.1 29.3569C1037.54 29.3309 1035.41 27.8255 1035.41 25.0743ZM963.028 27.6958C963.738 30.5249 966.351 32.7051 967.67 32.6273C967.721 32.6273 972.668 31.641 975.383 26.8652C977.489 23.1276 976.778 19.5718 973.911 19.4679C972.897 19.5458 961.658 22.2711 963.028 27.6958ZM965.539 6.30859C963.662 6.30859 961.886 6.72388 960.288 7.45063C960.009 7.5804 959.73 7.71018 959.476 7.86591C959.299 7.96973 959.121 8.07355 958.943 8.17737L958.969 8.20333C958.436 8.5667 957.979 9.00794 957.599 9.52705C953.895 14.5624 966.326 18.2221 972.998 18.2221C976.068 20.4802 976.93 11.889 973.937 9.47514C971.577 7.45063 968.609 6.30859 965.539 6.30859Z" fill="#8D8D8D"/>
<path fill-rule="evenodd" clip-rule="evenodd" d="M960.871 9.26748C959.197 11.7851 953.59 13.5761 952.652 13.3165V13.2905L952.753 13.057C953.717 11.2141 955.087 9.6049 956.762 8.385C957.091 8.12545 957.472 7.89185 957.827 7.65825C958.614 7.19106 959.425 7.19106 959.679 7.1651C962.165 7.24297 960.871 9.24152 960.871 9.26748Z" fill="#8D8D8D"/>
<path fill-rule="evenodd" clip-rule="evenodd" d="M959.425 28.2141C959.552 29.0446 959.425 32.315 959.248 32.6005C959.096 32.6005 958.791 32.6265 957.929 32.1333C956.229 31.147 954.757 29.8233 953.59 28.2141C952.753 27.0461 952.068 25.7483 951.612 24.3727C951.155 22.9451 950.901 21.4397 950.901 19.9343C950.901 18.2732 951.18 16.638 951.738 15.0807C952.753 16.4304 953.895 17.6503 954.884 18.9999C955.823 20.2977 957.117 22.4001 957.37 22.8413C959.07 25.6445 959.299 27.3835 959.425 28.2141Z" fill="#8D8D8D"/>
<path fill-rule="evenodd" clip-rule="evenodd" d="M978.351 20.0909C978.351 21.8818 978.021 23.5948 977.412 25.1781C975.814 26.9171 965.108 22.6085 965.007 22.5826C963.535 21.9078 959.07 19.9092 958.664 16.7686C958.081 12.2264 967.036 9.08583 970.969 8.95605C971.425 8.95605 972.871 8.98201 973.708 9.6828C976.677 12.2783 978.351 16.0938 978.351 20.0909ZM968.964 31.3036C969.624 28.9676 975.205 26.6057 976.448 26.4759C976.601 26.4499 976.677 26.5797 976.601 26.7095C975.307 29.0974 973.404 31.07 971.095 32.3677C969.928 32.9128 968.635 32.4975 968.964 31.3036Z" fill="#A3A3A3"/>
<defs>
<clipPath id="clip0_467_10116">
<rect width="139" height="34" fill="white" transform="translate(705.946 3)"/>
</clipPath>
</defs>
</svg>
