<svg width="167" height="32" viewBox="0 0 167 32" fill="none" xmlns="http://www.w3.org/2000/svg">
<g clip-path="url(#clip0_1173_2682)">
<path d="M24.9587 26.185C24.8598 25.091 24.7529 23.825 24.638 22.3871C24.5231 20.9492 24.4081 19.4447 24.2928 17.8735C24.1774 16.3023 24.0634 14.7214 23.9506 13.1309C23.8379 11.5404 23.7419 10.0518 23.6628 8.66488C23.2366 9.96267 22.8055 11.2668 22.3696 12.5772C21.9336 13.8876 21.5195 15.1314 21.1273 16.3085C20.7353 17.4854 20.3729 18.551 20.0404 19.5053C19.7078 20.4595 19.4383 21.2293 19.2319 21.8147C19.0138 22.2093 18.7926 22.5846 18.5682 22.9406C18.3627 23.2701 18.1311 23.5828 17.8755 23.8758C17.6633 24.1221 17.417 24.3374 17.144 24.5153C16.9127 24.6685 16.6412 24.7514 16.3629 24.7539C16.046 24.7653 15.7326 24.6857 15.4602 24.5248C15.3403 24.4484 15.238 24.3476 15.1602 24.2292C15.0824 24.1107 15.0308 23.9773 15.0089 23.8377C14.9966 23.7778 14.9877 23.7173 14.9823 23.6564C14.9776 23.5957 14.9818 23.5347 14.9948 23.4752C14.5638 21.6688 14.1489 19.8462 13.7502 18.0074C13.3514 16.1685 12.9775 14.3587 12.6284 12.5777L12.3815 11.3182C12.2992 10.8983 12.2246 10.4848 12.1577 10.0775C11.8687 11.2227 11.5435 12.4124 11.1823 13.6465C10.821 14.8807 10.4306 16.0987 10.0112 17.3008C9.59238 18.5032 9.14545 19.6606 8.67039 20.7732C8.2326 21.8111 7.73704 22.8242 7.18599 23.8077C6.73043 24.6319 6.19705 25.4116 5.593 26.1361C5.14298 26.7012 4.57233 27.1608 3.92195 27.4816C3.49753 27.6724 3.05819 27.8287 2.60827 27.9491C2.27199 28.0388 1.9258 28.0868 1.5776 28.0922C1.19593 28.1138 0.816959 28.0171 0.493307 27.8155C0.252539 27.6601 0.0836753 27.4165 0.0236415 27.1381C-0.033347 26.7929 0.0414235 26.4391 0.233383 26.1455C0.462435 25.7795 0.806291 25.4979 1.21227 25.344C1.75761 25.1149 2.30339 24.6092 2.8496 23.8269C3.46502 22.9222 4.00252 21.9677 4.4564 20.9737C4.9812 19.8542 5.48768 18.6073 5.97584 17.2329C6.46401 15.8585 6.9258 14.4653 7.36122 13.0533C7.79681 11.6412 8.19629 10.2576 8.55967 8.90243C8.92305 7.54729 9.24165 6.32264 9.51547 5.22846C9.78875 4.13446 10.0109 3.22154 10.1819 2.48969C10.3528 1.75784 10.4591 1.30301 10.5005 1.12517C10.573 0.774085 10.7823 0.465479 11.083 0.266268C11.3604 0.0906281 11.683 -0.00215616 12.0122 -0.0010039C12.2016 -0.0156427 12.392 0.00999304 12.5706 0.0741913C12.7491 0.13839 12.9118 0.239666 13.0477 0.371231C13.3362 0.76093 13.5186 1.21775 13.5771 1.69761C13.8367 2.49925 14.0711 3.25337 14.2801 3.95996C14.4891 4.66655 14.6922 5.39182 14.8894 6.13577C15.0864 6.88007 15.2788 7.68163 15.4666 8.54045C15.6544 9.39927 15.858 10.3886 16.0773 11.5083C16.2343 12.31 16.3915 13.1942 16.549 14.1611C16.7066 15.1279 16.9024 16.2094 17.1366 17.4055C18.1333 14.6319 19.0176 12.1858 19.7895 10.0673C20.5613 7.94873 21.2467 6.17374 21.8455 4.74232C22.2896 3.62198 22.8204 2.5373 23.4332 1.49794C23.8934 0.766443 24.3029 0.400609 24.6619 0.400433H24.7965C24.8346 0.400619 24.8726 0.397446 24.9101 0.39096C24.9477 0.384644 24.9857 0.381477 25.0238 0.381491C25.3317 0.381491 25.613 0.572389 25.8675 0.954184C26.1505 1.40956 26.3411 1.91522 26.4288 2.44287C26.4996 3.06633 26.5746 3.84246 26.6539 4.77125C26.7332 5.70005 26.8145 6.72109 26.8979 7.83438C26.9814 8.94785 27.067 10.1216 27.1546 11.3555C27.2423 12.5895 27.3282 13.8141 27.4124 15.0295C27.4965 16.2447 27.5833 17.4248 27.6729 18.5698C27.7625 19.7148 27.8533 20.7517 27.9456 21.6805C27.9527 21.8504 27.9729 22.0196 28.0061 22.1864C28.0397 22.3581 28.074 22.5335 28.1088 22.7125C28.1736 23.0437 28.2455 23.3777 28.3244 23.7146C28.4034 24.0515 28.4752 24.3855 28.54 24.7166C28.6149 25.0982 28.6711 25.483 28.7086 25.8712C28.75 26.2249 28.7117 26.5834 28.5966 26.9208C28.4728 27.246 28.2356 27.5166 27.928 27.6837C27.4682 27.9082 26.9572 28.0098 26.4455 27.9786C26.2755 27.9793 26.1073 27.9448 25.9515 27.8774C25.7958 27.81 25.6559 27.7112 25.5409 27.5871C25.2845 27.3269 25.0904 26.8595 24.9587 26.185Z" fill="#A3A3A3"/>
<path d="M129.489 19.486C129.393 19.8946 129.269 20.2964 129.118 20.6885C128.941 21.1544 128.738 21.6099 128.509 22.053C128.282 22.4983 128.021 22.9258 127.729 23.3318C127.479 23.6848 127.186 24.0054 126.856 24.2859C126.618 24.5083 126.309 24.6402 125.982 24.6581C125.657 24.6668 125.336 24.5876 125.053 24.429C124.796 24.2795 124.569 24.0856 124.381 23.8566C124.193 23.6277 124.039 23.3739 123.921 23.1026C123.809 22.8438 123.709 22.5795 123.624 22.3108C123.429 21.7107 123.36 21.0776 123.421 20.4502C123.473 19.8644 123.647 19.2957 123.933 18.7802C124.202 18.2947 124.588 17.8819 125.055 17.5778C125.533 17.2696 126.092 17.1101 126.662 17.1198C126.917 17.1266 127.171 17.1619 127.417 17.225C127.721 17.2975 128.016 17.4033 128.296 17.5407C128.575 17.6753 128.836 17.8454 129.071 18.0465C129.283 18.219 129.442 18.4468 129.53 18.7042C129.58 18.9643 129.566 19.2324 129.489 19.486ZM109.406 21.5471C109.406 21.3056 109.424 21.0066 109.459 20.6501C109.498 20.2738 109.563 19.9007 109.655 19.5336C109.754 19.1352 109.878 18.7432 110.026 18.3598C110.171 17.9771 110.376 17.6195 110.634 17.3005C110.888 16.9894 111.204 16.7329 111.561 16.5465C111.956 16.3484 112.395 16.2501 112.838 16.2603H113.011C113.071 16.2613 113.131 16.2677 113.19 16.2793C113.365 16.3104 113.529 16.3826 113.67 16.4897C113.827 16.6026 113.942 16.7635 113.998 16.9477C114.067 17.2184 114.042 17.5042 113.927 17.759C113.729 18.1637 113.427 18.5093 113.051 18.7608C112.946 18.8372 112.771 18.9836 112.525 19.1998C112.279 19.416 111.986 19.6578 111.647 19.9251C111.308 20.1924 110.944 20.4723 110.555 20.7648C110.166 21.0573 109.784 21.3181 109.407 21.5471H109.406ZM99.8622 20.8316C99.7666 21.5209 99.5221 22.1817 99.1453 22.7688C98.7809 23.3351 98.2879 23.809 97.7055 24.1525C97.1004 24.5072 96.4082 24.6893 95.7053 24.6787C95.3707 24.6879 95.0378 24.6294 94.7269 24.5069C94.4778 24.4045 94.251 24.2555 94.0589 24.0681C93.8865 23.898 93.743 23.7014 93.6341 23.4859C93.5332 23.2861 93.4484 23.0787 93.3805 22.8656C93.1491 22.1603 93.1034 21.4081 93.2478 20.6803C93.3828 19.9848 93.6632 19.3249 94.0708 18.7431C94.471 18.173 94.9962 17.6999 95.607 17.3594C96.2247 17.0104 96.9246 16.8294 97.6357 16.8346C97.9224 16.827 98.2067 16.8892 98.4635 17.0158C98.6839 17.1292 98.8818 17.2812 99.0476 17.4644C99.2058 17.6416 99.3368 17.8409 99.4363 18.056C99.5297 18.2543 99.6102 18.4584 99.6774 18.6668C99.9043 19.3656 99.9671 20.1065 99.8608 20.8329L99.8622 20.8316ZM63.4838 21.2788C63.4396 21.8765 63.2694 22.4584 62.9842 22.9869C62.7189 23.4755 62.3396 23.8943 61.8778 24.2083C61.4138 24.5213 60.8634 24.6846 60.3021 24.6758C59.9516 24.6845 59.6052 24.5988 59.3001 24.4277C59.0218 24.2669 58.7759 24.0566 58.5745 23.8074C58.3758 23.5623 58.2098 23.2929 58.0807 23.0058C57.9627 22.7479 57.8599 22.4835 57.773 22.2137C57.5719 21.6017 57.4987 20.9556 57.5576 20.3147C57.6084 19.7326 57.7802 19.1673 58.0621 18.6542C58.3274 18.1749 58.7084 17.7682 59.1711 17.4704C59.6482 17.1681 60.205 17.0125 60.7712 17.0232C61.1218 17.0126 61.4697 17.088 61.7839 17.2426C62.054 17.3835 62.2942 17.5746 62.4914 17.8056C62.6843 18.0326 62.8422 18.2867 62.96 18.5595C63.0733 18.8182 63.1729 19.0826 63.2584 19.3516C63.4606 19.9733 63.5367 20.6284 63.4822 21.2793L63.4838 21.2788ZM166.93 21.2407C166.836 20.9271 166.651 20.6481 166.397 20.4391C166.199 20.2571 165.944 20.1491 165.675 20.1337C165.575 20.1331 165.476 20.1526 165.385 20.191C165.295 20.2286 165.221 20.2961 165.176 20.382C164.972 20.713 164.688 21.1232 164.323 21.6129C163.949 22.1133 163.538 22.5854 163.093 23.0253C162.651 23.4679 162.157 23.8556 161.62 24.1799C161.141 24.4834 160.587 24.6487 160.018 24.6571C159.774 24.6634 159.53 24.6245 159.299 24.5427C159.191 24.4924 159.096 24.418 159.022 24.3253C158.947 24.2326 158.896 24.1241 158.87 24.0084C158.773 23.6894 158.759 23.3513 158.83 23.0256C158.898 22.6755 159.003 22.3334 159.142 22.0046C159.276 21.6846 159.428 21.3723 159.598 21.0694C159.762 20.7769 159.891 20.5351 159.985 20.3441C160.287 19.747 160.504 19.1112 160.63 18.4548C160.763 17.728 160.709 16.9795 160.472 16.279C160.222 15.4188 159.643 14.6894 158.858 14.2466C158.493 14.0384 158.098 13.8875 157.686 13.7993C157.274 13.7105 156.853 13.6657 156.431 13.6657C155.919 13.6565 155.408 13.7275 154.918 13.8762C154.512 14.0041 154.126 14.1902 153.774 14.4286C153.45 14.6506 153.154 14.91 152.892 15.2015C152.645 15.4765 152.415 15.7664 152.204 16.0696C152.059 15.6679 151.846 15.2936 151.574 14.9626C151.102 14.3893 150.457 13.9813 149.734 13.7986C149.387 13.7098 149.03 13.6649 148.672 13.6649C148.042 13.6499 147.415 13.7535 146.823 13.9703C146.343 14.1553 145.895 14.4163 145.499 14.7432C145.136 15.0472 144.809 15.3895 144.522 15.7642C144.24 16.1325 143.977 16.476 143.731 16.7949C143.763 16.4285 143.725 16.0594 143.618 15.7071C143.504 15.3004 143.259 14.9418 142.92 14.6861C142.644 14.4682 142.305 14.3443 141.952 14.3331C141.579 14.3333 141.22 14.477 140.952 14.7338C140.63 15.0623 140.442 15.4974 140.424 15.9552C140.372 16.4006 140.301 16.9382 140.212 17.5678C140.122 18.1974 140.026 18.8685 139.924 19.5813C139.895 19.7849 139.865 19.9903 139.835 20.1947C139.285 21.0079 138.751 21.7323 138.234 22.3676C138.01 22.6349 137.776 22.8989 137.531 23.1597C137.301 23.4064 137.056 23.639 136.798 23.8563C136.581 24.0416 136.345 24.2047 136.095 24.343C135.905 24.4542 135.689 24.5165 135.469 24.5242C135.32 24.5256 135.172 24.4928 135.039 24.4282C134.905 24.3636 134.788 24.269 134.697 24.152C134.473 23.8716 134.306 23.5508 134.206 23.2073C134.103 22.862 134.036 22.5071 134.006 22.1482C133.965 21.7349 133.941 21.2928 133.934 20.8219C133.926 20.351 133.932 19.8707 133.95 19.3811C133.968 18.8914 133.989 18.4206 134.014 17.9687C134.039 17.5167 134.061 17.1064 134.078 16.7378C134.096 16.3695 134.099 16.0642 134.087 15.8218C134.079 15.7501 134.063 15.6795 134.04 15.6113C133.9 15.2448 133.639 14.9355 133.3 14.7335C132.913 14.4678 132.451 14.3278 131.98 14.3328C131.803 14.3376 131.629 14.3732 131.464 14.4381C131.282 14.5051 131.104 14.5848 130.933 14.6767C130.735 14.7786 130.544 14.8867 130.362 15.001C130.014 14.7506 129.648 14.5273 129.265 14.3331C128.87 14.15 128.462 13.9969 128.044 13.8751C127.541 13.7302 127.019 13.6593 126.495 13.6647C125.535 13.6373 124.581 13.83 123.708 14.2276C122.974 14.577 122.325 15.0781 121.804 15.6971C121.298 16.3068 120.908 17.0019 120.652 17.749C120.389 18.4994 120.215 19.2776 120.133 20.0679C120.073 20.6348 120.055 21.2052 120.077 21.7747C119.872 21.9194 119.639 22.0788 119.379 22.2529C118.96 22.5335 118.486 22.8294 117.956 23.1405C117.425 23.4516 116.872 23.741 116.295 24.0086C115.716 24.2764 115.116 24.4964 114.5 24.6663C113.91 24.8339 113.3 24.9205 112.686 24.9238C112.191 24.9365 111.7 24.8281 111.258 24.6082C110.88 24.4206 110.574 24.1157 110.387 23.74C111.697 23.2235 112.956 22.5879 114.147 21.8412C114.967 21.3335 115.707 20.7097 116.345 19.9898C116.798 19.4841 117.108 18.8684 117.244 18.2054C117.343 17.6451 117.307 17.0694 117.138 16.5258C116.894 15.6826 116.383 14.9397 115.679 14.4073C114.912 13.8741 113.988 13.6061 113.051 13.6444C112.125 13.63 111.204 13.7786 110.331 14.0835C109.574 14.3521 108.868 14.7456 108.244 15.2475C107.661 15.7209 107.16 16.2849 106.76 16.9175C106.374 17.5205 106.072 18.1721 105.861 18.8547C105.662 19.4952 105.555 20.1601 105.542 20.83C105.533 21.2207 105.562 21.6112 105.629 21.9965C105.6 22.0051 105.572 22.0143 105.543 22.0228C104.994 22.1773 104.425 22.2543 103.854 22.2516C103.687 22.253 103.521 22.237 103.357 22.204C103.191 22.164 103.042 22.0739 102.93 21.9462C103.076 21.5166 103.171 21.0714 103.213 20.6198C103.265 20.1318 103.29 19.6412 103.288 19.1504C103.288 18.7198 103.264 18.2895 103.218 17.8613C103.196 17.6042 103.154 17.3491 103.093 17.0984C102.928 16.5608 102.661 16.059 102.308 15.6195C101.657 14.8134 100.788 14.2076 99.8021 13.873C99.389 13.7283 98.955 13.6511 98.5169 13.6441C97.9801 13.6404 97.4457 13.7144 96.9305 13.8638C96.4515 14.0046 95.9893 14.1965 95.5521 14.4362C95.1319 14.6679 94.7334 14.9361 94.3613 15.2378C94.005 15.527 93.6656 15.8361 93.3447 16.1635C93.7196 14.3442 94.0364 12.5027 94.2952 10.6391C94.554 8.7756 94.8725 6.94028 95.251 5.1332C95.3282 4.86145 95.3821 4.58372 95.4121 4.30297C95.4479 4.02447 95.4243 3.74163 95.3428 3.47274C95.2321 3.13398 95.0143 2.83954 94.7216 2.63303C94.3198 2.37877 93.8466 2.25839 93.371 2.28947C93.1498 2.28803 92.93 2.32361 92.7208 2.3947C92.5275 2.45986 92.3466 2.5566 92.1855 2.68091C92.0367 2.79584 91.9082 2.93453 91.8053 3.09129C91.7092 3.23515 91.6458 3.39797 91.6195 3.56849L89.9097 15.9549C89.8601 16.286 89.8236 16.5564 89.8 16.7659C89.7765 16.9755 89.7578 17.1597 89.744 17.3184C89.7302 17.4778 89.7175 17.6305 89.7058 17.7764C89.6941 17.9223 89.6809 18.0941 89.6662 18.2917C89.6517 18.4892 89.6308 18.7278 89.6036 19.0075C89.5763 19.2872 89.5393 19.6371 89.4926 20.0571C89.4572 20.4165 89.4395 20.7827 89.4395 21.1557C89.0658 21.5182 88.6526 21.8804 88.1999 22.2424C87.6546 22.6777 87.0851 23.0823 86.494 23.4544C85.9139 23.8233 85.3031 24.1425 84.6682 24.4085C84.5685 24.5064 84.4439 24.5756 84.3077 24.6089C84.209 24.6271 84.109 24.6367 84.0087 24.6376C83.8833 24.6434 83.7602 24.6026 83.6635 24.5232C83.5791 24.4527 83.5165 24.3601 83.4828 24.2559C83.4401 24.1423 83.4204 24.0214 83.4249 23.9003C83.4295 23.7791 83.4582 23.66 83.5093 23.5499C83.5647 23.3208 83.6497 23.0314 83.7642 22.6817C83.8787 22.332 84.0044 21.9472 84.1412 21.5271C84.2778 21.1075 84.4087 20.659 84.5339 20.1818C84.6599 19.7013 84.7567 19.2138 84.8238 18.7218C84.8918 18.2286 84.9184 17.7307 84.9034 17.2331C84.8894 16.7474 84.8086 16.2659 84.6632 15.8018C84.488 15.1197 84.0572 14.5293 83.4583 14.1508C82.8947 13.8249 82.2524 13.6567 81.5998 13.6641C80.9802 13.6667 80.3647 13.7632 79.7745 13.9503C79.1735 14.136 78.5933 14.3823 78.043 14.6854C77.5296 14.9648 77.052 15.3044 76.6204 15.6968C76.2645 16.0056 75.9705 16.3779 75.7536 16.7943C75.7876 16.5925 75.794 16.3871 75.7727 16.1835C75.7529 16.0023 75.7157 15.8234 75.6617 15.6492C75.5525 15.2565 75.3147 14.9108 74.9858 14.6664C74.718 14.4601 74.3912 14.3431 74.0523 14.3323C73.6767 14.3336 73.3159 14.4769 73.0434 14.733C72.7126 15.0606 72.5084 15.4929 72.4664 15.9544C72.438 16.1522 72.403 16.3698 72.3634 16.6049C72.2999 16.6239 72.2447 16.6637 72.207 16.7178C72.1008 16.9088 71.9657 17.141 71.8016 17.4144C71.6375 17.6878 71.4497 17.9772 71.238 18.2825C71.0268 18.5878 70.796 18.8932 70.5456 19.1988C70.3073 19.492 70.0465 19.7664 69.7653 20.0195C69.5148 20.2475 69.2386 20.446 68.9422 20.6112C68.6921 20.756 68.4088 20.8349 68.1192 20.8403C67.9252 20.8402 67.7326 20.8079 67.5494 20.7448C67.3481 20.6727 67.1629 20.5626 67.0041 20.4204C67.0413 19.9086 67.0335 19.3946 66.981 18.8841C66.9383 18.4409 66.8516 18.003 66.7221 17.5767C66.5155 16.885 66.1532 16.2487 65.6625 15.7158C65.2106 15.2298 64.6815 14.8204 64.0961 14.5038C63.5452 14.2062 62.9544 13.9878 62.3414 13.8551C61.8066 13.7353 61.2606 13.6712 60.7123 13.6641C59.7148 13.6386 58.7232 13.8241 57.8037 14.2082C57.0384 14.5388 56.3527 15.0267 55.7918 15.6395C55.2624 16.2271 54.847 16.9065 54.5665 17.6435C54.2867 18.3696 54.0927 19.1253 53.9883 19.8956C53.8878 20.626 53.8664 21.3649 53.9243 22.0998C53.9657 22.7206 54.0757 23.3351 54.2524 23.9321C54.4623 24.6338 54.8185 25.284 55.298 25.8406C55.7267 26.3358 56.2286 26.7637 56.7866 27.1099C57.2761 27.4154 57.8072 27.6499 58.3637 27.8062C58.7919 27.9325 59.2348 28.0032 59.6814 28.0167C60.5528 28.0277 61.421 27.9087 62.2567 27.6637C62.9848 27.4465 63.6728 27.1145 64.2944 26.6806C64.8789 26.2691 65.3857 25.7587 65.7915 25.173C66.2045 24.5727 66.529 23.9172 66.7553 23.2263C67.1036 23.4355 67.4763 23.6021 67.8651 23.7224C68.196 23.8221 68.5398 23.8735 68.8856 23.8753C69.3619 23.8786 69.828 23.7388 70.2224 23.4744C70.6318 23.2015 71.0012 22.8739 71.3203 22.501C71.3269 22.4934 71.3328 22.4855 71.3394 22.4779C71.2656 22.9514 71.2 23.4065 71.1453 23.8369C71.0641 24.4733 71.0099 25.0332 70.9828 25.5165C70.946 25.8674 70.9667 26.2218 71.0441 26.5662C71.172 26.9723 71.4196 27.3313 71.7552 27.5968C72.0891 27.8733 72.5116 28.0225 72.9467 28.0177C73.1281 28.0324 73.3104 28.0027 73.4774 27.9311C73.6445 27.8595 73.7912 27.7484 73.9046 27.6074C74.1237 27.2972 74.2781 26.9469 74.3589 26.5769C74.4646 26.1362 74.5456 25.6901 74.6016 25.2406C74.6583 24.7855 74.7513 24.3356 74.8795 23.895C75.0934 23.2717 75.3451 22.5655 75.6346 21.7765C75.9195 20.9985 76.2755 20.2479 76.6979 19.5339C77.0917 18.857 77.6012 18.2531 78.2038 17.7493C78.7958 17.2635 79.5451 17.006 80.3135 17.0243C80.5173 17.0191 80.7155 17.0907 80.8681 17.2247C81.017 17.3548 81.1267 17.5233 81.1849 17.7114C81.2551 17.9864 81.2603 18.2738 81.2 18.5511C81.142 18.8947 81.057 19.2859 80.9451 19.7249C80.8332 20.1639 80.7072 20.6286 80.5668 21.1191C80.4263 21.6091 80.3028 22.1022 80.1964 22.5983C80.0928 23.0767 80.0207 23.5612 79.9806 24.0489C79.9404 24.4836 79.9716 24.9218 80.073 25.3466C80.0921 25.4487 80.112 25.5407 80.1316 25.6233C80.1513 25.7059 80.1752 25.792 80.2031 25.8809C80.372 26.4848 80.7076 27.03 81.1721 27.4553C81.6387 27.8424 82.2343 28.0432 82.8424 28.0183C83.0896 28.0165 83.3361 27.991 83.5783 27.942C83.8639 27.8841 84.1453 27.8077 84.4208 27.7131C85.2006 27.4765 85.9581 27.1731 86.6849 26.8066C87.2801 26.4992 87.8513 26.1484 88.3939 25.757C88.9116 25.3812 89.4073 24.9766 89.8786 24.545L89.9848 24.4487C90.1475 24.8868 90.3512 25.3089 90.5933 25.7094C90.898 26.2139 91.2845 26.6652 91.7374 27.0452C92.2112 27.4381 92.7514 27.745 93.333 27.9517C94.0038 28.1845 94.711 28.2976 95.4217 28.2858C96.7114 28.3195 97.9862 28.0062 99.1105 27.3793C100.224 26.6884 101.115 25.6984 101.682 24.5245C102.007 24.762 102.37 24.9427 102.756 25.0588C103.142 25.1738 103.543 25.2317 103.946 25.2306C104.562 25.2332 105.177 25.1659 105.778 25.0301C106.122 24.9504 106.462 24.8534 106.796 24.7394C107.202 25.354 107.691 25.9109 108.249 26.3949C108.814 26.8858 109.454 27.2853 110.144 27.5787C110.836 27.8719 111.581 28.0213 112.333 28.0177C113.219 28.0194 114.102 27.9006 114.955 27.6647C115.776 27.4401 116.574 27.1431 117.341 26.7771C118.055 26.4369 118.741 26.0445 119.396 25.6033C119.859 25.2894 120.276 24.9875 120.646 24.6976C120.836 25.1625 121.101 25.594 121.429 25.9756C121.825 26.4365 122.288 26.8356 122.804 27.1594C123.259 27.447 123.754 27.6685 124.273 27.817C124.671 27.9371 125.084 28.0045 125.501 28.0175C126.128 28.0247 126.746 27.8706 127.294 27.5703C127.841 27.2668 128.337 26.8801 128.763 26.4244C129.204 25.9542 129.59 25.4355 129.911 24.8783C130.223 24.3451 130.502 23.7938 130.747 23.2276C130.73 23.4732 130.744 23.7199 130.787 23.9623C130.832 24.2305 130.896 24.4952 130.979 24.7544C131.111 25.17 131.289 25.57 131.51 25.9472C131.729 26.3272 131.998 26.6769 132.31 26.9873C132.613 27.2887 132.962 27.54 133.345 27.7318C133.732 27.9239 134.159 28.022 134.591 28.018C135.107 28.0144 135.616 27.8936 136.078 27.665C136.589 27.4164 137.071 27.1124 137.515 26.7584C137.989 26.3837 138.432 25.972 138.839 25.5273C138.989 25.3645 139.134 25.2022 139.275 25.0401C139.267 25.193 139.262 25.34 139.257 25.4797C139.231 25.8383 139.261 26.1988 139.345 26.5485C139.478 26.9633 139.735 27.3289 140.08 27.5982C140.427 27.8851 140.865 28.0406 141.317 28.0369C141.495 28.0512 141.674 28.019 141.836 27.9437C141.997 27.8684 142.137 27.7526 142.239 27.6076C142.446 27.2839 142.59 26.9247 142.664 26.5485C142.761 26.0957 142.825 25.6365 142.856 25.1745C142.887 24.7119 142.954 24.2525 143.057 23.8003C143.185 23.3932 143.325 22.9416 143.477 22.4452C143.628 21.9489 143.801 21.4491 143.995 20.9458C144.188 20.4454 144.413 19.9577 144.669 19.4858C144.911 19.0344 145.209 18.6145 145.555 18.2357C145.878 17.882 146.259 17.5851 146.683 17.3578C147.119 17.1308 147.606 17.016 148.098 17.024C148.304 17.0199 148.505 17.0913 148.662 17.2245C148.819 17.358 148.935 17.5336 148.995 17.7303C149.054 17.9119 149.075 18.1034 149.057 18.2933C149.036 18.491 148.995 18.6861 148.933 18.8754C148.713 19.6008 148.462 20.3101 148.181 21.0034C147.9 21.6966 147.654 22.3806 147.443 23.0553C147.239 23.6961 147.096 24.3542 147.014 25.0212C146.938 25.65 146.999 26.2877 147.191 26.8916C147.261 27.0639 147.366 27.2199 147.499 27.3496C147.642 27.4913 147.804 27.6133 147.979 27.7123C148.158 27.8137 148.348 27.8938 148.546 27.9509C148.717 28.004 148.895 28.0328 149.074 28.0367C149.252 28.0509 149.431 28.0188 149.593 27.9435C149.755 27.8682 149.894 27.7523 149.997 27.6074C150.204 27.2837 150.348 26.9245 150.422 26.5483C150.518 26.0953 150.582 25.6362 150.614 25.1743C150.645 24.7117 150.712 24.2522 150.815 23.8C150.942 23.393 151.082 22.9413 151.233 22.445C151.385 21.9487 151.558 21.4488 151.752 20.9455C151.945 20.445 152.171 19.9573 152.427 19.4855C152.669 19.0341 152.966 18.6142 153.312 18.2354C153.635 17.8817 154.017 17.5849 154.44 17.3576C154.876 17.1305 155.363 17.0157 155.855 17.0237C156.062 17.0196 156.262 17.091 156.419 17.2242C156.577 17.3578 156.693 17.5333 156.753 17.7301C156.812 17.9116 156.833 18.1031 156.815 18.293C156.793 18.4907 156.752 18.6858 156.69 18.8752C156.541 19.3751 156.347 19.8606 156.109 20.3257C155.862 20.8139 155.64 21.3144 155.445 21.8252C155.247 22.3447 155.115 22.8863 155.05 23.4378C154.988 24.0432 155.056 24.6547 155.251 25.2319C155.485 26.1026 156.035 26.857 156.796 27.3503C157.552 27.8044 158.423 28.0362 159.307 28.0185C160.019 28.0218 160.725 27.8785 161.378 27.5976C162.045 27.3073 162.67 26.932 163.239 26.4812C163.85 25.9985 164.415 25.462 164.928 24.8781C165.462 24.2739 165.971 23.641 166.455 22.9793C166.707 22.7349 166.882 22.4233 166.959 22.0822C167.018 21.8038 167.007 21.5154 166.926 21.2425" fill="#A3A3A3"/>
<path d="M43.2595 13.4403C41.4398 13.4411 39.695 14.158 38.4087 15.4333C37.1225 16.7087 36.4001 18.4381 36.4006 20.2411C36.4006 20.2458 36.4006 20.2505 36.4006 20.2553V20.266C36.4055 20.3515 36.4433 20.4318 36.5061 20.4905C36.5689 20.5492 36.652 20.5819 36.7383 20.5817H49.7818C49.8681 20.5819 49.9513 20.5493 50.0141 20.4906C50.0769 20.4319 50.1146 20.3515 50.1195 20.266V20.2553C50.1195 20.2505 50.1195 20.2458 50.1195 20.2411C50.1197 19.3482 49.9425 18.4641 49.5978 17.6391C49.2532 16.8141 48.748 16.0645 48.111 15.433C47.474 14.8015 46.7177 14.3004 45.8853 13.9585C45.0529 13.6166 44.1606 13.4405 43.2595 13.4403Z" fill="#A3A3A3"/>
<path d="M31.8582 27.8342C31.8582 27.9161 31.8337 27.9961 31.7878 28.0641C31.7419 28.1322 31.6767 28.1852 31.6004 28.2165C31.5241 28.2478 31.4401 28.256 31.3591 28.2401C31.2781 28.2241 31.2037 28.1847 31.1453 28.1268C31.0869 28.0689 31.0471 27.9952 31.031 27.9149C31.0149 27.8347 31.0231 27.7515 31.0547 27.6758C31.0864 27.6002 31.1399 27.5356 31.2086 27.4901C31.2772 27.4447 31.358 27.4204 31.4406 27.4204C31.5513 27.4204 31.6576 27.464 31.7359 27.5416C31.8142 27.6192 31.8582 27.7245 31.8582 27.8342Z" fill="#A3A3A3"/>
<path d="M49.3277 25.5444H35.332C35.2608 25.5445 35.1909 25.5629 35.129 25.5978C35.0671 25.6327 35.0154 25.6829 34.979 25.7435C34.9426 25.8041 34.9226 25.873 34.9211 25.9435C34.9196 26.014 34.9366 26.0837 34.9704 26.1458L34.9773 26.1587C35.0125 26.2233 35.0648 26.2773 35.1285 26.3148C35.1922 26.3524 35.265 26.3722 35.3391 26.372H49.3206C49.3947 26.3721 49.4675 26.3524 49.5312 26.3148C49.5949 26.2772 49.6472 26.2233 49.6824 26.1587L49.6893 26.1458C49.723 26.0837 49.74 26.014 49.7384 25.9436C49.7369 25.8731 49.7169 25.8042 49.6805 25.7436C49.6441 25.683 49.5924 25.6329 49.5306 25.5979C49.4688 25.563 49.3989 25.5446 49.3277 25.5444Z" fill="#A3A3A3"/>
<path d="M51.1875 21.7926H35.3314C35.2754 21.7927 35.22 21.8041 35.1687 21.8262C35.1173 21.8482 35.071 21.8804 35.0326 21.9207C34.9942 21.9611 34.9645 22.0088 34.9453 22.0609C34.9261 22.113 34.9178 22.1684 34.9209 22.2238C34.9209 22.228 34.9209 22.2324 34.9209 22.2367C34.9268 22.3405 34.9727 22.4381 35.049 22.5094C35.1254 22.5808 35.2264 22.6204 35.3314 22.6202H51.1859C51.2908 22.6204 51.3918 22.5807 51.4682 22.5094C51.5445 22.4381 51.5904 22.3405 51.5963 22.2367C51.5963 22.2324 51.5963 22.228 51.5963 22.2238C51.5995 22.1685 51.5912 22.1132 51.5721 22.0612C51.553 22.0092 51.5235 21.9616 51.4852 21.9213C51.447 21.881 51.4009 21.8488 51.3497 21.8266C51.2985 21.8045 51.2433 21.7929 51.1875 21.7926Z" fill="#A3A3A3"/>
<path d="M45.2172 31.1725H38.0716C37.979 31.1727 37.8892 31.2039 37.8167 31.261C37.7442 31.318 37.6932 31.3976 37.6721 31.4869C37.6509 31.5763 37.6607 31.6701 37.7 31.7531C37.7392 31.8362 37.8056 31.9038 37.8884 31.9449L37.915 31.9577C37.9719 31.9857 38.0346 32.0002 38.0982 32.0001H45.1915C45.2551 32.0003 45.3179 31.9858 45.3749 31.9577L45.4015 31.9449C45.4844 31.9037 45.5508 31.8361 45.5901 31.7529C45.6293 31.6697 45.6391 31.5758 45.6177 31.4864C45.5964 31.3971 45.5453 31.3174 45.4726 31.2605C45.3999 31.2035 45.3099 31.1725 45.2172 31.1725Z" fill="#A3A3A3"/>
<path d="M49.5842 29.2965H42.4372C42.3446 29.2967 42.2548 29.3279 42.1823 29.385C42.1098 29.442 42.0588 29.5217 42.0376 29.611C42.0165 29.7003 42.0263 29.7941 42.0656 29.8772C42.1048 29.9603 42.1712 30.0278 42.254 30.0689L42.2806 30.0818C42.3376 30.1098 42.4004 30.1243 42.464 30.1241H49.5576C49.6213 30.1243 49.6841 30.1098 49.7411 30.0818L49.7676 30.0689C49.8504 30.0278 49.9169 29.9602 49.9561 29.8771C49.9954 29.794 50.0052 29.7002 49.984 29.6108C49.9628 29.5215 49.9117 29.4419 49.8392 29.3849C49.7666 29.3278 49.6768 29.2967 49.5842 29.2965Z" fill="#A3A3A3"/>
<path d="M39.8393 28.118L39.827 28.1051C39.7728 28.0469 39.7369 27.9744 39.7236 27.8963C39.7103 27.8183 39.7203 27.738 39.7523 27.6655C39.7843 27.5929 39.8369 27.5312 39.9038 27.4878C39.9706 27.4444 40.0487 27.4212 40.1286 27.4211H51.7261C51.8061 27.4212 51.8842 27.4444 51.951 27.4878C52.0179 27.5312 52.0705 27.5929 52.1025 27.6655C52.1345 27.738 52.1445 27.8183 52.1312 27.8963C52.1179 27.9744 52.082 28.0469 52.0278 28.1051L52.0155 28.118C51.977 28.1589 51.9303 28.1916 51.8785 28.214C51.8267 28.2364 51.7707 28.2481 51.7142 28.2482H40.1409C40.0843 28.2481 40.0283 28.2365 39.9764 28.2141C39.9246 28.1917 39.8779 28.159 39.8393 28.118Z" fill="#A3A3A3"/>
<path d="M32.9321 27.4204H38.4702C38.5628 27.4206 38.6526 27.4518 38.7251 27.5089C38.7976 27.5659 38.8486 27.6456 38.8697 27.7349C38.8909 27.8242 38.8811 27.918 38.8418 28.0011C38.8026 28.0841 38.7362 28.1517 38.6534 28.1928L38.6268 28.2057C38.5699 28.2337 38.5072 28.2482 38.4436 28.248H32.9584C32.8948 28.2482 32.832 28.2337 32.775 28.2057L32.7484 28.1928C32.6656 28.1517 32.5992 28.0841 32.5599 28.0009C32.5206 27.9178 32.5108 27.824 32.5321 27.7346C32.5533 27.6453 32.6044 27.5656 32.677 27.5086C32.7496 27.4516 32.8395 27.4205 32.9321 27.4204Z" fill="#A3A3A3"/>
<path d="M34.2581 22.2073C34.258 22.289 34.2335 22.3689 34.1876 22.4369C34.1417 22.5049 34.0766 22.5578 34.0003 22.5891C33.9241 22.6204 33.8401 22.6285 33.7592 22.6126C33.6783 22.5966 33.6039 22.5572 33.5456 22.4994C33.4872 22.4416 33.4475 22.3679 33.4314 22.2877C33.4153 22.2075 33.4235 22.1244 33.4551 22.0489C33.4866 21.9733 33.5401 21.9087 33.6087 21.8633C33.6773 21.8178 33.7579 21.7935 33.8404 21.7935C33.9512 21.7935 34.0574 21.837 34.1357 21.9146C34.2141 21.9923 34.2581 22.0975 34.2581 22.2073Z" fill="#A3A3A3"/>
<path d="M44.0992 24.1931L44.1026 24.1802C44.119 24.1198 44.1211 24.0564 44.1087 23.995C44.0964 23.9336 44.0699 23.8759 44.0314 23.8263C43.9929 23.7768 43.9433 23.7366 43.8866 23.7091C43.8299 23.6815 43.7676 23.6673 43.7044 23.6675H32.1064C32.0432 23.6673 31.9809 23.6815 31.9242 23.7091C31.8675 23.7366 31.8179 23.7768 31.7794 23.8263C31.7409 23.8759 31.7144 23.9336 31.702 23.995C31.6897 24.0564 31.6918 24.1198 31.7081 24.1802C31.7081 24.1844 31.7105 24.1889 31.7116 24.1931C31.7352 24.2798 31.787 24.3564 31.859 24.411C31.931 24.4656 32.0191 24.4952 32.1098 24.4951H43.702C43.7927 24.4951 43.8808 24.4656 43.9528 24.411C44.0248 24.3564 44.0766 24.2798 44.1003 24.1931" fill="#A3A3A3"/>
<path d="M31.0325 24.0824C31.0324 24.1642 31.0079 24.2441 30.962 24.312C30.9161 24.38 30.8509 24.433 30.7746 24.4642C30.6984 24.4955 30.6145 24.5037 30.5335 24.4877C30.4526 24.4717 30.3782 24.4323 30.3199 24.3744C30.2616 24.3166 30.2218 24.2429 30.2058 24.1627C30.1897 24.0825 30.1979 23.9993 30.2295 23.9238C30.2611 23.8482 30.3146 23.7837 30.3833 23.7382C30.4519 23.6928 30.5326 23.6686 30.6151 23.6686C30.7258 23.6686 30.832 23.7123 30.9103 23.7899C30.9885 23.8675 31.0325 23.9727 31.0325 24.0824Z" fill="#A3A3A3"/>
<path d="M34.2581 25.9582C34.258 26.04 34.2335 26.1199 34.1876 26.1879C34.1417 26.2559 34.0766 26.3088 34.0003 26.3401C33.9241 26.3714 33.8401 26.3795 33.7592 26.3636C33.6783 26.3476 33.6039 26.3082 33.5456 26.2504C33.4872 26.1926 33.4475 26.1189 33.4314 26.0387C33.4153 25.9585 33.4235 25.8754 33.4551 25.7998C33.4866 25.7243 33.5401 25.6597 33.6087 25.6142C33.6773 25.5688 33.7579 25.5445 33.8404 25.5444C33.9512 25.5444 34.0574 25.588 34.1357 25.6656C34.2141 25.7432 34.2581 25.8485 34.2581 25.9582Z" fill="#A3A3A3"/>
<path d="M41.3638 29.7103C41.3638 29.7922 41.3393 29.8722 41.2934 29.9402C41.2475 30.0083 41.1823 30.0613 41.106 30.0926C41.0297 30.1239 40.9457 30.1321 40.8647 30.1161C40.7837 30.1002 40.7093 30.0608 40.6509 30.0029C40.5925 29.945 40.5527 29.8713 40.5366 29.791C40.5205 29.7108 40.5287 29.6276 40.5603 29.5519C40.592 29.4763 40.6455 29.4117 40.7142 29.3662C40.7828 29.3208 40.8636 29.2965 40.9462 29.2965C41.0569 29.2965 41.1632 29.3401 41.2415 29.4177C41.3198 29.4953 41.3638 29.6006 41.3638 29.7103Z" fill="#A3A3A3"/>
<path d="M36.9979 31.5852C36.9979 31.667 36.9734 31.7469 36.9275 31.8149C36.8816 31.8828 36.8164 31.9358 36.7401 31.9671C36.6638 31.9983 36.5799 32.0065 36.499 31.9905C36.418 31.9745 36.3437 31.9351 36.2854 31.8772C36.227 31.8194 36.1873 31.7457 36.1712 31.6655C36.1551 31.5853 36.1634 31.5021 36.195 31.4266C36.2266 31.3511 36.2801 31.2865 36.3487 31.2411C36.4173 31.1956 36.498 31.1714 36.5806 31.1714C36.6913 31.1715 36.7974 31.2151 36.8757 31.2927C36.954 31.3703 36.9979 31.4755 36.9979 31.5852Z" fill="#A3A3A3"/>
</g>
<defs>
<clipPath id="clip0_1173_2682">
<rect width="167" height="32" fill="white"/>
</clipPath>
</defs>
</svg>
