<svg width="159" height="40" viewBox="0 0 159 40" fill="none" xmlns="http://www.w3.org/2000/svg">
<path d="M67.0359 15.4578C67.7324 15.8904 68.3418 16.4671 68.7191 17.2458C69.1544 18.0245 69.3575 18.9762 69.3575 20.0432C69.3575 21.1103 69.1544 22.0043 68.6611 22.7829C68.2258 23.5616 67.5873 24.1672 66.7748 24.5133C65.9622 24.9459 65.0045 25.1477 63.9598 25.1477C63.3794 25.1477 62.8281 25.0324 62.2767 24.8305C61.7253 24.6863 61.261 24.3691 60.8837 23.9942V29.4736H57.7496V15.0252H60.4484L60.7096 16.1787C61.8994 15.2271 63.2053 14.7656 64.5402 14.7656C65.4689 14.7656 66.3395 14.9963 67.0359 15.4578ZM65.3238 22.0043C65.8751 21.5428 66.1363 20.9084 66.1363 20.1009C66.1363 19.2934 65.8751 18.6878 65.3818 18.1398C64.8885 17.6207 64.25 17.39 63.5536 17.39C62.9732 17.39 62.4218 17.5054 61.9865 17.7649C61.5512 17.9668 61.232 18.3417 60.9708 18.832V21.1968C61.1449 21.6582 61.4641 22.0331 61.8414 22.2927C62.2767 22.5522 62.77 22.7253 63.3504 22.7253C64.1339 22.7541 64.7724 22.4657 65.3238 22.0043Z" fill="#8D8D8D"/>
<path d="M71.2148 17.3035C71.7082 16.5537 72.3466 15.9193 73.2172 15.5155C74.0878 15.0829 75.0455 14.8234 76.1482 14.8234C77.251 14.8234 78.2086 15.0252 79.0792 15.5155C79.8918 15.9481 80.5302 16.5826 81.0236 17.3612C81.5169 18.1399 81.72 19.0051 81.72 19.9856C81.72 20.995 81.5169 21.8313 81.0236 22.61C80.5302 23.3886 79.9498 24.0231 79.0792 24.4557C78.2667 24.8883 77.251 25.1478 76.1482 25.1478C75.0455 25.1478 74.0878 24.9459 73.2172 24.5133C72.3466 24.0808 71.7082 23.504 71.2148 22.7253C70.7795 21.9467 70.5184 21.0238 70.5184 19.9856C70.4893 19.0051 70.7795 18.111 71.2148 17.3035ZM74.378 21.889C74.8133 22.4081 75.3937 22.6388 76.1192 22.6388C76.8447 22.6388 77.4251 22.3792 77.8604 21.889C78.2957 21.4275 78.4988 20.7354 78.4988 19.9856C78.4988 19.2069 78.2957 18.5725 77.8604 18.0822C77.367 17.5631 76.8447 17.3035 76.0902 17.3035C75.3937 17.3035 74.8423 17.5631 74.349 18.0534C73.9137 18.5725 73.7105 19.2069 73.7105 20.0144C73.6815 20.7354 73.9137 21.3699 74.378 21.889Z" fill="#8D8D8D"/>
<path d="M86.7695 7.55579V24.917H83.6353V7.55579H86.7695Z" fill="#8D8D8D"/>
<path d="M99.6253 15.3136L93.2409 29.5602H90.2229L92.6025 24.4556L88.0754 15.3136H91.6448L94.2276 21.0238L96.8104 15.3136H99.6253Z" fill="#8D8D8D"/>
<path d="M111.64 15.3135V24.917C111.64 25.811 111.378 26.6473 110.827 27.3972C110.276 28.147 109.579 28.7238 108.65 29.1275C107.722 29.5601 106.764 29.762 105.69 29.762C104.878 29.762 104.181 29.6466 103.572 29.5024C102.992 29.3006 102.498 29.0698 102.121 28.868C101.686 28.6084 101.25 28.2912 100.757 27.8586L102.585 25.7533C103.021 26.1859 103.514 26.5032 103.949 26.705C104.385 26.9069 104.965 27.0799 105.632 27.0799C106.445 27.0799 107.083 26.8781 107.635 26.5032C108.186 26.1282 108.447 25.5515 108.447 24.8593V23.475C108.128 23.9365 107.693 24.3691 107.054 24.6863C106.416 25.0035 105.661 25.1477 104.791 25.1477C103.92 25.1477 103.05 24.9458 102.295 24.4556C101.541 24.023 100.931 23.3885 100.467 22.6099C100.032 21.8312 99.7704 20.966 99.7704 20.0143C99.7704 19.0626 99.9735 18.1686 100.467 17.39C100.96 16.6113 101.541 15.9768 102.353 15.4866C103.108 15.0251 103.92 14.7944 104.791 14.7944C105.603 14.7944 106.3 14.9098 106.967 15.1117C107.606 15.3135 108.099 15.6308 108.418 16.0057L108.738 15.2559H111.64V15.3135ZM108.447 21.2256V18.8608C108.244 18.3993 107.896 18.0244 107.432 17.7649C106.938 17.5053 106.416 17.3323 105.748 17.3323C104.994 17.3323 104.356 17.5918 103.804 18.0821C103.253 18.5435 102.992 19.178 102.992 19.9855C102.992 20.7353 103.253 21.3986 103.804 21.9466C104.356 22.4657 104.994 22.7252 105.748 22.7252C106.996 22.6387 107.896 22.1484 108.447 21.2256Z" fill="#8D8D8D"/>
<path d="M114.222 17.3035C114.716 16.5248 115.354 15.9192 116.225 15.4578C117.095 15.0252 118.053 14.7656 119.156 14.7656C120.258 14.7656 121.216 14.9675 122.087 15.4578C122.899 15.8904 123.538 16.5248 124.031 17.3035C124.466 18.0821 124.728 18.9473 124.728 19.9278C124.728 20.9372 124.524 21.7736 124.031 22.5522C123.596 23.3309 122.957 23.9653 122.087 24.3979C121.274 24.8305 120.258 25.0901 119.156 25.0901C118.053 25.0901 117.095 24.8882 116.225 24.4556C115.354 24.023 114.716 23.4462 114.222 22.6676C113.729 21.8889 113.526 20.9661 113.526 19.8702C113.526 19.005 113.758 18.111 114.222 17.3035ZM117.357 21.8889C117.792 22.408 118.372 22.6387 119.098 22.6387C119.794 22.6387 120.404 22.3792 120.839 21.8889C121.274 21.4275 121.477 20.7353 121.477 19.9855C121.477 19.2069 121.274 18.5724 120.839 18.0821C120.404 17.6207 119.823 17.3323 119.098 17.3323C118.401 17.3323 117.85 17.5919 117.357 18.0821C116.863 18.5436 116.66 19.2357 116.66 19.9855C116.718 20.7353 116.95 21.3698 117.357 21.8889Z" fill="#8D8D8D"/>
<path d="M135.813 15.6308C136.452 16.1499 136.742 16.842 136.771 17.6784V24.917H133.579V18.8608C133.521 17.9091 133.027 17.4477 132.128 17.4477C131.431 17.4477 130.822 17.7649 130.386 18.457C129.951 19.1492 129.748 19.9855 129.748 20.9949V24.9459H126.614V15.3136H129.487L129.69 16.842C130.067 16.2076 130.561 15.7462 131.199 15.3712C131.837 14.9963 132.592 14.8521 133.463 14.8521C134.391 14.8233 135.204 15.0829 135.813 15.6308Z" fill="#8D8D8D"/>
<path d="M44.3424 15.1405C43.791 14.8233 43.0946 14.8233 42.5142 15.1405L38.3063 17.563L35.4333 19.1492L31.2254 21.5717C30.674 21.8889 29.9776 21.8889 29.3972 21.5717L26.0599 19.6683C25.5085 19.3511 25.1312 18.7743 25.1312 18.1398V14.4196C25.1312 13.7851 25.4505 13.2083 26.0599 12.8911L29.3681 11.0454C29.9195 10.7281 30.616 10.7281 31.1964 11.0454L34.5047 12.8911C35.056 13.2083 35.4333 13.7851 35.4333 14.4196V16.8421L38.3063 15.1982V12.7757C38.3063 12.1413 37.9871 11.5645 37.3776 11.2472L31.2835 7.7577C30.7321 7.44047 30.0356 7.44047 29.4552 7.7577L23.1579 11.2472C22.5775 11.5645 22.2292 12.1413 22.2292 12.7757V19.7837C22.2292 20.4181 22.5485 20.9949 23.1579 21.3121L29.3681 24.8017C29.9195 25.1189 30.616 25.1189 31.1964 24.8017L35.4043 22.4369L38.2772 20.793L42.4851 18.4282C43.0365 18.111 43.733 18.111 44.3134 18.4282L47.6217 20.2739C48.173 20.5912 48.5503 21.1679 48.5503 21.8024V25.5515C48.5503 26.186 48.2311 26.7628 47.6217 27.08L44.3134 28.9834C43.762 29.3006 43.0655 29.3006 42.4851 28.9834L39.1769 27.1377C38.6255 26.8204 38.2482 26.2436 38.2482 25.6092V23.1867L35.4043 24.8017V27.2242C35.4043 27.8586 35.7235 28.4354 36.3329 28.7527L42.5432 32.2422C43.0946 32.5594 43.791 32.5594 44.3714 32.2422L50.5817 28.7527C51.1331 28.4354 51.5103 27.8586 51.5103 27.2242V20.2162C51.5103 19.5818 51.1911 19.005 50.5817 18.6878L44.3424 15.1405Z" fill="#8D8D8D"/>
</svg>
