<svg width="417" height="35" viewBox="0 0 417 35" fill="none" xmlns="http://www.w3.org/2000/svg">
<path d="M0.523281 26V0.799998H10.1893C11.5573 0.799998 12.7933 1.142 13.8973 1.826C15.0013 2.51 15.8773 3.428 16.5253 4.58C17.1733 5.72 17.4973 6.986 17.4973 8.378C17.4973 9.518 17.2873 10.568 16.8673 11.528C16.4593 12.476 15.8833 13.298 15.1393 13.994C14.4073 14.69 13.5613 15.218 12.6013 15.578L18.6313 26H13.5733L7.74128 15.974H4.91528V26H0.523281ZM4.91528 11.582H9.68528C10.3093 11.582 10.8793 11.426 11.3953 11.114C11.9113 10.802 12.3253 10.382 12.6373 9.854C12.9493 9.326 13.1053 8.738 13.1053 8.09C13.1053 7.43 12.9493 6.836 12.6373 6.308C12.3253 5.78 11.9113 5.36 11.3953 5.048C10.8793 4.736 10.3093 4.58 9.68528 4.58H4.91528V11.582ZM28.7636 26.468C27.1076 26.468 25.5956 26.042 24.2276 25.19C22.8716 24.338 21.7856 23.192 20.9696 21.752C20.1656 20.312 19.7636 18.722 19.7636 16.982C19.7636 15.674 19.9976 14.45 20.4656 13.31C20.9336 12.158 21.5756 11.15 22.3916 10.286C23.2196 9.41 24.1796 8.726 25.2716 8.234C26.3636 7.742 27.5276 7.496 28.7636 7.496C30.1676 7.496 31.4516 7.796 32.6156 8.396C33.7916 8.984 34.7876 9.794 35.6036 10.826C36.4196 11.858 37.0136 13.034 37.3856 14.354C37.7576 15.674 37.8416 17.054 37.6376 18.494H24.4796C24.6476 19.166 24.9236 19.772 25.3076 20.312C25.6916 20.84 26.1776 21.266 26.7656 21.59C27.3536 21.902 28.0196 22.064 28.7636 22.076C29.5316 22.088 30.2276 21.908 30.8516 21.536C31.4876 21.152 32.0156 20.636 32.4356 19.988L36.9176 21.032C36.1856 22.628 35.0936 23.936 33.6416 24.956C32.1896 25.964 30.5636 26.468 28.7636 26.468ZM24.3356 15.2H33.1916C33.0596 14.48 32.7776 13.832 32.3456 13.256C31.9256 12.668 31.4036 12.2 30.7796 11.852C30.1556 11.504 29.4836 11.33 28.7636 11.33C28.0436 11.33 27.3776 11.504 26.7656 11.852C26.1536 12.188 25.6316 12.65 25.1996 13.238C24.7796 13.814 24.4916 14.468 24.3356 15.2ZM51.7966 20.582L55.7566 22.724C54.9286 23.852 53.8906 24.758 52.6426 25.442C51.3946 26.126 50.0326 26.468 48.5566 26.468C46.9006 26.468 45.3886 26.042 44.0206 25.19C42.6646 24.338 41.5786 23.198 40.7626 21.77C39.9586 20.33 39.5566 18.74 39.5566 17C39.5566 15.68 39.7906 14.45 40.2586 13.31C40.7266 12.158 41.3686 11.15 42.1846 10.286C43.0126 9.41 43.9726 8.726 45.0646 8.234C46.1566 7.742 47.3206 7.496 48.5566 7.496C50.0326 7.496 51.3946 7.838 52.6426 8.522C53.8906 9.206 54.9286 10.124 55.7566 11.276L51.7966 13.4C51.3766 12.92 50.8786 12.548 50.3026 12.284C49.7386 12.02 49.1566 11.888 48.5566 11.888C47.6926 11.888 46.9126 12.128 46.2166 12.608C45.5206 13.076 44.9686 13.7 44.5606 14.48C44.1526 15.248 43.9486 16.088 43.9486 17C43.9486 17.9 44.1526 18.74 44.5606 19.52C44.9686 20.288 45.5206 20.906 46.2166 21.374C46.9126 21.842 47.6926 22.076 48.5566 22.076C49.1806 22.076 49.7746 21.944 50.3386 21.68C50.9026 21.404 51.3886 21.038 51.7966 20.582ZM66.3456 26.468C64.6896 26.468 63.1776 26.042 61.8096 25.19C60.4536 24.338 59.3676 23.192 58.5516 21.752C57.7476 20.312 57.3456 18.722 57.3456 16.982C57.3456 15.674 57.5796 14.45 58.0476 13.31C58.5156 12.158 59.1576 11.15 59.9736 10.286C60.8016 9.41 61.7616 8.726 62.8536 8.234C63.9456 7.742 65.1096 7.496 66.3456 7.496C67.7496 7.496 69.0336 7.796 70.1976 8.396C71.3736 8.984 72.3696 9.794 73.1856 10.826C74.0016 11.858 74.5956 13.034 74.9676 14.354C75.3396 15.674 75.4236 17.054 75.2196 18.494H62.0616C62.2296 19.166 62.5056 19.772 62.8896 20.312C63.2736 20.84 63.7596 21.266 64.3476 21.59C64.9356 21.902 65.6016 22.064 66.3456 22.076C67.1136 22.088 67.8096 21.908 68.4336 21.536C69.0696 21.152 69.5976 20.636 70.0176 19.988L74.4996 21.032C73.7676 22.628 72.6756 23.936 71.2236 24.956C69.7716 25.964 68.1456 26.468 66.3456 26.468ZM61.9176 15.2H70.7736C70.6416 14.48 70.3596 13.832 69.9276 13.256C69.5076 12.668 68.9856 12.2 68.3616 11.852C67.7376 11.504 67.0656 11.33 66.3456 11.33C65.6256 11.33 64.9596 11.504 64.3476 11.852C63.7356 12.188 63.2136 12.65 62.7816 13.238C62.3616 13.814 62.0736 14.468 61.9176 15.2ZM77.7616 8H82.1536V26H77.7616V8ZM79.9936 5.678C79.3456 5.678 78.7996 5.468 78.3556 5.048C77.9116 4.616 77.6896 4.076 77.6896 3.428C77.6896 2.792 77.9116 2.258 78.3556 1.826C78.7996 1.394 79.3396 1.178 79.9756 1.178C80.6116 1.178 81.1456 1.394 81.5776 1.826C82.0216 2.258 82.2436 2.792 82.2436 3.428C82.2436 4.076 82.0276 4.616 81.5956 5.048C81.1636 5.468 80.6296 5.678 79.9936 5.678ZM97.0598 26H91.3898L84.8378 7.982H89.5178L94.2338 20.942L98.9318 7.982H103.612L97.0598 26ZM113.49 26.468C111.834 26.468 110.322 26.042 108.954 25.19C107.598 24.338 106.512 23.192 105.696 21.752C104.892 20.312 104.49 18.722 104.49 16.982C104.49 15.674 104.724 14.45 105.192 13.31C105.66 12.158 106.302 11.15 107.118 10.286C107.946 9.41 108.906 8.726 109.998 8.234C111.09 7.742 112.254 7.496 113.49 7.496C114.894 7.496 116.178 7.796 117.342 8.396C118.518 8.984 119.514 9.794 120.33 10.826C121.146 11.858 121.74 13.034 122.112 14.354C122.484 15.674 122.568 17.054 122.364 18.494H109.206C109.374 19.166 109.65 19.772 110.034 20.312C110.418 20.84 110.904 21.266 111.492 21.59C112.08 21.902 112.746 22.064 113.49 22.076C114.258 22.088 114.954 21.908 115.578 21.536C116.214 21.152 116.742 20.636 117.162 19.988L121.644 21.032C120.912 22.628 119.82 23.936 118.368 24.956C116.916 25.964 115.29 26.468 113.49 26.468ZM109.062 15.2H117.918C117.786 14.48 117.504 13.832 117.072 13.256C116.652 12.668 116.13 12.2 115.506 11.852C114.882 11.504 114.21 11.33 113.49 11.33C112.77 11.33 112.104 11.504 111.492 11.852C110.88 12.188 110.358 12.65 109.926 13.238C109.506 13.814 109.218 14.468 109.062 15.2ZM136.811 26V5.192H133.643L134.831 0.799998H141.203V26H136.811ZM154.894 26V0.799998H163.246C164.986 0.799998 166.612 1.13 168.124 1.79C169.648 2.438 170.986 3.344 172.138 4.508C173.302 5.66 174.208 6.998 174.856 8.522C175.516 10.034 175.846 11.66 175.846 13.4C175.846 15.14 175.516 16.772 174.856 18.296C174.208 19.808 173.302 21.146 172.138 22.31C170.986 23.462 169.648 24.368 168.124 25.028C166.612 25.676 164.986 26 163.246 26H154.894ZM159.286 21.608H163.246C164.362 21.608 165.412 21.398 166.396 20.978C167.392 20.546 168.268 19.958 169.024 19.214C169.78 18.458 170.374 17.588 170.806 16.604C171.238 15.608 171.454 14.54 171.454 13.4C171.454 12.26 171.238 11.198 170.806 10.214C170.374 9.23 169.78 8.36 169.024 7.604C168.268 6.848 167.398 6.26 166.414 5.84C165.43 5.408 164.374 5.192 163.246 5.192H159.286V21.608ZM178.765 26V0.799998H194.569V5.192H183.157V10.304H192.211V14.696H183.157V21.608H194.569V26H178.765ZM207.071 26L197.927 0.799998H202.589L209.879 20.87L217.187 0.799998H221.831L212.687 26H207.071ZM238.493 35H234.101V8H238.493V10.286C239.081 9.47 239.801 8.81 240.653 8.306C241.517 7.79 242.525 7.532 243.677 7.532C244.997 7.532 246.227 7.778 247.367 8.27C248.507 8.762 249.509 9.446 250.373 10.322C251.249 11.186 251.927 12.188 252.407 13.328C252.899 14.468 253.145 15.692 253.145 17C253.145 18.308 252.899 19.538 252.407 20.69C251.927 21.842 251.249 22.856 250.373 23.732C249.509 24.596 248.507 25.274 247.367 25.766C246.227 26.258 244.997 26.504 243.677 26.504C242.525 26.504 241.517 26.252 240.653 25.748C239.801 25.232 239.081 24.566 238.493 23.75V35ZM243.623 11.762C242.711 11.762 241.895 12.002 241.175 12.482C240.455 12.95 239.891 13.58 239.483 14.372C239.075 15.164 238.871 16.04 238.871 17C238.871 17.96 239.075 18.842 239.483 19.646C239.891 20.438 240.455 21.074 241.175 21.554C241.895 22.022 242.711 22.256 243.623 22.256C244.547 22.256 245.393 22.022 246.161 21.554C246.929 21.086 247.541 20.456 247.997 19.664C248.453 18.86 248.681 17.972 248.681 17C248.681 16.04 248.453 15.164 247.997 14.372C247.541 13.58 246.929 12.95 246.161 12.482C245.405 12.002 244.559 11.762 243.623 11.762ZM263.959 26.468C262.303 26.468 260.791 26.042 259.423 25.19C258.067 24.338 256.981 23.192 256.165 21.752C255.361 20.312 254.959 18.722 254.959 16.982C254.959 15.674 255.193 14.45 255.661 13.31C256.129 12.158 256.771 11.15 257.587 10.286C258.415 9.41 259.375 8.726 260.467 8.234C261.559 7.742 262.723 7.496 263.959 7.496C265.363 7.496 266.647 7.796 267.811 8.396C268.987 8.984 269.983 9.794 270.799 10.826C271.615 11.858 272.209 13.034 272.581 14.354C272.953 15.674 273.037 17.054 272.833 18.494H259.675C259.843 19.166 260.119 19.772 260.503 20.312C260.887 20.84 261.373 21.266 261.961 21.59C262.549 21.902 263.215 22.064 263.959 22.076C264.727 22.088 265.423 21.908 266.047 21.536C266.683 21.152 267.211 20.636 267.631 19.988L272.113 21.032C271.381 22.628 270.289 23.936 268.837 24.956C267.385 25.964 265.759 26.468 263.959 26.468ZM259.531 15.2H268.387C268.255 14.48 267.973 13.832 267.541 13.256C267.121 12.668 266.599 12.2 265.975 11.852C265.351 11.504 264.679 11.33 263.959 11.33C263.239 11.33 262.573 11.504 261.961 11.852C261.349 12.188 260.827 12.65 260.395 13.238C259.975 13.814 259.687 14.468 259.531 15.2ZM275.78 26L275.762 8H280.154L280.172 9.602C280.784 8.954 281.516 8.444 282.368 8.072C283.22 7.688 284.138 7.496 285.122 7.496C285.782 7.496 286.442 7.592 287.102 7.784L285.374 12.212C284.918 12.032 284.462 11.942 284.006 11.942C283.298 11.942 282.65 12.116 282.062 12.464C281.486 12.8 281.024 13.262 280.676 13.85C280.34 14.426 280.172 15.068 280.172 15.776V26H275.78ZM298.28 26L298.262 8H302.654L302.672 9.602C303.284 8.954 304.016 8.444 304.868 8.072C305.72 7.688 306.638 7.496 307.622 7.496C308.282 7.496 308.942 7.592 309.602 7.784L307.874 12.212C307.418 12.032 306.962 11.942 306.506 11.942C305.798 11.942 305.15 12.116 304.562 12.464C303.986 12.8 303.524 13.262 303.176 13.85C302.84 14.426 302.672 15.068 302.672 15.776V26H298.28ZM318.697 26.468C317.041 26.468 315.529 26.042 314.161 25.19C312.805 24.338 311.719 23.192 310.903 21.752C310.099 20.312 309.697 18.722 309.697 16.982C309.697 15.674 309.931 14.45 310.399 13.31C310.867 12.158 311.509 11.15 312.325 10.286C313.153 9.41 314.113 8.726 315.205 8.234C316.297 7.742 317.461 7.496 318.697 7.496C320.101 7.496 321.385 7.796 322.549 8.396C323.725 8.984 324.721 9.794 325.537 10.826C326.353 11.858 326.947 13.034 327.319 14.354C327.691 15.674 327.775 17.054 327.571 18.494H314.413C314.581 19.166 314.857 19.772 315.241 20.312C315.625 20.84 316.111 21.266 316.699 21.59C317.287 21.902 317.953 22.064 318.697 22.076C319.465 22.088 320.161 21.908 320.785 21.536C321.421 21.152 321.949 20.636 322.369 19.988L326.851 21.032C326.119 22.628 325.027 23.936 323.575 24.956C322.123 25.964 320.497 26.468 318.697 26.468ZM314.269 15.2H323.125C322.993 14.48 322.711 13.832 322.279 13.256C321.859 12.668 321.337 12.2 320.713 11.852C320.089 11.504 319.417 11.33 318.697 11.33C317.977 11.33 317.311 11.504 316.699 11.852C316.087 12.188 315.565 12.65 315.133 13.238C314.713 13.814 314.425 14.468 314.269 15.2ZM338.958 26.504C337.218 26.504 335.628 26.078 334.188 25.226C332.76 24.374 331.62 23.228 330.768 21.788C329.916 20.348 329.49 18.752 329.49 17C329.49 15.692 329.736 14.468 330.228 13.328C330.72 12.188 331.398 11.186 332.262 10.322C333.138 9.446 334.146 8.762 335.286 8.27C336.426 7.778 337.65 7.532 338.958 7.532C340.11 7.532 341.118 7.79 341.982 8.306C342.846 8.81 343.566 9.47 344.142 10.286V8H348.534V35H344.142V23.75C343.566 24.566 342.846 25.232 341.982 25.748C341.118 26.252 340.11 26.504 338.958 26.504ZM339.012 11.762C338.088 11.762 337.242 12.002 336.474 12.482C335.718 12.95 335.112 13.58 334.656 14.372C334.212 15.164 333.99 16.04 333.99 17C333.99 17.972 334.212 18.86 334.656 19.664C335.112 20.456 335.718 21.086 336.474 21.554C337.242 22.022 338.088 22.256 339.012 22.256C339.948 22.256 340.77 22.022 341.478 21.554C342.198 21.074 342.762 20.438 343.17 19.646C343.578 18.842 343.782 17.96 343.782 17C343.782 16.04 343.578 15.164 343.17 14.372C342.762 13.58 342.198 12.95 341.478 12.482C340.758 12.002 339.936 11.762 339.012 11.762ZM351.577 19.34V8H355.969V18.188C355.969 18.896 356.143 19.544 356.491 20.132C356.839 20.708 357.301 21.17 357.877 21.518C358.465 21.854 359.107 22.022 359.803 22.022C360.523 22.022 361.171 21.854 361.747 21.518C362.323 21.17 362.785 20.708 363.133 20.132C363.481 19.544 363.655 18.896 363.655 18.188V8H368.047L368.065 26H363.673L363.655 24.362C363.031 25.01 362.293 25.526 361.441 25.91C360.589 26.282 359.677 26.468 358.705 26.468C357.397 26.468 356.203 26.15 355.123 25.514C354.043 24.866 353.179 24.008 352.531 22.94C351.895 21.86 351.577 20.66 351.577 19.34ZM379.307 26.468C377.651 26.468 376.139 26.042 374.771 25.19C373.415 24.338 372.329 23.192 371.513 21.752C370.709 20.312 370.307 18.722 370.307 16.982C370.307 15.674 370.541 14.45 371.009 13.31C371.477 12.158 372.119 11.15 372.935 10.286C373.763 9.41 374.723 8.726 375.815 8.234C376.907 7.742 378.071 7.496 379.307 7.496C380.711 7.496 381.995 7.796 383.159 8.396C384.335 8.984 385.331 9.794 386.147 10.826C386.963 11.858 387.557 13.034 387.929 14.354C388.301 15.674 388.385 17.054 388.181 18.494H375.023C375.191 19.166 375.467 19.772 375.851 20.312C376.235 20.84 376.721 21.266 377.309 21.59C377.897 21.902 378.563 22.064 379.307 22.076C380.075 22.088 380.771 21.908 381.395 21.536C382.031 21.152 382.559 20.636 382.979 19.988L387.461 21.032C386.729 22.628 385.637 23.936 384.185 24.956C382.733 25.964 381.107 26.468 379.307 26.468ZM374.879 15.2H383.735C383.603 14.48 383.321 13.832 382.889 13.256C382.469 12.668 381.947 12.2 381.323 11.852C380.699 11.504 380.027 11.33 379.307 11.33C378.587 11.33 377.921 11.504 377.309 11.852C376.697 12.188 376.175 12.65 375.743 13.238C375.323 13.814 375.035 14.468 374.879 15.2ZM396.56 26.324C395.624 26.264 394.718 26.078 393.842 25.766C392.978 25.442 392.21 25.004 391.538 24.452C390.866 23.9 390.35 23.24 389.99 22.472L393.698 20.888C393.842 21.128 394.076 21.386 394.4 21.662C394.724 21.926 395.108 22.148 395.552 22.328C396.008 22.508 396.506 22.598 397.046 22.598C397.502 22.598 397.934 22.538 398.342 22.418C398.762 22.286 399.098 22.088 399.35 21.824C399.614 21.56 399.746 21.218 399.746 20.798C399.746 20.354 399.59 20.012 399.278 19.772C398.978 19.52 398.594 19.334 398.126 19.214C397.67 19.082 397.226 18.962 396.794 18.854C395.654 18.626 394.592 18.272 393.608 17.792C392.636 17.312 391.85 16.694 391.25 15.938C390.662 15.17 390.368 14.246 390.368 13.166C390.368 11.978 390.68 10.952 391.304 10.088C391.94 9.224 392.762 8.558 393.77 8.09C394.79 7.622 395.888 7.388 397.064 7.388C398.492 7.388 399.8 7.688 400.988 8.288C402.188 8.876 403.136 9.71 403.832 10.79L400.358 12.842C400.19 12.554 399.956 12.29 399.656 12.05C399.356 11.798 399.014 11.594 398.63 11.438C398.246 11.27 397.844 11.174 397.424 11.15C396.884 11.126 396.392 11.174 395.948 11.294C395.504 11.414 395.144 11.618 394.868 11.906C394.604 12.194 394.472 12.578 394.472 13.058C394.472 13.514 394.652 13.856 395.012 14.084C395.372 14.3 395.804 14.468 396.308 14.588C396.824 14.708 397.316 14.84 397.784 14.984C398.84 15.332 399.83 15.758 400.754 16.262C401.69 16.766 402.44 17.384 403.004 18.116C403.568 18.848 403.838 19.724 403.814 20.744C403.814 21.908 403.466 22.928 402.77 23.804C402.074 24.668 401.174 25.328 400.07 25.784C398.978 26.24 397.808 26.42 396.56 26.324ZM416.542 12.392H413.05V26H408.658V12.392H405.994V8H408.658V2.348H413.05V8H416.542V12.392Z" fill="url(#paint0_radial_2406_7297)"/>
<defs>
<radialGradient id="paint0_radial_2406_7297" cx="0" cy="0" r="1" gradientUnits="userSpaceOnUse" gradientTransform="translate(354 61.0232) rotate(-162.832) scale(242.819 617.873)">
<stop stop-color="#53CBC7"/>
<stop offset="1" stop-color="#E1147B"/>
</radialGradient>
</defs>
</svg>
