<svg width="139" height="36" viewBox="0 0 139 36" fill="none" xmlns="http://www.w3.org/2000/svg">
<path fill-rule="evenodd" clip-rule="evenodd" d="M92.9795 13.0296C92.8781 13.0296 92.6751 13.0036 92.2438 13.0036C91.8633 13.0036 91.5335 13.0296 91.2037 13.1074C89.8591 13.367 88.9965 14.1197 88.2608 14.9243V13.341H84.0494V27.3309H88.2862V21.491C88.2862 20.8162 88.3115 20.1673 88.3877 19.5963C88.4638 19.0252 88.616 18.5321 88.895 18.1168C89.1487 17.7015 89.5039 17.3901 89.9859 17.1565C90.4426 16.9229 91.0768 16.819 91.8887 16.819C92.4975 16.819 93.1064 16.9229 93.6899 17.1046V13.1334C93.4616 13.0815 93.2332 13.0296 92.9795 13.0296ZM104.066 13.0296C103.965 13.0296 103.762 13.0036 103.33 13.0036C102.95 13.0036 102.62 13.0296 102.29 13.1074C100.946 13.367 100.083 14.1197 99.3473 14.9243V13.341H95.136V27.3309H99.3473V21.491C99.3473 20.8162 99.3727 20.1673 99.4488 19.5963C99.5249 19.0252 99.6771 18.5321 99.9562 18.1168C100.21 17.7015 100.565 17.3901 101.047 17.1565C101.504 16.9229 102.138 16.819 102.95 16.819C103.559 16.819 104.168 16.9229 104.751 17.1046V13.1334C104.523 13.0815 104.294 13.0296 104.066 13.0296ZM60.1513 12.3547H54.57V8.46144H70.0708V12.3288H64.4895V26.5523H60.1767V12.3547H60.1513ZM78.3667 18.61C78.392 17.9351 78.1383 17.2603 77.6563 16.7931C77.1743 16.274 76.5401 16.0404 75.779 16.0404C75.3223 16.0404 74.891 16.1183 74.5359 16.274C74.2061 16.4297 73.8763 16.6114 73.6226 16.845C73.3689 17.0786 73.1659 17.3641 73.039 17.6496C72.8868 17.9611 72.8107 18.2725 72.8107 18.61H78.3667ZM81.9438 24.6316C81.2588 25.5141 80.3709 26.1889 79.3814 26.6301C78.3667 27.0973 77.2758 27.3309 76.1595 27.3309C75.1447 27.3309 74.1299 27.1752 73.1913 26.8118C72.3033 26.5004 71.4915 26.0072 70.7812 25.3583C70.0962 24.7354 69.538 23.9568 69.1575 23.0743C68.777 22.1918 68.574 21.2055 68.574 20.1154C68.574 19.0252 68.777 18.0389 69.1575 17.1565C69.538 16.2999 70.0962 15.5213 70.7812 14.8724C71.4915 14.2495 72.3287 13.7563 73.1913 13.4189C74.1299 13.0815 75.1447 12.8998 76.1595 12.8998C77.1489 12.8998 78.0115 13.0815 78.8233 13.4189C79.6098 13.7563 80.2948 14.2495 80.8529 14.8724C81.411 15.4953 81.8423 16.248 82.1467 17.1565C82.4512 18.0389 82.6034 19.0252 82.6034 20.1154V21.4391H72.8107C72.9883 22.2437 73.3435 22.8926 73.9016 23.3598C74.4597 23.827 75.1701 24.0865 75.9819 24.0865C76.6923 24.0865 77.2758 23.9308 77.7324 23.6193C78.2144 23.3079 78.6457 22.8926 79.0009 22.4254C79.0009 22.4513 81.9438 24.6316 81.9438 24.6316ZM114.366 22.1658V21.9322C114.366 21.6208 114.189 21.3872 113.909 21.2834C113.25 21.0498 112.565 20.9459 111.88 20.9459C110.231 20.9459 109.216 21.6208 109.216 22.8666V22.9185C109.216 23.9827 110.079 24.6056 111.322 24.6056C113.148 24.6056 114.366 23.5934 114.366 22.1658ZM105.461 23.0743V23.0224C105.461 19.9856 107.719 18.584 110.967 18.584C112.337 18.584 113.351 18.8176 114.315 19.155V18.9214C114.315 17.2862 113.326 16.3778 111.398 16.3778C109.926 16.3778 108.886 16.6633 107.618 17.1305L106.654 14.1197C108.151 13.4449 109.647 13.0036 111.956 13.0036C114.062 13.0036 115.584 13.5746 116.573 14.5609C117.588 15.5991 118.045 17.1305 118.045 18.9993V27.0973H114.29V25.5919C113.351 26.6561 112.057 27.3569 110.155 27.3569C107.592 27.3309 105.461 25.8255 105.461 23.0743ZM33.0819 25.6958C33.7923 28.5249 36.4054 30.7051 37.7246 30.6273C37.7753 30.6273 42.7224 29.641 45.4369 24.8652C47.5426 21.1276 46.8323 17.5718 43.9655 17.4679C42.9507 17.5458 31.712 20.2711 33.0819 25.6958ZM35.5935 4.30859C33.7162 4.30859 31.9403 4.72388 30.342 5.45063C30.063 5.5804 29.7839 5.71018 29.5302 5.86591C29.3526 5.96973 29.175 6.07355 28.9974 6.17737L29.0228 6.20333C28.49 6.5667 28.0334 7.00794 27.6528 7.52705C23.9489 12.5624 36.38 16.2221 43.0522 16.2221C46.1219 18.4802 46.9845 9.88898 43.9909 7.47514C41.6315 5.45063 38.6632 4.30859 35.5935 4.30859Z" fill="#8D8D8D"/>
<path fill-rule="evenodd" clip-rule="evenodd" d="M30.9256 7.26754C29.2512 9.7852 23.6445 11.5761 22.7058 11.3166V11.2906L22.8073 11.057C23.7713 9.21419 25.1413 7.60496 26.8157 6.38506C27.1455 6.12551 27.526 5.89191 27.8812 5.65831C28.6677 5.19112 29.4795 5.19112 29.7332 5.16516C32.2194 5.24303 30.9256 7.24158 30.9256 7.26754Z" fill="#8D8D8D"/>
<path fill-rule="evenodd" clip-rule="evenodd" d="M29.4795 26.2141C29.6064 27.0446 29.4795 30.315 29.3019 30.6005C29.1497 30.6005 28.8453 30.6265 27.9827 30.1333C26.2829 29.147 24.8115 27.8233 23.6445 26.2141C22.8073 25.0461 22.1223 23.7483 21.6657 22.3727C21.209 20.9451 20.9553 19.4397 20.9553 17.9343C20.9553 16.2732 21.2344 14.638 21.7925 13.0807C22.8073 14.4304 23.9489 15.6503 24.9383 16.9999C25.877 18.2977 27.1709 20.4001 27.4246 20.8413C29.1243 23.6445 29.3527 25.3835 29.4795 26.2141Z" fill="#8D8D8D"/>
<path fill-rule="evenodd" clip-rule="evenodd" d="M48.4052 18.0909C48.4052 19.8818 48.0754 21.5948 47.4665 23.1781C45.8682 24.9171 35.1622 20.6085 35.0608 20.5826C33.5893 19.9078 29.1243 17.9092 28.7184 14.7686C28.1349 10.2264 37.0903 7.08583 41.0226 6.95605C41.4793 6.95605 42.9253 6.98201 43.7625 7.6828C46.7308 10.2783 48.4052 14.0938 48.4052 18.0909ZM39.0184 29.3036C39.678 26.9676 45.2593 24.6057 46.5024 24.4759C46.6547 24.4499 46.7308 24.5797 46.6547 24.7095C45.3608 27.0974 43.4581 29.07 41.1495 30.3677C39.9825 30.9128 38.6886 30.4975 39.0184 29.3036Z" fill="#A3A3A3"/>
</svg>
