<svg width="168" height="24" viewBox="0 0 168 24" fill="none" xmlns="http://www.w3.org/2000/svg">
<path d="M9.03459 18.312C7.89859 18.312 6.83059 18.088 5.83059 17.64C4.83059 17.184 3.95059 16.556 3.19059 15.756C2.43859 14.956 1.84659 14.032 1.41459 12.984C0.990594 11.928 0.778594 10.8 0.778594 9.6C0.778594 8.392 0.990594 7.264 1.41459 6.216C1.84659 5.16 2.43859 4.236 3.19059 3.444C3.95059 2.644 4.83059 2.02 5.83059 1.572C6.83059 1.116 7.89859 0.887999 9.03459 0.887999C10.3946 0.887999 11.6466 1.204 12.7906 1.836C13.9346 2.46 14.8826 3.296 15.6346 4.344L13.0186 5.748C12.5466 5.164 11.9586 4.696 11.2546 4.344C10.5586 3.992 9.81859 3.816 9.03459 3.816C8.29859 3.816 7.60659 3.968 6.95859 4.272C6.31059 4.568 5.74259 4.984 5.25459 5.52C4.76659 6.048 4.38659 6.664 4.11459 7.368C3.84259 8.064 3.70659 8.808 3.70659 9.6C3.70659 10.4 3.84259 11.148 4.11459 11.844C4.39459 12.54 4.77859 13.156 5.26659 13.692C5.75459 14.22 6.31859 14.636 6.95859 14.94C7.60659 15.236 8.29859 15.384 9.03459 15.384C9.83459 15.384 10.5786 15.208 11.2666 14.856C11.9626 14.496 12.5466 14.024 13.0186 13.44L15.6346 14.856C14.8826 15.896 13.9346 16.732 12.7906 17.364C11.6466 17.996 10.3946 18.312 9.03459 18.312ZM29.6198 11.808V18H26.6918V11.856C26.6918 11.24 26.5638 10.68 26.3078 10.176C26.0598 9.664 25.7198 9.256 25.2878 8.952C24.8638 8.648 24.3918 8.496 23.8718 8.496C23.2798 8.496 22.7878 8.648 22.3958 8.952C22.0038 9.256 21.7118 9.664 21.5198 10.176C21.3278 10.68 21.2318 11.24 21.2318 11.856V18H18.2798V-1.43051e-06H21.2078V7.14C21.5038 6.556 21.9038 6.168 22.4078 5.976C22.9118 5.784 23.4958 5.688 24.1598 5.688C25.2638 5.688 26.2198 5.968 27.0278 6.528C27.8438 7.08 28.4758 7.82 28.9238 8.748C29.3718 9.676 29.6038 10.696 29.6198 11.808ZM40.7843 6H43.7123V18H40.7723L40.6523 16.512C40.3163 17.048 39.8763 17.484 39.3323 17.82C38.7963 18.148 38.1643 18.312 37.4363 18.312C36.5483 18.312 35.7163 18.144 34.9403 17.808C34.1643 17.472 33.4803 17.008 32.8883 16.416C32.2963 15.824 31.8363 15.14 31.5083 14.364C31.1803 13.588 31.0163 12.756 31.0163 11.868C31.0163 11.012 31.1723 10.208 31.4843 9.456C31.7963 8.704 32.2363 8.044 32.8043 7.476C33.3723 6.908 34.0283 6.464 34.7723 6.144C35.5163 5.824 36.3163 5.664 37.1723 5.664C37.9723 5.664 38.6843 5.84 39.3083 6.192C39.9403 6.544 40.4763 6.992 40.9163 7.536L40.7843 6ZM37.5203 15.492C38.1603 15.492 38.7163 15.328 39.1883 15C39.6603 14.672 40.0163 14.236 40.2563 13.692C40.5043 13.14 40.6043 12.532 40.5563 11.868C40.5003 11.244 40.3163 10.68 40.0043 10.176C39.6923 9.664 39.2923 9.256 38.8043 8.952C38.3163 8.648 37.7683 8.496 37.1603 8.496C36.5283 8.496 35.9603 8.66 35.4563 8.988C34.9603 9.316 34.5763 9.756 34.3043 10.308C34.0323 10.852 33.9243 11.46 33.9803 12.132C34.0443 12.748 34.2443 13.312 34.5803 13.824C34.9163 14.328 35.3403 14.732 35.8523 15.036C36.3723 15.34 36.9283 15.492 37.5203 15.492ZM46.5923 6H49.5203V18H46.5923V6ZM48.0683 4.212C47.6443 4.212 47.2843 4.072 46.9883 3.792C46.6923 3.504 46.5443 3.144 46.5443 2.712C46.5443 2.288 46.6923 1.932 46.9883 1.644C47.2843 1.356 47.6443 1.212 48.0683 1.212C48.4923 1.212 48.8483 1.356 49.1363 1.644C49.4323 1.932 49.5803 2.288 49.5803 2.712C49.5803 3.144 49.4323 3.504 49.1363 3.792C48.8483 4.072 48.4923 4.212 48.0683 4.212ZM64.8841 11.796V18H61.9561V11.844C61.9561 11.228 61.8281 10.668 61.5721 10.164C61.3161 9.652 60.9601 9.244 60.5041 8.94C60.0561 8.636 59.5361 8.484 58.9441 8.484C58.3681 8.484 57.8681 8.636 57.4441 8.94C57.0201 9.244 56.6921 9.652 56.4601 10.164C56.2361 10.668 56.1241 11.228 56.1241 11.844V18H53.1961V6H56.1241V7.416C56.5241 6.88 57.0001 6.456 57.5521 6.144C58.1121 5.824 58.7441 5.664 59.4481 5.664C60.5521 5.664 61.5081 5.944 62.3161 6.504C63.1321 7.056 63.7601 7.796 64.2001 8.724C64.6481 9.652 64.8761 10.676 64.8841 11.796ZM85.1013 18.312C84.1733 18.312 83.2813 18.168 82.4253 17.88C81.5773 17.584 80.8333 17.164 80.1933 16.62C79.5533 16.068 79.0933 15.408 78.8133 14.64L81.5613 13.632C81.6733 13.952 81.9013 14.244 82.2453 14.508C82.5893 14.772 83.0093 14.984 83.5053 15.144C84.0013 15.304 84.5333 15.384 85.1013 15.384C85.6853 15.384 86.2293 15.296 86.7333 15.12C87.2453 14.936 87.6573 14.684 87.9693 14.364C88.2813 14.036 88.4373 13.656 88.4373 13.224C88.4373 12.784 88.2733 12.424 87.9453 12.144C87.6173 11.856 87.1973 11.628 86.6853 11.46C86.1733 11.292 85.6453 11.164 85.1013 11.076C83.9093 10.892 82.8413 10.608 81.8973 10.224C80.9533 9.84 80.2053 9.308 79.6533 8.628C79.1093 7.948 78.8373 7.068 78.8373 5.988C78.8373 4.972 79.1293 4.084 79.7133 3.324C80.2973 2.564 81.0653 1.972 82.0173 1.548C82.9693 1.124 83.9973 0.912 85.1013 0.912C86.0213 0.912 86.9093 1.056 87.7653 1.344C88.6213 1.632 89.3693 2.052 90.0093 2.604C90.6573 3.156 91.1213 3.82 91.4013 4.596L88.6413 5.592C88.5293 5.272 88.3013 4.98 87.9573 4.716C87.6133 4.452 87.1933 4.244 86.6973 4.092C86.2013 3.932 85.6693 3.852 85.1013 3.852C84.5333 3.844 83.9933 3.936 83.4813 4.128C82.9773 4.312 82.5653 4.564 82.2453 4.884C81.9253 5.204 81.7653 5.572 81.7653 5.988C81.7653 6.524 81.9133 6.928 82.2093 7.2C82.5133 7.472 82.9173 7.672 83.4213 7.8C83.9253 7.92 84.4853 8.032 85.1013 8.136C86.2213 8.312 87.2573 8.608 88.2093 9.024C89.1613 9.44 89.9253 9.996 90.5013 10.692C91.0773 11.38 91.3653 12.224 91.3653 13.224C91.3653 14.24 91.0773 15.132 90.5013 15.9C89.9253 16.66 89.1613 17.252 88.2093 17.676C87.2573 18.1 86.2213 18.312 85.1013 18.312ZM93.7486 12.18V6H96.6766V12.132C96.6766 12.748 96.8046 13.312 97.0606 13.824C97.3166 14.336 97.6726 14.744 98.1286 15.048C98.5846 15.344 99.1046 15.492 99.6886 15.492C100.273 15.492 100.773 15.344 101.189 15.048C101.613 14.744 101.937 14.336 102.161 13.824C102.393 13.312 102.509 12.748 102.509 12.132V6H105.437V18H102.509V16.572C102.117 17.1 101.641 17.528 101.081 17.856C100.529 18.176 99.9006 18.336 99.1966 18.336C98.0846 18.336 97.1246 18.06 96.3166 17.508C95.5086 16.948 94.8806 16.204 94.4326 15.276C93.9846 14.34 93.7566 13.308 93.7486 12.18ZM110.716 24H107.788V6H110.716V7.524C111.108 6.98 111.588 6.54 112.156 6.204C112.732 5.86 113.404 5.688 114.172 5.688C115.052 5.688 115.872 5.852 116.632 6.18C117.392 6.508 118.06 6.964 118.636 7.548C119.22 8.124 119.672 8.792 119.992 9.552C120.32 10.312 120.484 11.128 120.484 12C120.484 12.872 120.32 13.692 119.992 14.46C119.672 15.228 119.22 15.904 118.636 16.488C118.06 17.064 117.392 17.516 116.632 17.844C115.872 18.172 115.052 18.336 114.172 18.336C113.404 18.336 112.732 18.168 112.156 17.832C111.588 17.488 111.108 17.044 110.716 16.5V24ZM114.136 8.508C113.528 8.508 112.984 8.668 112.504 8.988C112.024 9.3 111.648 9.72 111.376 10.248C111.104 10.776 110.968 11.36 110.968 12C110.968 12.64 111.104 13.228 111.376 13.764C111.648 14.292 112.024 14.716 112.504 15.036C112.984 15.348 113.528 15.504 114.136 15.504C114.752 15.504 115.316 15.348 115.828 15.036C116.34 14.724 116.748 14.304 117.052 13.776C117.356 13.24 117.508 12.648 117.508 12C117.508 11.36 117.356 10.776 117.052 10.248C116.748 9.72 116.34 9.3 115.828 8.988C115.324 8.668 114.76 8.508 114.136 8.508ZM125.528 24H122.6V6H125.528V7.524C125.92 6.98 126.4 6.54 126.968 6.204C127.544 5.86 128.216 5.688 128.984 5.688C129.864 5.688 130.684 5.852 131.444 6.18C132.204 6.508 132.872 6.964 133.448 7.548C134.032 8.124 134.484 8.792 134.804 9.552C135.132 10.312 135.296 11.128 135.296 12C135.296 12.872 135.132 13.692 134.804 14.46C134.484 15.228 134.032 15.904 133.448 16.488C132.872 17.064 132.204 17.516 131.444 17.844C130.684 18.172 129.864 18.336 128.984 18.336C128.216 18.336 127.544 18.168 126.968 17.832C126.4 17.488 125.92 17.044 125.528 16.5V24ZM128.948 8.508C128.34 8.508 127.796 8.668 127.316 8.988C126.836 9.3 126.46 9.72 126.188 10.248C125.916 10.776 125.78 11.36 125.78 12C125.78 12.64 125.916 13.228 126.188 13.764C126.46 14.292 126.836 14.716 127.316 15.036C127.796 15.348 128.34 15.504 128.948 15.504C129.564 15.504 130.128 15.348 130.64 15.036C131.152 14.724 131.56 14.304 131.864 13.776C132.168 13.24 132.32 12.648 132.32 12C132.32 11.36 132.168 10.776 131.864 10.248C131.56 9.72 131.152 9.3 130.64 8.988C130.136 8.668 129.572 8.508 128.948 8.508ZM142.74 18.312C141.636 18.312 140.628 18.028 139.716 17.46C138.812 16.892 138.088 16.132 137.544 15.18C137.008 14.22 136.74 13.16 136.74 12C136.74 11.12 136.896 10.3 137.208 9.54C137.52 8.772 137.948 8.1 138.492 7.524C139.044 6.94 139.684 6.484 140.412 6.156C141.14 5.828 141.916 5.664 142.74 5.664C143.844 5.664 144.848 5.948 145.752 6.516C146.664 7.084 147.388 7.848 147.924 8.808C148.468 9.768 148.74 10.832 148.74 12C148.74 12.872 148.584 13.688 148.272 14.448C147.96 15.208 147.528 15.88 146.976 16.464C146.432 17.04 145.796 17.492 145.068 17.82C144.348 18.148 143.572 18.312 142.74 18.312ZM142.74 15.384C143.324 15.384 143.848 15.228 144.312 14.916C144.776 14.604 145.14 14.192 145.404 13.68C145.676 13.168 145.812 12.608 145.812 12C145.812 11.376 145.672 10.808 145.392 10.296C145.12 9.776 144.748 9.364 144.276 9.06C143.812 8.748 143.3 8.592 142.74 8.592C142.164 8.592 141.644 8.748 141.18 9.06C140.716 9.372 140.348 9.788 140.076 10.308C139.804 10.828 139.668 11.392 139.668 12C139.668 12.632 139.808 13.204 140.088 13.716C140.368 14.228 140.74 14.636 141.204 14.94C141.676 15.236 142.188 15.384 142.74 15.384ZM157.904 8.976C157.688 8.832 157.452 8.716 157.196 8.628C156.948 8.54 156.672 8.496 156.368 8.496C155.784 8.496 155.28 8.648 154.856 8.952C154.44 9.256 154.12 9.664 153.896 10.176C153.672 10.68 153.56 11.24 153.56 11.856V18H150.608V6H153.536V7.416C153.936 6.888 154.412 6.468 154.964 6.156C155.524 5.844 156.156 5.688 156.86 5.688C157.132 5.688 157.392 5.696 157.64 5.712C157.896 5.728 158.14 5.772 158.372 5.844L157.904 8.976ZM167.212 8.928H164.884V18H161.956V8.928H160.18V6H161.956V2.232H164.884V6H167.212V8.928Z" fill="#8D8D8D"/>
</svg>
