<svg width="137" height="33" viewBox="0 0 137 33" fill="none" xmlns="http://www.w3.org/2000/svg">
<path d="M5.80459 25L1.50859 8.2H4.53259L7.46059 19.684L10.3886 8.2H13.0526L15.9806 19.684L18.9086 8.2H21.9326L17.6606 25H14.3246L11.7206 14.824L9.12859 25H5.80459ZM28.1223 25.312C27.0183 25.312 26.0103 25.028 25.0983 24.46C24.1943 23.892 23.4703 23.128 22.9263 22.168C22.3903 21.208 22.1223 20.148 22.1223 18.988C22.1223 18.116 22.2783 17.3 22.5903 16.54C22.9023 15.772 23.3303 15.1 23.8743 14.524C24.4263 13.94 25.0663 13.484 25.7943 13.156C26.5223 12.828 27.2983 12.664 28.1223 12.664C29.0583 12.664 29.9143 12.864 30.6903 13.264C31.4743 13.656 32.1383 14.196 32.6823 14.884C33.2263 15.572 33.6223 16.356 33.8703 17.236C34.1183 18.116 34.1743 19.036 34.0383 19.996H25.2663C25.3783 20.444 25.5623 20.848 25.8183 21.208C26.0743 21.56 26.3983 21.844 26.7903 22.06C27.1823 22.268 27.6263 22.376 28.1223 22.384C28.6343 22.392 29.0983 22.272 29.5143 22.024C29.9383 21.768 30.2903 21.424 30.5703 20.992L33.5583 21.688C33.0703 22.752 32.3423 23.624 31.3743 24.304C30.4063 24.976 29.3223 25.312 28.1223 25.312ZM25.1703 17.8H31.0743C30.9863 17.32 30.7983 16.888 30.5103 16.504C30.2303 16.112 29.8823 15.8 29.4663 15.568C29.0503 15.336 28.6023 15.22 28.1223 15.22C27.6423 15.22 27.1983 15.336 26.7903 15.568C26.3823 15.792 26.0343 16.1 25.7463 16.492C25.4663 16.876 25.2743 17.312 25.1703 17.8ZM53.8513 25.312C52.9233 25.312 52.0313 25.168 51.1753 24.88C50.3273 24.584 49.5833 24.164 48.9433 23.62C48.3033 23.068 47.8433 22.408 47.5633 21.64L50.3113 20.632C50.4233 20.952 50.6513 21.244 50.9953 21.508C51.3393 21.772 51.7593 21.984 52.2553 22.144C52.7513 22.304 53.2833 22.384 53.8513 22.384C54.4353 22.384 54.9793 22.296 55.4833 22.12C55.9953 21.936 56.4073 21.684 56.7193 21.364C57.0313 21.036 57.1873 20.656 57.1873 20.224C57.1873 19.784 57.0233 19.424 56.6953 19.144C56.3673 18.856 55.9473 18.628 55.4353 18.46C54.9233 18.292 54.3953 18.164 53.8513 18.076C52.6593 17.892 51.5913 17.608 50.6473 17.224C49.7033 16.84 48.9553 16.308 48.4033 15.628C47.8593 14.948 47.5873 14.068 47.5873 12.988C47.5873 11.972 47.8793 11.084 48.4633 10.324C49.0473 9.564 49.8153 8.972 50.7673 8.548C51.7193 8.124 52.7473 7.912 53.8513 7.912C54.7713 7.912 55.6593 8.056 56.5153 8.344C57.3713 8.632 58.1193 9.052 58.7593 9.604C59.4073 10.156 59.8713 10.82 60.1513 11.596L57.3913 12.592C57.2793 12.272 57.0513 11.98 56.7073 11.716C56.3633 11.452 55.9433 11.244 55.4473 11.092C54.9513 10.932 54.4193 10.852 53.8513 10.852C53.2833 10.844 52.7433 10.936 52.2313 11.128C51.7273 11.312 51.3153 11.564 50.9953 11.884C50.6753 12.204 50.5153 12.572 50.5153 12.988C50.5153 13.524 50.6633 13.928 50.9593 14.2C51.2633 14.472 51.6673 14.672 52.1713 14.8C52.6753 14.92 53.2353 15.032 53.8513 15.136C54.9713 15.312 56.0073 15.608 56.9593 16.024C57.9113 16.44 58.6753 16.996 59.2513 17.692C59.8273 18.38 60.1153 19.224 60.1153 20.224C60.1153 21.24 59.8273 22.132 59.2513 22.9C58.6753 23.66 57.9113 24.252 56.9593 24.676C56.0073 25.1 54.9713 25.312 53.8513 25.312ZM62.4986 19.18V13H65.4266V19.132C65.4266 19.748 65.5546 20.312 65.8106 20.824C66.0666 21.336 66.4226 21.744 66.8786 22.048C67.3346 22.344 67.8546 22.492 68.4386 22.492C69.0226 22.492 69.5226 22.344 69.9386 22.048C70.3626 21.744 70.6866 21.336 70.9106 20.824C71.1426 20.312 71.2586 19.748 71.2586 19.132V13H74.1866V25H71.2586V23.572C70.8666 24.1 70.3906 24.528 69.8306 24.856C69.2786 25.176 68.6506 25.336 67.9466 25.336C66.8346 25.336 65.8746 25.06 65.0666 24.508C64.2586 23.948 63.6306 23.204 63.1826 22.276C62.7346 21.34 62.5066 20.308 62.4986 19.18ZM79.4657 31H76.5377V13H79.4657V14.524C79.8577 13.98 80.3377 13.54 80.9057 13.204C81.4817 12.86 82.1537 12.688 82.9217 12.688C83.8017 12.688 84.6217 12.852 85.3817 13.18C86.1417 13.508 86.8097 13.964 87.3857 14.548C87.9697 15.124 88.4217 15.792 88.7417 16.552C89.0697 17.312 89.2337 18.128 89.2337 19C89.2337 19.872 89.0697 20.692 88.7417 21.46C88.4217 22.228 87.9697 22.904 87.3857 23.488C86.8097 24.064 86.1417 24.516 85.3817 24.844C84.6217 25.172 83.8017 25.336 82.9217 25.336C82.1537 25.336 81.4817 25.168 80.9057 24.832C80.3377 24.488 79.8577 24.044 79.4657 23.5V31ZM82.8857 15.508C82.2777 15.508 81.7337 15.668 81.2537 15.988C80.7737 16.3 80.3977 16.72 80.1257 17.248C79.8537 17.776 79.7177 18.36 79.7177 19C79.7177 19.64 79.8537 20.228 80.1257 20.764C80.3977 21.292 80.7737 21.716 81.2537 22.036C81.7337 22.348 82.2777 22.504 82.8857 22.504C83.5017 22.504 84.0657 22.348 84.5777 22.036C85.0897 21.724 85.4977 21.304 85.8017 20.776C86.1057 20.24 86.2577 19.648 86.2577 19C86.2577 18.36 86.1057 17.776 85.8017 17.248C85.4977 16.72 85.0897 16.3 84.5777 15.988C84.0737 15.668 83.5097 15.508 82.8857 15.508ZM94.2782 31H91.3502V13H94.2782V14.524C94.6702 13.98 95.1502 13.54 95.7182 13.204C96.2942 12.86 96.9662 12.688 97.7342 12.688C98.6142 12.688 99.4342 12.852 100.194 13.18C100.954 13.508 101.622 13.964 102.198 14.548C102.782 15.124 103.234 15.792 103.554 16.552C103.882 17.312 104.046 18.128 104.046 19C104.046 19.872 103.882 20.692 103.554 21.46C103.234 22.228 102.782 22.904 102.198 23.488C101.622 24.064 100.954 24.516 100.194 24.844C99.4342 25.172 98.6142 25.336 97.7342 25.336C96.9662 25.336 96.2942 25.168 95.7182 24.832C95.1502 24.488 94.6702 24.044 94.2782 23.5V31ZM97.6982 15.508C97.0902 15.508 96.5462 15.668 96.0662 15.988C95.5862 16.3 95.2102 16.72 94.9382 17.248C94.6662 17.776 94.5302 18.36 94.5302 19C94.5302 19.64 94.6662 20.228 94.9382 20.764C95.2102 21.292 95.5862 21.716 96.0662 22.036C96.5462 22.348 97.0902 22.504 97.6982 22.504C98.3142 22.504 98.8782 22.348 99.3902 22.036C99.9022 21.724 100.31 21.304 100.614 20.776C100.918 20.24 101.07 19.648 101.07 19C101.07 18.36 100.918 17.776 100.614 17.248C100.31 16.72 99.9022 16.3 99.3902 15.988C98.8862 15.668 98.3222 15.508 97.6982 15.508ZM111.49 25.312C110.386 25.312 109.378 25.028 108.466 24.46C107.562 23.892 106.838 23.132 106.294 22.18C105.758 21.22 105.49 20.16 105.49 19C105.49 18.12 105.646 17.3 105.958 16.54C106.27 15.772 106.698 15.1 107.242 14.524C107.794 13.94 108.434 13.484 109.162 13.156C109.89 12.828 110.666 12.664 111.49 12.664C112.594 12.664 113.598 12.948 114.502 13.516C115.414 14.084 116.138 14.848 116.674 15.808C117.218 16.768 117.49 17.832 117.49 19C117.49 19.872 117.334 20.688 117.022 21.448C116.71 22.208 116.278 22.88 115.726 23.464C115.182 24.04 114.546 24.492 113.818 24.82C113.098 25.148 112.322 25.312 111.49 25.312ZM111.49 22.384C112.074 22.384 112.598 22.228 113.062 21.916C113.526 21.604 113.89 21.192 114.154 20.68C114.426 20.168 114.562 19.608 114.562 19C114.562 18.376 114.422 17.808 114.142 17.296C113.87 16.776 113.498 16.364 113.026 16.06C112.562 15.748 112.05 15.592 111.49 15.592C110.914 15.592 110.394 15.748 109.93 16.06C109.466 16.372 109.098 16.788 108.826 17.308C108.554 17.828 108.418 18.392 108.418 19C108.418 19.632 108.558 20.204 108.838 20.716C109.118 21.228 109.49 21.636 109.954 21.94C110.426 22.236 110.938 22.384 111.49 22.384ZM126.654 15.976C126.438 15.832 126.202 15.716 125.946 15.628C125.698 15.54 125.422 15.496 125.118 15.496C124.534 15.496 124.03 15.648 123.606 15.952C123.19 16.256 122.87 16.664 122.646 17.176C122.422 17.68 122.31 18.24 122.31 18.856V25H119.358V13H122.286V14.416C122.686 13.888 123.162 13.468 123.714 13.156C124.274 12.844 124.906 12.688 125.61 12.688C125.882 12.688 126.142 12.696 126.39 12.712C126.646 12.728 126.89 12.772 127.122 12.844L126.654 15.976ZM135.962 15.928H133.634V25H130.706V15.928H128.93V13H130.706V9.232H133.634V13H135.962V15.928Z" fill="#8D8D8D"/>
</svg>
