<svg xmlns="http://www.w3.org/2000/svg" xmlns:xlink="http://www.w3.org/1999/xlink" width="250" zoomAndPan="magnify" viewBox="0 0 187.5 187.499992" height="250" preserveAspectRatio="xMidYMid meet" version="1.0"><defs><clipPath id="id1"><path d="M 0 0 L 187 0 L 187 187 L 0 187 Z M 0 0 " clip-rule="nonzero"/></clipPath><clipPath id="id2"><path d="M 69.246094 144.3125 L 94 144.3125 L 94 168.667969 L 69.246094 168.667969 Z M 69.246094 144.3125 " clip-rule="nonzero"/></clipPath><clipPath id="id3"><path d="M 19.5 86 L 48 86 L 48 115 L 19.5 115 Z M 19.5 86 " clip-rule="nonzero"/></clipPath><clipPath id="id4"><path d="M 64 18.75 L 97 18.75 L 97 51 L 64 51 Z M 64 18.75 " clip-rule="nonzero"/></clipPath></defs><g clip-path="url(#id1)"><path fill="rgb(100%, 100%, 100%)" d="M 0 0 L 187.5 0 L 187.5 195 L 0 195 Z M 0 0 " fill-opacity="1" fill-rule="nonzero"/><path fill="rgb(53.329468%, 70.979309%, 59.21936%)" d="M 0 0 L 187.5 0 L 187.5 187.5 L 0 187.5 Z M 0 0 " fill-opacity="1" fill-rule="nonzero"/><path fill="rgb(100%, 100%, 100%)" d="M 0 0 L 187.5 0 L 187.5 187.5 L 0 187.5 Z M 0 0 " fill-opacity="1" fill-rule="nonzero"/><path fill="rgb(53.329468%, 70.979309%, 59.21936%)" d="M 0 0 L 187.5 0 L 187.5 187.5 L 0 187.5 Z M 0 0 " fill-opacity="1" fill-rule="nonzero"/></g><path fill="rgb(96.859741%, 36.859131%, 18.429565%)" d="M 48.761719 124.214844 C 41.535156 124.214844 35.671875 130.078125 35.671875 137.304688 C 35.671875 144.53125 41.535156 150.394531 48.761719 150.394531 C 55.992188 150.394531 61.855469 144.53125 61.855469 137.304688 C 61.855469 130.078125 55.992188 124.214844 48.761719 124.214844 " fill-opacity="1" fill-rule="nonzero"/><path fill="rgb(96.859741%, 36.859131%, 18.429565%)" d="M 147.707031 72.148438 C 147.707031 76.214844 151.007812 79.515625 155.074219 79.515625 C 159.136719 79.515625 162.4375 76.214844 162.4375 72.148438 C 162.4375 68.058594 159.136719 64.757812 155.074219 64.757812 C 151.007812 64.757812 147.707031 68.058594 147.707031 72.148438 " fill-opacity="1" fill-rule="nonzero"/><g clip-path="url(#id2)"><path fill="rgb(96.859741%, 36.859131%, 18.429565%)" d="M 81.710938 144.394531 C 75 144.394531 69.574219 149.824219 69.574219 156.53125 C 69.574219 163.242188 75 168.667969 81.710938 168.667969 C 88.417969 168.667969 93.847656 163.242188 93.847656 156.53125 C 93.847656 149.824219 88.417969 144.394531 81.710938 144.394531 " fill-opacity="1" fill-rule="nonzero"/></g><g clip-path="url(#id3)"><path fill="rgb(96.859741%, 36.859131%, 18.429565%)" d="M 47.589844 100.949219 C 47.589844 93.203125 41.289062 86.902344 33.546875 86.902344 C 25.800781 86.902344 19.5 93.203125 19.5 100.949219 C 19.5 108.695312 25.800781 114.996094 33.546875 114.996094 C 41.289062 114.996094 47.589844 108.695312 47.589844 100.949219 " fill-opacity="1" fill-rule="nonzero"/></g><path fill="rgb(96.859741%, 36.859131%, 18.429565%)" d="M 144.980469 62.222656 C 148.527344 62.222656 151.417969 59.359375 151.417969 55.8125 C 151.417969 52.265625 148.527344 49.378906 144.980469 49.378906 C 141.4375 49.378906 138.574219 52.265625 138.574219 55.8125 C 138.574219 59.359375 141.4375 62.222656 144.980469 62.222656 " fill-opacity="1" fill-rule="nonzero"/><path fill="rgb(96.859741%, 36.859131%, 18.429565%)" d="M 107.78125 91.703125 L 105.789062 91.703125 L 105.789062 100.023438 L 107.78125 100.023438 L 107.78125 91.703125 " fill-opacity="1" fill-rule="nonzero"/><path fill="rgb(96.859741%, 36.859131%, 18.429565%)" d="M 111.546875 95.496094 L 116.726562 100.351562 L 116.890625 100.351562 L 116.890625 91.703125 L 115.0625 91.703125 L 115.0625 96.285156 L 109.910156 91.429688 L 109.71875 91.429688 L 109.71875 100.023438 L 111.546875 100.023438 L 111.546875 95.496094 " fill-opacity="1" fill-rule="nonzero"/><path fill="rgb(96.859741%, 36.859131%, 18.429565%)" d="M 45.109375 76.242188 C 53.398438 76.242188 60.109375 69.53125 60.109375 61.242188 C 60.109375 52.976562 53.398438 46.269531 45.109375 46.269531 C 36.847656 46.269531 30.136719 52.976562 30.136719 61.242188 C 30.136719 69.53125 36.847656 76.242188 45.109375 76.242188 " fill-opacity="1" fill-rule="nonzero"/><path fill="rgb(96.859741%, 36.859131%, 18.429565%)" d="M 122.699219 100.296875 C 123.191406 100.296875 123.710938 100.214844 124.226562 100.078125 C 124.773438 99.941406 125.292969 99.722656 125.863281 99.449219 L 125.863281 95.414062 L 122.316406 95.414062 L 122.316406 97.105469 L 123.898438 97.105469 L 123.898438 98.304688 C 123.710938 98.359375 123.519531 98.414062 123.355469 98.441406 C 123.164062 98.46875 123 98.496094 122.835938 98.496094 C 122.074219 98.496094 121.472656 98.25 121.007812 97.734375 C 120.546875 97.242188 120.300781 96.585938 120.300781 95.824219 C 120.300781 95.058594 120.546875 94.433594 121.035156 93.941406 C 121.527344 93.449219 122.128906 93.203125 122.890625 93.203125 C 123.300781 93.203125 123.710938 93.285156 124.089844 93.476562 C 124.472656 93.640625 124.855469 93.941406 125.238281 94.324219 L 125.453125 92.25 C 125.046875 91.976562 124.609375 91.757812 124.171875 91.621094 C 123.734375 91.488281 123.273438 91.429688 122.78125 91.429688 C 121.472656 91.429688 120.410156 91.839844 119.5625 92.6875 C 118.71875 93.53125 118.28125 94.597656 118.28125 95.878906 C 118.28125 97.160156 118.691406 98.195312 119.535156 99.039062 C 120.382812 99.886719 121.417969 100.296875 122.699219 100.296875 " fill-opacity="1" fill-rule="nonzero"/><path fill="rgb(96.859741%, 36.859131%, 18.429565%)" d="M 74.019531 91.703125 L 74.019531 100.023438 L 79.253906 100.023438 L 79.253906 98.25 L 76.007812 98.25 L 76.007812 91.703125 L 74.019531 91.703125 " fill-opacity="1" fill-rule="nonzero"/><path fill="rgb(96.859741%, 36.859131%, 18.429565%)" d="M 155.945312 108.230469 C 150.816406 108.230469 146.671875 112.402344 146.671875 117.53125 C 146.671875 122.660156 150.816406 126.804688 155.945312 126.804688 C 161.074219 126.804688 165.21875 122.660156 165.21875 117.53125 C 165.21875 112.402344 161.074219 108.230469 155.945312 108.230469 " fill-opacity="1" fill-rule="nonzero"/><path fill="rgb(96.859741%, 36.859131%, 18.429565%)" d="M 140.535156 128.742188 C 134.863281 128.742188 130.28125 133.324219 130.28125 138.96875 C 130.28125 144.613281 134.863281 149.195312 140.535156 149.195312 C 146.183594 149.195312 150.761719 144.613281 150.761719 138.96875 C 150.761719 133.324219 146.183594 128.742188 140.535156 128.742188 " fill-opacity="1" fill-rule="nonzero"/><path fill="rgb(96.859741%, 36.859131%, 18.429565%)" d="M 137.347656 43.59375 C 137.347656 40.570312 134.917969 38.113281 131.890625 38.113281 C 128.863281 38.113281 126.410156 40.570312 126.410156 43.59375 C 126.410156 46.597656 128.863281 49.050781 131.890625 49.050781 C 134.917969 49.050781 137.347656 46.597656 137.347656 43.59375 " fill-opacity="1" fill-rule="nonzero"/><path fill="rgb(96.859741%, 36.859131%, 18.429565%)" d="M 159.683594 85.242188 C 155.074219 85.242188 151.335938 88.976562 151.335938 93.585938 C 151.335938 98.167969 155.074219 101.90625 159.683594 101.90625 C 164.265625 101.90625 168 98.167969 168 93.585938 C 168 88.976562 164.265625 85.242188 159.683594 85.242188 " fill-opacity="1" fill-rule="nonzero"/><path fill="rgb(96.859741%, 36.859131%, 18.429565%)" d="M 115.964844 144.914062 C 109.773438 144.914062 104.78125 149.933594 104.78125 156.09375 C 104.78125 162.285156 109.773438 167.277344 115.964844 167.277344 C 122.128906 167.277344 127.144531 162.285156 127.144531 156.09375 C 127.144531 149.933594 122.128906 144.914062 115.964844 144.914062 " fill-opacity="1" fill-rule="nonzero"/><path fill="rgb(96.859741%, 36.859131%, 18.429565%)" d="M 91.171875 97.378906 L 92.292969 94.785156 L 93.355469 97.378906 Z M 92.320312 91.457031 L 88.0625 100.023438 L 90.054688 100.023438 L 90.601562 98.824219 L 93.980469 98.824219 L 94.5 100.023438 L 96.574219 100.023438 L 92.425781 91.457031 L 92.320312 91.457031 " fill-opacity="1" fill-rule="nonzero"/><path fill="rgb(96.859741%, 36.859131%, 18.429565%)" d="M 82.171875 94.050781 C 82.609375 93.558594 83.128906 93.3125 83.753906 93.3125 C 84.355469 93.3125 84.898438 93.558594 85.308594 94.050781 C 85.71875 94.539062 85.9375 95.140625 85.9375 95.878906 C 85.9375 96.585938 85.71875 97.214844 85.308594 97.675781 C 84.898438 98.167969 84.355469 98.414062 83.753906 98.414062 C 83.128906 98.414062 82.609375 98.167969 82.171875 97.675781 C 81.765625 97.1875 81.546875 96.585938 81.546875 95.878906 C 81.546875 95.140625 81.765625 94.539062 82.171875 94.050781 Z M 82.117188 99.96875 C 82.636719 100.1875 83.183594 100.296875 83.753906 100.296875 C 84.410156 100.296875 85.035156 100.160156 85.636719 99.859375 C 86.207031 99.558594 86.699219 99.125 87.109375 98.605469 C 87.410156 98.222656 87.628906 97.785156 87.761719 97.351562 C 87.898438 96.886719 87.980469 96.394531 87.980469 95.878906 C 87.980469 95.25 87.871094 94.675781 87.679688 94.132812 C 87.464844 93.585938 87.164062 93.121094 86.753906 92.714844 C 86.34375 92.304688 85.882812 91.976562 85.363281 91.757812 C 84.847656 91.542969 84.300781 91.429688 83.753906 91.429688 C 83.183594 91.429688 82.636719 91.542969 82.117188 91.757812 C 81.601562 91.976562 81.164062 92.304688 80.753906 92.6875 C 80.347656 93.121094 80.046875 93.613281 79.828125 94.132812 C 79.609375 94.675781 79.5 95.25 79.5 95.878906 C 79.5 96.476562 79.609375 97.050781 79.828125 97.59375 C 80.046875 98.113281 80.347656 98.605469 80.753906 99.039062 C 81.164062 99.449219 81.628906 99.75 82.117188 99.96875 " fill-opacity="1" fill-rule="nonzero"/><g clip-path="url(#id4)"><path fill="rgb(96.859741%, 36.859131%, 18.429565%)" d="M 80.699219 18.832031 C 71.890625 18.832031 64.773438 25.976562 64.773438 34.785156 C 64.773438 43.59375 71.890625 50.742188 80.699219 50.742188 C 89.507812 50.742188 96.65625 43.59375 96.65625 34.785156 C 96.65625 25.976562 89.507812 18.832031 80.699219 18.832031 " fill-opacity="1" fill-rule="nonzero"/></g><path fill="rgb(96.859741%, 36.859131%, 18.429565%)" d="M 101.644531 97.621094 C 101.15625 98.03125 100.472656 98.25 99.601562 98.25 L 99.164062 98.25 L 99.164062 93.476562 L 99.601562 93.476562 C 100.472656 93.476562 101.15625 93.695312 101.644531 94.132812 C 102.109375 94.539062 102.355469 95.140625 102.355469 95.878906 C 102.355469 96.613281 102.109375 97.1875 101.644531 97.621094 Z M 103.0625 92.820312 C 102.164062 92.085938 100.964844 91.703125 99.410156 91.703125 L 97.199219 91.703125 L 97.199219 100.023438 L 99.410156 100.023438 C 100.0625 100.023438 100.636719 99.96875 101.074219 99.886719 C 101.535156 99.777344 101.945312 99.613281 102.328125 99.394531 C 102.980469 99.011719 103.5 98.523438 103.855469 97.921875 C 104.207031 97.320312 104.371094 96.640625 104.371094 95.878906 C 104.371094 94.597656 103.9375 93.558594 103.0625 92.820312 " fill-opacity="1" fill-rule="nonzero"/></svg>